<?xml version="1.0" encoding="UTF-8"?>
<!DOCTYPE svg PUBLIC "-//W3C//DTD SVG 1.1//EN" "http://www.w3.org/Graphics/SVG/1.1/DTD/svg11.dtd">
<!-- Creator: CorelDRAW -->
<svg xmlns="http://www.w3.org/2000/svg" xml:space="preserve" width="210mm" height="297mm" version="1.1" style="shape-rendering:geometricPrecision; text-rendering:geometricPrecision; image-rendering:optimizeQuality; fill-rule:evenodd; clip-rule:evenodd"
viewBox="0 0 21000 29700"
 xmlns:xlink="http://www.w3.org/1999/xlink">
 <defs>
  <style type="text/css">
   <![CDATA[
    .str1 {stroke:black;stroke-width:10;stroke-miterlimit:3.864;stroke-opacity:0.501961}
    .str3 {stroke:black;stroke-width:50;stroke-miterlimit:22.9256}
    .str5 {stroke:#434242;stroke-width:10;stroke-miterlimit:22.9256}
    .str2 {stroke:#3F3E3F;stroke-width:10;stroke-miterlimit:3.864}
    .str0 {stroke:black;stroke-width:10;stroke-miterlimit:22.9256}
    .str6 {stroke:#2B2A29;stroke-width:7.62;stroke-miterlimit:22.9256}
    .str4 {stroke:black;stroke-width:7.62;stroke-miterlimit:22.9256}
    .fil6 {fill:none}
    .fil0 {fill:#FEFEFE}
    .fil8 {fill:#D9DADA}
    .fil4 {fill:#FEFEFE;fill-rule:nonzero}
    .fil3 {fill:#D9DADA;fill-rule:nonzero}
    .fil7 {fill:#434242;fill-rule:nonzero}
    .fil5 {fill:#2B2A29;fill-rule:nonzero}
    .fil2 {fill:black;fill-rule:nonzero}
    .fil1 {fill:#FEFEFE;fill-rule:nonzero;fill-opacity:0.501961}
   ]]>
  </style>
 </defs>
 <g id="Plan_x0020_1">
  <metadata id="CorelCorpID_0Corel-Layer"/>
  <rect class="fil0" x="1000" y="999.99" width="19000" height="21886.45"/>
  <path class="fil0 str0" d="M2798.17 20677.78c-9.88,1.41 -48.8,45.35 -79.65,68.51 -60.6,45.52 -147.82,57.5 -213.35,96.92 -29.76,17.91 -193.15,94.34 -199.12,118.3 20.89,15.66 89.17,9.84 116.63,15.67 59.99,12.76 108.23,102.33 52.62,146.81 -43.57,34.86 -137.37,-32.43 -130.85,19.95 17.37,12.42 58.32,73.9 58.32,96.92 20.59,106.34 -85.92,228.07 -198.41,203.62 -34.1,-7.41 -192.28,-177.23 -207.32,-207.32 -6.42,1.6 -22.59,62.62 -25.56,73.84 -7.75,29.28 -34.08,53.97 -34.08,85.2 63.04,0 135.72,89.31 187.44,102.24l0 5.68c27.49,9.16 -53.78,79.47 -79.52,88.04 -68.17,22.72 -217.94,119.67 -269.8,167.56 -54.24,50.07 -118.37,42.6 -193.12,42.6 -71.11,0 -95.34,-16.13 -142,-68.16 -13.51,-15.07 -193.83,20.22 -224.36,31.24 -36.15,13.04 -47.88,38.96 -68.16,65.32 -27.04,35.16 -111.87,31.85 -147.88,52.43l0 0 0 -13842.06 0 0 75.75 6.15c3.96,1.53 14.33,3.16 15.64,7.13 32.9,4.69 92.1,99.35 135.12,75.54 110.26,-61.01 90.35,-229.51 236.11,-259.4 43.78,-8.98 123.92,12.21 136.54,-49.88 13.59,-66.8 -9.48,-147.64 24.18,-206.66 36.19,0 83.78,12.82 128.01,12.82 53.83,0 101.83,-49.88 155.03,-49.88 34.88,-7.89 109.96,-39.78 137.96,-32.78 27.31,109.24 145.01,50.25 210.51,78.39 6.17,24.69 81.28,124.12 102.4,138.25 9.21,64.6 -95.68,86.91 -82.49,139.67 41.96,13.98 124.85,181.17 153.61,223.77 41.34,61.21 138.21,229.57 211.92,247.99 35.36,56.79 182.22,16.82 243.22,35.63 65.87,20.32 169.17,105.53 187.74,173.89 1.86,3.74 13.32,36.84 19.92,38.48 1.15,4.61 28.32,7.59 34.13,8.55 13.17,2.17 27.62,19.44 41.25,21.38 55.99,78.54 192.11,38.1 233.26,-34.21 52.24,-7.46 44.56,5.28 92.45,18.53 46.34,12.81 53.91,-24.23 91.03,-24.23 14.62,0 25.79,32.16 41.24,38.48 37.59,15.4 115.09,44.45 146.5,9.98 66.12,-72.54 147.29,-174.61 237.53,-94.07 87.73,78.31 207.54,195.31 310.06,246.57l15.65 -12.83c4.6,-32.28 75.67,-108.94 109.52,-115.44 53.33,-10.23 101.93,50.1 156.45,11.4 29.22,-20.73 49.61,-104.04 88.18,-104.04 12.78,0 172.07,129.63 187.75,145.37 67.97,68.18 52.44,70.66 153.61,85.52 67.94,9.98 57.56,48.63 100.98,81.24 61.2,45.95 150.73,15.53 206.24,75.54 44.32,47.93 104.87,136.65 163.57,161.05 82.31,2.41 146.21,9.09 211.92,58.44 117.43,88.18 206.58,6.87 325.71,38.48 51.97,13.79 100.88,41.4 152.19,54.16 17.88,4.44 114.41,31.09 124.72,38.86 -46.14,27.31 -93.47,52.54 -138.94,78.01 -106.97,59.91 -156.41,193.65 -207.66,300.73 -23.14,48.37 -80.1,102.94 -112.37,149.65 -23.83,34.5 -51.3,87.91 -66.84,124 -20.47,47.54 -53.48,118.13 -72.54,168.18 -32.78,86.04 -64.14,174.06 -82.5,262.25 -18.64,89.55 -60.18,324.54 -184.9,356.31 -7.01,1.79 -14.01,5.45 -21.33,7.13 -66.88,15.35 -188.74,-10.22 -216.19,47.03 -73.7,153.7 -35.04,240.11 -237.53,225.19 -70.32,-5.18 -113.25,-3.53 -109.52,75.54 3.79,80.29 15.2,127.38 -9.95,202.39 -7.07,21.07 -71.95,88.31 -83.92,109.74 -25.1,44.92 -84.3,114.48 -108.1,145.38 -57.83,75.3 -112.44,172.94 -182.05,236.59 -53.44,48.86 -129.8,111.99 -199.13,136.83 -39.1,14 -99.63,32.54 -112.36,74.11 -28.13,91.91 -32.51,166.14 -100.98,243.72 -54.74,62.03 -128.48,146.21 -120.9,233.74 8.36,96.67 25.62,205.88 28.45,307.86 0.23,8.49 3.96,17.04 4.26,25.65 2.71,78.11 34.14,238.68 -34.13,299.31 -19.4,17.22 -63.26,43.59 -88.19,52.73 -10.82,3.96 -25.35,8.29 -35.55,14.25 -4.43,2.59 -10.35,3.64 -11.38,8.55 -1.4,6.63 -5.03,23.44 -6.46,30.1 -14.68,18.64 -6.61,46.56 -21.99,76.8 -47.72,93.85 -59.14,215.62 -54.25,307.73 -2.61,18.22 1.48,34.57 -4.06,42.88 -28.46,42.72 -40.86,112.69 -71.12,159.63 -39.13,60.7 -78.55,144.87 -89.61,216.64 -13.84,89.76 -0.58,170.89 25.61,253.7 15.22,48.15 55.47,152.31 55.47,203.81 0,112.79 -32.89,123.6 -113.79,178.16 -34.63,23.35 -112.69,65.54 -142.23,92.64 -41.51,38.08 -43.84,202.51 -51.2,257.97 -15.11,113.86 -75.19,213.82 -82.5,327.8 -3.15,49.26 -2.48,86.71 -39.82,104.04 -97.59,45.31 -118.91,167.84 -156.46,252.27 -45.64,102.62 -158.74,147.62 -184.9,249.41 -9.96,38.77 9.96,93.46 9.96,133.97 0,61.48 0.36,70.7 -44.09,99.77 -54.42,35.6 -91.95,72.57 -79.65,136.82 20.32,106.21 -54.4,186.81 -34.14,293.6 22,115.96 -4.27,217.94 -4.27,332.08 4.2,49.7 105.88,131.44 133.7,179.58 50.64,87.64 142.12,232.77 116.63,337.78 -17.47,71.97 -69.43,111.4 -109.52,169.6 -44.35,64.38 -40.54,106.89 -58.31,185.28 -20.66,91.13 -113.57,184.17 -143.66,272.22 -28.82,84.33 -53.4,156.82 -22.75,252.27 17.22,53.64 23.85,161.84 -5.69,215.21 -14.11,25.5 -29.75,60.56 -35.56,91.22 -7.57,39.89 -15.18,79.81 -22.76,119.71 -10.74,56.56 -48.82,118.23 -51.2,179.58 -1.63,41.89 -9.96,99.12 -18.49,141.1 -16.49,81.22 30.94,174.62 34.14,256.54 1.78,45.81 7.53,87.25 -9.96,131.13 -49.26,123.61 -104.11,121.71 -110.94,280.77 -7.07,163.88 44.13,259.9 145.08,380.53 77.05,92.07 193.19,198.73 284.46,276.5 29.01,24.71 -46.43,100.31 -46.94,139.67 -0.46,35.14 -0.96,70.31 -1.42,105.47l0 0z"/>
  <path class="fil0 str0" d="M2798.17 20677.78c-9.88,1.41 -48.8,45.35 -79.65,68.51 -60.6,45.52 -147.82,57.5 -213.35,96.92 -29.76,17.91 -193.15,94.34 -199.12,118.3 20.89,15.66 89.17,9.84 116.63,15.67 59.99,12.76 108.23,102.33 52.62,146.81 -43.57,34.86 -137.37,-32.43 -130.85,19.95 17.37,12.42 58.32,73.9 58.32,96.92 20.59,106.34 -85.92,228.07 -198.41,203.62 -34.1,-7.41 -192.28,-177.23 -207.32,-207.32 -6.42,1.6 -22.59,62.62 -25.56,73.84 -7.75,29.28 -34.08,53.97 -34.08,85.2 63.04,0 135.72,89.31 187.44,102.24l0 5.68c27.49,9.16 -53.78,79.47 -79.52,88.04 -68.17,22.72 -217.94,119.67 -269.8,167.56 -54.24,50.07 -118.37,42.6 -193.12,42.6 -71.11,0 -95.34,-16.13 -142,-68.16 -13.51,-15.07 -193.83,20.22 -224.36,31.24 -36.15,13.04 -47.88,38.96 -68.16,65.32 -27.04,35.16 -111.87,31.85 -147.88,52.43l0 0 0 1003.3 12534.76 0 0 0c2.73,-6.94 4.87,-13.89 7.57,-20.8 6.16,-15.7 25.97,-21.59 42.67,-29.93 17.9,-8.95 39.85,-21.39 54.05,-35.63 26.18,-26.24 13.33,-92.26 24.71,-125.89 15.32,-45.27 61.24,-220.77 113.6,-238.56 5.15,-1.75 9.35,-9.41 11.36,-14.2 60.89,-144.58 201.04,-32.6 278.32,-116.44 7.65,-8.31 11.61,-12.78 22.72,-19.88 174.69,-111.62 -37.72,-151.06 -71,-227.2 -9.11,-20.75 -17.45,-44.2 -25.56,-65.32 -4.74,-12.34 -0.26,-61.28 -8.52,-71 -6.61,-7.78 -10.95,-22.74 -14.2,-31.24 -11.6,-30.29 -8.3,-53.48 -0.03,-75.01 4.2,-39.98 -15.7,-94.55 -51.21,-121.26 -44.42,-33.42 -79,-24.76 -100.98,-82.67 -16.22,-42.76 -41.74,-85.89 -83.92,-109.74 -11.63,-6.58 -64.38,-18.57 -66.85,-28.51 -3.59,-1.19 -6.75,-6.5 -12.8,-12.82l-138.82 -197.59 0 0 -12.24 -329.59 -224.38 -25.55 -471.7 -382.04 -299.6 -163.54 -198.89 -121.38 -368.44 -247.88 -443.66 14.05 -59.66 -67.23c-11.85,-6.17 -23.7,-12.37 -35.55,-18.53 -6.2,-3.23 -11.65,-7.65 -17.07,-11.4 -5.66,-3.91 -27.56,-10.91 -35.56,-11.41 -11.8,-0.75 -28.64,0.22 -39.82,2.85 -31.86,7.52 -63.97,17.38 -93.88,29.93 -6.17,2.58 -14.89,6.78 -21.33,7.13 -12.28,0.66 -19.89,0.37 -32.71,2.85l-159.71 -87.51 -8.93 -3.19c-45.82,0 -91.87,-23.6 -137.68,-30.03 -49.94,-7 -98.36,-14.8 -149.17,-14.06 -28.79,0.42 -68.96,12.18 -95.61,4.48 -34.54,2.36 -178.58,42.09 -206.53,55.58 -48.7,23.49 -95.3,65.3 -145.34,82.41 -32.22,42.96 -138.69,58.95 -184.86,85.61 -38.71,22.32 -192.47,70.55 -232.08,44.96l-85.55 -49.11c-12.47,-33.27 11.48,-118.45 22.72,-147.68 23.62,-61.39 -82.72,-83.6 -105.08,-133.48 -23.65,-52.79 36.05,-63.45 73.84,-71 -21.31,-63.95 -148.15,-102.54 -195.96,-144.84 -54.96,-48.64 -133.49,-59.65 -153.36,-139.16 -21.06,0 -120.17,83.61 -139.16,105.08 -39.04,44.11 50.15,210.21 102.24,227.2 53.65,17.51 -1.89,68.74 -25.56,85.2 -35.59,24.73 -99.31,12.96 -127.44,-12.27 -59.74,-53.57 -136.47,-74.91 -162.24,-149.61 -21.61,-62.61 26.49,-125.93 -51.12,-164.72 -61.46,-30.73 -58.83,-56.81 -46.54,-132.49 15.07,-58.34 18.59,-73.38 76.8,-88.37 46.82,-12.06 -0.62,-80.84 -17.07,-98.34 -72.01,-76.55 -248.9,13.37 -248.9,-102.62 0,-79.49 -43.5,-75.03 -98.14,-116.87 -40.47,-31 -29.32,-82.07 -55.47,-108.32l-4.27 0c-77.69,77.96 -29.11,213.58 -69.69,295.03 -59.11,118.66 -104.71,-84.95 -120.9,-101.19 -35.88,-35.96 -41.25,-93.34 -41.25,-141.1 0,-54.35 -111.62,-32.72 -155.03,-49.89 -30.73,-12.16 -64.76,-56.62 -96.72,-58.43 -126.93,-7.2 124.57,260.89 -32.71,236.59 -59.45,-9.19 -69.14,-43.35 -123.87,-2.6 -38.19,14.32 -202.53,85.37 -221.52,28.4 -8.65,0 -22.86,-2.43 -25.56,5.68 -59.37,14.84 -135.13,188.68 -193.12,224.36 -72.84,44.8 13.85,224.36 -93.72,224.36 -9.76,19.53 -144.14,127.7 -164.72,130.64 -1.3,5.21 -0.47,4.38 -5.68,5.68 -22.11,88.46 104.55,211.72 -2.84,238.56l-2.84 2.84c0,15.04 2.56,21.58 5.68,34.08l139.16 62.48c7.52,3.38 126.38,45.44 127.8,51.12 53.7,13.42 5.75,116.44 113.6,116.44 64.54,0 114.06,-39.76 159.04,-39.76 31.34,0 88.92,25.26 113.6,17.04 76.79,-25.59 86.84,-113.67 113.6,-178.92 41.62,-101.52 142.77,36.66 210.16,14.2 153,-50.95 60.9,-134.83 125.74,11.77 13.2,29.84 65.24,29.13 86.76,48.46 37.79,33.94 31.13,108.07 -22.76,118.3 -12.1,2.29 -67.64,82.27 -71.11,8.55 -1.17,-24.86 20.46,-67.46 0,-88.37 -42.49,-42.76 -83.76,130.06 -72.54,175.31 13.54,54.62 59.28,135.87 12.8,182.43 -21.91,21.95 -31.8,50.82 -47.34,71.88 -64.9,6.62 -164.93,1.84 -173.43,-17.13 -10.49,-23.4 4.33,-89.34 0,-119.28 -19.56,-134.96 -187.1,-82.12 -267.09,-52.34 -8.35,0 -45.36,42.68 -73.96,47.03 -28.6,4.34 -45.81,-15.76 -72.53,-14.25 -67.48,3.82 -55.98,105.73 -100.99,126.85 -28.58,13.4 -56.24,10.68 -21.33,57.01 37.87,50.26 95.12,99.29 146.64,123.3 -20.54,3.53 -40.51,12.59 -59.88,30.63 -46.8,43.58 -102.19,34.09 -137.97,42.76 -64.48,15.63 -105.76,50.48 -180.63,-1.43 -49.64,-34.42 -84.61,-93.77 -143.65,-31.36 -3.83,4.05 -42.6,60.58 -52.63,64.14 -59.48,21.16 -141.79,-25.85 -211.92,-32.78 -32.74,-3.24 -73.75,5.33 -103.83,-11.4 -15.88,-8.83 -28.66,-50.05 -42.67,-65.56 -32.53,-36.01 -103.83,-68.52 -103.83,-119.73 0,-39.43 5.48,-69.35 -11.38,-104.04 -22.48,-46.24 -117.23,8.76 -142.23,-18.53 -67.16,-73.29 -30.53,-30.89 -110.94,-27.08 -54.59,2.58 -106.83,116.03 -137.58,27.32 -12.67,-36.56 -28.14,-64.47 -54.43,-64.47 -49.81,0 -90.38,7.36 -113.79,55.59 -25.42,52.38 -75.06,75.95 -123.74,109.74 -54.92,38.12 -123.37,2.46 -153.61,84.09 -12.33,33.3 -128.19,19.95 -156.45,45.6 -51.18,46.47 -49.57,167.47 -115.21,192.41 -75.43,28.66 -79.84,-90.85 -176.37,-19.95 -40.08,29.43 -109.77,75.41 -162.14,72.68 -44.37,-2.31 -68,-16.79 -103.83,-37.05 -36.99,-20.91 -79.52,2.19 -119.48,-4.28 -95.63,-15.47 -141.1,-42.75 -177.79,69.84 -1.94,5.98 -11.85,6.09 -15.64,9.98 -15.2,15.58 -154.89,-4.17 -177.79,-14.26 -56.16,-24.75 -52.35,-96.18 -44.09,-146.8 18.88,-115.73 -83.99,-195.54 -192.01,-178.15 -79.06,12.72 -157.9,88.21 -223.31,22.8 -32.76,-32.76 -56.88,-26.42 -86.76,18.53 -26.25,39.5 -20.41,104.79 -45.51,146.8 -61.36,102.69 -211.05,130.51 -317.18,171.03 -40.41,15.42 -67.49,1.42 -106.67,1.42 -68.68,0 -72.54,12.94 -125.17,55.59 -52.11,42.24 -141.04,78.15 -197.7,21.38 -12.96,-12.99 -40.54,-73.8 -49.78,-78.39 -2.61,-1.29 -64.75,-33.02 -78.23,-42.76 0.57,-26.74 111.81,-64.6 130.86,-78.28 57.76,-41.48 58.28,-56.23 44.09,-121.15 -9.6,-43.9 -12.11,-90.65 5.69,-132.55 9.71,-22.85 27.65,-37.41 21.33,-62.71 -43.91,-10.97 -92.48,32.3 -130.85,45.61 -55.39,19.21 -26.64,-80.28 -100.98,-21.38 -37.49,29.69 -80.86,58.02 -116.63,88.36 -18.77,15.93 -158.43,68.69 -182.06,82.57l0 0z"/>
  <path class="fil0 str0" d="M16943.05 22886.45c22.4,-44.96 101.55,-101.99 89.64,-161.9 -8.16,-2.72 -34.92,-26.92 -42.67,-34.21 -16.26,-15.27 -34.32,-24.46 -36.98,-49.88 -5.39,-51.56 37.8,-91.33 66.85,-129.7 30,-48.17 145.07,-148.63 145.07,-196.68 0,-101.3 -9.46,-180.21 -119.47,-114.02 -69.08,41.57 -101.75,-30.65 -142.23,-71.27 -7.9,0 -71.71,37.89 -78.23,45.61 -29.12,34.42 -15.5,85.31 -8.53,125.42 8.15,46.95 -151.71,69.68 -190.59,39.91 -19.87,-15.22 -86.81,-92.78 -115.21,-81.24 -43.34,17.62 -69.11,159.4 -102.41,151.08l-1.42 -1.43 -61.16 -212.36c-26.94,-93.52 0.41,-140.84 -72.54,-213.79 0,-71.66 82.61,-60.41 128.01,-75.54 8.19,-40.97 42.01,-49.81 31.29,-98.34 -11.84,-53.64 -29.1,-81.22 -32.71,-141.1 -32.75,-65.74 -43.37,-72.72 -115.21,-54.16 -40.06,10.35 -100.74,-40.9 -116.63,-79.82 -13.14,-32.21 26.29,-61.66 0,-85.51 -18.48,-16.78 -71.59,-85.52 -95.29,-85.52 -67.32,0 -110.46,62.55 -189.17,51.31 -70.47,-98.86 17.96,-176.94 -91.03,-250.84 -132,-89.49 -88.18,-115.54 -88.18,-252.27l-2.85 -2.85 -2.84 0c-1.82,1.82 -1.95,2.27 -4.27,2.85 -28.96,58.12 -69.48,68.88 -123.74,72.69 -55.58,3.9 -109.36,78.56 -157.88,5.7 -8.61,-34.56 -106.64,-125.24 -142.23,-126.85 -64.45,-2.91 -64,135.89 -64,179.58 -57.36,65.66 -179.16,-121.92 -233.26,-151.08 -13.94,-7.52 -65.13,-14.54 -68.27,-24.23 -7.7,-23.68 15.55,-61.74 14.22,-92.64 -2.31,-53.38 3.34,-97.63 11.38,-149.65 11.78,-76.29 -75.67,-94.43 -139.39,-101.19 -111.97,-11.88 -169.3,28.47 -224.72,125.42 -24.32,42.53 -55.79,76.56 -76.81,116.87 -21.84,41.91 -12.1,97.56 -46.94,128.27l-8.67 112.24 -918.11 257.43 0 0 138.82 197.59c6.05,6.32 9.21,11.63 12.8,12.82 2.47,9.94 55.22,21.93 66.85,28.51 42.18,23.85 67.7,66.98 83.92,109.74 21.98,57.91 56.56,49.25 100.98,82.67 35.51,26.71 55.41,81.28 51.21,121.26 -8.27,21.53 -11.57,44.72 0.03,75.01 3.25,8.5 7.59,23.46 14.2,31.24 8.26,9.72 3.78,58.66 8.52,71 8.11,21.12 16.45,44.57 25.56,65.32 33.28,76.14 245.69,115.58 71,227.2 -11.11,7.1 -15.07,11.57 -22.72,19.88 -77.28,83.84 -217.43,-28.14 -278.32,116.44 -2.01,4.79 -6.21,12.45 -11.36,14.2 -52.36,17.79 -98.28,193.29 -113.6,238.56 -11.38,33.63 1.47,99.65 -24.71,125.89 -14.2,14.24 -36.15,26.68 -54.05,35.63 -16.7,8.34 -36.51,14.23 -42.67,29.93 -2.7,6.91 -4.84,13.86 -7.57,20.8l0 0 3408.29 0 0 0zm542.13 0.3l70.92 -62.43c115.55,3.39 155.85,31.57 189.17,-102.62 37.81,-152.32 184.59,-193.62 213.34,-344.91 16.76,-88.23 39.61,-91.15 113.79,-128.28 89.71,-44.92 81.81,5.71 162.14,5.71 6.31,-8.44 -25.67,-134.55 -24.18,-162.48 2.21,-41.52 29.56,-107.27 61.16,-132.55 44.19,-25.3 54.03,-82.61 96.72,-114.02 22.75,-16.75 86.7,-17.02 68.27,-61.29 -16.34,-39.28 -34.36,-144.6 -25.6,-186.71 11.3,-54.25 36.21,-94.44 11.38,-152.5 -2.06,-1.03 -2.59,-2.16 -4.27,-4.28 -2.84,-0.71 -16.38,-10.71 -18.49,-12.82 -20.81,-2.6 -94.22,-46.53 -110.94,-59.87 -52.34,-41.74 -86.74,-109.11 -44.09,-169.6 27.03,-38.32 20.8,-171.66 45.51,-188.13 3.62,-6.77 16.36,-46.33 18.49,-47.04 0,-5.79 2.85,-9.18 2.85,-14.25 2.02,-0.67 5.69,-19.94 5.69,-24.23 2.37,-0.79 1.42,-2.9 1.42,-5.7 68.25,-22.75 -61.62,-183.22 -69.69,-196.69 -26.7,-44.61 -37.58,-156.06 39.82,-141.1 55.27,10.69 111.83,-21.83 159.3,-9.97l1.42 1.42c0,75.32 -62.86,124.2 -31.29,218.07 53.14,157.95 176.62,179.02 324.29,196.68 50.46,6.03 101.27,-12.94 149.34,-2.85 142.94,30 76.28,-49.04 129.43,-149.65 46.73,-88.44 77.91,-32.78 152.19,-32.78 53.01,0 91.03,-25.89 145.08,-7.13 76.56,26.56 199.3,2.08 280.19,-1.42 34.46,-1.49 27.03,30.84 27.03,57.01 0,50.7 51.91,59.13 81.07,88.36 40.05,7.07 78.93,9.47 119.47,14.25 23.63,2.79 85.47,14.48 99.57,34.21 18.25,7.3 61.33,63.04 74.32,77.94l0 0 0 1821.65 0 0 -2514.82 0 0 0z"/>
  <path class="fil0 str0" d="M1000 4244.05l60.1 96.1c97.35,66.15 12.97,191.49 96.72,249.42 59.2,40.96 166.95,62.99 153.61,156.78 -24.11,12.05 -61.84,-17.78 -95.3,0 -24.73,13.15 -15.15,39.12 -34.13,55.58 -90.3,78.33 116.63,256.31 116.63,362.02 0,103.91 -192.28,126.6 -246.06,193.83 -45.89,38.92 -22.56,108.53 -18.49,162.48 5.63,74.48 228.17,-9.23 187.74,202.39 -6.95,36.39 -37.64,90.75 0,116.87 53.79,37.34 179.36,55.91 246.06,58.43 75.9,2.86 113.29,21.09 126.59,98.35 18.95,110.02 115.08,-8.55 179.21,-8.55 70.93,0 -29.87,128.8 -29.87,169.6l1.42 1.43 4.27 0c4.71,-6.62 49.84,-48.18 55.47,-25.66 4.21,2.1 7.89,82.49 5.69,88.37 0,26.64 -35.75,76.67 -48.36,106.89 -10.85,26.03 -14.8,48.06 -41.24,61.29 -10.32,5.17 -31.3,10.19 -31.3,22.8 151.81,37.81 50.5,122.96 44.1,229.47 -5.83,97.13 -86.45,84.09 -163.57,84.09 -72.35,0 -54.24,70.49 -95.29,72.69 -74.41,3.98 -62.31,33.09 -59.74,89.79 1.14,25.35 0.31,96.84 -25.6,111.17 -16.13,8.93 -82.18,-70.2 -99.57,-31.36 -19.89,44.4 -5.2,55.91 -46.93,92.65 0.39,-2.4 1.08,-3.54 0,-5.71 -89.01,89.33 49.19,116.34 14.22,176.74 -30.02,51.83 -47.14,114.26 9.96,149.65 61.28,37.97 165.13,97.57 179.21,176.73 5.74,32.32 9.62,89.91 34.13,112.6 24.56,22.74 100.86,41.98 124.17,65.38l0 0c0.31,28.81 0.72,57.65 -4.69,84.27 -12.62,62.09 -92.76,40.9 -136.54,49.88 -145.76,29.89 -125.85,198.39 -236.11,259.4 -43.02,23.81 -102.22,-70.85 -135.12,-75.54 -1.31,-3.97 -11.68,-5.6 -15.64,-7.13l-75.75 -6.15 0 0 0 -3797.04 0 0z"/>
  <path class="fil0 str0" d="M6831.01 1000c24.34,71.51 73.38,132.01 73.38,213.13 0,70.03 4.36,128.48 34.14,190.99 41.61,87.34 -37.8,153.84 -42.67,235.16 -3.07,51.35 20.81,204.57 82.49,229.47 26.11,10.54 128.13,26.23 155.03,72.69 23.9,41.27 -25.4,96.85 -34.13,142.52 -17.69,92.43 6.68,189.41 79.65,257.98 99.21,93.23 65.09,268.72 159.3,343.48 24.73,19.63 185.32,-0.62 219.03,-7.12 33.61,-6.47 165.09,19.71 92.45,72.68 -53.86,39.16 -142.68,111.22 -167.83,175.31 -39.3,100.12 -134.96,119.44 -219.04,203.81 -0.94,0.94 -1.91,1.91 -2.84,2.85 -79.24,79.52 -295.84,147.36 -295.84,263.68 0,134.4 117.5,260.18 128.01,390.52 4.41,54.81 31.21,85.23 55.47,133.97 14.81,29.76 62.63,61.76 75.38,92.64 24.47,59.43 87.98,145.49 105.08,224.23l0 0c4.79,22.04 5.94,43.52 1.59,63.68 -10.29,47.57 -49.78,81.54 -49.78,132.54 0,45.75 36.78,114 62.58,152.51 27.9,41.64 45.02,142.56 54.05,192.41 14.97,82.71 23.99,158.69 68.27,230.89 18.47,30.13 144.99,177.66 66.85,206.66 -20.36,7.57 -96.72,51.91 -96.72,76.97 0,48.56 11.66,65.58 48.36,94.06 51.54,40 338.62,-65.47 314.33,78.39 -10.48,62.05 -48.36,114.16 -61.16,176.73 -24.06,117.64 -184.9,162.11 -184.9,285.06 0,144.58 98.13,-11.19 130.86,-29.94 18.7,-10.71 71.07,-72.59 85.33,-32.78 16.33,45.58 -12.08,165.31 -32.71,209.52 -30.9,66.18 -105.77,144.1 -159.3,199.53 -35.06,36.3 -92.43,86.63 -83.91,142.53 5.66,37.14 87.5,52.84 112.36,69.84 18.73,12.8 38.64,54.4 49.78,71.26 14.49,21.93 23.6,76.76 8.53,95.49 -38.42,47.75 -109.28,64.72 -142.23,124 -39.61,71.27 -139.9,168.96 -211.92,208.09 -106.09,57.65 -168.91,88.94 -172.1,220.91 -1.08,44.54 14.22,98.95 14.22,146.8 0,39.92 5.41,86.57 -4.27,125.43 -11.97,48.02 -65.27,88.16 -85.34,135.4 -21.07,49.59 -48.01,87.36 -14.22,121.14 0.94,0.94 1.91,1.91 2.85,2.85 32.76,32.65 22.03,111.57 14.22,143.95 -18.18,75.28 -42.54,140.5 -45.51,219.49 -4.91,130.78 -52.96,183.78 -132.28,282.2 -39.69,49.26 -69.44,84.06 -102.41,138.25 -28.39,46.66 -47.81,115.74 -73.96,159.63 -7.3,12.26 -12.14,37.08 -14.22,52.74 -12.29,92.2 -24.83,191.42 -62.58,273.65 -30.98,67.48 -86.21,134.76 -142.23,190.98 -52.48,52.67 -110.33,91.86 -175.39,130.08l0 0c-10.31,-7.77 -106.84,-34.42 -124.72,-38.86 -51.31,-12.76 -100.22,-40.37 -152.19,-54.16 -119.13,-31.61 -208.28,49.7 -325.71,-38.48 -65.71,-49.35 -129.61,-56.03 -211.92,-58.44 -58.7,-24.4 -119.25,-113.12 -163.57,-161.05 -55.51,-60.01 -145.04,-29.59 -206.24,-75.54 -43.42,-32.61 -33.04,-71.26 -100.98,-81.24 -101.17,-14.86 -85.64,-17.34 -153.61,-85.52 -15.68,-15.74 -174.97,-145.37 -187.75,-145.37 -38.57,0 -58.96,83.31 -88.18,104.04 -54.52,38.7 -103.12,-21.63 -156.45,-11.4 -33.85,6.5 -104.92,83.16 -109.52,115.44l-15.65 12.83c-102.52,-51.26 -222.33,-168.26 -310.06,-246.57 -90.24,-80.54 -171.41,21.53 -237.53,94.07 -31.41,34.47 -108.91,5.42 -146.5,-9.98 -15.45,-6.32 -26.62,-38.48 -41.24,-38.48 -37.12,0 -44.69,37.04 -91.03,24.23 -47.89,-13.25 -40.21,-25.99 -92.45,-18.53 -41.15,72.31 -177.27,112.75 -233.26,34.21 -13.63,-1.94 -28.08,-19.21 -41.25,-21.38 -5.81,-0.96 -32.98,-3.94 -34.13,-8.55 -6.6,-1.64 -18.06,-34.74 -19.92,-38.48 -18.57,-68.36 -121.87,-153.57 -187.74,-173.89 -61,-18.81 -207.86,21.16 -243.22,-35.63 -73.71,-18.42 -170.58,-186.78 -211.92,-247.99 -28.76,-42.6 -111.65,-209.79 -153.61,-223.77 -13.19,-52.76 91.7,-75.07 82.49,-139.67 -21.12,-14.13 -96.23,-113.56 -102.4,-138.25 -65.5,-28.14 -183.2,30.85 -210.51,-78.39 -28,-7 -103.08,24.89 -137.96,32.78 -53.2,0 -101.2,49.88 -155.03,49.88 -44.23,0 -91.82,-12.82 -128.01,-12.82 -20.25,35.5 -19.97,78.91 -19.49,122.39l0 0c-23.31,-23.4 -99.61,-42.64 -124.17,-65.38 -24.51,-22.69 -28.39,-80.28 -34.13,-112.6 -14.08,-79.16 -117.93,-138.76 -179.21,-176.73 -57.1,-35.39 -39.98,-97.82 -9.96,-149.65 34.97,-60.4 -103.23,-87.41 -14.22,-176.74 1.08,2.17 0.39,3.31 0,5.71 41.73,-36.74 27.04,-48.25 46.93,-92.65 17.39,-38.84 83.44,40.29 99.57,31.36 25.91,-14.33 26.74,-85.82 25.6,-111.17 -2.57,-56.7 -14.67,-85.81 59.74,-89.79 41.05,-2.2 22.94,-72.69 95.29,-72.69 77.12,0 157.74,13.04 163.57,-84.09 6.4,-106.51 107.71,-191.66 -44.1,-229.47 0,-12.61 20.98,-17.63 31.3,-22.8 26.44,-13.23 30.39,-35.26 41.24,-61.29 12.61,-30.22 48.36,-80.25 48.36,-106.89 2.2,-5.88 -1.48,-86.27 -5.69,-88.37 -5.63,-22.52 -50.76,19.04 -55.47,25.66l-4.27 0 -1.42 -1.43c0,-40.8 100.8,-169.6 29.87,-169.6 -64.13,0 -160.26,118.57 -179.21,8.55 -13.3,-77.26 -50.69,-95.49 -126.59,-98.35 -66.7,-2.52 -192.27,-21.09 -246.06,-58.43 -37.64,-26.12 -6.95,-80.48 0,-116.87 40.43,-211.62 -182.11,-127.91 -187.74,-202.39 -4.07,-53.95 -27.4,-123.56 18.49,-162.48 53.78,-67.23 246.06,-89.92 246.06,-193.83 0,-105.71 -206.93,-283.69 -116.63,-362.02 18.98,-16.46 9.4,-42.43 34.13,-55.58 33.46,-17.78 71.19,12.05 95.3,0 13.34,-93.79 -94.41,-115.82 -153.61,-156.78 -83.75,-57.93 0.63,-183.27 -96.72,-249.42l-60.1 -96.1 0 0 0 -3244.05 5831.01 0 0 0z"/>
  <path class="fil0 str0" d="M11014.88 4261.76l-1.42 39.91c0,24.61 22.76,119.66 -19.92,105.46 -39.74,-13.21 -111.46,-132.54 -135.12,-132.54 -14.52,43.57 17.53,99.42 34.14,141.1 11.21,28.16 19.73,82.57 34.13,104.04 17.3,25.81 46.54,45.28 71.12,64.14 42.11,32.29 81.49,61.74 120.9,96.91 82.4,73.56 -2.19,87.42 -36.98,149.66 -37.97,67.95 -73.16,-128.2 -108.1,-138.25 -38.06,-10.96 -93.19,8.79 -133.7,5.7 -14.89,-1.14 -27,-16.32 -41.24,-5.7 -32.68,24.35 -57.78,105.32 -82.5,141.1l-4.27 0c-34.48,43.1 -9.95,118.18 -85.33,104.04 -69.53,-13.05 -57.91,-24.01 -133.7,-14.25 -105.34,13.58 -145.78,-153.36 -219.04,-32.78 -37.09,61.04 -61.16,69.93 -61.16,151.07 0,35.73 -34.32,32.06 -41.24,4.28 -3.33,-2.38 -5.61,-4.76 -7.12,-8.55 -3.59,-1.54 -4.77,-1.43 -8.53,-1.43 -56.41,75.48 -59.36,154.23 24.38,209.68 -18.15,8.09 -33.54,16.92 -43.7,25.33 -33.21,27.53 -17.89,69.17 -53.96,102.24 -48.06,44.06 -84.22,-37.9 -113.6,-8.52 -0.95,0.95 -1.9,1.9 -2.84,2.84 -64.1,64.1 -159.19,239.65 -201.64,315.24 -58.28,103.77 -117.15,20.14 -147.68,-28.4 -8.56,-13.61 -26.28,-9.92 -34.08,2.84 -20.11,32.9 -44.51,108.92 -73.84,107.92 -9.87,-0.34 -19.73,-0.69 -29.6,-1.02 -8.41,-2.87 -19.05,-1.67 -24.64,-9.82 -21.54,-24.41 -85.34,-97.42 -85.34,-126.84 3.01,-3.03 3.67,-2.91 4.27,-7.13 53.04,-30.42 217.09,-88.44 206.23,-151.08l-46.93 -270.8c-12.64,-72.9 92.28,-100.41 130.85,-168.18 52.36,0 59.13,159.93 76.8,190.99 2.34,0.58 2.44,1.01 4.27,2.85l2.85 0 135.12 -141.1c65.65,-68.55 22.88,-103.08 11.37,-183.86 -3.59,-2.06 -5.63,-4.22 -8.53,-7.13 -32.23,0 -53.79,11.45 -89.61,0 -81.91,-61.43 -195.24,74.56 -246.06,76.97 -56.7,2.7 -75.48,-135.97 -68.27,-181.01 11.37,-70.94 14.13,-81.67 -64,-72.69 -110.53,12.7 -22.64,140.21 -177.79,49.88 -26.25,-15.29 -56.15,18.73 -110.94,-4.27 -32.76,-13.76 -71.09,-59.36 -100.99,-17.1 -51.25,72.45 -65.6,-76.9 -73.96,-96.92 -27.14,-65.01 -92.98,20.41 -88.18,-95.49 4.44,-107.02 -100.98,-44.67 -100.98,-175.31 0,-68.67 -58.32,-198.48 14.22,-229.47 71.58,-30.59 -15.93,-157.68 -55.47,-186.71 -33.39,-24.53 46.11,-56.81 41.25,-81.24 -50.33,-12.54 -261.91,44.02 -304.38,76.97 -69.6,5.34 -156.41,7.87 -196.28,68.41 -39.76,60.35 -3.79,141.52 58.32,172.46l28.44 183.85c9.46,61.23 58.28,132.9 55.47,192.41 -2.73,57.61 -56.99,71.65 -93.87,101.2 -30.58,24.49 -108.09,110.81 -142.23,82.66 -26.24,-21.65 -43.57,-18.59 -75.38,-15.67 -38.27,3.51 -31.09,10.03 -62.58,-5.71 -1.47,-10.35 -26.79,-28.16 -34.14,-34.2 -40.65,-49.01 -47.91,-60.93 -65.43,-122.57 -9.89,-34.78 -71.9,-118.08 -103.83,-132.55 -9.12,-25.18 -57.89,-103.53 -76.8,-121.15 -38.72,-36.06 -95.68,-38.22 -129.43,-82.67 -10.61,-13.96 -30.35,-55.96 -41.25,-62.71 -30,-18.6 -70.48,9.02 -102.41,-22.8 -35.75,0 -112.76,68.15 -150.93,81.7l0 0c-17.1,-78.74 -80.61,-164.8 -105.08,-224.23 -12.75,-30.88 -60.57,-62.88 -75.38,-92.64 -24.26,-48.74 -51.06,-79.16 -55.47,-133.97 -10.51,-130.34 -128.01,-256.12 -128.01,-390.52 0,-116.32 216.6,-184.16 295.84,-263.68 0.93,-0.94 1.9,-1.91 2.84,-2.85 84.08,-84.37 179.74,-103.69 219.04,-203.81 25.15,-64.09 113.97,-136.15 167.83,-175.31 72.64,-52.97 -58.84,-79.15 -92.45,-72.68 -33.71,6.5 -194.3,26.75 -219.03,7.12 -94.21,-74.76 -60.09,-250.25 -159.3,-343.48 -72.97,-68.57 -97.34,-165.55 -79.65,-257.98 8.73,-45.67 58.03,-101.25 34.13,-142.52 -26.9,-46.46 -128.92,-62.15 -155.03,-72.69 -61.68,-24.9 -85.56,-178.12 -82.49,-229.47 4.87,-81.32 84.28,-147.82 42.67,-235.16 -29.78,-62.51 -34.14,-120.96 -34.14,-190.99 0,-81.12 -49.04,-141.62 -73.38,-213.13l0 0 3752.81 0 0 0 -9.86 101.25c16.08,63.56 11.07,134.17 39.83,194.55 15.04,31.56 10.01,68.48 5.68,101.19 -3.44,26.02 -32.71,46.76 -32.71,69.84 97.93,0 68.84,207.05 86.76,275.07 11.53,43.76 -20.53,107.88 -1.42,135.4 38.97,56.15 11.38,62.69 11.38,118.3 -17.13,55.81 11.64,47.95 46.93,29.93 32.39,-16.55 61.35,-9.08 96.72,-19.95 73.69,-22.67 107.26,-86.73 91.03,14.25 -7.06,43.94 0.7,87.23 -2.84,131.12 -6.91,85.47 -50.68,76.63 -18.49,165.33l56.89 156.78c0.58,3.53 0.64,2.76 2.84,5.7 16,0 96.44,-38.7 108.1,-52.73 34.34,0 51.02,18.52 79.65,18.52 44.06,0 57.94,71.84 55.47,109.75 -2.9,44.37 -124.55,53.01 -142.23,84.09 -15.24,2.17 -11.14,102.5 -2.85,114.02 13.07,18.19 109.67,39.33 133.7,42.76 11.81,23.62 56.99,50.04 73.96,79.81 -4.83,56.57 -43.75,103.42 -55.47,161.06 -6.63,32.65 -4.15,65.87 -42.67,62.71 -54.49,-4.46 13.96,117.82 -46.94,131.12 -63.27,13.83 -135.59,62.92 -194.85,82.67 0,50.22 9.99,100.22 7.11,153.92 -4.49,83.92 94.24,47.68 76.8,138.25 -4.58,23.79 4.26,78.56 9.96,102.62 6.77,28.53 -33.3,55.64 -54.05,74.12 -13.02,1.67 -53.1,10.11 -58.31,22.8 -18.05,43.97 -31.35,74.54 -75.39,94.07 -11.84,5.24 0,71 0,82.66 0,18.93 -3.04,51.15 5.69,66.99 5.9,10.69 36.14,13.75 46.94,18.53 28.36,12.54 43.39,11.58 59.74,41.33 8.76,15.96 19.94,31.41 24.18,48.46l1.42 1.42c3.16,0.79 2.84,1.18 2.84,4.28 5.62,1.4 11.38,22.7 11.38,28.51l34.14 71.26 0 0z"/>
  <path class="fil0 str0" d="M13503.63 20933.17l12.24 329.59 0 0 918.11 -257.43 8.67 -112.24c34.84,-30.71 25.1,-86.36 46.94,-128.27 21.02,-40.31 52.49,-74.34 76.81,-116.87 55.42,-96.95 112.75,-137.3 224.72,-125.42 63.72,6.76 151.17,24.9 139.39,101.19 -8.04,52.02 -13.69,96.27 -11.38,149.65 1.33,30.9 -21.92,68.96 -14.22,92.64 3.14,9.69 54.33,16.71 68.27,24.23 54.1,29.16 175.9,216.74 233.26,151.08 0,-43.69 -0.45,-182.49 64,-179.58 35.59,1.61 133.62,92.29 142.23,126.85 48.52,72.86 102.3,-1.8 157.88,-5.7 54.26,-3.81 94.78,-14.57 123.74,-72.69 2.32,-0.58 2.45,-1.03 4.27,-2.85l2.84 0 2.85 2.85c0,136.73 -43.82,162.78 88.18,252.27 108.99,73.9 20.56,151.98 91.03,250.84 78.71,11.24 121.85,-51.31 189.17,-51.31 23.7,0 76.81,68.74 95.29,85.52 26.29,23.85 -13.14,53.3 0,85.51 15.89,38.92 76.57,90.17 116.63,79.82 71.84,-18.56 82.46,-11.58 115.21,54.16 3.61,59.88 20.87,87.46 32.71,141.1 10.72,48.53 -23.1,57.37 -31.29,98.34 -45.4,15.13 -128.01,3.88 -128.01,75.54 72.95,72.95 45.6,120.27 72.54,213.79l61.16 212.36 1.42 1.43c33.3,8.32 59.07,-133.46 102.41,-151.08 28.4,-11.54 95.34,66.02 115.21,81.24 38.88,29.77 198.74,7.04 190.59,-39.91 -6.97,-40.11 -20.59,-91 8.53,-125.42 6.52,-7.72 70.33,-45.61 78.23,-45.61 40.48,40.62 73.15,112.84 142.23,71.27 110.01,-66.19 119.47,12.72 119.47,114.02 0,48.05 -115.07,148.51 -145.07,196.68 -29.05,38.37 -72.24,78.14 -66.85,129.7 2.66,25.42 20.72,34.61 36.98,49.88 7.75,7.29 34.51,31.49 42.67,34.21 11.91,59.91 -67.24,116.94 -89.64,161.9l0 0.3 542.13 0 0 0 70.92 -62.43c115.55,3.39 155.85,31.57 189.17,-102.62 37.81,-152.32 184.59,-193.62 213.34,-344.91 16.76,-88.23 39.61,-91.15 113.79,-128.28 89.71,-44.92 81.81,5.71 162.14,5.71 6.31,-8.44 -25.67,-134.55 -24.18,-162.48 2.21,-41.52 29.56,-107.27 61.16,-132.55 44.19,-25.3 54.03,-82.61 96.72,-114.02 22.75,-16.75 86.7,-17.02 68.27,-61.29 -16.34,-39.28 -34.36,-144.6 -25.6,-186.71 11.3,-54.25 36.21,-94.44 11.38,-152.5 -2.06,-1.03 -2.59,-2.16 -4.27,-4.28 -2.84,-0.71 -16.38,-10.71 -18.49,-12.82 -20.81,-2.6 -94.22,-46.53 -110.94,-59.87 -52.34,-41.74 -86.74,-109.11 -44.09,-169.6 27.03,-38.32 20.8,-171.66 45.51,-188.13 3.62,-6.77 16.36,-46.33 18.49,-47.04 0,-5.79 2.85,-9.18 2.85,-14.25 2.02,-0.67 5.69,-19.94 5.69,-24.23 2.37,-0.79 1.42,-2.9 1.42,-5.7 68.25,-22.75 -61.62,-183.22 -69.69,-196.69 -26.7,-44.61 -37.58,-156.06 39.82,-141.1 55.27,10.69 111.83,-21.83 159.3,-9.97l1.42 1.42c0,75.32 -62.86,124.2 -31.29,218.07 53.14,157.95 176.62,179.02 324.29,196.68 50.46,6.03 101.27,-12.94 149.34,-2.85 142.94,30 76.28,-49.04 129.43,-149.65 46.73,-88.44 77.91,-32.78 152.19,-32.78 53.01,0 91.03,-25.89 145.08,-7.13 76.56,26.56 199.3,2.08 280.19,-1.42 34.46,-1.49 27.03,30.84 27.03,57.01 0,50.7 51.91,59.13 81.07,88.36 40.05,7.07 78.93,9.47 119.47,14.25 23.63,2.79 85.47,14.48 99.57,34.21 18.25,7.3 61.33,63.04 74.32,77.94l0 0 0 -20065.1 -9416.18 0 0 0 -9.86 101.25c16.08,63.56 11.07,134.17 39.83,194.55 15.04,31.56 10.01,68.48 5.68,101.19 -3.44,26.02 -32.71,46.76 -32.71,69.84 97.93,0 68.84,207.05 86.76,275.07 11.53,43.76 -20.53,107.88 -1.42,135.4 38.97,56.15 11.38,62.69 11.38,118.3 -17.13,55.81 11.64,47.95 46.93,29.93 32.39,-16.55 61.35,-9.08 96.72,-19.95 73.69,-22.67 107.26,-86.73 91.03,14.25 -7.06,43.94 0.7,87.23 -2.84,131.12 -6.91,85.47 -50.68,76.63 -18.49,165.33l56.89 156.78c0.58,3.53 0.64,2.76 2.84,5.7 16,0 96.44,-38.7 108.1,-52.73 34.34,0 51.02,18.52 79.65,18.52 44.06,0 57.94,71.84 55.47,109.75 -2.9,44.37 -124.55,53.01 -142.23,84.09 -15.24,2.17 -11.14,102.5 -2.85,114.02 13.07,18.19 109.67,39.33 133.7,42.76 11.81,23.62 56.99,50.04 73.96,79.81 -4.83,56.57 -43.75,103.42 -55.47,161.06 -6.63,32.65 -4.15,65.87 -42.67,62.71 -54.49,-4.46 13.96,117.82 -46.94,131.12 -63.27,13.83 -135.59,62.92 -194.85,82.67 0,50.22 9.99,100.22 7.11,153.92 -4.49,83.92 94.24,47.68 76.8,138.25 -4.58,23.79 4.26,78.56 9.96,102.62 6.77,28.53 -33.3,55.64 -54.05,74.12 -13.02,1.67 -53.1,10.11 -58.31,22.8 -18.05,43.97 -31.35,74.54 -75.39,94.07 -11.84,5.24 0,71 0,82.66 0,18.93 -3.04,51.15 5.69,66.99 5.9,10.69 36.14,13.75 46.94,18.53 28.36,12.54 43.39,11.58 59.74,41.33 8.76,15.96 19.94,31.41 24.18,48.46l1.42 1.42c3.16,0.79 2.84,1.18 2.84,4.28 5.62,1.4 11.38,22.7 11.38,28.51l34.14 71.26 0 0 83.91 32.78c39.38,14.28 75.53,5.24 113.79,-4.28 33.34,-8.29 45.12,-23.71 72.54,-42.75 20.5,-14.22 53.59,4.29 69.69,17.1 32.49,25.87 72.11,21.2 106.67,38.48 5.73,-0.71 11.39,-1.79 17.07,-2.85 99.57,-4.88 189.22,-40.49 283.04,-65.56 84.36,-22.55 33.51,-93.37 96.72,-156.78 40.62,-40.76 52.59,-70.04 113.79,-86.94 80.89,-22.35 -21.84,-169.94 11.37,-236.59 45.87,-22.97 130.6,-56.11 160.73,-98.35 78.59,-26.19 168.26,91.93 209.08,41.34 87.43,-108.33 65.04,-130.44 173.52,0 43.39,52.16 91.32,2.57 139.38,-22.81 84.47,-44.6 76.86,-106.18 8.54,-158.2 -18.68,-9.36 -50.12,-27.91 -69.7,-32.78l0 -5.7c133.51,-88.59 203.66,-226.46 86.77,-366.29 -40.19,-48.07 -52.54,-66.76 -81.08,-124 -32.33,-64.81 -112.96,-5.56 -110.94,57.01 2.93,90.83 14.5,211.87 -98.14,114.02 -105.46,-91.63 28.45,-110.98 28.45,-203.81 -1.37,-0.45 -3.82,-2.9 -4.27,-4.28 -57.8,-14.45 -170.4,27.48 -219.03,4.28 -16.77,-8 -11.11,-60.22 -7.23,-105.62 25.34,-77.58 -60.18,-220.57 79.89,-220.57 119.56,0 205.2,-30.27 301.04,17.04 153.86,75.96 127.77,-294.57 295.36,-62.48 69.4,96.12 106.32,-4.75 142,-51.12 88.25,-114.67 120.44,-52.17 170.4,11.36 39,49.61 76.13,156.12 114.64,154.98 56.3,-1.68 108.31,-120.65 112.56,-52.74 11.52,184.07 144.44,290.48 137.11,213.01 -11.85,-125.29 -101.23,-227.06 -53.21,-279.12 7.25,-7.86 15.21,-15.13 23.61,-21.95 93.44,-21.05 270.36,12.08 352.2,-28.95 108.05,-54.16 91.03,-35.53 91.03,71.27 0,44.13 34.73,77.28 2.84,115.44 -67.49,80.73 -44.82,8.19 -29.86,104.05 0,38.42 9.33,83.94 -14.23,115.44 -18.01,24.1 -61.16,24.57 -61.16,59.86 132.47,94.96 -88.51,212.85 15.65,256.55 40.59,17.02 47.35,43.64 81.07,66.99 37.25,25.81 90.6,36.02 125.16,1.42 69.62,-69.73 26.24,-175.43 68.27,-222.34 4.48,-5.01 83.89,-28.89 100.99,-38.48 56.41,-31.67 37.46,-73.49 68.27,5.7l55.47 142.53c11.49,29.54 0.04,176.44 44.09,136.82 82.28,-73.98 87.08,-50.97 115.21,-161.05 21.33,-83.46 95.29,-67.72 157.88,-111.17 38.81,-26.93 47.54,-64.77 75.38,-99.77 30.46,0 69.2,156.5 105.25,189.56 76.63,70.3 98.26,97.86 123.74,206.66 17.24,73.59 0.04,83.75 -59.74,128.27 -31.53,23.47 -2.7,51.15 2.85,82.67 49.86,62.68 21.34,103.48 110.94,141.1 53.45,22.45 38.52,100.96 64,146.8 19.43,34.94 44.76,54.16 27.03,98.34 -16.82,41.89 -45.35,106.2 -69.7,143.96 -15.8,24.52 -39.82,35.27 -39.82,66.98 0,39.31 64.78,73.74 42.67,91.22l-228.99 181.01c0,4.79 110.62,44.79 129.43,51.31 65.89,22.87 57.84,19.13 119.47,-18.53 91.42,-55.85 26.22,-199 116.63,-228.04 29.89,-9.59 151.71,-74.84 173.52,-62.71 19.26,10.72 -21.81,75.01 -27.02,89.79 -6.5,18.46 -67.78,108.79 -48.36,118.29 28.05,13.71 111.24,1.29 143.65,-4.27 72.61,0 22.01,280.59 -5.68,323.53 -30.33,47.06 -30.25,73.6 -29.87,129.7l1.42 202.39c33.21,18.97 135.57,-17.59 174.94,-21.38 85.16,-8.19 108.39,19.48 186.33,29.93 46.82,6.27 90.59,-27.08 142.23,-27.08 60.34,0 84.59,31.75 108.09,-49.89 29.01,-100.76 -17.22,-111.69 81.08,-133.97 162.17,-36.75 12.8,-127.94 12.8,-206.66 24.71,-24.8 66.69,-26.77 89.6,-52.74 21.1,-23.9 20.11,-53.07 34.14,-81.24 2.84,-0.71 107.18,81.76 137.96,94.07 0.58,2.34 1.01,2.44 2.85,4.28 0,5.19 -1.43,9.91 -1.43,14.25 -10.54,10.54 -22.46,45.48 -34.13,51.31 -0.59,2.37 -2.55,5.13 -4.27,5.7 -3.04,12.18 -36.59,22.66 -38.4,29.93 -49.38,7.05 -12.89,71.37 -4.27,92.64 64.15,64.33 99.1,27.73 179.21,31.36 81.68,3.71 2.57,115.45 -25.6,138.25 -40.64,32.88 -39.83,34 -32.71,84.09 4.34,2.48 3.61,1.05 4.27,5.7 16.91,9.66 74.01,74.49 86.76,91.21 44.47,58.34 18.08,78.89 -35.56,101.2 -38.28,15.91 -53.03,27.04 -86.76,47.03 -11.34,6.71 -16.18,22.31 -15.52,30.34 51.09,15.21 114.82,23.55 145.08,33.3 125.39,40.42 162.58,57 187.44,178.92 10.88,53.33 11.2,86.19 34.08,136.32 17.59,38.54 39.17,75.23 60.5,112.49 5.95,19.71 -34.38,61.3 -87.29,83.01 -85.46,35.05 -170.12,-55.47 -247.49,0 -4.6,50.86 1.16,71.84 34.14,112.6 18.6,22.98 -38.21,47.14 -27.02,85.51 9.89,33.95 46.77,39.75 68.27,61.29 -30.83,77.04 -184.53,-23.36 -126.59,98.34 30.73,64.57 71.31,136.62 146.5,148.23 59.56,9.2 82.98,38.95 68.27,101.19 -43.92,88.09 -50.77,140.06 19.91,210.94 62,62.16 102.27,38.23 21.34,106.89 -41.84,35.49 -48.34,76.17 -109.52,101.2 -19.19,7.85 -52.89,-2.56 -64.01,12.82 -37.93,52.5 116.27,102.27 65.43,166.76 -41.14,52.17 1.57,34.34 9.96,85.51 3.67,22.37 -3.46,47.37 1.42,71.27 4.8,23.56 16.82,42.21 27.02,62.71 28.26,56.75 -8.69,44.22 -54.04,78.39 36.61,48.82 89.15,43.03 130.85,78.39 41.54,66.69 93.24,111.57 155.03,158.2 46.08,34.76 88.48,124.99 132.28,142.53 35.84,14.34 92.44,-9.68 122.31,18.52 41.3,39.01 95.53,72.15 133.7,112.6 69,73.1 -7.95,119.65 -66.85,158.2 -28.51,18.67 -244.42,213.17 -136.54,218.07 75.9,3.44 84.22,82.66 130.85,82.66 21.14,0 37.45,-26.22 56.9,-21.38 8.83,35.46 9.54,101.01 0,138.25 32.26,32.39 58.3,58.7 98.14,81.24 28.4,16.06 -17.1,54.17 -22.76,76.97 -26.64,107.35 -91.73,146.14 55.47,94.06 39.14,-13.85 66.57,23.63 118.05,12.83 65.31,-13.69 107.02,102.96 176.37,114.02 36.91,5.89 76.3,-27.07 106.67,-2.85 86.6,69.04 8.68,189.68 167.84,212.37 45.29,63.53 -6.27,110.29 88.18,101.19 74.29,-7.16 63.55,111.46 69.69,159.63 3.19,25.01 65.78,35.98 88.19,58.43 3.85,30.9 38.4,47.68 38.4,89.79 0,35.13 -4.66,72.96 38.4,71.27 118.18,-4.64 -12.79,75.23 31.29,126.85 28.78,33.69 87.71,43.22 79.65,99.76 -37.03,21.23 -63.86,42.55 -109.52,51.31 -27.76,5.33 -71.2,0.75 -95.29,12.83 0,23.52 116.92,92.54 137.96,108.32 35.48,26.63 114.42,32.25 51.21,82.66 -106.16,84.64 109.85,190.79 15.64,263.68 -29.76,23.02 -243.98,100.07 -91.03,129.7 71.55,89.12 94.06,261.66 -42.67,316.4 -59.78,23.94 -52.25,34.77 -34.13,98.35 10.49,36.79 105.13,136.98 36.98,145.37 -14.13,1.74 -91.34,-8.29 -92.45,11.4 -1.66,29.61 41.26,59.98 59.74,78.39 0,38.66 -62.37,40.7 -28.45,81.24 25.39,30.33 57.64,51.53 81.07,82.67 51.88,68.92 73.47,72.83 137.97,8.55l4.26 0c11.27,11.3 7.67,115.32 18.49,145.38 28.08,22.46 57.06,24.57 38.4,71.26 -19.88,49.71 21.1,82.21 49.79,116.87 60.02,72.54 9.23,157.47 -75.39,190.98 -35.39,14.02 -150.01,122.42 -166.41,116.88 -77.28,-26.12 -184.81,-19.98 -112.36,-116.88 30.92,-41.37 4.08,-49.05 22.76,-82.66 19.77,-35.55 104.87,-59.65 98.14,-106.89 -26.77,-6.66 -76.59,-12.83 -105.26,-12.83 -51.98,0 -58.3,29.71 -100.98,42.76 -105.65,32.33 -39.97,215.18 -100.98,235.16 -67.14,22 -82.47,57.08 -128.01,102.62 -18.42,-2.29 -75.04,-211.2 -82.5,-249.42 -32.5,-166.56 -142.32,-10.5 -207.65,-37.06 -22.16,-9 -147.27,-102.76 -156.46,-121.14l-8.53 0c-30.01,40.01 -26.1,193.55 -73.96,199.53 -36.32,50.91 -2.85,21.57 -2.85,88.37 0,35.8 -22.75,80.05 8.54,106.89 49.03,42.07 170.13,183.19 186.32,240.87 24.6,57.64 35.51,71.19 89.61,102.62 30.93,17.98 67.91,12.38 62.58,49.89 -56.27,35.11 -175.97,14.25 -172.1,99.76 3.98,87.8 100.2,123.12 108.09,205.24 4.16,43.39 15.11,93.6 12.8,136.83 -3.06,57.33 -93.59,97.63 -83.91,148.22 5.77,30.13 65.64,59.55 61.16,84.09 -16.64,91.16 -220.64,42.57 -281.62,48.46l-48.36 51.31c-21.78,23.11 -54.97,17.15 -82.49,15.68 -75.12,-4.02 30.43,112.28 27.02,139.67 -45.67,32.8 -89.4,21.84 -142.23,24.23 -43.54,1.97 -81.92,46.1 -119.48,64.14 -109.17,52.42 -14.55,169.19 -145.07,185.28 -58.56,7.22 -136.21,22.21 -186.33,-17.1 -67.68,-53.1 -133.38,-20.11 -201.96,-61.29 -30.95,-18.59 -100.3,-72.73 -136.55,-49.88 -44.35,27.95 -77.35,114.07 -109.51,158.2 -15.89,31.79 -36.77,65.19 -55.47,95.5 -11.09,17.99 -50.94,37.74 -54.05,52.73 -4.13,19.84 4.15,40.16 14.22,57.01 12.6,21.06 36.76,26.13 51.2,44.18 0,73.17 -116.08,89.22 -156.45,129.7 -16.5,16.55 -40.42,38.82 -51.44,57.38 -126.72,28.37 -130.64,106.16 -194.28,189.63 -32.8,65.09 133.15,15.33 152.97,51.02 17.24,31.02 5.01,40.14 1.42,69.83 -4.65,38.39 -14.08,57.27 5.69,88.37 57.7,90.73 135.02,194.83 182.06,289.32 47.48,95.38 70.21,137.66 147.92,216.64 20.28,20.61 17.04,37.14 15.64,69.83 -1.47,34.15 -21.08,60.96 -2.84,95.49 17.04,32.25 36.65,41.82 34.13,81.24 -0.28,4.44 -0.24,5.14 -2.84,8.55 -79.28,103.87 -13.3,182.61 48.36,265.1 34.06,45.56 20.45,114.59 27.02,168.17 7.11,57.95 36.95,158.32 29.87,210.94 -6.91,51.34 45.57,211.68 65.43,263.69 14.68,38.47 29.4,76.97 44.09,115.44 17.93,46.94 45.02,68.69 81.07,92.64 89.71,59.59 117.78,113.46 96.72,216.64 -12.71,62.3 -1,116.84 5.69,178.16 6.7,61.43 -8.35,136.98 -25.6,195.26 -2.78,9.42 -13.76,20.03 -15.65,29.93 -12.1,63.22 23.71,138.3 -4.27,196.69 -27.33,57.04 -76.12,81.13 -83.91,149.65 -8.95,78.68 -0.03,175.4 -73.96,226.61 -30.29,20.98 -79.72,32.63 -100.99,64.14 -16.78,24.85 -21.19,73.04 -2.84,108.32 62.93,120.94 191.04,38.42 122.32,233.74 -22.39,63.69 71.89,91.66 10.25,180.88 -4.46,35.87 -35.5,79.72 -36.98,111.17 -1.35,28.52 32.04,31.6 38.41,58.43 16.32,68.79 -128.82,129.79 -113.79,172.46 22.45,63.7 61.7,37.98 106.67,64.14 50.74,29.5 -5.57,99.96 21.34,153.92 39.6,79.44 214.53,189.55 24.18,232.32 -64.04,14.38 -114.03,69.19 -176.37,76.96 -8.02,11.28 -40.34,26.28 -52.63,32.79 -52.31,65.39 4.8,85.17 61.16,88.36 36.29,2.06 41.41,82.96 86.77,85.52 23.01,1.3 62.57,13.61 71.11,37.05 19.45,53.41 0.52,96.93 2.85,151.08 0.9,20.89 17.52,30.52 18.49,49.88 1.56,30.89 -11.38,58.73 -11.38,88.37 0,90.28 80.8,140.68 137.96,202.39 23.92,25.81 -1.01,82.8 -34.13,86.94 -3.22,3.87 -17.71,14.9 -22.76,18.53 -8.03,56.33 26.42,107.83 -17.07,149.65 -0.73,2.19 0.04,1.42 -2.84,1.42l-58.32 44.19c-30.36,23.01 -53.55,-10.78 -85.34,-8.55 -57.29,4.02 -80.84,171.8 -118.05,205.23 -1.55,1.39 -25.6,-84.53 -25.6,-102.62 0,-61.25 -18.11,-115.8 -32.71,-175.3 -31.46,-128.24 -164.54,92.35 -176.37,-21.38 -17.86,-171.56 -165.2,-17.95 -233.26,32.78 -44.04,32.84 -65.49,137.71 -82.49,142.52 -59.55,16.83 -140.42,-32.02 -170.68,-18.52 -86.46,38.55 -96.88,-9.98 -184.9,-9.98 -74.07,0 -141.84,-55.58 -159.3,-125.42 -51.35,-12.83 -88.63,-16.37 -142.23,-21.38 -44.92,16.81 -122.57,65.57 -123.74,95.49 -1.39,35.65 -79.6,146.43 -119.48,138.25 -59.52,-12.2 -40.17,49.03 -51.2,79.81 -23.19,64.65 -96.79,61.8 -135.12,111.18l-79.65 102.61c-96.75,124.63 -145.94,-27.83 -250.33,49.89 -58.71,43.7 -62.54,23.76 -106.67,-17.11 -55.73,-51.6 -34.6,93.72 -135.12,-7.12 -37.22,-37.35 -121.62,31.46 -137.97,75.54 -15.12,40.8 4.75,69.3 -4.26,105.47 -18.44,0 -33.84,-18.89 -49.78,-27.08 -27.73,-14.27 -38.96,3.67 -65.43,7.84l-94.41 67.22 -220.22 311.35 0 0z"/>
  <path class="fil0 str0" d="M7328.07 4237.99c4.79,22.04 5.94,43.52 1.59,63.68 -10.29,47.57 -49.78,81.54 -49.78,132.54 0,45.75 36.78,114 62.58,152.51 27.9,41.64 45.02,142.56 54.05,192.41 14.97,82.71 23.99,158.69 68.27,230.89 18.47,30.13 144.99,177.66 66.85,206.66 -20.36,7.57 -96.72,51.91 -96.72,76.97 0,48.56 11.66,65.58 48.36,94.06 51.54,40 338.62,-65.47 314.33,78.39 -10.48,62.05 -48.36,114.16 -61.16,176.73 -24.06,117.64 -184.9,162.11 -184.9,285.06 0,144.58 98.13,-11.19 130.86,-29.94 18.7,-10.71 71.07,-72.59 85.33,-32.78 16.33,45.58 -12.08,165.31 -32.71,209.52 -30.9,66.18 -105.77,144.1 -159.3,199.53 -35.06,36.3 -92.43,86.63 -83.91,142.53 5.66,37.14 87.5,52.84 112.36,69.84 18.73,12.8 38.64,54.4 49.78,71.26 14.49,21.93 23.6,76.76 8.53,95.49 -38.42,47.75 -109.28,64.72 -142.23,124 -39.61,71.27 -139.9,168.96 -211.92,208.09 -106.09,57.65 -168.91,88.94 -172.1,220.91 -1.08,44.54 14.22,98.95 14.22,146.8 0,39.92 5.41,86.57 -4.27,125.43 -11.97,48.02 -65.27,88.16 -85.34,135.4 -21.07,49.59 -48.01,87.36 -14.22,121.14 0.94,0.94 1.91,1.91 2.85,2.85 32.76,32.65 22.03,111.57 14.22,143.95 -18.18,75.28 -42.54,140.5 -45.51,219.49 -4.91,130.78 -52.96,183.78 -132.28,282.2 -39.69,49.26 -69.44,84.06 -102.41,138.25 -28.39,46.66 -47.81,115.74 -73.96,159.63 -7.3,12.26 -12.14,37.08 -14.22,52.74 -12.29,92.2 -24.83,191.42 -62.58,273.65 -30.98,67.48 -86.21,134.76 -142.23,190.98 -52.48,52.67 -110.33,91.86 -175.39,130.08l0 0c-46.14,27.31 -93.47,52.54 -138.94,78.01 -106.97,59.91 -156.41,193.65 -207.66,300.73 -23.14,48.37 -80.1,102.94 -112.37,149.65 -23.83,34.5 -51.3,87.91 -66.84,124 -20.47,47.54 -53.48,118.13 -72.54,168.18 -32.78,86.04 -64.14,174.06 -82.5,262.25 -18.64,89.55 -60.18,324.54 -184.9,356.31 -7.01,1.79 -14.01,5.45 -21.33,7.13 -66.88,15.35 -188.74,-10.22 -216.19,47.03 -73.7,153.7 -35.04,240.11 -237.53,225.19 -70.32,-5.18 -113.25,-3.53 -109.52,75.54 3.79,80.29 15.2,127.38 -9.95,202.39 -7.07,21.07 -71.95,88.31 -83.92,109.74 -25.1,44.92 -84.3,114.48 -108.1,145.38 -57.83,75.3 -112.44,172.94 -182.05,236.59 -53.44,48.86 -129.8,111.99 -199.13,136.83 -39.1,14 -99.63,32.54 -112.36,74.11 -28.13,91.91 -32.51,166.14 -100.98,243.72 -54.74,62.03 -128.48,146.21 -120.9,233.74 8.36,96.67 25.62,205.88 28.45,307.86 0.23,8.49 3.96,17.04 4.26,25.65 2.71,78.11 34.14,238.68 -34.13,299.31 -19.4,17.22 -63.26,43.59 -88.19,52.73 -10.82,3.96 -25.35,8.29 -35.55,14.25 -4.43,2.59 -10.35,3.64 -11.38,8.55 -1.4,6.63 -5.03,23.44 -6.46,30.1 -14.68,18.64 -6.61,46.56 -21.99,76.8 -47.72,93.85 -59.14,215.62 -54.25,307.73 -2.61,18.22 1.48,34.57 -4.06,42.88 -28.46,42.72 -40.86,112.69 -71.12,159.63 -39.13,60.7 -78.55,144.87 -89.61,216.64 -13.84,89.76 -0.58,170.89 25.61,253.7 15.22,48.15 55.47,152.31 55.47,203.81 0,112.79 -32.89,123.6 -113.79,178.16 -34.63,23.35 -112.69,65.54 -142.23,92.64 -41.51,38.08 -43.84,202.51 -51.2,257.97 -15.11,113.86 -75.19,213.82 -82.5,327.8 -3.15,49.26 -2.48,86.71 -39.82,104.04 -97.59,45.31 -118.91,167.84 -156.46,252.27 -45.64,102.62 -158.74,147.62 -184.9,249.41 -9.96,38.77 9.96,93.46 9.96,133.97 0,61.48 0.36,70.7 -44.09,99.77 -54.42,35.6 -91.95,72.57 -79.65,136.82 20.32,106.21 -54.4,186.81 -34.14,293.6 22,115.96 -4.27,217.94 -4.27,332.08 4.2,49.7 105.88,131.44 133.7,179.58 50.64,87.64 142.12,232.77 116.63,337.78 -17.47,71.97 -69.43,111.4 -109.52,169.6 -44.35,64.38 -40.54,106.89 -58.31,185.28 -20.66,91.13 -113.57,184.17 -143.66,272.22 -28.82,84.33 -53.4,156.82 -22.75,252.27 17.22,53.64 23.85,161.84 -5.69,215.21 -14.11,25.5 -29.75,60.56 -35.56,91.22 -7.57,39.89 -15.18,79.81 -22.76,119.71 -10.74,56.56 -48.82,118.23 -51.2,179.58 -1.63,41.89 -9.96,99.12 -18.49,141.1 -16.49,81.22 30.94,174.62 34.14,256.54 1.78,45.81 7.53,87.25 -9.96,131.13 -49.26,123.61 -104.11,121.71 -110.94,280.77 -7.07,163.88 44.13,259.9 145.08,380.53 77.05,92.07 193.19,198.73 284.46,276.5 29.01,24.71 -46.43,100.31 -46.94,139.67 -0.46,35.14 -0.96,70.31 -1.42,105.47l0 0c23.63,-13.88 163.29,-66.64 182.06,-82.57 35.77,-30.34 79.14,-58.67 116.63,-88.36 74.34,-58.9 45.59,40.59 100.98,21.38 38.37,-13.31 86.94,-56.58 130.85,-45.61 6.32,25.3 -11.62,39.86 -21.33,62.71 -17.8,41.9 -15.29,88.65 -5.69,132.55 14.19,64.92 13.67,79.67 -44.09,121.15 -19.05,13.68 -130.29,51.54 -130.86,78.28 13.48,9.74 75.62,41.47 78.23,42.76 9.24,4.59 36.82,65.4 49.78,78.39 56.66,56.77 145.59,20.86 197.7,-21.38 52.63,-42.65 56.49,-55.59 125.17,-55.59 39.18,0 66.26,14 106.67,-1.42 106.13,-40.52 255.82,-68.34 317.18,-171.03 25.1,-42.01 19.26,-107.3 45.51,-146.8 29.88,-44.95 54,-51.29 86.76,-18.53 65.41,65.41 144.25,-10.08 223.31,-22.8 108.02,-17.39 210.89,62.42 192.01,178.15 -8.26,50.62 -12.07,122.05 44.09,146.8 22.9,10.09 162.59,29.84 177.79,14.26 3.79,-3.89 13.7,-4 15.64,-9.98 36.69,-112.59 82.16,-85.31 177.79,-69.84 39.96,6.47 82.49,-16.63 119.48,4.28 35.83,20.26 59.46,34.74 103.83,37.05 52.37,2.73 122.06,-43.25 162.14,-72.68 96.53,-70.9 100.94,48.61 176.37,19.95 65.64,-24.94 64.03,-145.94 115.21,-192.41 28.26,-25.65 144.12,-12.3 156.45,-45.6 30.24,-81.63 98.69,-45.97 153.61,-84.09 48.68,-33.79 98.32,-57.36 123.74,-109.74 23.41,-48.23 63.98,-55.59 113.79,-55.59 26.29,0 41.76,27.91 54.43,64.47 30.75,88.71 82.99,-24.74 137.58,-27.32 80.41,-3.81 43.78,-46.21 110.94,27.08 25,27.29 119.75,-27.71 142.23,18.53 16.86,34.69 11.38,64.61 11.38,104.04 0,51.21 71.3,83.72 103.83,119.73 14.01,15.51 26.79,56.73 42.67,65.56 30.08,16.73 71.09,8.16 103.83,11.4 70.13,6.93 152.44,53.94 211.92,32.78 10.03,-3.56 48.8,-60.09 52.63,-64.14 59.04,-62.41 94.01,-3.06 143.65,31.36 74.87,51.91 116.15,17.06 180.63,1.43 35.78,-8.67 91.17,0.82 137.97,-42.76 19.37,-18.04 39.34,-27.1 59.88,-30.63 -51.52,-24.01 -108.77,-73.04 -146.64,-123.3 -34.91,-46.33 -7.25,-43.61 21.33,-57.01 45.01,-21.12 33.51,-123.03 100.99,-126.85 26.72,-1.51 43.93,18.59 72.53,14.25 28.6,-4.35 65.61,-47.03 73.96,-47.03 79.99,-29.78 247.53,-82.62 267.09,52.34 4.33,29.94 -10.49,95.88 0,119.28 8.5,18.97 108.53,23.75 173.43,17.13 15.54,-21.06 25.43,-49.93 47.34,-71.88 46.48,-46.56 0.74,-127.81 -12.8,-182.43 -11.22,-45.25 30.05,-218.07 72.54,-175.31 20.46,20.91 -1.17,63.51 0,88.37 3.47,73.72 59.01,-6.26 71.11,-8.55 53.89,-10.23 60.55,-84.36 22.76,-118.3 -21.52,-19.33 -73.56,-18.62 -86.76,-48.46 -64.84,-146.6 27.26,-62.72 -125.74,-11.77 -67.39,22.46 -168.54,-115.72 -210.16,-14.2 -26.76,65.25 -36.81,153.33 -113.6,178.92 -24.68,8.22 -82.26,-17.04 -113.6,-17.04 -44.98,0 -94.5,39.76 -159.04,39.76 -107.85,0 -59.9,-103.02 -113.6,-116.44 -1.42,-5.68 -120.28,-47.74 -127.8,-51.12l-139.16 -62.48c-3.12,-12.5 -5.68,-19.04 -5.68,-34.08l2.84 -2.84c107.39,-26.84 -19.27,-150.1 2.84,-238.56 5.21,-1.3 4.38,-0.47 5.68,-5.68 20.58,-2.94 154.96,-111.11 164.72,-130.64 107.57,0 20.88,-179.56 93.72,-224.36 57.99,-35.68 133.75,-209.52 193.12,-224.36 2.7,-8.11 16.91,-5.68 25.56,-5.68 18.99,56.97 183.33,-14.08 221.52,-28.4 54.73,-40.75 64.42,-6.59 123.87,2.6 157.28,24.3 -94.22,-243.79 32.71,-236.59 31.96,1.81 65.99,46.27 96.72,58.43 43.41,17.17 155.03,-4.46 155.03,49.89 0,47.76 5.37,105.14 41.25,141.1 16.19,16.24 61.79,219.85 120.9,101.19 40.58,-81.45 -8,-217.07 69.69,-295.03l4.27 0c26.15,26.25 15,77.32 55.47,108.32 54.64,41.84 98.14,37.38 98.14,116.87 0,115.99 176.89,26.07 248.9,102.62 16.45,17.5 63.89,86.28 17.07,98.34 -58.21,14.99 -61.73,30.03 -76.8,88.37 -12.29,75.68 -14.92,101.76 46.54,132.49 77.61,38.79 29.51,102.11 51.12,164.72 25.77,74.7 102.5,96.04 162.24,149.61 28.13,25.23 91.85,37 127.44,12.27 23.67,-16.46 79.21,-67.69 25.56,-85.2 -52.09,-16.99 -141.28,-183.09 -102.24,-227.2 18.99,-21.47 118.1,-105.08 139.16,-105.08 19.87,79.51 98.4,90.52 153.36,139.16 47.81,42.3 174.65,80.89 195.96,144.84 -37.79,7.55 -97.49,18.21 -73.84,71 22.36,49.88 128.7,72.09 105.08,133.48 -11.24,29.23 -35.19,114.41 -22.72,147.68l85.55 49.11c39.61,25.59 193.37,-22.64 232.08,-44.96 46.17,-26.66 152.64,-42.65 184.86,-85.61 50.04,-17.11 96.64,-58.92 145.34,-82.41 27.95,-13.49 171.99,-53.22 206.53,-55.58 26.65,7.7 66.82,-4.06 95.61,-4.48 50.81,-0.74 99.23,7.06 149.17,14.06 45.81,6.43 91.86,30.03 137.68,30.03l8.93 3.19 159.71 87.51c12.82,-2.48 20.43,-2.19 32.71,-2.85 6.44,-0.35 15.16,-4.55 21.33,-7.13 29.91,-12.55 62.02,-22.41 93.88,-29.93 11.18,-2.63 28.02,-3.6 39.82,-2.85 8,0.5 29.9,7.5 35.56,11.41 5.42,3.75 10.87,8.17 17.07,11.4 11.85,6.16 23.7,12.36 35.55,18.53l59.66 67.23 443.66 -14.05 368.44 247.88 198.89 121.38 299.6 163.54 471.7 382.04 224.38 25.55 0 0 220.22 -311.35 94.41 -67.22c26.47,-4.17 37.7,-22.11 65.43,-7.84 15.94,8.19 31.34,27.08 49.78,27.08 9.01,-36.17 -10.86,-64.67 4.26,-105.47 16.35,-44.08 100.75,-112.89 137.97,-75.54 100.52,100.84 79.39,-44.48 135.12,7.12 44.13,40.87 47.96,60.81 106.67,17.11 104.39,-77.72 153.58,74.74 250.33,-49.89l79.65 -102.61c38.33,-49.38 111.93,-46.53 135.12,-111.18 11.03,-30.78 -8.32,-92.01 51.2,-79.81 39.88,8.18 118.09,-102.6 119.48,-138.25 1.17,-29.92 78.82,-78.68 123.74,-95.49 53.6,5.01 90.88,8.55 142.23,21.38 17.46,69.84 85.23,125.42 159.3,125.42 88.02,0 98.44,48.53 184.9,9.98 30.26,-13.5 111.13,35.35 170.68,18.52 17,-4.81 38.45,-109.68 82.49,-142.52 68.06,-50.73 215.4,-204.34 233.26,-32.78 11.83,113.73 144.91,-106.86 176.37,21.38 14.6,59.5 32.71,114.05 32.71,175.3 0,18.09 24.05,104.01 25.6,102.62 37.21,-33.43 60.76,-201.21 118.05,-205.23 31.79,-2.23 54.98,31.56 85.34,8.55l58.32 -44.19c2.88,0 2.11,0.77 2.84,-1.42 43.49,-41.82 9.04,-93.32 17.07,-149.65 5.05,-3.63 19.54,-14.66 22.76,-18.53 33.12,-4.14 58.05,-61.13 34.13,-86.94 -57.16,-61.71 -137.96,-112.11 -137.96,-202.39 0,-29.64 12.94,-57.48 11.38,-88.37 -0.97,-19.36 -17.59,-28.99 -18.49,-49.88 -2.33,-54.15 16.6,-97.67 -2.85,-151.08 -8.54,-23.44 -48.1,-35.75 -71.11,-37.05 -45.36,-2.56 -50.48,-83.46 -86.77,-85.52 -56.36,-3.19 -113.47,-22.97 -61.16,-88.36 12.29,-6.51 44.61,-21.51 52.63,-32.79 62.34,-7.77 112.33,-62.58 176.37,-76.96 190.35,-42.77 15.42,-152.88 -24.18,-232.32 -26.91,-53.96 29.4,-124.42 -21.34,-153.92 -44.97,-26.16 -84.22,-0.44 -106.67,-64.14 -15.03,-42.67 130.11,-103.67 113.79,-172.46 -6.37,-26.83 -39.76,-29.91 -38.41,-58.43 1.48,-31.45 32.52,-75.3 36.98,-111.17 61.64,-89.22 -32.64,-117.19 -10.25,-180.88 68.72,-195.32 -59.39,-112.8 -122.32,-233.74 -18.35,-35.28 -13.94,-83.47 2.84,-108.32 21.27,-31.51 70.7,-43.16 100.99,-64.14 73.93,-51.21 65.01,-147.93 73.96,-226.61 7.79,-68.52 56.58,-92.61 83.91,-149.65 27.98,-58.39 -7.83,-133.47 4.27,-196.69 1.89,-9.9 12.87,-20.51 15.65,-29.93 17.25,-58.28 32.3,-133.83 25.6,-195.26 -6.69,-61.32 -18.4,-115.86 -5.69,-178.16 21.06,-103.18 -7.01,-157.05 -96.72,-216.64 -36.05,-23.95 -63.14,-45.7 -81.07,-92.64 -14.69,-38.47 -29.41,-76.97 -44.09,-115.44 -19.86,-52.01 -72.34,-212.35 -65.43,-263.69 7.08,-52.62 -22.76,-152.99 -29.87,-210.94 -6.57,-53.58 7.04,-122.61 -27.02,-168.17 -61.66,-82.49 -127.64,-161.23 -48.36,-265.1 2.6,-3.41 2.56,-4.11 2.84,-8.55 2.52,-39.42 -17.09,-48.99 -34.13,-81.24 -18.24,-34.53 1.37,-61.34 2.84,-95.49 1.4,-32.69 4.64,-49.22 -15.64,-69.83 -77.71,-78.98 -100.44,-121.26 -147.92,-216.64 -47.04,-94.49 -124.36,-198.59 -182.06,-289.32 -19.77,-31.1 -10.34,-49.98 -5.69,-88.37 3.59,-29.69 15.82,-38.81 -1.42,-69.83 -19.82,-35.69 -185.77,14.07 -152.97,-51.02 63.64,-83.47 67.56,-161.26 194.28,-189.63 11.02,-18.56 34.94,-40.83 51.44,-57.38 40.37,-40.48 156.45,-56.53 156.45,-129.7 -14.44,-18.05 -38.6,-23.12 -51.2,-44.18 -10.07,-16.85 -18.35,-37.17 -14.22,-57.01 3.11,-14.99 42.96,-34.74 54.05,-52.73 18.7,-30.31 39.58,-63.71 55.47,-95.5 32.16,-44.13 65.16,-130.25 109.51,-158.2 36.25,-22.85 105.6,31.29 136.55,49.88 68.58,41.18 134.28,8.19 201.96,61.29 50.12,39.31 127.77,24.32 186.33,17.1 130.52,-16.09 35.9,-132.86 145.07,-185.28 37.56,-18.04 75.94,-62.17 119.48,-64.14 52.83,-2.39 96.56,8.57 142.23,-24.23 3.41,-27.39 -102.14,-143.69 -27.02,-139.67 27.52,1.47 60.71,7.43 82.49,-15.68l48.36 -51.31c60.98,-5.89 264.98,42.7 281.62,-48.46 4.48,-24.54 -55.39,-53.96 -61.16,-84.09 -9.68,-50.59 80.85,-90.89 83.91,-148.22 2.31,-43.23 -8.64,-93.44 -12.8,-136.83 -7.89,-82.12 -104.11,-117.44 -108.09,-205.24 -3.87,-85.51 115.83,-64.65 172.1,-99.76 5.33,-37.51 -31.65,-31.91 -62.58,-49.89 -54.1,-31.43 -65.01,-44.98 -89.61,-102.62 -16.19,-57.68 -137.29,-198.8 -186.32,-240.87 -31.29,-26.84 -8.54,-71.09 -8.54,-106.89 0,-66.8 -33.47,-37.46 2.85,-88.37 47.86,-5.98 43.95,-159.52 73.96,-199.53l8.53 0c9.19,18.38 134.3,112.14 156.46,121.14 65.33,26.56 175.15,-129.5 207.65,37.06 7.46,38.22 64.08,247.13 82.5,249.42 45.54,-45.54 60.87,-80.62 128.01,-102.62 61.01,-19.98 -4.67,-202.83 100.98,-235.16 42.68,-13.05 49,-42.76 100.98,-42.76 28.67,0 78.49,6.17 105.26,12.83 6.73,47.24 -78.37,71.34 -98.14,106.89 -18.68,33.61 8.16,41.29 -22.76,82.66 -72.45,96.9 35.08,90.76 112.36,116.88 16.4,5.54 131.02,-102.86 166.41,-116.88 84.62,-33.51 135.41,-118.44 75.39,-190.98 -28.69,-34.66 -69.67,-67.16 -49.79,-116.87 18.66,-46.69 -10.32,-48.8 -38.4,-71.26 -10.82,-30.06 -7.22,-134.08 -18.49,-145.38l-4.26 0c-64.5,64.28 -86.09,60.37 -137.97,-8.55 -23.43,-31.14 -55.68,-52.34 -81.07,-82.67 -33.92,-40.54 28.45,-42.58 28.45,-81.24 -18.48,-18.41 -61.4,-48.78 -59.74,-78.39 1.11,-19.69 78.32,-9.66 92.45,-11.4 68.15,-8.39 -26.49,-108.58 -36.98,-145.37 -18.12,-63.58 -25.65,-74.41 34.13,-98.35 136.73,-54.74 114.22,-227.28 42.67,-316.4 -152.95,-29.63 61.27,-106.68 91.03,-129.7 94.21,-72.89 -121.8,-179.04 -15.64,-263.68 63.21,-50.41 -15.73,-56.03 -51.21,-82.66 -21.04,-15.78 -137.96,-84.8 -137.96,-108.32 24.09,-12.08 67.53,-7.5 95.29,-12.83 45.66,-8.76 72.49,-30.08 109.52,-51.31 8.06,-56.54 -50.87,-66.07 -79.65,-99.76 -44.08,-51.62 86.89,-131.49 -31.29,-126.85 -43.06,1.69 -38.4,-36.14 -38.4,-71.27 0,-42.11 -34.55,-58.89 -38.4,-89.79 -22.41,-22.45 -85,-33.42 -88.19,-58.43 -6.14,-48.17 4.6,-166.79 -69.69,-159.63 -94.45,9.1 -42.89,-37.66 -88.18,-101.19 -159.16,-22.69 -81.24,-143.33 -167.84,-212.37 -30.37,-24.22 -69.76,8.74 -106.67,2.85 -69.35,-11.06 -111.06,-127.71 -176.37,-114.02 -51.48,10.8 -78.91,-26.68 -118.05,-12.83 -147.2,52.08 -82.11,13.29 -55.47,-94.06 5.66,-22.8 51.16,-60.91 22.76,-76.97 -39.84,-22.54 -65.88,-48.85 -98.14,-81.24 9.54,-37.24 8.83,-102.79 0,-138.25 -19.45,-4.84 -35.76,21.38 -56.9,21.38 -46.63,0 -54.95,-79.22 -130.85,-82.66 -107.88,-4.9 108.03,-199.4 136.54,-218.07 58.9,-38.55 135.85,-85.1 66.85,-158.2 -38.17,-40.45 -92.4,-73.59 -133.7,-112.6 -29.87,-28.2 -86.47,-4.18 -122.31,-18.52 -43.8,-17.54 -86.2,-107.77 -132.28,-142.53 -61.79,-46.63 -113.49,-91.51 -155.03,-158.2 -41.7,-35.36 -94.24,-29.57 -130.85,-78.39 45.35,-34.17 82.3,-21.64 54.04,-78.39 -10.2,-20.5 -22.22,-39.15 -27.02,-62.71 -4.88,-23.9 2.25,-48.9 -1.42,-71.27 -8.39,-51.17 -51.1,-33.34 -9.96,-85.51 50.84,-64.49 -103.36,-114.26 -65.43,-166.76 11.12,-15.38 44.82,-4.97 64.01,-12.82 61.18,-25.03 67.68,-65.71 109.52,-101.2 80.93,-68.66 40.66,-44.73 -21.34,-106.89 -70.68,-70.88 -63.83,-122.85 -19.91,-210.94 14.71,-62.24 -8.71,-91.99 -68.27,-101.19 -75.19,-11.61 -115.77,-83.66 -146.5,-148.23 -57.94,-121.7 95.76,-21.3 126.59,-98.34 -21.5,-21.54 -58.38,-27.34 -68.27,-61.29 -11.19,-38.37 45.62,-62.53 27.02,-85.51 -32.98,-40.76 -38.74,-61.74 -34.14,-112.6 77.37,-55.47 162.03,35.05 247.49,0 52.91,-21.71 93.24,-63.3 87.29,-83.01 -21.33,-37.26 -42.91,-73.95 -60.5,-112.49 -22.88,-50.13 -23.2,-82.99 -34.08,-136.32 -24.86,-121.92 -62.05,-138.5 -187.44,-178.92 -30.26,-9.75 -93.99,-18.09 -145.08,-33.3 -0.66,-8.03 4.18,-23.63 15.52,-30.34 33.73,-19.99 48.48,-31.12 86.76,-47.03 53.64,-22.31 80.03,-42.86 35.56,-101.2 -12.75,-16.72 -69.85,-81.55 -86.76,-91.21 -0.66,-4.65 0.07,-3.22 -4.27,-5.7 -7.12,-50.09 -7.93,-51.21 32.71,-84.09 28.17,-22.8 107.28,-134.54 25.6,-138.25 -80.11,-3.63 -115.06,32.97 -179.21,-31.36 -8.62,-21.27 -45.11,-85.59 4.27,-92.64 1.81,-7.27 35.36,-17.75 38.4,-29.93 1.72,-0.57 3.68,-3.33 4.27,-5.7 11.67,-5.83 23.59,-40.77 34.13,-51.31 0,-4.34 1.43,-9.06 1.43,-14.25 -1.84,-1.84 -2.27,-1.94 -2.85,-4.28 -30.78,-12.31 -135.12,-94.78 -137.96,-94.07 -14.03,28.17 -13.04,57.34 -34.14,81.24 -22.91,25.97 -64.89,27.94 -89.6,52.74 0,78.72 149.37,169.91 -12.8,206.66 -98.3,22.28 -52.07,33.21 -81.08,133.97 -23.5,81.64 -47.75,49.89 -108.09,49.89 -51.64,0 -95.41,33.35 -142.23,27.08 -77.94,-10.45 -101.17,-38.12 -186.33,-29.93 -39.37,3.79 -141.73,40.35 -174.94,21.38l-1.42 -202.39c-0.38,-56.1 -0.46,-82.64 29.87,-129.7 27.69,-42.94 78.29,-323.53 5.68,-323.53 -32.41,5.56 -115.6,17.98 -143.65,4.27 -19.42,-9.5 41.86,-99.83 48.36,-118.29 5.21,-14.78 46.28,-79.07 27.02,-89.79 -21.81,-12.13 -143.63,53.12 -173.52,62.71 -90.41,29.04 -25.21,172.19 -116.63,228.04 -61.63,37.66 -53.58,41.4 -119.47,18.53 -18.81,-6.52 -129.43,-46.52 -129.43,-51.31l228.99 -181.01c22.11,-17.48 -42.67,-51.91 -42.67,-91.22 0,-31.71 24.02,-42.46 39.82,-66.98 24.35,-37.76 52.88,-102.07 69.7,-143.96 17.73,-44.18 -7.6,-63.4 -27.03,-98.34 -25.48,-45.84 -10.55,-124.35 -64,-146.8 -89.6,-37.62 -61.08,-78.42 -110.94,-141.1 -5.55,-31.52 -34.38,-59.2 -2.85,-82.67 59.78,-44.52 76.98,-54.68 59.74,-128.27 -25.48,-108.8 -47.11,-136.36 -123.74,-206.66 -36.05,-33.06 -74.79,-189.56 -105.25,-189.56 -27.84,35 -36.57,72.84 -75.38,99.77 -62.59,43.45 -136.55,27.71 -157.88,111.17 -28.13,110.08 -32.93,87.07 -115.21,161.05 -44.05,39.62 -32.6,-107.28 -44.09,-136.82l-55.47 -142.53c-30.81,-79.19 -11.86,-37.37 -68.27,-5.7 -17.1,9.59 -96.51,33.47 -100.99,38.48 -42.03,46.91 1.35,152.61 -68.27,222.34 -34.56,34.6 -87.91,24.39 -125.16,-1.42 -33.72,-23.35 -40.48,-49.97 -81.07,-66.99 -104.16,-43.7 116.82,-161.59 -15.65,-256.55 0,-35.29 43.15,-35.76 61.16,-59.86 23.56,-31.5 14.23,-77.02 14.23,-115.44 -14.96,-95.86 -37.63,-23.32 29.86,-104.05 31.89,-38.16 -2.84,-71.31 -2.84,-115.44 0,-106.8 17.02,-125.43 -91.03,-71.27 -81.84,41.03 -258.76,7.9 -352.2,28.95 -8.4,6.82 -16.36,14.09 -23.61,21.95 -48.02,52.06 41.36,153.83 53.21,279.12 7.33,77.47 -125.59,-28.94 -137.11,-213.01 -4.25,-67.91 -56.26,51.06 -112.56,52.74 -38.51,1.14 -75.64,-105.37 -114.64,-154.98 -49.96,-63.53 -82.15,-126.03 -170.4,-11.36 -35.68,46.37 -72.6,147.24 -142,51.12 -167.59,-232.09 -141.5,138.44 -295.36,62.48 -95.84,-47.31 -181.48,-17.04 -301.04,-17.04 -140.07,0 -54.55,142.99 -79.89,220.57 -3.88,45.4 -9.54,97.62 7.23,105.62 48.63,23.2 161.23,-18.73 219.03,-4.28 0.45,1.38 2.9,3.83 4.27,4.28 0,92.83 -133.91,112.18 -28.45,203.81 112.64,97.85 101.07,-23.19 98.14,-114.02 -2.02,-62.57 78.61,-121.82 110.94,-57.01 28.54,57.24 40.89,75.93 81.08,124 116.89,139.83 46.74,277.7 -86.77,366.29l0 5.7c19.58,4.87 51.02,23.42 69.7,32.78 68.32,52.02 75.93,113.6 -8.54,158.2 -48.06,25.38 -95.99,74.97 -139.38,22.81 -108.48,-130.44 -86.09,-108.33 -173.52,0 -40.82,50.59 -130.49,-67.53 -209.08,-41.34 -30.13,42.24 -114.86,75.38 -160.73,98.35 -33.21,66.65 69.52,214.24 -11.37,236.59 -61.2,16.9 -73.17,46.18 -113.79,86.94 -63.21,63.41 -12.36,134.23 -96.72,156.78 -93.82,25.07 -183.47,60.68 -283.04,65.56 -5.68,1.06 -11.34,2.14 -17.07,2.85 -34.56,-17.28 -74.18,-12.61 -106.67,-38.48 -16.1,-12.81 -49.19,-31.32 -69.69,-17.1 -27.42,19.04 -39.2,34.46 -72.54,42.75 -38.26,9.52 -74.41,18.56 -113.79,4.28l-83.91 -32.78 0 0 -1.42 39.91c0,24.61 22.76,119.66 -19.92,105.46 -39.74,-13.21 -111.46,-132.54 -135.12,-132.54 -14.52,43.57 17.53,99.42 34.14,141.1 11.21,28.16 19.73,82.57 34.13,104.04 17.3,25.81 46.54,45.28 71.12,64.14 42.11,32.29 81.49,61.74 120.9,96.91 82.4,73.56 -2.19,87.42 -36.98,149.66 -37.97,67.95 -73.16,-128.2 -108.1,-138.25 -38.06,-10.96 -93.19,8.79 -133.7,5.7 -14.89,-1.14 -27,-16.32 -41.24,-5.7 -32.68,24.35 -57.78,105.32 -82.5,141.1l-4.27 0c-34.48,43.1 -9.95,118.18 -85.33,104.04 -69.53,-13.05 -57.91,-24.01 -133.7,-14.25 -105.34,13.58 -145.78,-153.36 -219.04,-32.78 -37.09,61.04 -61.16,69.93 -61.16,151.07 0,35.73 -34.32,32.06 -41.24,4.28 -3.33,-2.38 -5.61,-4.76 -7.12,-8.55 -3.59,-1.54 -4.77,-1.43 -8.53,-1.43 -56.41,75.48 -59.36,154.23 24.38,209.68 -18.15,8.09 -33.54,16.92 -43.7,25.33 -33.21,27.53 -17.89,69.17 -53.96,102.24 -48.06,44.06 -84.22,-37.9 -113.6,-8.52 -0.95,0.95 -1.9,1.9 -2.84,2.84 -64.1,64.1 -159.19,239.65 -201.64,315.24 -58.28,103.77 -117.15,20.14 -147.68,-28.4 -8.56,-13.61 -26.28,-9.92 -34.08,2.84 -20.11,32.9 -44.51,108.92 -73.84,107.92 -9.87,-0.34 -19.73,-0.69 -29.6,-1.02 -8.41,-2.87 -19.05,-1.67 -24.64,-9.82 -21.54,-24.41 -85.34,-97.42 -85.34,-126.84 3.01,-3.03 3.67,-2.91 4.27,-7.13 53.04,-30.42 217.09,-88.44 206.23,-151.08l-46.93 -270.8c-12.64,-72.9 92.28,-100.41 130.85,-168.18 52.36,0 59.13,159.93 76.8,190.99 2.34,0.58 2.44,1.01 4.27,2.85l2.85 0 135.12 -141.1c65.65,-68.55 22.88,-103.08 11.37,-183.86 -3.59,-2.06 -5.63,-4.22 -8.53,-7.13 -32.23,0 -53.79,11.45 -89.61,0 -81.91,-61.43 -195.24,74.56 -246.06,76.97 -56.7,2.7 -75.48,-135.97 -68.27,-181.01 11.37,-70.94 14.13,-81.67 -64,-72.69 -110.53,12.7 -22.64,140.21 -177.79,49.88 -26.25,-15.29 -56.15,18.73 -110.94,-4.27 -32.76,-13.76 -71.09,-59.36 -100.99,-17.1 -51.25,72.45 -65.6,-76.9 -73.96,-96.92 -27.14,-65.01 -92.98,20.41 -88.18,-95.49 4.44,-107.02 -100.98,-44.67 -100.98,-175.31 0,-68.67 -58.32,-198.48 14.22,-229.47 71.58,-30.59 -15.93,-157.68 -55.47,-186.71 -33.39,-24.53 46.11,-56.81 41.25,-81.24 -50.33,-12.54 -261.91,44.02 -304.38,76.97 -69.6,5.34 -156.41,7.87 -196.28,68.41 -39.76,60.35 -3.79,141.52 58.32,172.46l28.44 183.85c9.46,61.23 58.28,132.9 55.47,192.41 -2.73,57.61 -56.99,71.65 -93.87,101.2 -30.58,24.49 -108.09,110.81 -142.23,82.66 -26.24,-21.65 -43.57,-18.59 -75.38,-15.67 -38.27,3.51 -31.09,10.03 -62.58,-5.71 -1.47,-10.35 -26.79,-28.16 -34.14,-34.2 -40.65,-49.01 -47.91,-60.93 -65.43,-122.57 -9.89,-34.78 -71.9,-118.08 -103.83,-132.55 -9.12,-25.18 -57.89,-103.53 -76.8,-121.15 -38.72,-36.06 -95.68,-38.22 -129.43,-82.67 -10.61,-13.96 -30.35,-55.96 -41.25,-62.71 -30,-18.6 -70.48,9.02 -102.41,-22.8 -35.75,0 -112.76,68.15 -150.93,81.7l0 0z"/>
  <path class="fil1 str1" d="M16800.14 1232.54l2633.64 0 0 1592.9 -2633.64 0 0 -1592.9z"/>
  <path class="fil2" d="M19604.36 2951.54c0,-17.45 4.47,-34.48 13.46,-51.13 8.93,-16.61 21.77,-29.59 38.43,-38.86 16.69,-9.26 34.1,-13.92 52.16,-13.92 17.92,0 35.18,4.56 51.69,13.74 16.56,9.12 29.4,21.92 38.53,38.43 9.17,16.51 13.73,33.77 13.73,51.74 0,18.01 -4.56,35.27 -13.73,51.78 -9.13,16.51 -21.97,29.35 -38.53,38.53 -16.51,9.17 -33.77,13.78 -51.69,13.78 -18.06,0 -35.47,-4.66 -52.16,-13.97 -16.66,-9.36 -29.5,-22.34 -38.43,-38.95 -8.99,-16.65 -13.46,-33.68 -13.46,-51.17zm17.22 0c0,14.62 3.76,28.88 11.24,42.7 7.48,13.83 18.2,24.65 32.13,32.46 13.92,7.81 28.41,11.71 43.46,11.71 15,0 29.35,-3.85 43.08,-11.52 13.74,-7.67 24.46,-18.39 32.13,-32.17 7.67,-13.79 11.52,-28.18 11.52,-43.18 0,-14.96 -3.85,-29.36 -11.52,-43.14 -7.67,-13.78 -18.39,-24.5 -32.13,-32.12 -13.73,-7.62 -28.08,-11.43 -43.08,-11.43 -15.05,0 -29.54,3.9 -43.46,11.66 -13.93,7.76 -24.65,18.58 -32.13,32.46 -7.48,13.87 -11.24,28.08 -11.24,42.57zm103.57 -33.35l5.08 -16.94c11.53,2.78 20.7,8.61 27.52,17.55 6.87,8.98 10.3,19.85 10.3,32.59 0,16.19 -5.22,29.31 -15.71,39.42 -10.49,10.11 -24.98,15.15 -43.55,15.15 -12.14,0 -22.68,-2.31 -31.61,-6.92 -8.99,-4.56 -15.71,-11.15 -20.28,-19.61 -4.56,-8.52 -6.82,-18.25 -6.82,-29.16 0,-12.23 2.92,-22.39 8.8,-30.48 5.88,-8.09 13.88,-13.6 23.94,-16.56l4.23 16.37c-6.91,2.77 -12.23,6.82 -15.89,12.23 -3.72,5.41 -5.55,11.71 -5.55,19 0,10.58 3.76,19.33 11.28,26.2 7.53,6.87 18.35,10.3 32.37,10.3 14.06,0 24.69,-3.24 31.89,-9.74 7.19,-6.49 10.81,-14.86 10.81,-25.16 0,-8.28 -2.39,-15.57 -7.24,-21.83 -4.8,-6.25 -11.33,-10.39 -19.57,-12.41z"/>
  <path id="1" class="fil2" d="M19809.82 2656.38l-18.58 0c14.44,9.27 21.68,22.91 21.68,40.92 0,11.67 -3.19,22.39 -9.64,32.13 -6.4,9.78 -15.38,17.35 -26.86,22.76 -11.52,5.37 -24.74,8.05 -39.69,8.05 -14.59,0 -27.8,-2.45 -39.7,-7.29 -11.86,-4.9 -20.98,-12.19 -27.29,-21.92 -6.35,-9.69 -9.5,-20.61 -9.5,-32.6 0,-8.84 1.88,-16.7 5.6,-23.56 3.72,-6.87 8.61,-12.47 14.58,-16.8l-72.67 0 0 -24.83 202.07 0 0 23.14zm-73.05 78.46c18.72,0 32.69,-3.95 41.96,-11.9 9.26,-7.91 13.87,-17.27 13.87,-28.04 0,-10.86 -4.42,-20.08 -13.26,-27.7 -8.84,-7.57 -22.34,-11.38 -40.5,-11.38 -19.94,0 -34.62,3.85 -43.98,11.61 -9.36,7.72 -14.01,17.27 -14.01,28.6 0,11.06 4.46,20.27 13.45,27.71 8.98,7.38 23.14,11.1 42.47,11.1z"/>
  <path id="2" class="fil2" d="M19749.14 2603.84l-24.83 0 0 -76.76 24.83 0 0 76.76z"/>
  <path id="3" class="fil2" d="M19809.82 2499.98l-146.47 0 0 -22.29 20.69 0c-7.15,-4.56 -12.93,-10.68 -17.26,-18.3 -4.37,-7.62 -6.54,-16.27 -6.54,-26.01 0,-10.82 2.26,-19.71 6.73,-26.62 4.52,-6.92 10.77,-11.81 18.86,-14.63 -17.07,-11.67 -25.59,-26.77 -25.59,-45.39 0,-14.58 4,-25.83 12.04,-33.63 8.05,-7.86 20.42,-11.81 37.12,-11.81l100.42 0 0 24.84 -92.19 0c-9.88,0 -17.03,0.84 -21.4,2.44 -4.38,1.6 -7.86,4.52 -10.54,8.8 -2.68,4.23 -4,9.22 -4,14.91 0,10.35 3.44,18.91 10.26,25.73 6.86,6.82 17.82,10.2 32.87,10.2l85 0 0 24.84 -95.06 0c-11.01,0 -19.29,2.02 -24.79,6.07 -5.5,4.04 -8.28,10.67 -8.28,19.85 0,6.96 1.84,13.4 5.51,19.33 3.66,5.93 9.03,10.21 16.13,12.89 7.05,2.63 17.26,3.95 30.57,3.95l75.92 0 0 24.83z"/>
  <path id="4" class="fil2" d="M19791.48 2169.22c7.85,9.22 13.35,18.11 16.6,26.62 3.25,8.52 4.84,17.64 4.84,27.43 0,16.08 -3.9,28.45 -11.75,37.11 -7.81,8.65 -17.83,12.98 -30.01,12.98 -7.15,0 -13.69,-1.65 -19.62,-4.89 -5.93,-3.29 -10.63,-7.57 -14.2,-12.84 -3.58,-5.32 -6.31,-11.24 -8.14,-17.88 -1.27,-4.89 -2.49,-12.27 -3.72,-22.1 -2.35,-20.04 -5.22,-34.86 -8.51,-44.31 -3.39,-0.1 -5.55,-0.14 -6.44,-0.14 -10.07,0 -17.17,2.35 -21.31,7.05 -5.6,6.35 -8.37,15.81 -8.37,28.32 0,11.71 2.07,20.36 6.16,25.92 4.09,5.59 11.38,9.68 21.78,12.37l-3.39 24.27c-10.4,-2.21 -18.82,-5.84 -25.21,-10.92 -6.4,-5.08 -11.29,-12.41 -14.77,-22.01 -3.44,-9.55 -5.18,-20.7 -5.18,-33.3 0,-12.51 1.46,-22.72 4.42,-30.57 2.97,-7.81 6.64,-13.6 11.11,-17.27 4.46,-3.67 10.11,-6.25 16.93,-7.76 4.23,-0.8 11.85,-1.22 22.81,-1.22l32.93 0c23,0 37.53,-0.52 43.69,-1.55 6.17,-0.99 12.05,-3.06 17.69,-6.07l0 25.96c-5.22,2.5 -11.34,4.1 -18.34,4.8zm-55.04 1.98c3.67,9.03 6.78,22.57 9.32,40.64 1.45,10.25 3.1,17.49 4.93,21.73 1.84,4.23 4.52,7.48 8,9.78 3.53,2.31 7.43,3.48 11.76,3.48 6.54,0 12.04,-2.49 16.42,-7.52 4.37,-5.04 6.58,-12.38 6.58,-22.02 0,-9.55 -2.07,-18.06 -6.25,-25.54 -4.14,-7.43 -9.84,-12.93 -17.03,-16.41 -5.6,-2.69 -13.83,-4 -24.7,-4l-9.03 -0.14z"/>
  <path id="5" class="fil2" d="M19865.98 2107.93l-202.63 0 0 -22.57 19.24 0c-7.44,-5.32 -13.03,-11.34 -16.75,-18.07 -3.72,-6.68 -5.6,-14.81 -5.6,-24.36 0,-12.51 3.2,-23.52 9.65,-33.07 6.39,-9.55 15.47,-16.74 27.14,-21.63 11.71,-4.85 24.5,-7.3 38.47,-7.3 14.91,0 28.37,2.69 40.36,8.05 11.95,5.36 21.12,13.17 27.52,23.42 6.35,10.21 9.54,20.98 9.54,32.27 0,8.28 -1.74,15.71 -5.22,22.25 -3.48,6.58 -7.85,11.94 -13.17,16.18l71.45 0 0 24.83zm-128.5 -22.57c18.77,0 32.69,-3.81 41.67,-11.39 8.99,-7.62 13.45,-16.84 13.45,-27.65 0,-11.01 -4.65,-20.42 -13.97,-28.23 -9.31,-7.85 -23.7,-11.76 -43.22,-11.76 -18.63,0 -32.55,3.81 -41.82,11.48 -9.26,7.67 -13.87,16.79 -13.87,27.42 0,10.54 4.94,19.85 14.77,27.94 9.87,8.14 24.17,12.19 42.99,12.19z"/>
  <path id="6" class="fil2" d="M19766.08 1960.85l-3.96 -24.55c9.84,-1.37 17.36,-5.22 22.63,-11.53 5.22,-6.3 7.85,-15.14 7.85,-26.43 0,-11.43 -2.3,-19.9 -6.96,-25.45 -4.61,-5.5 -10.06,-8.28 -16.32,-8.28 -5.6,0 -10.02,2.5 -13.22,7.44 -2.21,3.48 -4.98,11.94 -8.42,25.4 -4.56,18.15 -8.51,30.71 -11.85,37.77 -3.39,7 -7.99,12.32 -13.92,15.94 -5.88,3.62 -12.42,5.46 -19.57,5.46 -6.54,0 -12.56,-1.51 -18.11,-4.47 -5.55,-3.01 -10.16,-7.06 -13.83,-12.18 -2.82,-3.86 -5.22,-9.13 -7.19,-15.76 -1.98,-6.68 -2.97,-13.78 -2.97,-21.4 0,-11.48 1.65,-21.54 4.99,-30.2 3.29,-8.7 7.81,-15.1 13.45,-19.24 5.69,-4.09 13.27,-6.96 22.77,-8.51l3.38 24.27c-7.62,1.08 -13.59,4.28 -17.87,9.55 -4.28,5.27 -6.4,12.7 -6.4,22.34 0,11.34 1.88,19.47 5.65,24.32 3.76,4.84 8.18,7.29 13.21,7.29 3.2,0 6.12,-0.99 8.71,-3.01 2.63,-2.02 4.84,-5.18 6.58,-9.5 0.94,-2.5 3.06,-9.74 6.35,-21.87 4.66,-17.5 8.52,-29.73 11.48,-36.69 2.96,-6.96 7.34,-12.42 12.98,-16.37 5.69,-4 12.75,-5.98 21.21,-5.98 8.24,0 16,2.4 23.29,7.25 7.29,4.84 12.93,11.8 16.93,20.88 4,9.13 5.97,19.43 5.97,30.91 0,19 -3.95,33.53 -11.8,43.5 -7.9,9.98 -19.57,16.33 -35.04,19.1z"/>
  <path id="7" class="fil2" d="M19809.82 1802.81l-28.22 0 0 -28.22 28.22 0 0 28.22z"/>
  <path id="8" class="fil2" d="M19756.2 1635.78l3.38 -24.27c16.7,2.68 29.73,9.45 39.19,20.41 9.45,10.96 14.15,24.46 14.15,40.41 0,19.99 -6.53,36.08 -19.61,48.21 -13.08,12.18 -31.8,18.25 -56.16,18.25 -15.81,0 -29.59,-2.63 -41.39,-7.85 -11.86,-5.22 -20.75,-13.17 -26.63,-23.9 -5.92,-10.68 -8.89,-22.29 -8.89,-34.9 0,-15.85 4,-28.88 12.04,-38.95 8.05,-10.11 19.48,-16.6 34.25,-19.42l3.67 23.99c-9.83,2.3 -17.22,6.35 -22.2,12.23 -4.94,5.83 -7.44,12.88 -7.44,21.16 0,12.51 4.47,22.67 13.41,30.53 8.98,7.81 23.09,11.71 42.47,11.71 19.66,0 33.92,-3.76 42.81,-11.29 8.89,-7.57 13.35,-17.4 13.35,-29.49 0,-9.78 -2.96,-17.92 -8.93,-24.41 -5.93,-6.54 -15.1,-10.68 -27.47,-12.42z"/>
  <path id="9" class="fil2" d="M19736.58 1599.66c-27.04,0 -47.08,-7.53 -60.11,-22.63 -10.82,-12.56 -16.23,-27.94 -16.23,-46.05 0,-20.08 6.59,-36.54 19.76,-49.34 13.12,-12.75 31.33,-19.14 54.51,-19.14 18.82,0 33.59,2.82 44.36,8.46 10.77,5.65 19.14,13.88 25.12,24.7 5.97,10.77 8.93,22.58 8.93,35.32 0,20.51 -6.53,37.07 -19.66,49.72 -13.12,12.65 -32.03,18.96 -56.68,18.96zm0.05 -25.4c18.72,0 32.74,-4.1 42,-12.28 9.32,-8.23 13.97,-18.53 13.97,-31 0,-12.32 -4.65,-22.57 -14.01,-30.81 -9.36,-8.18 -23.61,-12.27 -42.76,-12.27 -18.06,0 -31.75,4.14 -41.01,12.37 -9.32,8.23 -13.97,18.48 -13.97,30.71 0,12.47 4.61,22.77 13.87,31 9.27,8.18 23.24,12.28 41.91,12.28z"/>
  <path id="10" class="fil2" d="M19809.82 1433.38l-146.47 0 0 -22.29 20.69 0c-7.15,-4.56 -12.93,-10.68 -17.26,-18.3 -4.37,-7.62 -6.54,-16.27 -6.54,-26.01 0,-10.82 2.26,-19.71 6.73,-26.62 4.52,-6.92 10.77,-11.81 18.86,-14.63 -17.07,-11.67 -25.59,-26.77 -25.59,-45.39 0,-14.58 4,-25.83 12.04,-33.63 8.05,-7.86 20.42,-11.81 37.12,-11.81l100.42 0 0 24.84 -92.19 0c-9.88,0 -17.03,0.84 -21.4,2.44 -4.38,1.6 -7.86,4.52 -10.54,8.8 -2.68,4.23 -4,9.22 -4,14.91 0,10.35 3.44,18.91 10.26,25.73 6.86,6.82 17.82,10.2 32.87,10.2l85 0 0 24.84 -95.06 0c-11.01,0 -19.29,2.02 -24.79,6.07 -5.5,4.04 -8.28,10.67 -8.28,19.85 0,6.96 1.84,13.4 5.51,19.33 3.66,5.93 9.03,10.21 16.13,12.89 7.05,2.63 17.26,3.95 30.57,3.95l75.92 0 0 24.83z"/>
  <g id="_2994154686736">
   <g>
    <path class="fil3 str2" d="M16940.5 1828.57l733.55 0 0 99.16 -733.55 0 0 -99.16z"/>
    <path class="fil4 str2" d="M17674.05 1828.57l733.54 0 0 99.16 -733.54 0 0 -99.16z"/>
    <path class="fil3 str2" d="M18407.59 1828.57l733.55 0 0 99.16 -733.55 0 0 -99.16z"/>
    <path class="fil3 str2" d="M18116.3 2127.51l1173.23 0 0 99.16 -1173.23 0 0 -99.16z"/>
    <path class="fil4 str2" d="M16943.07 2127.51l1173.23 0 0 99.16 -1173.23 0 0 -99.16z"/>
   </g>
   <path class="fil5" d="M17638.31 1477.05c6.64,-15.76 15.11,-27.93 25.28,-36.51 10.17,-8.59 22.87,-12.88 38.04,-12.88 18.76,0 33.11,6.06 43.1,18.23 7.59,9.05 11.41,18.75 11.41,29.1 0,16.99 -10.7,34.57 -32.11,52.68 14.41,5.65 25.29,13.64 32.7,24.11 7.35,10.41 11.05,22.7 11.05,36.81 0,20.22 -6.47,37.69 -19.34,52.5 -16.76,19.29 -41.1,28.93 -72.97,28.93 -15.76,0 -26.46,-1.94 -32.16,-5.88 -5.71,-3.88 -8.53,-8.11 -8.53,-12.58 0,-3.35 1.35,-6.23 4.06,-8.76 2.7,-2.53 5.94,-3.82 9.76,-3.82 2.88,0 5.82,0.47 8.82,1.41 1.94,0.59 6.35,2.7 13.29,6.35 6.88,3.64 11.7,5.82 14.34,6.52 4.24,1.3 8.82,1.94 13.64,1.94 11.76,0 21.93,-4.52 30.64,-13.64 8.7,-9.05 13.05,-19.81 13.05,-32.22 0,-9.05 -2,-17.93 -6.06,-26.51 -3,-6.47 -6.29,-11.35 -9.82,-14.65 -4.99,-4.58 -11.76,-8.76 -20.4,-12.52 -8.64,-3.7 -17.46,-5.58 -26.46,-5.58l-5.52 0 0 -5.3c9.11,-1.17 18.16,-4.41 27.34,-9.82 9.11,-5.4 15.75,-11.87 19.87,-19.46 4.17,-7.58 6.23,-15.87 6.23,-24.99 0,-11.81 -3.7,-21.34 -11.11,-28.63 -7.47,-7.29 -16.7,-10.94 -27.75,-10.94 -17.82,0 -32.69,9.65 -44.69,28.87l-5.7 -2.76z"/>
   <path id="1" class="fil5" d="M17809.76 1550.55c0,-26.64 4,-49.51 12.05,-68.74 8.06,-19.22 18.7,-33.57 32.05,-42.98 10.29,-7.47 20.99,-11.17 31.98,-11.17 17.94,0 33.99,9.11 48.22,27.34 17.81,22.64 26.69,53.27 26.69,91.96 0,27.05 -3.88,50.09 -11.7,69.03 -7.82,18.93 -17.76,32.63 -29.87,41.21 -12.11,8.53 -23.81,12.82 -35.04,12.82 -22.29,0 -40.81,-13.11 -55.62,-39.39 -12.53,-22.17 -18.76,-48.86 -18.76,-80.08zm33.87 4.23c0,32.1 3.94,58.33 11.82,78.67 6.52,17.11 16.28,25.63 29.22,25.63 6.17,0 12.58,-2.76 19.22,-8.34 6.65,-5.59 11.65,-14.88 15.11,-27.99 5.24,-19.7 7.88,-47.57 7.88,-83.43 0,-26.64 -2.76,-48.86 -8.23,-66.62 -4.11,-13.23 -9.46,-22.58 -15.99,-28.05 -4.65,-3.82 -10.35,-5.7 -16.99,-5.7 -7.76,0 -14.7,3.53 -20.76,10.52 -8.23,9.53 -13.87,24.46 -16.81,44.92 -3,20.41 -4.47,40.52 -4.47,60.39z"/>
   <path id="2" class="fil5" d="M18119.51 1420.96l0 157.16 39.98 -36.63c8.52,-7.82 13.46,-12.76 14.81,-14.82 0.95,-1.41 1.42,-2.76 1.42,-4.17 0,-2.29 -1,-4.23 -2.89,-5.94 -1.88,-1.65 -4.99,-2.59 -9.4,-2.82l0 -5.65 68.61 0 0 5.65c-9.35,0.23 -17.17,1.7 -23.4,4.35 -6.23,2.7 -13.05,7.47 -20.52,14.29l-40.63 37.22 40.34 51.33c11.29,14.05 18.81,23.04 22.58,26.98 5.58,5.24 10.4,8.65 14.58,10.17 2.94,1.12 7.99,1.71 15.17,1.71l0 6.35 -76.73 0 0 -6.35c4.41,-0.12 7.35,-0.76 8.88,-1.94 1.58,-1.24 2.35,-2.88 2.35,-5.06 0,-2.64 -2.3,-6.88 -6.88,-12.7l-48.27 -61.79 0 52.21c0,10.23 0.7,16.93 2.11,20.17 1.47,3.17 3.47,5.46 6.12,6.88 2.64,1.35 8.35,2.11 17.17,2.23l0 6.35 -80.08 0 0 -6.35c7.99,0 14.05,-1 18.05,-2.94 2.41,-1.23 4.23,-3.17 5.46,-5.76 1.71,-3.76 2.59,-10.29 2.59,-19.52l0 -143.94c0,-18.05 -0.41,-29.1 -1.18,-33.16 -0.82,-4.05 -2.11,-6.82 -3.99,-8.35 -1.83,-1.58 -4.24,-2.35 -7.18,-2.35 -2.41,0 -6.05,1 -10.82,2.94l-2.93 -6.35 46.74 -19.4 7.94 0z"/>
   <path id="3" class="fil5" d="M18296.25 1537.26c11.41,-11.53 18.17,-18.17 20.22,-19.93 5.12,-4.36 10.65,-7.77 16.59,-10.18 5.93,-2.41 11.81,-3.64 17.63,-3.64 9.88,0 18.29,2.88 25.4,8.64 7.06,5.76 11.82,14.11 14.17,25.11 11.88,-13.88 21.88,-22.93 30.05,-27.28 8.17,-4.3 16.58,-6.47 25.22,-6.47 8.35,0 15.82,2.17 22.35,6.47 6.46,4.29 11.64,11.34 15.4,21.16 2.53,6.65 3.82,17.11 3.82,31.4l0 67.97c0,9.82 0.71,16.58 2.18,20.23 1.12,2.46 3.23,4.64 6.23,6.4 3.06,1.77 8,2.65 14.88,2.65l0 6.35 -77.26 0 0 -6.35 3.29 0c6.7,0 11.99,-1.29 15.76,-3.94 2.64,-1.82 4.52,-4.76 5.64,-8.76 0.47,-1.94 0.71,-7.47 0.71,-16.58l0 -67.91c0,-12.88 -1.53,-21.93 -4.65,-27.22 -4.52,-7.35 -11.7,-11.06 -21.63,-11.06 -6.06,0 -12.23,1.53 -18.41,4.59 -6.11,3 -13.58,8.7 -22.34,16.93l-0.35 1.94 0.7 7.41 0 75.32c0,10.7 0.59,17.4 1.77,20.05 1.23,2.59 3.46,4.82 6.76,6.58 3.29,1.77 8.93,2.65 16.87,2.65l0 6.35 -79.37 0 0 -6.35c8.64,0 14.58,-1 17.81,-3.06 3.24,-2.06 5.47,-5.17 6.7,-9.29 0.59,-1.94 0.89,-7.58 0.89,-16.93l0 -67.91c0,-12.88 -1.88,-22.17 -5.65,-27.87 -5.05,-7.41 -12.05,-11.11 -21.11,-11.11 -6.17,0 -12.28,1.7 -18.34,5.05 -9.47,5.06 -16.82,10.82 -21.93,17.17l0 84.67c0,10.29 0.7,16.93 2.12,20.05 1.41,3.06 3.52,5.35 6.35,6.94 2.76,1.53 8.4,2.29 16.93,2.29l0 6.35 -77.97 0 0 -6.35c7.24,0 12.29,-0.76 15.17,-2.29 2.89,-1.59 5.06,-4 6.59,-7.41 1.47,-3.35 2.23,-9.88 2.23,-19.58l0 -60.33c0,-17.28 -0.53,-28.45 -1.53,-33.51 -0.82,-3.82 -2.05,-6.41 -3.82,-7.82 -1.7,-1.47 -4.05,-2.18 -6.99,-2.18 -3.24,0 -7.06,0.89 -11.53,2.59l-2.58 -6.35 47.62 -19.4 7.41 0 0 33.75z"/>
   <path class="fil5" d="M17900.91 2590.53l-16.34 45.39 -137.82 0 0 -6.47c40.57,-36.98 69.08,-67.14 85.61,-90.54 16.52,-23.41 24.81,-44.81 24.81,-64.21 0,-14.82 -4.53,-26.99 -13.64,-36.51 -9.06,-9.53 -19.88,-14.29 -32.52,-14.29 -11.52,0 -21.81,3.29 -30.92,9.94 -9.18,6.64 -15.88,16.4 -20.29,29.22l-6.35 0c2.88,-21.11 10.29,-37.34 22.17,-48.69 11.87,-11.28 26.75,-16.93 44.62,-16.93 18.94,0 34.81,6.12 47.51,18.29 12.7,12.17 19.05,26.51 19.05,43.09 0,11.82 -2.76,23.7 -8.29,35.52 -8.47,18.58 -22.28,38.27 -41.33,59.09 -28.64,31.16 -46.28,49.86 -53.04,56.03l60.39 0c12.29,0 20.93,-0.47 25.87,-1.35 4.94,-0.94 9.41,-2.82 13.4,-5.65 4,-2.76 7.47,-6.76 10.41,-11.93l6.7 0z"/>
   <path id="1" class="fil5" d="M17928.43 2520.33c0,-26.64 4,-49.51 12.05,-68.74 8.06,-19.22 18.7,-33.57 32.05,-42.98 10.29,-7.47 20.99,-11.17 31.98,-11.17 17.94,0 33.99,9.11 48.22,27.34 17.81,22.64 26.69,53.27 26.69,91.96 0,27.05 -3.88,50.09 -11.7,69.03 -7.82,18.93 -17.76,32.63 -29.87,41.21 -12.11,8.53 -23.81,12.82 -35.04,12.82 -22.29,0 -40.81,-13.11 -55.62,-39.39 -12.53,-22.17 -18.76,-48.86 -18.76,-80.08zm33.87 4.23c0,32.1 3.94,58.33 11.82,78.67 6.52,17.11 16.28,25.63 29.22,25.63 6.17,0 12.58,-2.76 19.22,-8.34 6.65,-5.59 11.65,-14.88 15.11,-27.99 5.24,-19.7 7.88,-47.57 7.88,-83.43 0,-26.64 -2.76,-48.86 -8.23,-66.62 -4.11,-13.23 -9.46,-22.58 -15.99,-28.05 -4.65,-3.82 -10.35,-5.7 -16.99,-5.7 -7.76,0 -14.7,3.53 -20.76,10.52 -8.23,9.53 -13.87,24.46 -16.81,44.92 -3,20.41 -4.47,40.52 -4.47,60.39z"/>
   <path id="2" class="fil5" d="M18238.53 2507.04c11.41,-11.53 18.17,-18.17 20.22,-19.93 5.12,-4.36 10.65,-7.77 16.59,-10.18 5.93,-2.41 11.81,-3.64 17.63,-3.64 9.88,0 18.29,2.88 25.4,8.64 7.06,5.76 11.82,14.11 14.17,25.11 11.88,-13.88 21.88,-22.93 30.05,-27.28 8.17,-4.3 16.58,-6.47 25.22,-6.47 8.35,0 15.82,2.17 22.35,6.47 6.46,4.29 11.64,11.34 15.4,21.16 2.53,6.65 3.82,17.11 3.82,31.4l0 67.97c0,9.82 0.71,16.58 2.18,20.23 1.12,2.46 3.23,4.64 6.23,6.4 3.06,1.77 8,2.65 14.88,2.65l0 6.35 -77.26 0 0 -6.35 3.29 0c6.7,0 11.99,-1.29 15.76,-3.94 2.64,-1.82 4.52,-4.76 5.64,-8.76 0.47,-1.94 0.71,-7.47 0.71,-16.58l0 -67.91c0,-12.88 -1.53,-21.93 -4.65,-27.22 -4.52,-7.35 -11.7,-11.06 -21.63,-11.06 -6.06,0 -12.23,1.53 -18.41,4.59 -6.11,3 -13.58,8.7 -22.34,16.93l-0.35 1.94 0.7 7.41 0 75.32c0,10.7 0.59,17.4 1.77,20.05 1.23,2.59 3.46,4.82 6.76,6.58 3.29,1.77 8.93,2.65 16.87,2.65l0 6.35 -79.37 0 0 -6.35c8.64,0 14.58,-1 17.81,-3.06 3.24,-2.06 5.47,-5.17 6.7,-9.29 0.59,-1.94 0.89,-7.58 0.89,-16.93l0 -67.91c0,-12.88 -1.88,-22.17 -5.65,-27.87 -5.05,-7.41 -12.05,-11.11 -21.11,-11.11 -6.17,0 -12.28,1.7 -18.34,5.05 -9.47,5.06 -16.82,10.82 -21.93,17.17l0 84.67c0,10.29 0.7,16.93 2.12,20.05 1.41,3.06 3.52,5.35 6.35,6.94 2.76,1.53 8.4,2.29 16.93,2.29l0 6.35 -77.97 0 0 -6.35c7.24,0 12.29,-0.76 15.17,-2.29 2.89,-1.59 5.06,-4 6.59,-7.41 1.47,-3.35 2.23,-9.88 2.23,-19.58l0 -60.33c0,-17.28 -0.53,-28.45 -1.53,-33.51 -0.82,-3.82 -2.05,-6.41 -3.82,-7.82 -1.7,-1.47 -4.05,-2.18 -6.99,-2.18 -3.24,0 -7.06,0.89 -11.53,2.59l-2.58 -6.35 47.62 -19.4 7.41 0 0 33.75z"/>
   <path id="3" class="fil5" d="M18506.17 2390.74c4.76,0 8.88,1.7 12.29,5.05 3.35,3.41 5.05,7.53 5.05,12.29 0,4.82 -1.7,9 -5.05,12.41 -3.41,3.47 -7.53,5.17 -12.29,5.17 -4.82,0 -9,-1.7 -12.41,-5.17 -3.47,-3.41 -5.17,-7.59 -5.17,-12.41 0,-4.76 1.7,-8.88 5.05,-12.29 3.41,-3.35 7.59,-5.05 12.53,-5.05zm14.17 82.55l0 127c0,9.82 0.7,16.34 2.17,19.58 1.41,3.29 3.53,5.7 6.35,7.29 2.82,1.59 8,2.41 15.47,2.41l0 6.35 -76.56 0 0 -6.35c7.65,0 12.82,-0.76 15.41,-2.23 2.64,-1.47 4.7,-3.94 6.29,-7.35 1.53,-3.41 2.29,-10 2.29,-19.7l0 -61.03c0,-16.99 -0.53,-27.99 -1.53,-33.05 -0.82,-3.64 -2.05,-6.17 -3.82,-7.58 -1.7,-1.47 -4.06,-2.18 -7,-2.18 -3.23,0 -7.11,0.89 -11.7,2.59l-2.41 -6.35 47.45 -19.4 7.59 0z"/>
  </g>
  <rect class="fil6 str3" x="1000" y="999.99" width="19000" height="21886.45"/>
  <g id="_2994154681744">
   <path class="fil1 str1" d="M15849.96 1233.87l815.93 0 0 1592.89 -815.93 0 0 -1592.89z"/>
   <path class="fil7" d="M16198.06 1670c-0.92,3.32 -1.63,6.35 -2.07,9.15 -0.44,2.79 -0.65,5.18 -0.65,7.22 0,5.59 1.8,9.56 5.29,11.89 3.49,2.33 9.55,3.49 18.05,3.49l4.15 0 -4.96 22.72 -78.17 0 5.29 -22.72 2.89 0c7.36,0 12.82,-1.51 16.48,-4.54 3.6,-2.97 6.32,-8.39 8.12,-16.14l37.59 -153.79c0.6,-2.74 1.14,-5.54 1.52,-8.45 0.33,-2.91 0.55,-5.77 0.55,-8.62 0,-5.36 -1.96,-9.15 -5.95,-11.36 -3.92,-2.22 -10.69,-3.32 -20.23,-3.32l-3.06 0 5.29 -22.72 72.33 0 62.14 183.5 31.31 -129.03c1.08,-4.2 1.85,-7.63 2.34,-10.31 0.49,-2.68 0.71,-4.72 0.71,-6.06 0,-5.6 -1.8,-9.56 -5.35,-11.89 -3.6,-2.33 -9.71,-3.49 -18.32,-3.49l-4.15 0 4.96 -22.72 78.5 0 -5.62 22.72 -2.84 0c-7.37,0 -12.87,1.51 -16.47,4.54 -3.66,2.97 -6.33,8.33 -8.18,15.96l-50.68 208.44 -21.54 0 -72.06 -209.48 -37.21 155.01z"/>
   <path class="fil6 str4" d="M16258.75 2693.56l0 -769.27"/>
   <path class="fil6 str4" d="M15976.7 2417.51l563.14 0"/>
   <path class="fil6 str4" d="M16113.85 2557.5l294.22 -286.81"/>
   <path class="fil6 str4" d="M16110.71 2270.45l297.98 288.85"/>
   <path class="fil6 str4" d="M16258.61 1927.02l-95.47 118.01"/>
   <path class="fil6 str4" d="M16259.23 1926.98l87.89 118.05"/>
  </g>
  <g id="_2994154680400">
   <path class="fil1 str1" d="M3481.51 1230.44l0 473.7 -2309.37 0 0 -473.7 2309.37 0z"/>
   <path class="fil7" d="M2249.48 1568.91l0 -202.07 40.07 0 47.79 143.04c4.42,13.31 7.62,23.28 9.64,29.91 2.31,-7.33 5.93,-18.15 10.82,-32.4l48.64 -140.55 35.79 0 0 202.07 -25.68 0 0 -169.05 -58.98 169.05 -24.09 0 -58.32 -172.15 0 172.15 -25.68 0z"/>
   <path id="1" class="fil7" d="M2581.93 1521.5l25.68 3.38c-3.99,14.91 -11.47,26.53 -22.39,34.76 -10.91,8.24 -24.83,12.37 -41.81,12.37 -21.36,0 -38.29,-6.58 -50.8,-19.75 -12.51,-13.12 -18.77,-31.61 -18.77,-55.36 0,-24.56 6.31,-43.65 18.96,-57.2 12.65,-13.59 29.07,-20.37 49.25,-20.37 19.52,0 35.46,6.64 47.83,19.95 12.37,13.31 18.58,32.03 18.58,56.16 0,1.46 -0.05,3.67 -0.14,6.58l-109.08 0c0.94,16.04 5.46,28.37 13.64,36.88 8.14,8.51 18.35,12.79 30.53,12.79 9.08,0 16.84,-2.39 23.24,-7.19 6.44,-4.8 11.52,-12.47 15.28,-23zm-81.28 -39.8l81.56 0c-1.08,-12.32 -4.23,-21.54 -9.36,-27.7 -7.85,-9.55 -18.1,-14.35 -30.66,-14.35 -11.39,0 -20.93,3.81 -28.7,11.43 -7.71,7.62 -11.99,17.83 -12.84,30.62z"/>
   <path id="2" class="fil7" d="M2638.7 1568.91l0 -146.47 22.3 0 0 22.43c5.69,-10.39 10.96,-17.26 15.8,-20.55 4.85,-3.34 10.16,-4.99 15.95,-4.99 8.37,0 16.89,2.64 25.54,7.86l-8.84 22.91c-6.02,-3.39 -12.04,-5.08 -18.06,-5.08 -5.41,0 -10.26,1.64 -14.54,4.89 -4.28,3.24 -7.34,7.76 -9.17,13.54 -2.78,8.8 -4.14,18.44 -4.14,28.93l0 76.53 -24.84 0z"/>
   <path id="3" class="fil7" d="M2828.64 1515.29l24.27 3.38c-2.68,16.7 -9.45,29.73 -20.41,39.19 -10.96,9.45 -24.46,14.15 -40.41,14.15 -19.99,0 -36.08,-6.53 -48.21,-19.61 -12.18,-13.08 -18.25,-31.8 -18.25,-56.16 0,-15.81 2.63,-29.59 7.85,-41.44 5.22,-11.81 13.17,-20.7 23.9,-26.58 10.68,-5.92 22.29,-8.89 34.9,-8.89 15.85,0 28.88,4 38.95,12.04 10.11,8.05 16.6,19.48 19.42,34.25l-23.99 3.67c-2.3,-9.83 -6.35,-17.22 -12.23,-22.2 -5.83,-4.94 -12.88,-7.44 -21.16,-7.44 -12.51,0 -22.67,4.47 -30.53,13.41 -7.81,8.98 -11.71,23.09 -11.71,42.47 0,19.66 3.76,33.92 11.29,42.81 7.57,8.89 17.4,13.35 29.49,13.35 9.78,0 17.92,-2.96 24.41,-8.93 6.54,-5.93 10.68,-15.1 12.42,-27.47z"/>
   <path id="4" class="fil7" d="M2969.75 1550.57c-9.22,7.85 -18.11,13.35 -26.62,16.6 -8.52,3.25 -17.64,4.84 -27.43,4.84 -16.08,0 -28.45,-3.9 -37.11,-11.75 -8.65,-7.81 -12.98,-17.83 -12.98,-30.01 0,-7.15 1.65,-13.69 4.89,-19.62 3.29,-5.93 7.57,-10.63 12.84,-14.2 5.32,-3.58 11.24,-6.31 17.88,-8.14 4.89,-1.27 12.27,-2.49 22.1,-3.72 20.04,-2.35 34.86,-5.22 44.31,-8.51 0.1,-3.39 0.14,-5.55 0.14,-6.44 0,-10.07 -2.35,-17.17 -7.05,-21.31 -6.35,-5.6 -15.81,-8.37 -28.32,-8.37 -11.71,0 -20.36,2.07 -25.92,6.16 -5.59,4.09 -9.68,11.33 -12.37,21.78l-24.27 -3.39c2.21,-10.4 5.84,-18.82 10.92,-25.21 5.08,-6.4 12.41,-11.29 22.01,-14.77 9.55,-3.44 20.7,-5.18 33.3,-5.18 12.51,0 22.72,1.46 30.57,4.42 7.81,2.97 13.6,6.64 17.27,11.11 3.67,4.46 6.25,10.11 7.76,16.93 0.8,4.23 1.22,11.85 1.22,22.81l0 32.93c0,23 0.52,37.53 1.55,43.69 0.99,6.17 3.06,12.05 6.07,17.69l-25.96 0c-2.5,-5.22 -4.1,-11.34 -4.8,-18.34zm-1.98 -55.04c-9.03,3.67 -22.57,6.78 -40.64,9.32 -10.25,1.45 -17.49,3.1 -21.73,4.93 -4.23,1.84 -7.48,4.52 -9.78,8 -2.31,3.53 -3.48,7.43 -3.48,11.76 0,6.54 2.49,12.04 7.52,16.42 5.04,4.37 12.38,6.58 22.02,6.58 9.55,0 18.06,-2.07 25.54,-6.25 7.43,-4.14 12.93,-9.84 16.41,-17.03 2.69,-5.6 4,-13.83 4,-24.7l0.14 -9.03z"/>
   <path id="5" class="fil7" d="M3084.94 1546.76l3.39 21.91c-6.96,1.46 -13.22,2.22 -18.68,2.22 -8.98,0 -15.94,-1.42 -20.93,-4.28 -4.94,-2.87 -8.42,-6.59 -10.44,-11.25 -2.02,-4.65 -3.01,-14.44 -3.01,-29.35l0 -84.38 -18.34 0 0 -19.19 18.34 0 0 -36.22 24.84 -14.91 0 51.13 24.83 0 0 19.19 -24.83 0 0 85.79c0,7.11 0.42,11.67 1.31,13.69 0.85,2.02 2.26,3.62 4.24,4.85 1.97,1.17 4.79,1.78 8.46,1.78 2.73,0 6.35,-0.33 10.82,-0.98z"/>
   <path id="6" class="fil7" d="M3100.13 1495.67c0,-27.04 7.53,-47.08 22.63,-60.11 12.56,-10.82 27.94,-16.23 46.05,-16.23 20.08,0 36.54,6.59 49.34,19.76 12.75,13.12 19.14,31.33 19.14,54.51 0,18.82 -2.82,33.59 -8.46,44.36 -5.65,10.77 -13.88,19.14 -24.7,25.12 -10.77,5.97 -22.58,8.93 -35.32,8.93 -20.51,0 -37.07,-6.53 -49.72,-19.66 -12.65,-13.12 -18.96,-32.03 -18.96,-56.68zm25.4 0.05c0,18.72 4.1,32.74 12.28,42 8.23,9.32 18.53,13.97 31,13.97 12.32,0 22.57,-4.65 30.81,-14.01 8.18,-9.36 12.27,-23.61 12.27,-42.76 0,-18.06 -4.14,-31.75 -12.37,-41.01 -8.23,-9.32 -18.48,-13.97 -30.71,-13.97 -12.47,0 -22.77,4.61 -31,13.87 -8.18,9.27 -12.28,23.24 -12.28,41.91z"/>
   <path id="7" class="fil7" d="M3266.12 1568.91l0 -146.47 22.3 0 0 22.43c5.69,-10.39 10.96,-17.26 15.8,-20.55 4.85,-3.34 10.16,-4.99 15.95,-4.99 8.37,0 16.89,2.64 25.54,7.86l-8.84 22.91c-6.02,-3.39 -12.04,-5.08 -18.06,-5.08 -5.41,0 -10.26,1.64 -14.54,4.89 -4.28,3.24 -7.34,7.76 -9.17,13.54 -2.78,8.8 -4.14,18.44 -4.14,28.93l0 76.53 -24.84 0z"/>
   <circle class="fil8 str5" cx="1390.51" cy="1463.59" r="118.79"/>
   <rect class="fil8 str5" x="1848.44" y="1355.31" width="226.91" height="226.91"/>
   <path class="fil6 str6" d="M1564.41 1462.72l220.31 0"/>
   <path class="fil6 str6" d="M1782.06 1463.38l-64.02 65.38"/>
   <path class="fil6 str6" d="M1782.23 1462.24l-63.42 -61.39"/>
  </g>
 </g>
</svg>
