<?xml version="1.0" encoding="UTF-8"?>
<!DOCTYPE svg PUBLIC "-//W3C//DTD SVG 1.1//EN" "http://www.w3.org/Graphics/SVG/1.1/DTD/svg11.dtd">
<!-- Creator: CorelDRAW -->
<svg xmlns="http://www.w3.org/2000/svg" xml:space="preserve" width="297mm" height="210mm" version="1.1" style="shape-rendering:geometricPrecision; text-rendering:geometricPrecision; image-rendering:optimizeQuality; fill-rule:evenodd; clip-rule:evenodd"
viewBox="0 0 29700 21000"
 xmlns:xlink="http://www.w3.org/1999/xlink">
 <defs>
  <style type="text/css">
   <![CDATA[
    .str1 {stroke:black;stroke-width:10;stroke-miterlimit:3.864;stroke-opacity:0.501961}
    .str3 {stroke:black;stroke-width:50;stroke-miterlimit:22.9256}
    .str5 {stroke:#434242;stroke-width:10;stroke-miterlimit:22.9256}
    .str2 {stroke:#3F3E3F;stroke-width:10;stroke-miterlimit:3.864}
    .str0 {stroke:black;stroke-width:10;stroke-miterlimit:22.9256}
    .str6 {stroke:#2B2A29;stroke-width:7.62;stroke-miterlimit:22.9256}
    .str4 {stroke:black;stroke-width:7.62;stroke-miterlimit:22.9256}
    .fil6 {fill:none}
    .fil0 {fill:#FEFEFE}
    .fil8 {fill:#D9DADA}
    .fil4 {fill:#FEFEFE;fill-rule:nonzero}
    .fil3 {fill:#D9DADA;fill-rule:nonzero}
    .fil7 {fill:#434242;fill-rule:nonzero}
    .fil5 {fill:#2B2A29;fill-rule:nonzero}
    .fil2 {fill:black;fill-rule:nonzero}
    .fil1 {fill:#FEFEFE;fill-rule:nonzero;fill-opacity:0.501961}
   ]]>
  </style>
 </defs>
 <g id="Plan_x0020_1">
  <metadata id="CorelCorpID_0Corel-Layer"/>
  <rect class="fil0" x="999.99" y="1000" width="23382.35" height="19000"/>
  <path class="fil0 str0" d="M1000 1000l23382.35 0 0 19000 -23382.35 0 0 -19000zm10085.83 15389.34l278.49 167.43 -29.01 253.48 481.54 -2.32 20.89 372.08 -1.16 125.58 353.9 10.46c56.25,15.36 112.99,10.16 170.58,19.77 27.93,4.65 47.54,12.79 76.58,12.79 24.43,0 44.85,-10.47 69.62,-10.47 44.77,35.97 51.93,36.25 112.55,39.54l149.69 8.14 198.42 -467.43 -84.71 -359.29 -171.73 -570.91c-3.1,-36.3 -10.44,-72.97 -10.44,-109.3 0,-31.4 -3.31,-63.01 19.72,-86.04 9.7,-1.21 17.95,-5.27 29.01,-5.82 10.76,-0.54 20.16,-3.49 31.33,-3.49l642.83 -244.17c40.38,-7.83 84.17,-34.83 119.52,-54.65 33.42,-18.75 93.41,-50.64 119.51,-76.74 13.95,-3.48 50.3,-27.85 62.66,-37.21 61.1,-46.24 173.38,-72.09 249.48,-72.09 28.53,7.35 58.45,0.26 87.02,4.65 11.58,1.77 26.43,3.56 35.98,10.46 8.11,5.85 10.8,13.17 17.4,19.77 2.44,17.08 24.33,34.6 26.69,51.16 6.69,6.69 9.53,27.49 12.76,37.21l223.95 655.79c1.41,4.96 3.95,11.92 4.64,17.44 20.54,30.81 30.77,93.73 34.81,130.23 5.51,49.86 3.13,102.39 6.96,152.32l23.21 84.88 273.84 -82.55 650.96 -147.67 13.92 -9.31c86.73,-43.41 85.61,-38.31 174.05,-17.44 49.45,11.66 118.25,56.39 162.45,84.88l117.2 75.58c11.8,7.6 49.57,43.32 59.17,38.37 66.1,-34.06 150.51,-138.36 230.91,-138.36 6.5,8.67 -45.23,130.14 -48.73,151.15l-41.77 250c-19.47,116.56 20.86,127.9 126.47,127.9l742.63 24.42c10,-1.29 23.87,-5.88 32.49,-11.63 34.56,-4.32 74.87,-22.98 110.23,-30.23 60.28,-12.35 123.29,-22.29 182.17,-41.86 29.93,-9.95 59.45,-18.4 88.19,-31.4 38.01,-17.21 83.58,-26.25 119.52,-44.18 74.9,-38.78 187.78,-136.3 268.04,-72.09 11.26,78.83 -18.25,129.06 31.32,197.67 15.17,21.01 -4.21,60.39 9.29,83.71 32.56,56.22 86.5,37.16 128.8,88.37l167.09 202.32c49.4,59.81 18.84,114.15 26.68,184.88l2.32 76.74 -18.56 89.53 645.15 -362.77 129.96 223.24 284.29 -38.37 -3.48 248.83 -10.08 21.92 1.08 2.16c-5.97,9.96 -0.39,30.69 1.08,41.04 30,20 97.75,9.19 116.64,28.08l2.16 0c21.69,37.96 2.16,145.27 2.16,192.24 -0.72,0.48 -4.32,8.7 -4.32,10.8l-2.16 1.08c-30.26,45.39 -95.43,61.95 -131.76,104.76 -44.36,52.25 -81.69,91.77 -92.88,158.76l-24.21 144.97 1.53 390.71c-1.86,3.26 -10.49,15.32 -14.04,16.2 -1.39,5.58 -13.04,10.17 -14.04,16.2 -6.43,1.6 -8.85,13.46 -12.96,16.2 0,135.07 96.98,231.68 170.64,334.8 48.46,6.92 72.32,71.2 105.84,96.12 45.33,33.69 83.83,-2.36 120.96,-12.96 16.01,-42.71 33.48,-56.56 33.48,-111.24 0,-31.71 -12.34,-93.32 17.28,-114.48 3.41,-23.89 37.45,-61.96 41.04,-90.72 128.13,-91.52 46.14,-267.8 174.96,-347.76 33.64,-12.23 76.8,-74.32 78.84,-110.16 2.28,-40.22 19.82,-101.84 55.08,-125.28 27.66,-18.4 56.16,-1.94 56.16,-42.12 0,-43.67 -9.36,-103.91 3.24,-144.72 7.7,-24.93 46.49,-114.65 75.6,-118.8 15.93,-27.88 51.17,-31.76 61.56,-73.44 7.13,-28.58 14.27,-43.3 43.2,-52.92 75.89,-25.22 95.17,-20.69 144.72,-87.48 28.36,-15.75 61.23,-31.87 91.8,-39.96 38.43,-10.16 42.17,16.58 69.12,31.32 15.97,8.74 32.59,9.55 48.6,19.44 24.12,14.91 43.56,37.88 65.88,56.16 57.95,47.49 43.99,-12.96 86.4,-12.96 20.52,0 33.27,18.41 46.44,15.12 24.31,-97.26 96.17,-145.73 138.24,-230.04 28.79,-57.68 106.07,-203.17 90.72,-264.6l-1.08 -1.08c-27.61,0 -91.63,59.68 -79.92,-8.64 5.46,-43.72 34.38,-122.76 24.84,-160.92 -36.61,-9.15 -92.08,22.89 -129.6,-1.08 -48.15,-30.78 -81.59,-69.12 -144.72,-69.12 -45.58,0 -44.94,-13.47 -66.96,-45.36 -13.49,-19.52 -12.79,-14.45 6.48,-32.4 13.96,-13.02 29.25,-31.27 44.28,-42.12 14.06,-10.14 38.19,12.58 51.84,17.28 34.05,11.75 126.01,-124.61 149.04,-149.04 25.47,-27 74.6,-86 85.32,-120.96 16.82,-54.9 45.01,33.67 76.68,-44.28 6.78,-6.78 22.61,-24.23 23.76,-33.48 44.71,-31.94 96.07,-71.84 151.2,-99.36 78.72,-39.28 149.44,-122.72 218.16,-180.36 65.88,-55.24 38.72,-55.15 112.32,-18.36 26.26,13.13 155.85,26.23 178.2,6.48 31.22,-27.61 41.82,-47.87 87.48,-51.84 43.29,-3.77 71.51,21.54 98.28,-19.44 19.84,-30.39 79.97,-65.3 81,-100.44 0,-52.36 -1.72,-138.4 50.76,-159.84 13.34,-5.44 129.53,-80.87 72.36,-97.2 -1.51,-12.11 -39.24,-84.73 -48.6,-90.72 -25.92,-16.56 -62.81,-28.37 -75.6,-57.24 -31.65,-71.39 -74.03,-152.92 -115.56,-219.24 -18.57,-29.67 34.67,-117.23 41.04,-153.36l-18.36 -46.44 191.16 -292.68 109.08 -8.64 9.72 -82.08 -73.44 -20.52 22.68 -143.64c-6.89,-5.16 -76.7,-16.01 -90.72,-19.44 -44.21,-10.82 -89.89,-23.91 -132.84,-41.04 -78.24,-31.19 -163.85,-76.19 -230.04,-128.52 -10.79,-8.54 -33.97,-38.47 -44.28,-41.04 2.65,-10.6 19.85,-16.73 22.68,-28.08 23.89,0 74.76,57.79 95.04,71.28 42.28,28.11 89.25,51 130.68,82.08 70.94,53.24 249.38,73.98 335.88,57.24l24.84 -232.2 192.24 -173.88 164.16 3.24 -55.08 237.6 160.92 19.44 48.6 -86.4 -164.16 -22.68 42.12 -205.2c1.76,-29.2 -62.8,-27.04 -84.24,-32.4 0,-62.42 44.04,-106.6 2.16,-169.56 -24.24,-36.46 -149.26,-79.68 -192.24,-90.72 -57.45,-14.77 -114.82,19.18 -165.24,2.16 -30.56,-10.32 -58.99,-23.72 -91.8,-25.92 -94.76,-6.38 -94.65,-59.4 -190.08,-59.4 -132.11,0 -140.54,-68.73 -217.08,-165.24 -36.99,-49.32 -86.79,-60.03 -120.96,-123.12 -23.67,-43.69 -37.67,-93.95 -59.4,-139.32 -42.33,-88.41 -34.32,-132.85 -139.32,-137.16 -57.76,-2.37 -137.23,-81.07 -176.04,-119.88 -46.06,-46.06 -142.01,-151.2 -209.52,-151.2l-3.24 3.24c0,114.93 96.12,226.15 96.12,354.24 0,49.41 38.58,29.94 60.48,51.84l2.16 0c19.84,19.84 11.43,216.19 -8.64,230.04 -18.12,12.49 -164.35,-12.47 -187.92,-18.36 -1.46,-2.55 -4.08,-8.84 -5.4,-9.72 0,-87.17 -27.1,-182.8 -35.64,-271.08 0,-159.03 -155.89,-143.57 -266.76,-173.88 -168.67,-46.1 -191.94,-153.71 -321.84,-235.44 -58,-36.5 -125.98,-124.18 -185.76,-141.48 -41.2,-11.93 -76.68,-0.31 -76.68,-54l-2.16 -2.16 0 -2.16c-2.29,-2.29 -2.2,-2.79 -5.4,-3.24l-1.08 -2.16c-31.14,0 -63.26,27.15 -97.2,30.24 -41.51,3.77 -50.03,-11.06 -83.16,-20.52 -12.41,-21.72 -44.85,-15.69 -62.64,-33.48 -119.44,-136.51 -352.19,-241.93 -516.24,-136.08 -48.45,31.27 -109.24,109.16 -163.08,119.88 -28.91,5.76 -50.52,9.41 -77.76,23.76 -31.99,16.84 -60.69,47.54 -95.04,63.72 -33.97,16.01 -60.97,-9.13 -93.96,9.72 -7.69,46.15 -14.26,104.28 -4.32,153.36 18.73,92.53 1.34,25.66 -43.2,86.4 -10.51,14.32 -13.18,86.95 -29.16,85.32 -28.47,-2.9 -23.88,-91.02 -31.32,-92.88 -11.23,-44.95 -26.16,-34.8 -2.16,-91.8l-109.08 -35.64 -73.44 66.96 -101.52 -36.72 146.88 -207.36 -82.08 -42.12 32.4 -245.16 0 0 0 0 410.4 -562.68 -153.36 -65.88 0 0 0 0c53.13,-122.88 83.93,-226.25 112.32,-355.32 19.73,-89.74 33.62,-216.21 69.12,-297 18.13,-41.24 69.95,-108.97 74.52,-150.12 8.83,-10.1 18.61,-30.98 22.68,-43.2l63.72 -91.8c20.88,-9.49 68.85,-76.7 84.24,-97.2 26.43,-35.23 36.71,-52.74 72.36,-78.84l209.52 -153.36c88.06,-64.46 357.43,-185.66 237.6,-328.32 2.66,-24 -3.24,-44.01 -3.24,-66.96 -1.8,-1.8 -2.67,-3.12 -3.24,-5.4 -58.91,-25.24 -154.02,-15.76 -217.08,-6.48 -94.35,13.9 -136.67,-3.89 -224.64,-23.76 -64.89,-14.66 -138.82,-2.16 -205.2,-2.16 -40.62,0 -207.32,18.61 -233.28,-2.16 -10.17,-40.68 -15.31,-90.61 -6.48,-132.84 14.96,-71.57 -30.56,-60.79 -35.64,-116.64 -3.08,-33.88 -5.29,-54.51 1.08,-86.4 39.74,-17.03 136.53,13.29 190.08,5.4 80.68,-11.88 91.21,-41.55 129.6,-103.68 9.53,-15.42 49,-102.94 41.04,-106.92 -0.34,-1.38 -0.74,-1.86 -1.08,-3.24 -131.83,-56.5 -295.21,-31.6 -419.04,-89.64 -128.15,-9.85 -267.85,-70.14 -398.52,-101.52l-413.64 -99.36c-49.12,-11.79 -151.22,-33.8 -192.24,-57.24 -13.36,-53.44 11.11,-122.8 16.2,-177.12 0,-66.11 -14.67,-123.32 -21.6,-185.76 -2.93,-3.67 -5.91,-9.45 -6.48,-14.04 -20.22,-23.11 -77.49,-95.7 -78.84,-124.2 -2.2,-46.11 17.44,-112.93 -14.04,-152.28 -1.54,-12.32 -13.9,-48.7 -21.6,-58.32 -0.35,-2.87 -0.32,-3.1 -2.16,-5.4 -0.32,-2.93 -0.51,-4 -2.16,-6.48 0,-41.06 9.72,-74.31 9.72,-114.48 0,-41.25 -11.93,-78.2 -16.2,-116.64 -5.41,-6.77 -9.41,-18.45 -14.04,-25.92 -39.67,-29.75 -46.23,-31.32 -97.2,-31.32 -43.9,0 -29.8,-50.32 -51.84,-72.36 -79.43,-79.43 -121.48,6.4 -219.24,-7.56 -1.75,-2.62 -2.03,-2.57 -5.4,-3.24 -74.46,-130.31 -133,-301.48 -241.92,-410.4 -76.42,-76.42 -243.81,-253.64 -349.01,-280.45l-590.62 -218.6 -536.08 -1.16 -241.35 -517.43c-2.28,-8.37 -3.5,-14.63 -9.29,-20.93 -2.36,-2.56 -9.75,-11.53 -10.44,-13.95 -18.69,-2.67 -17.87,-37.43 -15.08,-51.16 4.01,-19.78 -10.79,-35.21 -23.21,-47.67 -7.61,-7.62 -11.6,-24.08 -11.6,-34.88 0,-25.44 13.17,-45.64 11.6,-70.93l80.06 -276.74c11.56,-39.99 35.52,-198.53 73.11,-212.78 49.76,-18.85 55.69,-57.14 55.69,-109.3 0,-61 -6.28,-165.39 6.96,-218.6 59.36,-14.84 101.17,-55.45 157.81,-81.39 46.55,-14.54 193.39,-63.32 204.22,-110.46l51.06 -222.09c35.7,-155.3 78.9,-327.98 78.9,-487.19 -25.76,0 -72.67,18.84 -96.31,6.98 -22.82,-11.44 -5.33,-65.78 -19.72,-80.23 -22.7,-22.77 -157.89,77.9 -184.5,77.9 -6.41,-19.24 -32.79,-56.23 -52.21,-66.28 -16.41,-32.83 -116.73,-123.33 -154.33,-126.74 -14.68,-20.55 -118.12,-65.52 -143.88,-86.04l-147.37 -117.44c-21.52,-17.14 -74.35,-39.88 -88.18,-59.3 -44.81,-5.6 -85.96,-67.34 -105.6,-103.48 -20.23,-37.21 -87.46,-63.02 -98.63,-91.86 -13,-33.6 48.59,-165.87 42.94,-224.41 8.38,-33.62 12.76,-78.79 12.76,-113.95 5.08,-13.59 -1.83,-32.35 3.48,-46.51l0 -16.28c15.42,-41.12 20.86,-85.08 38.29,-126.74 2.36,-4.72 4.65,-8.87 4.65,-13.95 -43.99,10.95 -129.91,77.13 -175.22,101.16 -38.86,20.62 -141.53,81.39 -181.01,81.39 -15.16,-60.66 -28.08,-96.04 -12.77,-160.46 19.36,-81.48 70.99,-138.99 113.72,-210.46 13.46,-22.53 35.98,-93.99 -8.12,-53.48 -59.18,54.35 -40.45,69.4 -113.72,46.51 -48.88,-15.28 -74.68,120 -110.23,141.85 -49.52,30.42 -141.07,244.05 -186.82,203.48 -33.5,-29.72 -89.84,-45.77 -128.79,-69.76 -33.53,-20.64 -104.58,103.11 -128.8,133.71 -28.61,28.73 -93.02,112.86 -129.96,122.09 0,47.47 228.33,176.34 271.52,216.27 88.32,81.68 244.81,84.89 362.03,84.89 1.47,2.2 8.4,3.42 9.28,6.97 1.48,0.37 2,0.79 3.48,1.16 10.88,43.73 15.74,110.8 -22.05,136.05 -46.78,31.24 -60.78,88.37 -119.51,88.37 -31.44,0 -67.97,-1.73 -91.67,18.6 -31.55,27.08 -78.24,112.07 -105.59,119.76l-1.16 1.17c-50.96,7.28 -59.73,76.75 -131.12,29.06 -45.88,-30.66 -115.51,2.78 -149.68,-52.32 -57.51,-92.76 -232.17,27.91 -300.53,27.91 -40.84,0 -49.18,135.63 -53.38,165.11 -21.43,10.71 -168.74,51.97 -171.73,63.95l-2.32 1.16 8.12 269.76c2.08,69.48 -154.21,10.94 -196.1,34.88 -6.3,44.24 -31.19,95.04 -81.22,83.72l-257.6 -227.9c-5.26,-6.57 -9.18,-15.03 -15.08,-20.93 -1.9,-15.2 -4.71,-28.9 -3.49,-45.35 1.01,-13.57 5.04,-25.17 -2.32,-37.2 -23.75,-38.76 -61.48,-26.92 -100.95,-25.58 -31.6,1.08 -59.52,8.61 -89.34,-3.49l-272.69 -225.58c-58.45,-33.4 -80.35,20.91 -113.71,60.47 -9.92,11.77 -23.06,24.35 -31.33,38.37 -13.31,22.54 -22.08,48.2 -31.33,72.09 -6.56,16.93 -12.6,71.64 -25.53,80.23 -1.74,12.19 -17.78,22.87 -20.88,37.21 -4.14,19.08 3.59,33.48 4.64,51.16 2.37,39.98 1.29,96.45 -34.81,120.92 -34.2,8.55 -60.5,59.07 -89.35,79.07 -28.34,19.63 -66.35,32.22 -97.47,50 -18.35,64.23 -90.76,46.09 -122.99,84.88 -54.57,7.79 -60.53,107.06 -53.38,146.51 14.37,79.18 34.05,101.82 -66.14,132.55 -49.47,15.18 -83.59,43.05 -125.32,73.25 -40.02,28.95 -160.19,82.22 -206.54,73.26 -75.05,0 -70.44,109.72 -165.93,67.44 -96.65,-42.78 -87.49,39.74 -154.32,31.39 -19.66,-39.33 -6.22,-56.97 -59.18,-56.97 -46.28,0 -91.74,10.46 -136.92,10.46 -83.43,0 -216.66,61.35 -286.61,18.61l-163.61 -100c-66,-40.33 -137.25,-47.09 -208.86,-62.79 -73.92,-24.64 -188.56,-70.93 -264.56,-70.93 -91.85,0 -204.23,59.63 -288.93,31.4 0,-59.02 157.47,-74.08 194.94,-111.63 58.63,-58.78 7.19,-161.17 -15.08,-223.25 -17.84,-49.72 -59.29,-77.65 -52.22,-136.04 6.14,-50.65 -3.16,-130.8 48.74,-160.46 12.34,-86.43 73.75,-99.71 -4.64,-167.43l-148.53 -290.69c-11.11,-40.86 -63.82,-101.42 -63.82,-139.53 40.31,-13.43 88.67,-64.58 124.16,-90.7 19.19,-14.11 124.16,-77.41 124.16,-93.02 -3.25,-0.81 -1.39,-2.68 -4.64,-3.49 -12.38,-30.95 -63.12,-62.18 -70.79,-93.02 -2.13,-0.53 -1.79,-0.19 -2.32,-2.32 -114.93,0 -250.3,36.86 -366.67,12.79l-320.25 -66.28c-19.46,26.07 0.8,141.37 -10.45,181.39l1.17 181.39 1.16 1.16 91.66 -3.48c0,68.8 -20.15,140.94 -23.2,210.45l-10.45 238.37c-1.62,37.05 -13.92,84.76 -13.92,120.92 -56.82,0 -129.74,6.49 -182.22,26.75 -76.35,0 -192.52,73.44 -257.6,37.21 -54.01,-30.08 -123.7,-61.52 -176.37,-79.07 0,193.02 127.19,417.06 30.17,611.61 -34.07,68.34 -10.27,37.91 -99.79,37.2l-872.59 -6.97c-84.47,-0.66 -167.64,-34.89 -246,-34.89 -1.58,-6.33 -7.67,-6.97 -13.92,-6.97 -29.99,119.96 -20.46,237.82 -62.66,360.45 -33.76,98.09 -115.14,148.16 -153.17,272.09 -18.81,46.95 -50.74,111.94 -56.8,160.45 -18.85,21.63 -19.72,54.85 -39.45,77.91 -37.41,43.7 -79.9,94.11 -136.92,111.62 -24.66,7.58 -87.53,16.54 -92.83,44.19 -8.17,42.54 37.93,144.98 68.46,175.57 45.61,45.68 111.88,113.07 142.73,168.6 55.34,80.44 142.72,130.76 197.25,203.48 37.73,50.3 104.44,60 104.44,134.88 0,58.36 -0.71,244.95 -83.55,220.93 -60.29,-17.47 -123.32,-36.05 -186.81,-36.05 -64.14,0 -39.78,73.25 -92.83,73.25 -95.81,-119.77 -278.56,-122.37 -413.09,-156.97 -61.57,-15.84 -104.36,-94.45 -171.73,-115.11 -39.74,-12.19 -47.33,-45.24 -80.06,-61.63 -40.54,-20.29 -66.88,-13.39 -106.75,-48.83 -27.9,-10.81 -73.41,-11.39 -103.27,-15.12 -42.37,-42.37 -148.83,-80.23 -207.71,-80.23 -39.26,-31.41 -93.42,-108.67 -141.56,-86.04 -45.37,21.32 -109.07,6.34 -157.81,27.91 -74.05,32.79 -146.3,153 -191.45,219.76 -47.82,70.69 -162.17,138.3 -236.71,175.57 -23.11,1.28 -39.97,18.61 -62.66,18.61 -103.03,0 -94.5,52.7 -177.54,89.53 -40.52,17.98 -84.87,15.93 -128.79,20.93 -33.42,3.81 -28.92,58.58 -32.49,87.2 -24.21,13.89 -12.96,40.69 -10.45,55.82 15.56,6.67 32.21,1.03 46.42,8.13 5.84,41.03 20.29,102.56 44.09,138.37 24.53,36.93 55.86,37.15 97.47,23.26 38.69,-12.92 67.02,-11.13 104.43,-18.61 50.75,-10.16 105.72,-48.2 157.81,-66.27 33.93,-11.78 116.18,-60.47 145.04,-60.47 6.2,18.73 32.29,45.19 47.57,60.47 14.81,14.81 44.31,116.81 51.06,141.85 16.5,61.24 28.84,133.16 12.76,197.67l1.6 -6.88c-0.53,3.71 -2.39,5.48 0.72,3.39 0,29.04 0.4,57.72 -5.8,84.88 -11.92,52.23 -13.32,99.86 -33.65,153.49 -34.87,92 -109.33,192.81 -128.8,288.36 -5.55,27.26 1.46,52.97 -13.92,77.9 -49.78,80.72 -4.64,131.97 -4.64,222.09 23.02,31.57 8.98,84.8 -3.48,118.6 -12.56,34.04 -18.2,90.79 -39.45,117.44 -27.42,6.85 -73.36,2.32 -104.44,2.32 -62.8,0 -135.71,3.47 -179.85,-44.18 -28.51,-30.79 -97.78,-105.33 -136.92,-115.11l-155.49 527.88c9.8,62.29 -15.54,133.82 -27.84,194.18 -5.73,28.17 -6.34,59.12 -10.45,87.21 -5.08,34.66 -28.36,70.7 -31.33,103.49 -48.4,55.32 -31.8,150.72 -69.62,201.15 0,27.86 -16.14,77.45 -22.04,106.97 -9.24,46.29 -12.59,91.84 -16.25,139.53l-32.49 447.66 293.57 -27.9c37.33,3.39 88.05,-11.81 125.32,-20.93 66.09,-16.16 126.14,-28.8 189.13,-54.65 41.38,-16.97 87.69,-36.94 129.96,-12.79 6.9,12.08 20.75,50.93 31.33,56.97 16.51,28.98 80.61,64.26 113.71,69.77 32.19,24.99 84.64,38 112.56,68.6 25.32,27.77 76.23,70.83 107.91,90.7l346.94 187.2 -558.12 601.14 -646.32 837.18c-43.36,5.44 -76.01,26.02 -122.99,19.77 -41.72,-5.56 -73,6.74 -106.75,27.91 -5.05,10.1 -11.93,22.24 -18.57,31.39 -2.5,30.14 -17.48,69.54 -23.21,101.16 -4.46,24.57 5.58,77.93 -9.28,96.51 -10.97,87.79 -118.24,162.37 -146.2,246.5 -8.23,7.06 -11.94,18.45 -18.57,26.74 -12.21,98.11 26.69,188.79 26.69,282.55 27.72,74.83 12.05,205.31 -9.28,280.23 -17.15,60.27 -28.64,145.06 -74.27,190.69 0,61.6 60.45,94.53 89.35,146.5 15.74,28.29 33.09,65.06 54.54,88.37 24.57,26.68 60.32,32.14 82.38,67.44 35.93,14.62 47.22,45.76 60.34,77.91 10.62,26.01 36.45,68 42.93,90.69 9.99,5.73 45.16,28.93 51.06,37.21 93.3,13.32 -24.41,120.37 -60.34,131.39 -66.82,20.49 -95.75,51.36 -131.12,110.46 -45.82,76.53 -100.14,112.81 -81.22,205.81 18.18,89.42 -92.7,135.51 -141.57,195.34 -20.28,29.97 -43.68,28.71 -62.65,47.68 -9.8,9.8 -25.83,49.74 -30.17,62.78l-5.81 0c-9.49,-18.99 -69.32,-34.69 -87.02,-51.16 -71.64,-66.62 -107.83,49.36 -124.16,94.19 -20.31,55.79 -94.71,96.53 -150.84,117.43 -18.04,6.71 -105.55,37.94 -106.76,56.98 -7.08,111.38 42.74,242.47 76.59,344.17 63.2,25.74 108.55,95.35 176.37,115.12 94.92,27.66 21.45,-115.45 8.12,-143.02 -33.38,-69.06 73.79,-41.45 91.67,-9.31 35.34,63.56 -7.87,98.48 70.78,150 168.54,110.43 63.95,-210.66 133.44,-186.04 51.59,18.28 129.02,70.97 120.68,133.72 -5.76,43.28 -46.07,97.64 -70.78,132.55 -46.21,65.31 32.36,90.13 53.37,153.48 21.73,65.55 92.21,101.25 156.65,109.3 8.27,11.6 33.83,20.24 45.25,32.56 40.29,43.51 66.06,111.89 109.07,160.46 114.79,59.27 145.47,118.21 259.92,3.49 29.67,-29.73 53.32,-76.53 95.15,-45.35 26.95,20.1 71.15,20.18 92.83,41.86 0,4.33 -0.62,6.66 -1.16,10.46 -18.94,10.86 -87.56,37.87 -75.42,66.28 21.6,4.32 37.75,4.65 59.17,4.65l4.64 4.65c0,41.76 -95.61,108.27 -122.99,143.02 -51.95,65.96 -79.96,36.22 -138.08,75.58 -58.17,39.41 -13.89,120.18 22.04,158.13 31.15,32.92 94.95,65.07 132.28,18.61 19.48,-24.23 -57.71,-82.95 -69.62,-103.49 -28.61,-49.38 294.51,-359.35 338.82,-347.66 25.79,6.81 18.21,55.23 40.62,74.42 38.36,32.87 147.55,42.22 198.41,55.81 63.19,16.88 170.04,14.93 222.79,38.37 85.63,-14.71 182.18,-10.53 264.56,-34.88 32.48,-9.6 71.34,-12.45 95.15,-40.7 13.27,-15.73 -6.26,-76.05 -9.28,-94.18l-1.16 -1.17c-3.69,0 -5.79,0.47 -9.29,1.17 -15.47,30.95 -345.53,78.64 -371.31,59.3 0,-24.46 15.45,-52.97 19.73,-77.91 8.51,-49.51 10.44,-93.08 10.44,-143.02 0,-18.89 -2.36,-93.02 25.53,-93.02 3.85,-2.06 7.57,-4.13 11.6,-5.81l639.35 -361.62 395.68 -218.59 247.16 -12.79 561.6 -252.32c49.76,0 93.68,24.96 141.57,26.74 95.7,3.55 184.85,-17.58 278.48,-16.28l165.93 2.33c3.57,2.68 5.02,5.04 8.12,8.14 19.18,95.92 66.43,185.44 71.94,287.2l10.45 193.02c1.77,32.61 10.28,143.09 1.16,167.43 3.2,7.28 10.02,20.55 10.44,29.07 0.58,11.95 3.48,22.7 3.48,34.88 0,8.13 -1.16,15.31 -1.16,23.26 -1.81,0.6 -1.81,1.72 0,2.32l-1.16 0c121.98,-74.66 194.41,-83.59 333.02,-66.27 3.89,3.4 2.97,3.03 8.12,3.49 159.35,139.43 389.66,130.72 524.48,-38.38l481.54 -433.7c5.22,3.97 12.77,6.5 12.77,12.79 6.02,3.01 10.44,21.91 10.44,29.07 0,15.11 -23.21,27.56 -23.21,40.69 0,12.37 0.68,18.86 4.64,30.24 2.66,7.67 7.49,13.93 11.61,20.92 3.67,6.21 6.69,11.09 10.44,18.61l266.88 363.94 153.17 286.04c5.42,-3.97 9.46,-5.83 12.76,-10.47l10.44 -5.81 200.74 -169.76 239.04 -124.42 433.97 -282.55 -1.17 180.23 278.49 293.01 254.11 204.65 0 0z"/>
  <path class="fil0 str0" d="M11085.83 16389.34l278.49 167.43 -29.01 253.48 481.54 -2.32 20.89 372.08 -1.16 125.58 353.9 10.46c56.25,15.36 112.99,10.16 170.58,19.77 27.93,4.65 47.54,12.79 76.58,12.79 24.43,0 44.85,-10.47 69.62,-10.47 44.77,35.97 51.93,36.25 112.55,39.54l149.69 8.14 198.42 -467.43 -84.71 -359.29 -171.73 -570.91c-3.1,-36.3 -10.44,-72.97 -10.44,-109.3 0,-31.4 -3.31,-63.01 19.72,-86.04 9.7,-1.21 17.95,-5.27 29.01,-5.82 10.76,-0.54 20.16,-3.49 31.33,-3.49l642.83 -244.17c40.38,-7.83 84.17,-34.83 119.52,-54.65 33.42,-18.75 93.41,-50.64 119.51,-76.74 13.95,-3.48 50.3,-27.85 62.66,-37.21 61.1,-46.24 173.38,-72.09 249.48,-72.09 28.53,7.35 58.45,0.26 87.02,4.65 11.58,1.77 26.43,3.56 35.98,10.46 8.11,5.85 10.8,13.17 17.4,19.77 2.44,17.08 24.33,34.6 26.69,51.16 6.69,6.69 9.53,27.49 12.76,37.21l223.95 655.79c1.41,4.96 3.95,11.92 4.64,17.44 20.54,30.81 30.77,93.73 34.81,130.23 5.51,49.86 3.13,102.39 6.96,152.32l23.21 84.88 273.84 -82.55 650.96 -147.67 13.92 -9.31c86.73,-43.41 85.61,-38.31 174.05,-17.44 49.45,11.66 118.25,56.39 162.45,84.88l117.2 75.58c11.8,7.6 49.57,43.32 59.17,38.37 66.1,-34.06 150.51,-138.36 230.91,-138.36 6.5,8.67 -45.23,130.14 -48.73,151.15l-41.77 250c-19.47,116.56 20.86,127.9 126.47,127.9l742.63 24.42c10,-1.29 23.87,-5.88 32.49,-11.63 34.56,-4.32 74.87,-22.98 110.23,-30.23 60.28,-12.35 123.29,-22.29 182.17,-41.86 29.93,-9.95 59.45,-18.4 88.19,-31.4 38.01,-17.21 83.58,-26.25 119.52,-44.18 74.9,-38.78 187.78,-136.3 268.04,-72.09 11.26,78.83 -18.25,129.06 31.32,197.67 15.17,21.01 -4.21,60.39 9.29,83.71 32.56,56.22 86.5,37.16 128.8,88.37l167.09 202.32c49.4,59.81 18.84,114.15 26.68,184.88l2.32 76.74 -18.56 89.53 645.15 -362.77 129.96 223.24 284.29 -38.37 -3.48 248.83 -10.08 21.92 1.08 2.16c-5.97,9.96 -0.39,30.69 1.08,41.04 30,20 97.75,9.19 116.64,28.08l2.16 0c21.69,37.96 2.16,145.27 2.16,192.24 -0.72,0.48 -4.32,8.7 -4.32,10.8l-2.16 1.08c-30.26,45.39 -95.43,61.95 -131.76,104.76 -44.36,52.25 -81.69,91.77 -92.88,158.76l-24.21 144.97 1.53 390.71c-1.86,3.26 -10.49,15.32 -14.04,16.2 -1.39,5.58 -13.04,10.17 -14.04,16.2 -6.43,1.6 -8.85,13.46 -12.96,16.2 0,135.07 96.98,231.68 170.64,334.8 48.46,6.92 72.32,71.2 105.84,96.12 45.33,33.69 83.83,-2.36 120.96,-12.96 16.01,-42.71 33.48,-56.56 33.48,-111.24 0,-31.71 -12.34,-93.32 17.28,-114.48 3.41,-23.89 37.45,-61.96 41.04,-90.72 128.13,-91.52 46.14,-267.8 174.96,-347.76 33.64,-12.23 76.8,-74.32 78.84,-110.16 2.28,-40.22 19.82,-101.84 55.08,-125.28 27.66,-18.4 56.16,-1.94 56.16,-42.12 0,-43.67 -9.36,-103.91 3.24,-144.72 7.7,-24.93 46.49,-114.65 75.6,-118.8 15.93,-27.88 51.17,-31.76 61.56,-73.44 7.13,-28.58 14.27,-43.3 43.2,-52.92 75.89,-25.22 95.17,-20.69 144.72,-87.48 28.36,-15.75 61.23,-31.87 91.8,-39.96 38.43,-10.16 42.17,16.58 69.12,31.32 15.97,8.74 32.59,9.55 48.6,19.44 24.12,14.91 43.56,37.88 65.88,56.16 57.95,47.49 43.99,-12.96 86.4,-12.96 20.52,0 33.27,18.41 46.44,15.12 24.31,-97.26 96.17,-145.73 138.24,-230.04 28.79,-57.68 106.07,-203.17 90.72,-264.6l-1.08 -1.08c-27.61,0 -91.63,59.68 -79.92,-8.64 5.46,-43.72 34.38,-122.76 24.84,-160.92 -36.61,-9.15 -92.08,22.89 -129.6,-1.08 -48.15,-30.78 -81.59,-69.12 -144.72,-69.12 -45.58,0 -44.94,-13.47 -66.96,-45.36 -13.49,-19.52 -12.79,-14.45 6.48,-32.4 13.96,-13.02 29.25,-31.27 44.28,-42.12 14.06,-10.14 38.19,12.58 51.84,17.28 34.05,11.75 126.01,-124.61 149.04,-149.04 25.47,-27 74.6,-86 85.32,-120.96 16.82,-54.9 45.01,33.67 76.68,-44.28 6.78,-6.78 22.61,-24.23 23.76,-33.48 44.71,-31.94 96.07,-71.84 151.2,-99.36 78.72,-39.28 149.44,-122.72 218.16,-180.36 65.88,-55.24 38.72,-55.15 112.32,-18.36 26.26,13.13 155.85,26.23 178.2,6.48 31.22,-27.61 41.82,-47.87 87.48,-51.84 43.29,-3.77 71.51,21.54 98.28,-19.44 19.84,-30.39 79.97,-65.3 81,-100.44 0,-52.36 -1.72,-138.4 50.76,-159.84 13.34,-5.44 129.53,-80.87 72.36,-97.2 -1.51,-12.11 -39.24,-84.73 -48.6,-90.72 -25.92,-16.56 -62.81,-28.37 -75.6,-57.24 -31.65,-71.39 -74.03,-152.92 -115.56,-219.24 -18.57,-29.67 34.67,-117.23 41.04,-153.36l-18.36 -46.44 191.16 -292.68 109.08 -8.64 9.72 -82.08 -73.44 -20.52 22.68 -143.64c-6.89,-5.16 -76.7,-16.01 -90.72,-19.44 -44.21,-10.82 -89.89,-23.91 -132.84,-41.04 -78.24,-31.19 -163.85,-76.19 -230.04,-128.52 -10.79,-8.54 -33.97,-38.47 -44.28,-41.04 2.65,-10.6 19.85,-16.73 22.68,-28.08 23.89,0 74.76,57.79 95.04,71.28 42.28,28.11 89.25,51 130.68,82.08 70.94,53.24 249.38,73.98 335.88,57.24l24.84 -232.2 192.24 -173.88 164.16 3.24 -55.08 237.6 160.92 19.44 48.6 -86.4 -164.16 -22.68 42.12 -205.2c1.76,-29.2 -62.8,-27.04 -84.24,-32.4 0,-62.42 44.04,-106.6 2.16,-169.56 -24.24,-36.46 -149.26,-79.68 -192.24,-90.72 -57.45,-14.77 -114.82,19.18 -165.24,2.16 -30.56,-10.32 -58.99,-23.72 -91.8,-25.92 -94.76,-6.38 -94.65,-59.4 -190.08,-59.4 -132.11,0 -140.54,-68.73 -217.08,-165.24 -36.99,-49.32 -86.79,-60.03 -120.96,-123.12 -23.67,-43.69 -37.67,-93.95 -59.4,-139.32 -42.33,-88.41 -34.32,-132.85 -139.32,-137.16 -57.76,-2.37 -137.23,-81.07 -176.04,-119.88 -46.06,-46.06 -142.01,-151.2 -209.52,-151.2l-3.24 3.24c0,114.93 96.12,226.15 96.12,354.24 0,49.41 38.58,29.94 60.48,51.84l2.16 0c19.84,19.84 11.43,216.19 -8.64,230.04 -18.12,12.49 -164.35,-12.47 -187.92,-18.36 -1.46,-2.55 -4.08,-8.84 -5.4,-9.72 0,-87.17 -27.1,-182.8 -35.64,-271.08 0,-159.03 -155.89,-143.57 -266.76,-173.88 -168.67,-46.1 -191.94,-153.71 -321.84,-235.44 -58,-36.5 -125.98,-124.18 -185.76,-141.48 -41.2,-11.93 -76.68,-0.31 -76.68,-54l-2.16 -2.16 0 -2.16c-2.29,-2.29 -2.2,-2.79 -5.4,-3.24l-1.08 -2.16c-31.14,0 -63.26,27.15 -97.2,30.24 -41.51,3.77 -50.03,-11.06 -83.16,-20.52 -12.41,-21.72 -44.85,-15.69 -62.64,-33.48 -119.44,-136.51 -352.19,-241.93 -516.24,-136.08 -48.45,31.27 -109.24,109.16 -163.08,119.88 -28.91,5.76 -50.52,9.41 -77.76,23.76 -31.99,16.84 -60.69,47.54 -95.04,63.72 -33.97,16.01 -60.97,-9.13 -93.96,9.72 -7.69,46.15 -14.26,104.28 -4.32,153.36 18.73,92.53 1.34,25.66 -43.2,86.4 -10.51,14.32 -13.18,86.95 -29.16,85.32 -28.47,-2.9 -23.88,-91.02 -31.32,-92.88 -11.23,-44.95 -26.16,-34.8 -2.16,-91.8l-109.08 -35.64 -73.44 66.96 -101.52 -36.72 146.88 -207.36 -82.08 -42.12 32.4 -245.16 0 0 0 0 410.4 -562.68 -153.36 -65.88 0 0 0 0c53.13,-122.88 83.93,-226.25 112.32,-355.32 19.73,-89.74 33.62,-216.21 69.12,-297 18.13,-41.24 69.95,-108.97 74.52,-150.12 8.83,-10.1 18.61,-30.98 22.68,-43.2l63.72 -91.8c20.88,-9.49 68.85,-76.7 84.24,-97.2 26.43,-35.23 36.71,-52.74 72.36,-78.84l209.52 -153.36c88.06,-64.46 357.43,-185.66 237.6,-328.32 2.66,-24 -3.24,-44.01 -3.24,-66.96 -1.8,-1.8 -2.67,-3.12 -3.24,-5.4 -58.91,-25.24 -154.02,-15.76 -217.08,-6.48 -94.35,13.9 -136.67,-3.89 -224.64,-23.76 -64.89,-14.66 -138.82,-2.16 -205.2,-2.16 -40.62,0 -207.32,18.61 -233.28,-2.16 -10.17,-40.68 -15.31,-90.61 -6.48,-132.84 14.96,-71.57 -30.56,-60.79 -35.64,-116.64 -3.08,-33.88 -5.29,-54.51 1.08,-86.4 39.74,-17.03 136.53,13.29 190.08,5.4 80.68,-11.88 91.21,-41.55 129.6,-103.68 9.53,-15.42 49,-102.94 41.04,-106.92 -0.34,-1.38 -0.74,-1.86 -1.08,-3.24 -131.83,-56.5 -295.21,-31.6 -419.04,-89.64 -128.15,-9.85 -267.85,-70.14 -398.52,-101.52l-413.64 -99.36c-49.12,-11.79 -151.22,-33.8 -192.24,-57.24 -13.36,-53.44 11.11,-122.8 16.2,-177.12 0,-66.11 -14.67,-123.32 -21.6,-185.76 -2.93,-3.67 -5.91,-9.45 -6.48,-14.04 -20.22,-23.11 -77.49,-95.7 -78.84,-124.2 -2.2,-46.11 17.44,-112.93 -14.04,-152.28 -1.54,-12.32 -13.9,-48.7 -21.6,-58.32 -0.35,-2.87 -0.32,-3.1 -2.16,-5.4 -0.32,-2.93 -0.51,-4 -2.16,-6.48 0,-41.06 9.72,-74.31 9.72,-114.48 0,-41.25 -11.93,-78.2 -16.2,-116.64 -5.41,-6.77 -9.41,-18.45 -14.04,-25.92 -39.67,-29.75 -46.23,-31.32 -97.2,-31.32 -43.9,0 -29.8,-50.32 -51.84,-72.36 -79.43,-79.43 -121.48,6.4 -219.24,-7.56 -1.75,-2.62 -2.03,-2.57 -5.4,-3.24 -74.46,-130.31 -133,-301.48 -241.92,-410.4 -76.42,-76.42 -243.81,-253.64 -349.01,-280.45l-590.62 -218.6 -536.08 -1.16 -241.35 -517.43c-2.28,-8.37 -3.5,-14.63 -9.29,-20.93 -2.36,-2.56 -9.75,-11.53 -10.44,-13.95 -18.69,-2.67 -17.87,-37.43 -15.08,-51.16 4.01,-19.78 -10.79,-35.21 -23.21,-47.67 -7.61,-7.62 -11.6,-24.08 -11.6,-34.88 0,-25.44 13.17,-45.64 11.6,-70.93l80.06 -276.74c11.56,-39.99 35.52,-198.53 73.11,-212.78 49.76,-18.85 55.69,-57.14 55.69,-109.3 0,-61 -6.28,-165.39 6.96,-218.6 59.36,-14.84 101.17,-55.45 157.81,-81.39 46.55,-14.54 193.39,-63.32 204.22,-110.46l51.06 -222.09c35.7,-155.3 78.9,-327.98 78.9,-487.19 -25.76,0 -72.67,18.84 -96.31,6.98 -22.82,-11.44 -5.33,-65.78 -19.72,-80.23 -22.7,-22.77 -157.89,77.9 -184.5,77.9 -6.41,-19.24 -32.79,-56.23 -52.21,-66.28 -16.41,-32.83 -116.73,-123.33 -154.33,-126.74 -14.68,-20.55 -118.12,-65.52 -143.88,-86.04l-147.37 -117.44c-21.52,-17.14 -74.35,-39.88 -88.18,-59.3 -44.81,-5.6 -85.96,-67.34 -105.6,-103.48 -20.23,-37.21 -87.46,-63.02 -98.63,-91.86 -13,-33.6 48.59,-165.87 42.94,-224.41 8.38,-33.62 12.76,-78.79 12.76,-113.95 5.08,-13.59 -1.83,-32.35 3.48,-46.51l0 -16.28c15.42,-41.12 20.86,-85.08 38.29,-126.74 2.36,-4.72 4.65,-8.87 4.65,-13.95 -43.99,10.95 -129.91,77.13 -175.22,101.16 -38.86,20.62 -141.53,81.39 -181.01,81.39 -15.16,-60.66 -28.08,-96.04 -12.77,-160.46 19.36,-81.48 70.99,-138.99 113.72,-210.46 13.46,-22.53 35.98,-93.99 -8.12,-53.48 -59.18,54.35 -40.45,69.4 -113.72,46.51 -48.88,-15.28 -74.68,120 -110.23,141.85 -49.52,30.42 -141.07,244.05 -186.82,203.48 -33.5,-29.72 -89.84,-45.77 -128.79,-69.76 -33.53,-20.64 -104.58,103.11 -128.8,133.71 -28.61,28.73 -93.02,112.86 -129.96,122.09 0,47.47 228.33,176.34 271.52,216.27 88.32,81.68 244.81,84.89 362.03,84.89 1.47,2.2 8.4,3.42 9.28,6.97 1.48,0.37 2,0.79 3.48,1.16 10.88,43.73 15.74,110.8 -22.05,136.05 -46.78,31.24 -60.78,88.37 -119.51,88.37 -31.44,0 -67.97,-1.73 -91.67,18.6 -31.55,27.08 -78.24,112.07 -105.59,119.76l-1.16 1.17c-50.96,7.28 -59.73,76.75 -131.12,29.06 -45.88,-30.66 -115.51,2.78 -149.68,-52.32 -57.51,-92.76 -232.17,27.91 -300.53,27.91 -40.84,0 -49.18,135.63 -53.38,165.11 -21.43,10.71 -168.74,51.97 -171.73,63.95l-2.32 1.16 8.12 269.76c2.08,69.48 -154.21,10.94 -196.1,34.88 -6.3,44.24 -31.19,95.04 -81.22,83.72l-257.6 -227.9c-5.26,-6.57 -9.18,-15.03 -15.08,-20.93 -1.9,-15.2 -4.71,-28.9 -3.49,-45.35 1.01,-13.57 5.04,-25.17 -2.32,-37.2 -23.75,-38.76 -61.48,-26.92 -100.95,-25.58 -31.6,1.08 -59.52,8.61 -89.34,-3.49l-272.69 -225.58c-58.45,-33.4 -80.35,20.91 -113.71,60.47 -9.92,11.77 -23.06,24.35 -31.33,38.37 -13.31,22.54 -22.08,48.2 -31.33,72.09 -6.56,16.93 -12.6,71.64 -25.53,80.23 -1.74,12.19 -17.78,22.87 -20.88,37.21 -4.14,19.08 3.59,33.48 4.64,51.16 2.37,39.98 1.29,96.45 -34.81,120.92 -34.2,8.55 -60.5,59.07 -89.35,79.07 -28.34,19.63 -66.35,32.22 -97.47,50 -18.35,64.23 -90.76,46.09 -122.99,84.88 -54.57,7.79 -60.53,107.06 -53.38,146.51 14.37,79.18 34.05,101.82 -66.14,132.55 -49.47,15.18 -83.59,43.05 -125.32,73.25 -40.02,28.95 -160.19,82.22 -206.54,73.26 -75.05,0 -70.44,109.72 -165.93,67.44 -96.65,-42.78 -87.49,39.74 -154.32,31.39 -19.66,-39.33 -6.22,-56.97 -59.18,-56.97 -46.28,0 -91.74,10.46 -136.92,10.46 -83.43,0 -216.66,61.35 -286.61,18.61l-163.61 -100c-66,-40.33 -137.25,-47.09 -208.86,-62.79 -73.92,-24.64 -188.56,-70.93 -264.56,-70.93 -91.85,0 -204.23,59.63 -288.93,31.4 0,-59.02 157.47,-74.08 194.94,-111.63 58.63,-58.78 7.19,-161.17 -15.08,-223.25 -17.84,-49.72 -59.29,-77.65 -52.22,-136.04 6.14,-50.65 -3.16,-130.8 48.74,-160.46 12.34,-86.43 73.75,-99.71 -4.64,-167.43l-148.53 -290.69c-11.11,-40.86 -63.82,-101.42 -63.82,-139.53 40.31,-13.43 88.67,-64.58 124.16,-90.7 19.19,-14.11 124.16,-77.41 124.16,-93.02 -3.25,-0.81 -1.39,-2.68 -4.64,-3.49 -12.38,-30.95 -63.12,-62.18 -70.79,-93.02 -2.13,-0.53 -1.79,-0.19 -2.32,-2.32 -114.93,0 -250.3,36.86 -366.67,12.79l-320.25 -66.28c-19.46,26.07 0.8,141.37 -10.45,181.39l1.17 181.39 1.16 1.16 91.66 -3.48c0,68.8 -20.15,140.94 -23.2,210.45l-10.45 238.37c-1.62,37.05 -13.92,84.76 -13.92,120.92 -56.82,0 -129.74,6.49 -182.22,26.75 -76.35,0 -192.52,73.44 -257.6,37.21 -54.01,-30.08 -123.7,-61.52 -176.37,-79.07 0,193.02 127.19,417.06 30.17,611.61 -34.07,68.34 -10.27,37.91 -99.79,37.2l-872.59 -6.97c-84.47,-0.66 -167.64,-34.89 -246,-34.89 -1.58,-6.33 -7.67,-6.97 -13.92,-6.97 -29.99,119.96 -20.46,237.82 -62.66,360.45 -33.76,98.09 -115.14,148.16 -153.17,272.09 -18.81,46.95 -50.74,111.94 -56.8,160.45 -18.85,21.63 -19.72,54.85 -39.45,77.91 -37.41,43.7 -79.9,94.11 -136.92,111.62 -24.66,7.58 -87.53,16.54 -92.83,44.19 -8.17,42.54 37.93,144.98 68.46,175.57 45.61,45.68 111.88,113.07 142.73,168.6 55.34,80.44 142.72,130.76 197.25,203.48 37.73,50.3 104.44,60 104.44,134.88 0,58.36 -0.71,244.95 -83.55,220.93 -60.29,-17.47 -123.32,-36.05 -186.81,-36.05 -64.14,0 -39.78,73.25 -92.83,73.25 -95.81,-119.77 -278.56,-122.37 -413.09,-156.97 -61.57,-15.84 -104.36,-94.45 -171.73,-115.11 -39.74,-12.19 -47.33,-45.24 -80.06,-61.63 -40.54,-20.29 -66.88,-13.39 -106.75,-48.83 -27.9,-10.81 -73.41,-11.39 -103.27,-15.12 -42.37,-42.37 -148.83,-80.23 -207.71,-80.23 -39.26,-31.41 -93.42,-108.67 -141.56,-86.04 -45.37,21.32 -109.07,6.34 -157.81,27.91 -74.05,32.79 -146.3,153 -191.45,219.76 -47.82,70.69 -162.17,138.3 -236.71,175.57 -23.11,1.28 -39.97,18.61 -62.66,18.61 -103.03,0 -94.5,52.7 -177.54,89.53 -40.52,17.98 -84.87,15.93 -128.79,20.93 -33.42,3.81 -28.92,58.58 -32.49,87.2 -24.21,13.89 -12.96,40.69 -10.45,55.82 15.56,6.67 32.21,1.03 46.42,8.13 5.84,41.03 20.29,102.56 44.09,138.37 24.53,36.93 55.86,37.15 97.47,23.26 38.69,-12.92 67.02,-11.13 104.43,-18.61 50.75,-10.16 105.72,-48.2 157.81,-66.27 33.93,-11.78 116.18,-60.47 145.04,-60.47 6.2,18.73 32.29,45.19 47.57,60.47 14.81,14.81 44.31,116.81 51.06,141.85 16.5,61.24 28.84,133.16 12.76,197.67l1.6 -6.88c-0.53,3.71 -2.39,5.48 0.72,3.39 0,29.04 0.4,57.72 -5.8,84.88 -11.92,52.23 -13.32,99.86 -33.65,153.49 -34.87,92 -109.33,192.81 -128.8,288.36 -5.55,27.26 1.46,52.97 -13.92,77.9 -49.78,80.72 -4.64,131.97 -4.64,222.09 23.02,31.57 8.98,84.8 -3.48,118.6 -12.56,34.04 -18.2,90.79 -39.45,117.44 -27.42,6.85 -73.36,2.32 -104.44,2.32 -62.8,0 -135.71,3.47 -179.85,-44.18 -28.51,-30.79 -97.78,-105.33 -136.92,-115.11l-155.49 527.88c9.8,62.29 -15.54,133.82 -27.84,194.18 -5.73,28.17 -6.34,59.12 -10.45,87.21 -5.08,34.66 -28.36,70.7 -31.33,103.49 -48.4,55.32 -31.8,150.72 -69.62,201.15 0,27.86 -16.14,77.45 -22.04,106.97 -9.24,46.29 -12.59,91.84 -16.25,139.53l-32.49 447.66 293.57 -27.9c37.33,3.39 88.05,-11.81 125.32,-20.93 66.09,-16.16 126.14,-28.8 189.13,-54.65 41.38,-16.97 87.69,-36.94 129.96,-12.79 6.9,12.08 20.75,50.93 31.33,56.97 16.51,28.98 80.61,64.26 113.71,69.77 32.19,24.99 84.64,38 112.56,68.6 25.32,27.77 76.23,70.83 107.91,90.7l346.94 187.2 -558.12 601.14 -646.32 837.18c-43.36,5.44 -76.01,26.02 -122.99,19.77 -41.72,-5.56 -73,6.74 -106.75,27.91 -5.05,10.1 -11.93,22.24 -18.57,31.39 -2.5,30.14 -17.48,69.54 -23.21,101.16 -4.46,24.57 5.58,77.93 -9.28,96.51 -10.97,87.79 -118.24,162.37 -146.2,246.5 -8.23,7.06 -11.94,18.45 -18.57,26.74 -12.21,98.11 26.69,188.79 26.69,282.55 27.72,74.83 12.05,205.31 -9.28,280.23 -17.15,60.27 -28.64,145.06 -74.27,190.69 0,61.6 60.45,94.53 89.35,146.5 15.74,28.29 33.09,65.06 54.54,88.37 24.57,26.68 60.32,32.14 82.38,67.44 35.93,14.62 47.22,45.76 60.34,77.91 10.62,26.01 36.45,68 42.93,90.69 9.99,5.73 45.16,28.93 51.06,37.21 93.3,13.32 -24.41,120.37 -60.34,131.39 -66.82,20.49 -95.75,51.36 -131.12,110.46 -45.82,76.53 -100.14,112.81 -81.22,205.81 18.18,89.42 -92.7,135.51 -141.57,195.34 -20.28,29.97 -43.68,28.71 -62.65,47.68 -9.8,9.8 -25.83,49.74 -30.17,62.78l-5.81 0c-9.49,-18.99 -69.32,-34.69 -87.02,-51.16 -71.64,-66.62 -107.83,49.36 -124.16,94.19 -20.31,55.79 -94.71,96.53 -150.84,117.43 -18.04,6.71 -105.55,37.94 -106.76,56.98 -7.08,111.38 42.74,242.47 76.59,344.17 63.2,25.74 108.55,95.35 176.37,115.12 94.92,27.66 21.45,-115.45 8.12,-143.02 -33.38,-69.06 73.79,-41.45 91.67,-9.31 35.34,63.56 -7.87,98.48 70.78,150 168.54,110.43 63.95,-210.66 133.44,-186.04 51.59,18.28 129.02,70.97 120.68,133.72 -5.76,43.28 -46.07,97.64 -70.78,132.55 -46.21,65.31 32.36,90.13 53.37,153.48 21.73,65.55 92.21,101.25 156.65,109.3 8.27,11.6 33.83,20.24 45.25,32.56 40.29,43.51 66.06,111.89 109.07,160.46 114.79,59.27 145.47,118.21 259.92,3.49 29.67,-29.73 53.32,-76.53 95.15,-45.35 26.95,20.1 71.15,20.18 92.83,41.86 0,4.33 -0.62,6.66 -1.16,10.46 -18.94,10.86 -87.56,37.87 -75.42,66.28 21.6,4.32 37.75,4.65 59.17,4.65l4.64 4.65c0,41.76 -95.61,108.27 -122.99,143.02 -51.95,65.96 -79.96,36.22 -138.08,75.58 -58.17,39.41 -13.89,120.18 22.04,158.13 31.15,32.92 94.95,65.07 132.28,18.61 19.48,-24.23 -57.71,-82.95 -69.62,-103.49 -28.61,-49.38 294.51,-359.35 338.82,-347.66 25.79,6.81 18.21,55.23 40.62,74.42 38.36,32.87 147.55,42.22 198.41,55.81 63.19,16.88 170.04,14.93 222.79,38.37 85.63,-14.71 182.18,-10.53 264.56,-34.88 32.48,-9.6 71.34,-12.45 95.15,-40.7 13.27,-15.73 -6.26,-76.05 -9.28,-94.18l-1.16 -1.17c-3.69,0 -5.79,0.47 -9.29,1.17 -15.47,30.95 -345.53,78.64 -371.31,59.3 0,-24.46 15.45,-52.97 19.73,-77.91 8.51,-49.51 10.44,-93.08 10.44,-143.02 0,-18.89 -2.36,-93.02 25.53,-93.02 3.85,-2.06 7.57,-4.13 11.6,-5.81l639.35 -361.62 395.68 -218.59 247.16 -12.79 561.6 -252.32c49.76,0 93.68,24.96 141.57,26.74 95.7,3.55 184.85,-17.58 278.48,-16.28l165.93 2.33c3.57,2.68 5.02,5.04 8.12,8.14 19.18,95.92 66.43,185.44 71.94,287.2l10.45 193.02c1.77,32.61 10.28,143.09 1.16,167.43 3.2,7.28 10.02,20.55 10.44,29.07 0.58,11.95 3.48,22.7 3.48,34.88 0,8.13 -1.16,15.31 -1.16,23.26 -1.81,0.6 -1.81,1.72 0,2.32l-1.16 0c121.98,-74.66 194.41,-83.59 333.02,-66.27 3.89,3.4 2.97,3.03 8.12,3.49 159.35,139.43 389.66,130.72 524.48,-38.38l481.54 -433.7c5.22,3.97 12.77,6.5 12.77,12.79 6.02,3.01 10.44,21.91 10.44,29.07 0,15.11 -23.21,27.56 -23.21,40.69 0,12.37 0.68,18.86 4.64,30.24 2.66,7.67 7.49,13.93 11.61,20.92 3.67,6.21 6.69,11.09 10.44,18.61l266.88 363.94 153.17 286.04c5.42,-3.97 9.46,-5.83 12.76,-10.47l10.44 -5.81 200.74 -169.76 239.04 -124.42 433.97 -282.55 -1.17 180.23 278.49 293.01 254.11 204.65 0 0z"/>
  <path class="fil1 str1" d="M21418.29 1231.11l2378.44 0 0 1592.89 -2378.44 0 0 -1592.89z"/>
  <path class="fil2" d="M23965.46 2958.2c0,-17.45 4.47,-34.48 13.46,-51.13 8.93,-16.61 21.77,-29.59 38.43,-38.86 16.69,-9.26 34.1,-13.92 52.16,-13.92 17.92,0 35.18,4.56 51.69,13.74 16.56,9.12 29.4,21.92 38.53,38.43 9.17,16.51 13.73,33.77 13.73,51.74 0,18.01 -4.56,35.27 -13.73,51.78 -9.13,16.51 -21.97,29.35 -38.53,38.53 -16.51,9.17 -33.77,13.78 -51.69,13.78 -18.06,0 -35.47,-4.66 -52.16,-13.97 -16.66,-9.36 -29.5,-22.34 -38.43,-38.95 -8.99,-16.65 -13.46,-33.68 -13.46,-51.17zm17.22 0c0,14.62 3.76,28.88 11.24,42.7 7.48,13.83 18.2,24.65 32.13,32.46 13.92,7.81 28.41,11.71 43.46,11.71 15,0 29.35,-3.85 43.08,-11.52 13.74,-7.67 24.46,-18.39 32.13,-32.17 7.67,-13.79 11.52,-28.18 11.52,-43.18 0,-14.96 -3.85,-29.36 -11.52,-43.14 -7.67,-13.78 -18.39,-24.5 -32.13,-32.12 -13.73,-7.62 -28.08,-11.43 -43.08,-11.43 -15.05,0 -29.54,3.9 -43.46,11.66 -13.93,7.76 -24.65,18.58 -32.13,32.46 -7.48,13.87 -11.24,28.08 -11.24,42.57zm103.57 -33.35l5.08 -16.94c11.53,2.78 20.7,8.61 27.52,17.55 6.87,8.98 10.3,19.85 10.3,32.59 0,16.19 -5.22,29.31 -15.71,39.42 -10.49,10.11 -24.98,15.15 -43.55,15.15 -12.14,0 -22.68,-2.31 -31.61,-6.92 -8.99,-4.56 -15.71,-11.15 -20.28,-19.61 -4.56,-8.52 -6.82,-18.25 -6.82,-29.16 0,-12.23 2.92,-22.39 8.8,-30.48 5.88,-8.09 13.88,-13.6 23.94,-16.56l4.23 16.37c-6.91,2.77 -12.23,6.82 -15.89,12.23 -3.72,5.41 -5.55,11.71 -5.55,19 0,10.58 3.76,19.33 11.28,26.2 7.53,6.87 18.35,10.3 32.37,10.3 14.06,0 24.69,-3.24 31.89,-9.74 7.19,-6.49 10.81,-14.86 10.81,-25.16 0,-8.28 -2.39,-15.57 -7.24,-21.83 -4.8,-6.25 -11.33,-10.39 -19.57,-12.41z"/>
  <path id="1" class="fil2" d="M24170.92 2663.04l-18.58 0c14.44,9.27 21.68,22.91 21.68,40.92 0,11.67 -3.19,22.39 -9.64,32.13 -6.4,9.78 -15.38,17.35 -26.86,22.76 -11.52,5.37 -24.74,8.05 -39.69,8.05 -14.59,0 -27.8,-2.45 -39.7,-7.29 -11.86,-4.9 -20.98,-12.19 -27.29,-21.92 -6.35,-9.69 -9.5,-20.61 -9.5,-32.6 0,-8.84 1.88,-16.7 5.6,-23.56 3.72,-6.87 8.61,-12.47 14.58,-16.8l-72.67 0 0 -24.83 202.07 0 0 23.14zm-73.05 78.46c18.72,0 32.69,-3.95 41.96,-11.9 9.26,-7.91 13.87,-17.27 13.87,-28.04 0,-10.86 -4.42,-20.08 -13.26,-27.7 -8.84,-7.57 -22.34,-11.38 -40.5,-11.38 -19.94,0 -34.62,3.85 -43.98,11.61 -9.36,7.72 -14.01,17.27 -14.01,28.6 0,11.06 4.46,20.27 13.45,27.71 8.98,7.38 23.14,11.1 42.47,11.1z"/>
  <path id="2" class="fil2" d="M24110.24 2610.5l-24.83 0 0 -76.76 24.83 0 0 76.76z"/>
  <path id="3" class="fil2" d="M24170.92 2506.64l-146.47 0 0 -22.29 20.69 0c-7.15,-4.56 -12.93,-10.68 -17.26,-18.3 -4.37,-7.62 -6.54,-16.27 -6.54,-26.01 0,-10.82 2.26,-19.71 6.73,-26.62 4.52,-6.92 10.77,-11.81 18.86,-14.63 -17.07,-11.67 -25.59,-26.77 -25.59,-45.39 0,-14.58 4,-25.83 12.04,-33.63 8.05,-7.86 20.42,-11.81 37.12,-11.81l100.42 0 0 24.84 -92.19 0c-9.88,0 -17.03,0.84 -21.4,2.44 -4.38,1.6 -7.86,4.52 -10.54,8.8 -2.68,4.23 -4,9.22 -4,14.91 0,10.35 3.44,18.91 10.26,25.73 6.86,6.82 17.82,10.2 32.87,10.2l85 0 0 24.84 -95.06 0c-11.01,0 -19.29,2.02 -24.79,6.07 -5.5,4.04 -8.28,10.67 -8.28,19.85 0,6.96 1.84,13.4 5.51,19.33 3.66,5.93 9.03,10.21 16.13,12.89 7.05,2.63 17.26,3.95 30.57,3.95l75.92 0 0 24.83z"/>
  <path id="4" class="fil2" d="M24152.58 2175.88c7.85,9.22 13.35,18.11 16.6,26.62 3.25,8.52 4.84,17.64 4.84,27.43 0,16.08 -3.9,28.45 -11.75,37.11 -7.81,8.65 -17.83,12.98 -30.01,12.98 -7.15,0 -13.69,-1.65 -19.62,-4.89 -5.93,-3.29 -10.63,-7.57 -14.2,-12.84 -3.58,-5.32 -6.31,-11.24 -8.14,-17.88 -1.27,-4.89 -2.49,-12.27 -3.72,-22.1 -2.35,-20.04 -5.22,-34.86 -8.51,-44.31 -3.39,-0.1 -5.55,-0.14 -6.44,-0.14 -10.07,0 -17.17,2.35 -21.31,7.05 -5.6,6.35 -8.37,15.81 -8.37,28.32 0,11.71 2.07,20.36 6.16,25.92 4.09,5.59 11.38,9.68 21.78,12.37l-3.39 24.27c-10.4,-2.21 -18.82,-5.84 -25.21,-10.92 -6.4,-5.08 -11.29,-12.41 -14.77,-22.01 -3.44,-9.55 -5.18,-20.7 -5.18,-33.3 0,-12.51 1.46,-22.72 4.42,-30.57 2.97,-7.81 6.64,-13.6 11.11,-17.27 4.46,-3.67 10.11,-6.25 16.93,-7.76 4.23,-0.8 11.85,-1.22 22.81,-1.22l32.93 0c23,0 37.53,-0.52 43.69,-1.55 6.17,-0.99 12.05,-3.06 17.69,-6.07l0 25.96c-5.22,2.5 -11.34,4.1 -18.34,4.8zm-55.04 1.98c3.67,9.03 6.78,22.57 9.32,40.64 1.45,10.25 3.1,17.49 4.93,21.73 1.84,4.23 4.52,7.48 8,9.78 3.53,2.31 7.43,3.48 11.76,3.48 6.54,0 12.04,-2.49 16.42,-7.52 4.37,-5.04 6.58,-12.38 6.58,-22.02 0,-9.55 -2.07,-18.06 -6.25,-25.54 -4.14,-7.43 -9.84,-12.93 -17.03,-16.41 -5.6,-2.69 -13.83,-4 -24.7,-4l-9.03 -0.14z"/>
  <path id="5" class="fil2" d="M24227.08 2114.59l-202.63 0 0 -22.57 19.24 0c-7.44,-5.32 -13.03,-11.34 -16.75,-18.07 -3.72,-6.68 -5.6,-14.81 -5.6,-24.36 0,-12.51 3.2,-23.52 9.65,-33.07 6.39,-9.55 15.47,-16.74 27.14,-21.63 11.71,-4.85 24.5,-7.3 38.47,-7.3 14.91,0 28.37,2.69 40.36,8.05 11.95,5.36 21.12,13.17 27.52,23.42 6.35,10.21 9.54,20.98 9.54,32.27 0,8.28 -1.74,15.71 -5.22,22.25 -3.48,6.58 -7.85,11.94 -13.17,16.18l71.45 0 0 24.83zm-128.5 -22.57c18.77,0 32.69,-3.81 41.67,-11.39 8.99,-7.62 13.45,-16.84 13.45,-27.65 0,-11.01 -4.65,-20.42 -13.97,-28.23 -9.31,-7.85 -23.7,-11.76 -43.22,-11.76 -18.63,0 -32.55,3.81 -41.82,11.48 -9.26,7.67 -13.87,16.79 -13.87,27.42 0,10.54 4.94,19.85 14.77,27.94 9.87,8.14 24.17,12.19 42.99,12.19z"/>
  <path id="6" class="fil2" d="M24127.18 1967.51l-3.96 -24.55c9.84,-1.37 17.36,-5.22 22.63,-11.53 5.22,-6.3 7.85,-15.14 7.85,-26.43 0,-11.43 -2.3,-19.9 -6.96,-25.45 -4.61,-5.5 -10.06,-8.28 -16.32,-8.28 -5.6,0 -10.02,2.5 -13.22,7.44 -2.21,3.48 -4.98,11.94 -8.42,25.4 -4.56,18.15 -8.51,30.71 -11.85,37.77 -3.39,7 -7.99,12.32 -13.92,15.94 -5.88,3.62 -12.42,5.46 -19.57,5.46 -6.54,0 -12.56,-1.51 -18.11,-4.47 -5.55,-3.01 -10.16,-7.06 -13.83,-12.18 -2.82,-3.86 -5.22,-9.13 -7.19,-15.76 -1.98,-6.68 -2.97,-13.78 -2.97,-21.4 0,-11.48 1.65,-21.54 4.99,-30.2 3.29,-8.7 7.81,-15.1 13.45,-19.24 5.69,-4.09 13.27,-6.96 22.77,-8.51l3.38 24.27c-7.62,1.08 -13.59,4.28 -17.87,9.55 -4.28,5.27 -6.4,12.7 -6.4,22.34 0,11.34 1.88,19.47 5.65,24.32 3.76,4.84 8.18,7.29 13.21,7.29 3.2,0 6.12,-0.99 8.71,-3.01 2.63,-2.02 4.84,-5.18 6.58,-9.5 0.94,-2.5 3.06,-9.74 6.35,-21.87 4.66,-17.5 8.52,-29.73 11.48,-36.69 2.96,-6.96 7.34,-12.42 12.98,-16.37 5.69,-4 12.75,-5.98 21.21,-5.98 8.24,0 16,2.4 23.29,7.25 7.29,4.84 12.93,11.8 16.93,20.88 4,9.13 5.97,19.43 5.97,30.91 0,19 -3.95,33.53 -11.8,43.5 -7.9,9.98 -19.57,16.33 -35.04,19.1z"/>
  <path id="7" class="fil2" d="M24170.92 1809.47l-28.22 0 0 -28.22 28.22 0 0 28.22z"/>
  <path id="8" class="fil2" d="M24117.3 1642.44l3.38 -24.27c16.7,2.68 29.73,9.45 39.19,20.41 9.45,10.96 14.15,24.46 14.15,40.41 0,19.99 -6.53,36.08 -19.61,48.21 -13.08,12.18 -31.8,18.25 -56.16,18.25 -15.81,0 -29.59,-2.63 -41.39,-7.85 -11.86,-5.22 -20.75,-13.17 -26.63,-23.9 -5.92,-10.68 -8.89,-22.29 -8.89,-34.9 0,-15.85 4,-28.88 12.04,-38.95 8.05,-10.11 19.48,-16.6 34.25,-19.42l3.67 23.99c-9.83,2.3 -17.22,6.35 -22.2,12.23 -4.94,5.83 -7.44,12.88 -7.44,21.16 0,12.51 4.47,22.67 13.41,30.53 8.98,7.81 23.09,11.71 42.47,11.71 19.66,0 33.92,-3.76 42.81,-11.29 8.89,-7.57 13.35,-17.4 13.35,-29.49 0,-9.78 -2.96,-17.92 -8.93,-24.41 -5.93,-6.54 -15.1,-10.68 -27.47,-12.42z"/>
  <path id="9" class="fil2" d="M24097.68 1606.32c-27.04,0 -47.08,-7.53 -60.11,-22.63 -10.82,-12.56 -16.23,-27.94 -16.23,-46.05 0,-20.08 6.59,-36.54 19.76,-49.34 13.12,-12.75 31.33,-19.14 54.51,-19.14 18.82,0 33.59,2.82 44.36,8.46 10.77,5.65 19.14,13.88 25.12,24.7 5.97,10.77 8.93,22.58 8.93,35.32 0,20.51 -6.53,37.07 -19.66,49.72 -13.12,12.65 -32.03,18.96 -56.68,18.96zm0.05 -25.4c18.72,0 32.74,-4.1 42,-12.28 9.32,-8.23 13.97,-18.53 13.97,-31 0,-12.32 -4.65,-22.57 -14.01,-30.81 -9.36,-8.18 -23.61,-12.27 -42.76,-12.27 -18.06,0 -31.75,4.14 -41.01,12.37 -9.32,8.23 -13.97,18.48 -13.97,30.71 0,12.47 4.61,22.77 13.87,31 9.27,8.18 23.24,12.28 41.91,12.28z"/>
  <path id="10" class="fil2" d="M24170.92 1440.04l-146.47 0 0 -22.29 20.69 0c-7.15,-4.56 -12.93,-10.68 -17.26,-18.3 -4.37,-7.62 -6.54,-16.27 -6.54,-26.01 0,-10.82 2.26,-19.71 6.73,-26.62 4.52,-6.92 10.77,-11.81 18.86,-14.63 -17.07,-11.67 -25.59,-26.77 -25.59,-45.39 0,-14.58 4,-25.83 12.04,-33.63 8.05,-7.86 20.42,-11.81 37.12,-11.81l100.42 0 0 24.84 -92.19 0c-9.88,0 -17.03,0.84 -21.4,2.44 -4.38,1.6 -7.86,4.52 -10.54,8.8 -2.68,4.23 -4,9.22 -4,14.91 0,10.35 3.44,18.91 10.26,25.73 6.86,6.82 17.82,10.2 32.87,10.2l85 0 0 24.84 -95.06 0c-11.01,0 -19.29,2.02 -24.79,6.07 -5.5,4.04 -8.28,10.67 -8.28,19.85 0,6.96 1.84,13.4 5.51,19.33 3.66,5.93 9.03,10.21 16.13,12.89 7.05,2.63 17.26,3.95 30.57,3.95l75.92 0 0 24.83z"/>
  <g id="_2977662051440">
   <g>
    <path class="fil3 str2" d="M21557.01 1833.11l424.2 0 0 99.16 -424.2 0 0 -99.16z"/>
    <path class="fil4 str2" d="M21981.21 1833.11l424.2 0 0 99.16 -424.2 0 0 -99.16z"/>
    <path class="fil3 str2" d="M22405.4 1833.11l424.2 0 0 99.16 -424.2 0 0 -99.16z"/>
    <path class="fil4 str2" d="M22829.7 1833.11l424.2 0 0 99.16 -424.2 0 0 -99.16z"/>
    <path class="fil3 str2" d="M23253.91 1833.11l424.2 0 0 99.16 -424.2 0 0 -99.16z"/>
    <path class="fil4 str2" d="M22915.41 2132.05l678.47 0 0 99.16 -678.47 0 0 -99.16z"/>
    <path class="fil3 str2" d="M22236.95 2132.05l678.47 0 0 99.16 -678.47 0 0 -99.16z"/>
    <path class="fil4 str2" d="M21558.5 2132.05l678.46 0 0 99.16 -678.46 0 0 -99.16z"/>
   </g>
   <path class="fil5" d="M22415.95 1425.7l-13.47 29.28 -70.55 0 -15.47 31.28c30.81,4.52 55.04,15.81 72.79,33.98 15.23,15.64 22.82,33.99 22.82,55.15 0,12.29 -2.47,23.7 -7.47,34.11 -5,10.46 -11.29,19.4 -18.87,26.75 -7.53,7.35 -16,13.29 -25.29,17.75 -13.17,6.3 -26.69,9.47 -40.57,9.47 -13.99,0 -24.16,-2.35 -30.57,-7.11 -6.35,-4.71 -9.53,-9.94 -9.53,-15.64 0,-3.18 1.3,-6 3.94,-8.47 2.65,-2.47 6,-3.65 10,-3.65 2.94,0 5.58,0.42 7.82,1.36 2.23,0.88 6,3.23 11.4,6.99 8.59,5.94 17.35,8.88 26.17,8.88 13.4,0 25.22,-5.11 35.39,-15.29 10.12,-10.17 15.23,-22.57 15.23,-37.21 0,-14.12 -4.52,-27.34 -13.58,-39.57 -9.11,-12.29 -21.58,-21.76 -37.57,-28.4 -12.46,-5.18 -29.52,-8.18 -51.09,-9l44.8 -90.66 83.67 0z"/>
   <path id="1" class="fil5" d="M22585.29 1414.41l0 157.16 39.98 -36.63c8.52,-7.82 13.46,-12.76 14.81,-14.82 0.95,-1.41 1.42,-2.76 1.42,-4.17 0,-2.29 -1,-4.23 -2.89,-5.94 -1.88,-1.65 -4.99,-2.59 -9.4,-2.82l0 -5.65 68.61 0 0 5.65c-9.35,0.23 -17.17,1.7 -23.4,4.35 -6.23,2.7 -13.05,7.47 -20.52,14.29l-40.63 37.22 40.34 51.33c11.29,14.05 18.81,23.04 22.58,26.98 5.58,5.24 10.4,8.65 14.58,10.17 2.94,1.12 7.99,1.71 15.17,1.71l0 6.35 -76.73 0 0 -6.35c4.41,-0.12 7.35,-0.76 8.88,-1.94 1.58,-1.24 2.35,-2.88 2.35,-5.06 0,-2.64 -2.3,-6.88 -6.88,-12.7l-48.27 -61.79 0 52.21c0,10.23 0.7,16.93 2.11,20.17 1.47,3.17 3.47,5.46 6.12,6.88 2.64,1.35 8.35,2.11 17.17,2.23l0 6.35 -80.08 0 0 -6.35c7.99,0 14.05,-1 18.05,-2.94 2.41,-1.23 4.23,-3.17 5.46,-5.76 1.71,-3.76 2.59,-10.29 2.59,-19.52l0 -143.94c0,-18.05 -0.41,-29.1 -1.18,-33.16 -0.82,-4.05 -2.11,-6.82 -3.99,-8.35 -1.83,-1.58 -4.24,-2.35 -7.18,-2.35 -2.41,0 -6.05,1 -10.82,2.94l-2.93 -6.35 46.74 -19.4 7.94 0z"/>
   <path id="2" class="fil5" d="M22762.03 1530.71c11.41,-11.53 18.17,-18.17 20.22,-19.93 5.12,-4.36 10.65,-7.77 16.59,-10.18 5.93,-2.41 11.81,-3.64 17.63,-3.64 9.88,0 18.29,2.88 25.4,8.64 7.06,5.76 11.82,14.11 14.17,25.11 11.88,-13.88 21.88,-22.93 30.05,-27.28 8.17,-4.3 16.58,-6.47 25.22,-6.47 8.35,0 15.82,2.17 22.35,6.47 6.46,4.29 11.64,11.34 15.4,21.16 2.53,6.65 3.82,17.11 3.82,31.4l0 67.97c0,9.82 0.71,16.58 2.18,20.23 1.12,2.46 3.23,4.64 6.23,6.4 3.06,1.77 8,2.65 14.88,2.65l0 6.35 -77.26 0 0 -6.35 3.29 0c6.7,0 11.99,-1.29 15.76,-3.94 2.64,-1.82 4.52,-4.76 5.64,-8.76 0.47,-1.94 0.71,-7.47 0.71,-16.58l0 -67.91c0,-12.88 -1.53,-21.93 -4.65,-27.22 -4.52,-7.35 -11.7,-11.06 -21.63,-11.06 -6.06,0 -12.23,1.53 -18.41,4.59 -6.11,3 -13.58,8.7 -22.34,16.93l-0.35 1.94 0.7 7.41 0 75.32c0,10.7 0.59,17.4 1.77,20.05 1.23,2.59 3.46,4.82 6.76,6.58 3.29,1.77 8.93,2.65 16.87,2.65l0 6.35 -79.37 0 0 -6.35c8.64,0 14.58,-1 17.81,-3.06 3.24,-2.06 5.47,-5.17 6.7,-9.29 0.59,-1.94 0.89,-7.58 0.89,-16.93l0 -67.91c0,-12.88 -1.88,-22.17 -5.65,-27.87 -5.05,-7.41 -12.05,-11.11 -21.11,-11.11 -6.17,0 -12.28,1.7 -18.34,5.05 -9.47,5.06 -16.82,10.82 -21.93,17.17l0 84.67c0,10.29 0.7,16.93 2.12,20.05 1.41,3.06 3.52,5.35 6.35,6.94 2.76,1.53 8.4,2.29 16.93,2.29l0 6.35 -77.97 0 0 -6.35c7.24,0 12.29,-0.76 15.17,-2.29 2.89,-1.59 5.06,-4 6.59,-7.41 1.47,-3.35 2.23,-9.88 2.23,-19.58l0 -60.33c0,-17.28 -0.53,-28.45 -1.53,-33.51 -0.82,-3.82 -2.05,-6.41 -3.82,-7.82 -1.7,-1.47 -4.05,-2.18 -6.99,-2.18 -3.24,0 -7.06,0.89 -11.53,2.59l-2.58 -6.35 47.62 -19.4 7.41 0 0 33.75z"/>
   <path class="fil5" d="M22299.15 2439.93c6.64,-15.76 15.11,-27.93 25.28,-36.51 10.17,-8.59 22.87,-12.88 38.04,-12.88 18.76,0 33.11,6.06 43.1,18.23 7.59,9.05 11.41,18.75 11.41,29.1 0,16.99 -10.7,34.57 -32.11,52.68 14.41,5.65 25.29,13.64 32.7,24.11 7.35,10.41 11.05,22.7 11.05,36.81 0,20.22 -6.47,37.69 -19.34,52.5 -16.76,19.29 -41.1,28.93 -72.97,28.93 -15.76,0 -26.46,-1.94 -32.16,-5.88 -5.71,-3.88 -8.53,-8.11 -8.53,-12.58 0,-3.35 1.35,-6.23 4.06,-8.76 2.7,-2.53 5.94,-3.82 9.76,-3.82 2.88,0 5.82,0.47 8.82,1.41 1.94,0.59 6.35,2.7 13.29,6.35 6.88,3.64 11.7,5.82 14.34,6.52 4.24,1.3 8.82,1.94 13.64,1.94 11.76,0 21.93,-4.52 30.64,-13.64 8.7,-9.05 13.05,-19.81 13.05,-32.22 0,-9.05 -2,-17.93 -6.06,-26.51 -3,-6.47 -6.29,-11.35 -9.82,-14.65 -4.99,-4.58 -11.76,-8.76 -20.4,-12.52 -8.64,-3.7 -17.46,-5.58 -26.46,-5.58l-5.52 0 0 -5.3c9.11,-1.17 18.16,-4.41 27.34,-9.82 9.11,-5.4 15.75,-11.87 19.87,-19.46 4.17,-7.58 6.23,-15.87 6.23,-24.99 0,-11.81 -3.7,-21.34 -11.11,-28.63 -7.47,-7.29 -16.7,-10.94 -27.75,-10.94 -17.82,0 -32.69,9.65 -44.69,28.87l-5.7 -2.76z"/>
   <path id="1" class="fil5" d="M22604.31 2500.14c11.41,-11.53 18.17,-18.17 20.22,-19.93 5.12,-4.36 10.65,-7.77 16.59,-10.18 5.93,-2.41 11.81,-3.64 17.63,-3.64 9.88,0 18.29,2.88 25.4,8.64 7.06,5.76 11.82,14.11 14.17,25.11 11.88,-13.88 21.88,-22.93 30.05,-27.28 8.17,-4.3 16.58,-6.47 25.22,-6.47 8.35,0 15.82,2.17 22.35,6.47 6.46,4.29 11.64,11.34 15.4,21.16 2.53,6.65 3.82,17.11 3.82,31.4l0 67.97c0,9.82 0.71,16.58 2.18,20.23 1.12,2.46 3.23,4.64 6.23,6.4 3.06,1.77 8,2.65 14.88,2.65l0 6.35 -77.26 0 0 -6.35 3.29 0c6.7,0 11.99,-1.29 15.76,-3.94 2.64,-1.82 4.52,-4.76 5.64,-8.76 0.47,-1.94 0.71,-7.47 0.71,-16.58l0 -67.91c0,-12.88 -1.53,-21.93 -4.65,-27.22 -4.52,-7.35 -11.7,-11.06 -21.63,-11.06 -6.06,0 -12.23,1.53 -18.41,4.59 -6.11,3 -13.58,8.7 -22.34,16.93l-0.35 1.94 0.7 7.41 0 75.32c0,10.7 0.59,17.4 1.77,20.05 1.23,2.59 3.46,4.82 6.76,6.58 3.29,1.77 8.93,2.65 16.87,2.65l0 6.35 -79.37 0 0 -6.35c8.64,0 14.58,-1 17.81,-3.06 3.24,-2.06 5.47,-5.17 6.7,-9.29 0.59,-1.94 0.89,-7.58 0.89,-16.93l0 -67.91c0,-12.88 -1.88,-22.17 -5.65,-27.87 -5.05,-7.41 -12.05,-11.11 -21.11,-11.11 -6.17,0 -12.28,1.7 -18.34,5.05 -9.47,5.06 -16.82,10.82 -21.93,17.17l0 84.67c0,10.29 0.7,16.93 2.12,20.05 1.41,3.06 3.52,5.35 6.35,6.94 2.76,1.53 8.4,2.29 16.93,2.29l0 6.35 -77.97 0 0 -6.35c7.24,0 12.29,-0.76 15.17,-2.29 2.89,-1.59 5.06,-4 6.59,-7.41 1.47,-3.35 2.23,-9.88 2.23,-19.58l0 -60.33c0,-17.28 -0.53,-28.45 -1.53,-33.51 -0.82,-3.82 -2.05,-6.41 -3.82,-7.82 -1.7,-1.47 -4.05,-2.18 -6.99,-2.18 -3.24,0 -7.06,0.89 -11.53,2.59l-2.58 -6.35 47.62 -19.4 7.41 0 0 33.75z"/>
   <path id="2" class="fil5" d="M22871.95 2383.84c4.76,0 8.88,1.7 12.29,5.05 3.35,3.41 5.05,7.53 5.05,12.29 0,4.82 -1.7,9 -5.05,12.41 -3.41,3.47 -7.53,5.17 -12.29,5.17 -4.82,0 -9,-1.7 -12.41,-5.17 -3.47,-3.41 -5.17,-7.59 -5.17,-12.41 0,-4.76 1.7,-8.88 5.05,-12.29 3.41,-3.35 7.59,-5.05 12.53,-5.05zm14.17 82.55l0 127c0,9.82 0.7,16.34 2.17,19.58 1.41,3.29 3.53,5.7 6.35,7.29 2.82,1.59 8,2.41 15.47,2.41l0 6.35 -76.56 0 0 -6.35c7.65,0 12.82,-0.76 15.41,-2.23 2.64,-1.47 4.7,-3.94 6.29,-7.35 1.53,-3.41 2.29,-10 2.29,-19.7l0 -61.03c0,-16.99 -0.53,-27.99 -1.53,-33.05 -0.82,-3.64 -2.05,-6.17 -3.82,-7.58 -1.7,-1.47 -4.06,-2.18 -7,-2.18 -3.23,0 -7.11,0.89 -11.7,2.59l-2.41 -6.35 47.45 -19.4 7.59 0z"/>
  </g>
  <rect class="fil6 str3" x="999.99" y="1000" width="23382.35" height="19000"/>
  <g id="_2977662049360">
   <path class="fil1 str1" d="M1139.64 18173.24l815.93 0 0 1592.89 -815.93 0 0 -1592.89z"/>
   <path class="fil7" d="M1487.74 18609.37c-0.92,3.32 -1.63,6.35 -2.07,9.15 -0.44,2.79 -0.65,5.18 -0.65,7.22 0,5.59 1.8,9.56 5.29,11.89 3.49,2.33 9.55,3.49 18.05,3.49l4.15 0 -4.96 22.72 -78.17 0 5.29 -22.72 2.89 0c7.36,0 12.82,-1.51 16.48,-4.54 3.6,-2.97 6.32,-8.39 8.12,-16.14l37.59 -153.79c0.6,-2.74 1.14,-5.54 1.52,-8.45 0.33,-2.91 0.55,-5.77 0.55,-8.62 0,-5.36 -1.96,-9.15 -5.95,-11.36 -3.92,-2.22 -10.69,-3.32 -20.23,-3.32l-3.06 0 5.29 -22.72 72.33 0 62.14 183.5 31.31 -129.03c1.08,-4.2 1.85,-7.63 2.34,-10.31 0.49,-2.68 0.71,-4.72 0.71,-6.06 0,-5.6 -1.8,-9.56 -5.35,-11.89 -3.6,-2.33 -9.71,-3.49 -18.32,-3.49l-4.15 0 4.96 -22.72 78.5 0 -5.62 22.72 -2.84 0c-7.37,0 -12.87,1.51 -16.47,4.54 -3.66,2.97 -6.33,8.33 -8.18,15.96l-50.68 208.44 -21.54 0 -72.06 -209.48 -37.21 155.01z"/>
   <path class="fil6 str4" d="M1548.43 19632.93l0 -769.27"/>
   <path class="fil6 str4" d="M1266.38 19356.88l563.14 0"/>
   <path class="fil6 str4" d="M1403.53 19496.87l294.22 -286.81"/>
   <path class="fil6 str4" d="M1400.39 19209.82l297.98 288.85"/>
   <path class="fil6 str4" d="M1548.29 18866.39l-95.47 118.01"/>
   <path class="fil6 str4" d="M1548.91 18866.35l87.89 118.05"/>
  </g>
  <g id="_2977662045936">
   <path class="fil1 str1" d="M5022.88 19292.43l0 473.7 -2309.37 0 0 -473.7 2309.37 0z"/>
   <path class="fil7" d="M3790.85 19630.9l0 -202.07 40.07 0 47.79 143.04c4.42,13.31 7.62,23.28 9.64,29.91 2.31,-7.33 5.93,-18.15 10.82,-32.4l48.64 -140.55 35.79 0 0 202.07 -25.68 0 0 -169.05 -58.98 169.05 -24.09 0 -58.32 -172.15 0 172.15 -25.68 0z"/>
   <path id="1" class="fil7" d="M4123.3 19583.49l25.68 3.38c-3.99,14.91 -11.47,26.53 -22.39,34.76 -10.91,8.24 -24.83,12.37 -41.81,12.37 -21.36,0 -38.29,-6.58 -50.8,-19.75 -12.51,-13.12 -18.77,-31.61 -18.77,-55.36 0,-24.56 6.31,-43.65 18.96,-57.2 12.65,-13.59 29.07,-20.37 49.25,-20.37 19.52,0 35.46,6.64 47.83,19.95 12.37,13.31 18.58,32.03 18.58,56.16 0,1.46 -0.05,3.67 -0.14,6.58l-109.08 0c0.94,16.04 5.46,28.37 13.64,36.88 8.14,8.51 18.35,12.79 30.53,12.79 9.08,0 16.84,-2.39 23.24,-7.19 6.44,-4.8 11.52,-12.47 15.28,-23zm-81.28 -39.8l81.56 0c-1.08,-12.32 -4.23,-21.54 -9.36,-27.7 -7.85,-9.55 -18.1,-14.35 -30.66,-14.35 -11.39,0 -20.93,3.81 -28.7,11.43 -7.71,7.62 -11.99,17.83 -12.84,30.62z"/>
   <path id="2" class="fil7" d="M4180.07 19630.9l0 -146.47 22.3 0 0 22.43c5.69,-10.39 10.96,-17.26 15.8,-20.55 4.85,-3.34 10.16,-4.99 15.95,-4.99 8.37,0 16.89,2.64 25.54,7.86l-8.84 22.91c-6.02,-3.39 -12.04,-5.08 -18.06,-5.08 -5.41,0 -10.26,1.64 -14.54,4.89 -4.28,3.24 -7.34,7.76 -9.17,13.54 -2.78,8.8 -4.14,18.44 -4.14,28.93l0 76.53 -24.84 0z"/>
   <path id="3" class="fil7" d="M4370.01 19577.28l24.27 3.38c-2.68,16.7 -9.45,29.73 -20.41,39.19 -10.96,9.45 -24.46,14.15 -40.41,14.15 -19.99,0 -36.08,-6.53 -48.21,-19.61 -12.18,-13.08 -18.25,-31.8 -18.25,-56.16 0,-15.81 2.63,-29.59 7.85,-41.44 5.22,-11.81 13.17,-20.7 23.9,-26.58 10.68,-5.92 22.29,-8.89 34.9,-8.89 15.85,0 28.88,4 38.95,12.04 10.11,8.05 16.6,19.48 19.42,34.25l-23.99 3.67c-2.3,-9.83 -6.35,-17.22 -12.23,-22.2 -5.83,-4.94 -12.88,-7.44 -21.16,-7.44 -12.51,0 -22.67,4.47 -30.53,13.41 -7.81,8.98 -11.71,23.09 -11.71,42.47 0,19.66 3.76,33.92 11.29,42.81 7.57,8.89 17.4,13.35 29.49,13.35 9.78,0 17.92,-2.96 24.41,-8.93 6.54,-5.93 10.68,-15.1 12.42,-27.47z"/>
   <path id="4" class="fil7" d="M4511.12 19612.56c-9.22,7.85 -18.11,13.35 -26.62,16.6 -8.52,3.25 -17.64,4.84 -27.43,4.84 -16.08,0 -28.45,-3.9 -37.11,-11.75 -8.65,-7.81 -12.98,-17.83 -12.98,-30.01 0,-7.15 1.65,-13.69 4.89,-19.62 3.29,-5.93 7.57,-10.63 12.84,-14.2 5.32,-3.58 11.24,-6.31 17.88,-8.14 4.89,-1.27 12.27,-2.49 22.1,-3.72 20.04,-2.35 34.86,-5.22 44.31,-8.51 0.1,-3.39 0.14,-5.55 0.14,-6.44 0,-10.07 -2.35,-17.17 -7.05,-21.31 -6.35,-5.6 -15.81,-8.37 -28.32,-8.37 -11.71,0 -20.36,2.07 -25.92,6.16 -5.59,4.09 -9.68,11.33 -12.37,21.78l-24.27 -3.39c2.21,-10.4 5.84,-18.82 10.92,-25.21 5.08,-6.4 12.41,-11.29 22.01,-14.77 9.55,-3.44 20.7,-5.18 33.3,-5.18 12.51,0 22.72,1.46 30.57,4.42 7.81,2.97 13.6,6.64 17.27,11.11 3.67,4.46 6.25,10.11 7.76,16.93 0.8,4.23 1.22,11.85 1.22,22.81l0 32.93c0,23 0.52,37.53 1.55,43.69 0.99,6.17 3.06,12.05 6.07,17.69l-25.96 0c-2.5,-5.22 -4.1,-11.34 -4.8,-18.34zm-1.98 -55.04c-9.03,3.67 -22.57,6.78 -40.64,9.32 -10.25,1.45 -17.49,3.1 -21.73,4.93 -4.23,1.84 -7.48,4.52 -9.78,8 -2.31,3.53 -3.48,7.43 -3.48,11.76 0,6.54 2.49,12.04 7.52,16.42 5.04,4.37 12.38,6.58 22.02,6.58 9.55,0 18.06,-2.07 25.54,-6.25 7.43,-4.14 12.93,-9.84 16.41,-17.03 2.69,-5.6 4,-13.83 4,-24.7l0.14 -9.03z"/>
   <path id="5" class="fil7" d="M4626.31 19608.75l3.39 21.91c-6.96,1.46 -13.22,2.22 -18.68,2.22 -8.98,0 -15.94,-1.42 -20.93,-4.28 -4.94,-2.87 -8.42,-6.59 -10.44,-11.25 -2.02,-4.65 -3.01,-14.44 -3.01,-29.35l0 -84.38 -18.34 0 0 -19.19 18.34 0 0 -36.22 24.84 -14.91 0 51.13 24.83 0 0 19.19 -24.83 0 0 85.79c0,7.11 0.42,11.67 1.31,13.69 0.85,2.02 2.26,3.62 4.24,4.85 1.97,1.17 4.79,1.78 8.46,1.78 2.73,0 6.35,-0.33 10.82,-0.98z"/>
   <path id="6" class="fil7" d="M4641.5 19557.66c0,-27.04 7.53,-47.08 22.63,-60.11 12.56,-10.82 27.94,-16.23 46.05,-16.23 20.08,0 36.54,6.59 49.34,19.76 12.75,13.12 19.14,31.33 19.14,54.51 0,18.82 -2.82,33.59 -8.46,44.36 -5.65,10.77 -13.88,19.14 -24.7,25.12 -10.77,5.97 -22.58,8.93 -35.32,8.93 -20.51,0 -37.07,-6.53 -49.72,-19.66 -12.65,-13.12 -18.96,-32.03 -18.96,-56.68zm25.4 0.05c0,18.72 4.1,32.74 12.28,42 8.23,9.32 18.53,13.97 31,13.97 12.32,0 22.57,-4.65 30.81,-14.01 8.18,-9.36 12.27,-23.61 12.27,-42.76 0,-18.06 -4.14,-31.75 -12.37,-41.01 -8.23,-9.32 -18.48,-13.97 -30.71,-13.97 -12.47,0 -22.77,4.61 -31,13.87 -8.18,9.27 -12.28,23.24 -12.28,41.91z"/>
   <path id="7" class="fil7" d="M4807.49 19630.9l0 -146.47 22.3 0 0 22.43c5.69,-10.39 10.96,-17.26 15.8,-20.55 4.85,-3.34 10.16,-4.99 15.95,-4.99 8.37,0 16.89,2.64 25.54,7.86l-8.84 22.91c-6.02,-3.39 -12.04,-5.08 -18.06,-5.08 -5.41,0 -10.26,1.64 -14.54,4.89 -4.28,3.24 -7.34,7.76 -9.17,13.54 -2.78,8.8 -4.14,18.44 -4.14,28.93l0 76.53 -24.84 0z"/>
   <circle class="fil8 str5" cx="2931.88" cy="19525.58" r="118.79"/>
   <rect class="fil8 str5" x="3389.81" y="19417.3" width="226.91" height="226.91"/>
   <path class="fil6 str6" d="M3105.78 19524.71l220.31 0"/>
   <path class="fil6 str6" d="M3323.43 19525.37l-64.02 65.38"/>
   <path class="fil6 str6" d="M3323.6 19524.23l-63.42 -61.39"/>
  </g>
 </g>
</svg>
