<?xml version="1.0" encoding="UTF-8"?>
<!DOCTYPE svg PUBLIC "-//W3C//DTD SVG 1.1//EN" "http://www.w3.org/Graphics/SVG/1.1/DTD/svg11.dtd">
<!-- Creator: CorelDRAW -->
<svg xmlns="http://www.w3.org/2000/svg" xml:space="preserve" width="210mm" height="297mm" version="1.1" style="shape-rendering:geometricPrecision; text-rendering:geometricPrecision; image-rendering:optimizeQuality; fill-rule:evenodd; clip-rule:evenodd"
viewBox="0 0 21000 29700"
 xmlns:xlink="http://www.w3.org/1999/xlink">
 <defs>
  <style type="text/css">
   <![CDATA[
    .str1 {stroke:black;stroke-width:10;stroke-miterlimit:3.864;stroke-opacity:0.501961}
    .str3 {stroke:black;stroke-width:50;stroke-miterlimit:22.9256}
    .str5 {stroke:#434242;stroke-width:10;stroke-miterlimit:22.9256}
    .str2 {stroke:#3F3E3F;stroke-width:10;stroke-miterlimit:3.864}
    .str0 {stroke:black;stroke-width:10;stroke-miterlimit:22.9256}
    .str6 {stroke:#2B2A29;stroke-width:7.62;stroke-miterlimit:22.9256}
    .str4 {stroke:black;stroke-width:7.62;stroke-miterlimit:22.9256}
    .fil6 {fill:none}
    .fil0 {fill:#FEFEFE}
    .fil8 {fill:#D9DADA}
    .fil4 {fill:#FEFEFE;fill-rule:nonzero}
    .fil3 {fill:#D9DADA;fill-rule:nonzero}
    .fil7 {fill:#434242;fill-rule:nonzero}
    .fil5 {fill:#2B2A29;fill-rule:nonzero}
    .fil2 {fill:black;fill-rule:nonzero}
    .fil1 {fill:#FEFEFE;fill-rule:nonzero;fill-opacity:0.501961}
   ]]>
  </style>
 </defs>
 <g id="Plan_x0020_1">
  <metadata id="CorelCorpID_0Corel-Layer"/>
  <rect class="fil0" x="1000" y="999.99" width="19000" height="20258.45"/>
  <path class="fil0 str0" d="M16553.81 1000l-25.47 37.47c-1.27,9.61 -2,15.7 -2,24.58 3.97,3.97 11.68,10.34 17.07,11.41 7.15,12.54 28.45,11.74 28.45,28.5 0,46.18 -6.56,195.87 22.76,225.19 37.98,37.98 79.96,73.83 123.74,105.47 22.02,15.91 17.06,261.94 17.06,306.43 0,38.68 13.24,129.76 1.43,162.48 -9.38,25.97 -59.55,71.05 -79.65,91.22 0,4.56 -1.42,7.55 -1.42,11.4 12.47,12.52 46.74,35.52 36.98,58.44 3.51,10.93 23.94,63.02 34.13,65.56 2.86,20.12 25.24,37.86 22.76,59.86 -1.36,12.02 -17.17,20.94 -18.49,39.91 -1.53,21.88 22.45,68.58 28.44,92.64 2.93,11.76 14.27,71.99 22.76,74.11 6.18,24.83 104.46,47.77 120.9,101.19 14.62,47.54 2.94,286.62 35.56,295.03 57.37,14.81 53.74,10.95 65.42,68.41 10.76,52.88 5.69,112.18 5.69,166.76 -7.7,82.49 -1.44,159.72 36.98,229.47 59.91,108.78 103.6,240.46 64.01,369.14 -22.06,71.72 27.14,54.59 64,102.62 21.47,27.97 9.07,90.93 27.02,126.84 7.55,1.07 10.28,11.14 17.07,12.83l1.42 4.28c25.73,8.53 -14.57,103.03 -21.33,118.29 -10.32,41.46 8.53,52.04 8.53,84.09 41.12,10.24 6.92,248 85.34,248 28.12,0 85.91,-14.75 102.06,-0.95 -1.68,24.36 0.35,50.71 0.35,89.32 0,54 -23.86,70.07 -51.2,111.17 -31.49,47.34 -19.67,115.75 -65.43,148.22 -57.97,41.13 -67.54,93.97 -82.5,148.23 -5.23,18.98 1.9,29.6 -9.95,49.88 -23.77,40.66 -96.42,20.71 -132.28,61.29 -32.41,36.68 -24.03,109.14 -36.98,145.38 -16.4,45.88 -40.56,94.01 -36.98,145.37 3.84,55.02 47.58,103.62 61.16,155.35 2.44,9.33 51,58.96 51.21,59.48 -6.45,23.13 -11.88,47.04 -15.65,71.65 -10.93,71.42 -36.95,170.39 -58.31,239.44 -42.8,138.34 -60.18,388.96 -177.79,481.74 -55.49,43.77 -142.75,108.65 -180.64,168.18 -46.32,72.77 -154.01,126.6 -204.81,183.86 -15.91,17.93 -107.5,72.1 -135.12,88.36 -45.59,26.85 -117.19,35.08 -156.46,66.99 -18.45,14.98 -173.15,165.1 -204.81,173.88 -24.51,6.79 -67.89,3.53 -82.49,19.96 -20.37,22.92 -15.65,29.57 -15.65,69.83 0,115.13 24.25,239.5 45.52,350.62 19.84,103.66 84.43,252.45 2.84,354.89 -90.21,113.26 -196.05,188.77 -100.98,327.81 18.06,26.41 55.52,36.22 100.98,38.48 70.11,3.48 337.25,10.27 372.65,96.92 13.13,32.14 76.27,112.05 103.83,139.67 65.43,65.54 130.86,131.13 196.27,196.69 76.36,76.52 207.96,39.09 288.73,125.42 127.06,135.84 253.47,393.59 395.41,497.41 33.29,24.36 30.29,81.65 61.16,112.6 22.82,22.89 95.56,34.92 109.52,65.56 3.23,7.11 12.55,39.81 15.64,48.46 6.68,18.68 14.09,35.89 31.29,47.03 153.24,99.29 306.91,232.84 476.48,307.86 75.28,33.3 170.44,104.57 216.19,168.18 19.07,26.53 24.18,73.74 24.18,106.89 0,46.3 35.77,64.51 62.58,86.94 46.27,38.7 110.07,37.14 78.23,111.17 -12.51,29.41 -66.21,39.7 -82.5,68.42 -2.91,5.13 -12.6,13.98 -15.64,17.1 -36.09,37.04 2.92,95.41 -45.52,143.95 -47.12,47.21 4.21,188.49 22.76,242.3 1.95,5.68 76.37,50.02 79.65,54.16 30.9,39.04 45,92.88 -1.42,132.54 -28.91,24.69 -57.85,49.42 -86.76,74.12 -46.09,39.36 -28.65,227.07 -159.3,292.18 -80.86,40.31 -190.2,7.81 -183.48,145.37 2.42,49.72 17.74,71.33 4.27,115.45 -8.35,27.36 -44.39,88.06 -51.21,116.87 -12.75,53.9 21.23,99.06 59.74,118.3 95.58,46.77 44.34,225.5 69.69,306.43 11.34,36.18 -19.19,110.91 19.92,132.54 75.84,41.96 54.7,61.31 85.33,126.85 38.47,82.32 -23.19,68.41 -38.4,132.55 -11.57,48.8 19.54,57.26 52.63,78.39 15.8,10.08 25.67,60.02 34.13,76.96 24.48,48.99 141.48,20.23 180.64,51.31 45.02,35.73 79.76,64.46 139.38,61.29 33.96,-1.81 68.05,-2.69 92.45,22.8 30.22,31.57 78.03,-7.67 113.79,52.74 12.82,21.67 63.31,97.16 75.38,105.47 24.01,16.53 14.22,130 12.8,153.93 -3.39,56.73 -33.16,102.49 -79.65,142.52 -26.54,22.85 -52.62,35.11 -52.62,74.11 0,37.56 30,53.18 45.51,71.27 24.75,28.87 33.38,96.84 31.29,131.12 -4.64,76.05 -73.43,110.94 -119.47,162.48 -19.69,22.04 7.76,72.35 14.22,96.92 9.65,36.66 25.31,91.09 8.54,129.7 -13.04,30.04 29.87,145.64 55.47,163.9 14.45,10.3 82.61,28.31 99.56,32.78 58.8,15.49 105.31,59.19 140.81,108.32 6.15,8.51 60.06,106.23 84.64,118.78 2.61,11.28 -13.41,41.79 -16.37,53.68 -19.89,4.97 -31.66,37.26 -48.36,45.61 0,74.48 20.98,156.69 -9.96,226.61 -19.55,44.2 -63.41,95.79 -95.29,135.4 -26.52,32.97 -79.02,42.99 -49.78,85.52 39.9,58.01 4.47,128.08 -38.41,171.03 -54.46,54.57 -4.01,135.82 24.18,192.41 36.28,49.69 18.62,65.94 11.38,116.87 -75.54,60.43 -40,88.38 -56.89,169.61 -6.43,30.9 -32.15,33.03 -44.09,57.01 -19.17,38.51 2.81,85.53 -29.87,118.29 -17.96,17.99 -45.42,43.73 -65.43,59.86 -25,20.17 -83.18,34.65 -85.34,68.42 -3.81,59.68 -48.05,100.84 -89.6,142.52 -48.74,63.43 -90.16,34.6 -140.81,71.26 -30.55,22.12 -0.84,73.09 -24.18,114.02 -4.23,0.84 -9.22,3.88 -11.38,7.13 -37.2,4.65 -72.54,-20.16 -72.54,39.91 0,39.91 -11.6,93.79 -2.84,131.12 7.81,33.25 51.22,39.46 64,72.69 34.57,89.91 75.35,44.6 143.66,68.41 75.12,26.17 141.59,181.28 126.58,255.12 -6.06,29.8 -43.83,73.74 -25.6,101.2 18.76,28.28 47.96,57.36 15.65,89.79 0,35.96 4.08,33.66 17.06,68.41 25,33.38 18.91,116.87 62.59,116.87 1.42,2.14 15.55,8.18 17.06,8.55 11.52,46.26 86.84,103.41 123.74,131.13 27.52,20.66 49.35,50.84 72.54,74.11 21.09,21.15 76.32,48.31 89.61,66.99 21.96,3.13 20.02,57.22 25.6,74.11 13.65,41.26 57.19,57.93 69.69,104.04 21.11,77.91 9.96,140.2 9.96,220.92 0,35.09 -6.98,94.67 15.65,122.57 28.17,34.71 38.4,46.77 38.4,96.92 14.43,51.5 -25.31,60.17 -45.52,95.49 -70.74,14.14 -109.81,133.33 -137.96,186.71 -39.76,75.42 -115.91,79.82 -61.16,156.78 99.39,12.42 5.37,164.97 71.12,230.89 71.86,72.03 185.43,73.73 278.77,101.19 84.95,24.98 115.05,55.53 182.06,109.75 97.77,79.12 141.26,115.73 268.81,122.57 47.97,2.57 64.56,23.75 103.83,39.91 29.67,12.2 119.14,-33.73 123.74,17.1 32.16,34.7 43.83,44.18 86.76,59.86 63.42,23.16 62.6,88 95.3,141.1 18.19,29.52 35.09,55.85 45.51,89.79 11.71,38.18 2.05,49.32 -22.75,74.12 -28.03,28.03 25.71,91.78 9.95,136.82 -12.45,35.56 -49.73,74.11 -11.38,112.6 0,12.76 7.22,30.9 -8.53,39.9 -13.42,47.25 28.04,119.76 52.99,169.83l0 0 0 -18797.29 -2092.41 0 35.38 32.12c9.37,11.78 23.31,23.35 35.56,32.78 13.76,10.61 1.51,27.45 7.11,41.34 14.39,35.7 55.53,35.63 86.76,35.63 19.77,0 54.63,2.78 72.54,-2.85 33.37,-10.51 29.85,-28.01 45.51,12.83 5.17,13.48 -7.11,24.99 -7.11,38.48 19.83,0 36.07,-8.55 56.89,-8.55 2.13,6.4 15.38,41.72 22.76,44.18l0 7.13c-7.21,2.4 -23.23,32.17 -28.45,41.33 -0.73,2.19 0.04,1.42 -2.84,1.42 -1.99,8 -20.09,37.03 -2.85,41.34 0.92,2.77 0.51,0.07 1.43,2.85l4.26 0c0.58,1.74 1.11,2.27 2.85,2.85 0,14.53 -9.74,14.99 -12.8,24.23 -2.39,0.59 -3.64,0.94 -4.27,2.85 -6.62,0 -32.57,-3.42 -34.13,2.85 -8.26,2.05 -11.66,31.46 -19.92,34.2 -2.01,8.07 -15.59,1.25 -17.07,5.7 -4.18,0 -16.02,3.99 -17.06,7.13 -32.29,8.04 -15.65,116.01 -15.65,141.1 0,47.48 16.06,89.2 1.42,136.83 30.8,28.28 21.95,132.46 31.29,175.3 5.37,24.61 1.76,66.07 15.65,85.52 10.24,14.32 37.78,65.89 55.47,68.41 8.98,36.06 85.08,36.76 89.61,96.92 2.86,37.93 13.78,80.84 22.75,116.87 1.73,0.57 3.68,3.32 4.27,5.7 2.6,0.65 2.2,0.25 2.85,2.85 2.58,0.64 3.09,2.21 5.68,2.85 2.06,6.21 13.49,5.7 19.92,5.7 0.73,-2.19 -0.04,-1.42 2.84,-1.42 0.81,-2.45 4.75,-3.34 5.69,-7.13 22.18,0 65.05,-60.14 82.49,-75.54 10.38,-9.18 80.91,-13.53 83.92,-1.42 28.76,4.78 12.8,88.39 12.8,111.17 -9.43,14.7 -25.07,71.15 -4.26,82.66 13.44,7.44 78.56,8.46 81.07,18.53 14.72,3.68 16.71,71.63 11.38,85.52 -14.48,37.76 28.62,53.47 -25.61,66.98 -8.31,33.39 5.69,96.51 5.69,135.4 0,93.94 -15.67,50.41 55.47,74.12 0,47.99 12.8,95.28 12.8,143.95 0,30.82 -29.93,51.5 -36.98,81.24 -8.21,34.58 -100.98,49.53 -133.69,61.28 -46.84,16.82 -85.09,-11.4 -126.59,-11.4 0,33.76 40.51,51.34 29.87,94.07 -12.78,3.19 -14.22,22.04 -14.22,34.2 3.16,0.79 2.84,1.18 2.84,4.28 35.81,8.95 45.78,20.35 51.2,58.43l7.12 27.08c1.01,3.07 3.01,10.69 5.68,14.26 -6.2,10.33 -0.72,25.28 -18.49,27.08 -6.78,0.69 -29.37,1.35 -31.29,7.12 -3.79,0 -17.24,3.77 -18.49,0 -26.61,0 -38.63,20.78 -52.62,38.49 -6.56,8.32 -5.34,8.55 -14.22,8.55 -0.17,-0.51 -8.16,-9.86 -8.54,-9.98 0,-8.1 -6.19,-16.65 -8.53,-24.23 -3.23,-10.5 -8.13,-20.1 -11.38,-29.93 -4.55,-13.79 -7.1,-30.68 2.84,-45.61 3.42,-5.15 18.82,-24.34 22.76,-25.65 0,-6.17 -6.96,-19.05 -8.53,-22.81 3.69,-4.92 5.97,-21.78 -1.43,-24.23 0,-24.58 7.12,-47.7 7.12,-71.26 4.74,-1.58 5.69,-24 5.69,-28.5l-1.43 -1.43c-6.45,-1.61 -39.12,-2.5 -41.24,-5.7l-11.38 0c-2.34,9.39 -14.7,20.41 -17.07,29.93 -6.48,1.62 -22.16,2.41 -24.18,-5.7 -32.06,-8.01 -99.4,-121.86 -119.47,-149.65 -37.37,-51.71 6.15,-124.01 24.17,-178.16 12.9,-38.8 43.61,-82.09 52.63,-118.3 19,-4.75 62.64,-144.99 65.43,-169.6 8.1,-71.52 30.14,-134.35 15.64,-216.64 2.53,-10.15 -13.16,-81.37 -21.33,-84.09 -6.72,-27 -34.53,-66.51 -65.43,-72.69 -1.66,-3.33 -28.68,-27.33 -34.13,-32.78 -13.4,-13.4 -17.72,-28.38 -25.61,-44.18 -14.82,-29.64 -21.33,-74.27 -21.33,-108.32 0,-65.59 9.37,-136.11 -18.49,-193.84 -0.72,-2.89 -2.8,-4.98 -5.69,-5.7 -0.93,-3.72 -4.77,-4.84 -5.69,-8.55 -3.59,-0.89 -2.32,-0.63 -2.84,-4.28 -6.79,-1.69 -8.88,-27.68 -15.65,-29.93 0,-3.83 -2.03,-3.86 -2.84,-7.12 -2.78,-0.92 -0.08,-0.51 -2.85,-1.43 -0.65,-2.6 -0.24,-2.2 -2.84,-2.85 -0.92,-2.77 -0.51,-0.07 -1.43,-2.85 -37.77,-9.44 -75.12,-99.15 -98.14,-128.27 0,-27.27 -25.96,-59.1 -36.98,-84.09 -9.45,-21.41 -14.09,-48 -21.33,-69.84 -12.44,-37.55 -23.62,-76.3 -44.09,-111.17 -40.5,-68.95 -79.46,-115.78 -157.88,-143.95 -19.82,-7.12 -112.77,-44.43 -118.05,-65.56 -11.11,-2.77 -16.41,-15.34 -27.54,-16.45l-998.93 0 0 0zm1788.83 1487.31c9.23,-40.14 7.7,-101.76 25.6,-136.82 6.62,-12.95 14.73,-58.27 15.65,-72.69 0.82,-12.99 -37.72,-22.8 -49.78,-22.8 -0.73,2.19 0.03,1.42 -2.85,1.42 -7.63,23 -22.76,40.59 -22.76,69.84 -1.55,0.51 -2.84,10.09 -2.84,12.83 -9.45,3.15 -19.59,131.97 -29.87,135.39 0,3.72 -4.74,19.17 -7.11,19.96 0,7.75 -25.38,76.2 -28.45,76.96l0 4.28c-9.42,4.71 -26.36,71.3 -32.71,84.09 -8.25,16.59 -34.14,59.98 -34.14,76.96 -8.5,2.83 -28.44,80.3 -28.44,92.64 18.97,3.79 44.88,0.24 66.85,-1.42 22.1,-1.66 53.48,-15.68 71.11,-15.68 1.98,-5.96 31.29,-7.9 31.29,4.28 0,18.79 9.96,36.58 9.96,51.31 11.02,0 47.76,-63.64 54.05,-75.54 25.56,-48.36 16.76,-103.58 -18.49,-148.23 -35.99,-45.61 -25.12,-59.34 -18.49,-112.59l1.42 -44.19z"/>
  <path class="fil0 str0" d="M17201.94 3854.13l-79.65 34.92c-61.08,36.94 -69.92,84.81 -150.76,84.81 -16.59,66.38 -187.1,50.54 -231.84,35.63 0,85.67 -38.34,209.29 -130.85,232.31 -46.44,11.56 -88.64,43.22 -135.12,52.74 -40.52,8.31 59.23,131.5 -25.6,163.9 -54.67,20.87 -113.2,28.51 -173.52,28.51 -61.56,0 -69.79,-17.79 -110.95,-54.16 -17.51,-15.48 -45.07,9.86 -65.42,11.4 -90.8,6.86 -117.42,-87.21 -231.84,-44.18 -28.18,50.2 -159.85,47.03 -211.92,47.03 0,-127.1 72.52,-237.95 173.52,-312.13 55.51,-40.78 99.06,-101.56 152.19,-143.95 70.5,-56.23 151.38,-143.65 192.01,-225.19 40.05,-5.91 98.75,-155.23 120.9,-195.26 54.05,-97.64 64,-229.64 64,-340.64 0,-39.62 14.49,-101.17 0,-136.82 -5.69,-13.99 -46.66,-95.8 -56.89,-98.35 -1,-4.01 -3.48,-2.85 -7.11,-2.85 -14.31,57.45 -146.56,107.36 -196.28,99.77 -102.34,-15.61 -204.49,-142.2 -302.96,-149.65 -39.94,-3.02 -60.63,70.88 -73.96,101.19 -22.68,51.58 -59.4,33.72 -103.83,48.46 -5.47,27.5 -39.77,53.59 -55.47,79.82 -18.08,6.96 -132.58,13.47 -139.38,-4.28 -11.68,-30.44 -1.39,-86.72 -9.96,-121.15l-1.42 -1.42c-40.99,-10.24 -106.16,-6.68 -149.34,-8.55 -45.82,-1.98 -80.52,-69.03 -103.83,-61.29 -96.96,32.19 -175.57,40.32 -277.36,52.74 -28.87,3.52 -144.32,75.91 -159.29,57.01 -14.81,-18.72 -28.13,-58.47 -35.56,-82.67 -8.66,-28.16 25.96,-30.4 31.29,-51.31 3.37,-13.22 -8.54,-18.94 -8.54,-29.93 0,-19.67 36.83,-38.43 28.45,-71.26 -10,-39.22 -231.15,-197.97 -162.14,-215.22 5.6,-33.72 14.86,-30.81 -7.11,-61.28 -7.71,-10.69 -20.85,-9.85 -28.45,-22.81 -8.72,-14.89 2.3,-40.31 -9.96,-55.58 18.25,-35.4 18.72,-90.64 28.45,-129.7 -2.29,-0.76 -1.42,-1.56 -1.42,-4.28 -1.75,-0.58 -2.27,-1.09 -2.85,-2.85 -86.35,0 -231.45,-95.06 -283.04,-161.05 -29.37,-37.58 -46.48,-85.3 -78.23,-119.72 -20.26,-21.95 -26.4,-101.2 -54.04,-101.2 -19.56,78.81 -105.25,131.36 -62.58,220.92 24.57,51.55 56.81,173.57 68.27,230.89l112.36 18.53c2.66,6.69 37.32,20.76 45.51,22.8 7.75,31.13 -118.06,162.11 -150.76,166.76 -67.91,9.65 -144.06,9.03 -207.66,-22.81 -77.36,-38.72 -38.4,-30.58 -125.16,-25.65 -67.57,3.83 -150.31,58.86 -196.28,112.6 -25.46,29.78 -78.46,53.99 -110.94,74.11 -42.04,26.06 -20.95,43.56 -35.56,82.66 -39.55,68.23 -25.17,139.36 -83.92,21.38 -30.6,-61.47 -58.31,103.31 -58.31,126.85 0,42.9 20.63,77.89 -1.43,118.3 -29.08,53.3 -34.06,45.96 -91.02,35.63 -17.55,-3.18 -198.28,53.58 -201.97,59.86 -12.06,20.56 -13.22,57.01 -42.67,57.01 -39.54,0 -131.32,5.3 -92.45,68.41 28.17,45.72 76.37,115.31 31.29,171.03 -22.94,28.34 -32.8,60.2 -75.38,51.31 -41.17,-8.59 -70.54,-2.4 -81.08,39.91 -26.76,6.69 -17.68,48.35 -15.64,62.71 46.09,11.52 18.49,104.52 18.49,135.4 9.83,27.11 19.82,141.51 4.27,166.76 -26.19,42.5 -63.7,-54.16 -76.81,-54.16l0 2.85c-2.13,0.71 -21.89,115.98 -29.87,135.4 -23.09,56.24 -73.82,133.39 -139.38,152.5 -104.04,30.32 -83.8,-89.79 -172.1,-89.79 0,40.67 3.28,77.62 -7.12,116.87 -8.06,30.46 -55.03,37 -66.84,71.26 -18.06,52.4 -52.09,84.37 -75.39,131.13 -16.58,33.25 -31.83,219.47 -113.78,122.57 -29.18,-34.49 -46.66,-94.56 -58.32,-136.83l-18.49 -66.98c-5.79,-21.03 -32.75,-30.08 -35.55,-41.34 -70.95,-8.85 -48.12,-11.94 -118.06,11.41 -69.79,23.29 -178.54,-95.2 -203.39,-42.76 -19.1,40.29 -105.98,122.25 -152.19,131.12 -101.01,19.41 -89.62,83.71 -118.05,179.58l-62.58 210.94c-25.19,6.29 -140.85,-18.22 -159.3,-41.33 -53.34,-66.78 -17.21,-226.62 -126.58,-226.62 -56.12,0 -118.12,-30.81 -157.88,18.53 -41.08,51 -29.25,99.37 -102.41,62.71 -121.66,-60.98 -65.99,90.34 -62.58,153.93 8.21,153.27 -122.32,3.88 -122.32,57.01 -48.86,24.43 45.87,117.43 -58.4,105.85 -52.28,15.04 -98.78,46.79 -155.79,24.44 -55.71,-21.84 -89.98,108.29 -111.52,153.34 -31.83,66.54 -137.83,143.81 -216.19,118.29 -28.52,-9.28 -29.37,-60 -62.58,-65.56 -19.53,-3.26 -45.37,25.87 -68.27,19.96 -40.21,-10.37 243.2,-243.84 93.87,-220.92 -40.06,6.14 -125.16,-35.91 -125.16,18.53 0,89.38 -25.25,76.96 -102.41,76.96 26.94,-107.76 10.96,-84.19 -99.56,-68.41 -48.3,193.88 -243.01,75.15 -274.51,-51.31 -21.49,-3.58 -60.11,39.31 -92.45,48.46 -44.34,12.56 -56.3,-21.92 -92.45,-27.08 -83.53,7.18 -91.94,149.02 -217.61,76.96 -11.41,-80.08 -130.86,-56.6 -130.86,-92.64 0,-7.85 68.7,-106.92 78.23,-133.97 27.71,-78.67 -158.14,-64.25 -213.35,-75.54 -34.96,-7.15 -279.43,-31.89 -247.48,-106.9 93.06,-23.26 29.91,-122.79 -21.33,-129.69l-190.59 -25.66c-7.96,-1.07 -64.4,82.44 -82.5,96.92 -19.2,15.35 -139.72,-75.07 -164.99,-89.79 -60,-34.93 -123.69,-88.37 -194.85,-88.37 -35.16,26.77 -88.39,22.89 -130.86,37.06 -70.58,23.54 -54.67,84.36 -146.5,62.71 -72.4,-17.06 -152.28,-1.06 -224.72,-11.4 -24.83,-124.85 19.22,-149.86 -122.32,-185.29 -77.82,-19.47 -35.03,-124.48 -55.47,-185.28 -14.93,-44.39 -90.23,-35.85 -129.43,-45.61 -40.85,-10.16 -59.41,-27.65 -95.3,-45.61 -57.93,-29.01 -134.93,-40.82 -179.21,-88.36 -39.76,-42.7 -73.96,-98.26 -147.92,-57.01 -99.53,87.77 -117.78,-13.84 -210.5,-27.08 -7.02,-35.33 -17.41,-73.15 -29.87,-106.9 -5.69,-15.44 -22.03,-102.61 -28.45,-102.61 -14.2,42.62 -116.33,26.38 -149.34,22.8 -101.77,-11.05 -54.59,97.43 -150.76,121.15 -116.25,28.68 -42.48,-192.41 -118.06,-192.41 -29.63,44.45 -30.94,105.47 -99.56,105.47 -63.56,0 -76.2,5.01 -116.63,45.6 -26.83,26.92 -80.74,-0.1 -106.67,-17.1 -31.77,-20.84 -5.9,-119.83 -32.71,-165.33 -12.89,-21.89 -117.18,-15.68 -145.08,-15.68l-1.42 1.43c0,43.24 79.94,125.59 48.36,162.48 -25.56,29.84 -88.66,20.67 -125.17,41.33 -33.07,18.7 -94.91,84.66 -69.69,121.15 14.55,21.07 33.44,47.83 19.91,72.69 -21.69,39.88 7.11,63.45 7.11,101.19 25.44,114.72 -173.11,89.79 -247.48,89.79l-1.42 1.43c0,30.09 -90.41,193.48 -119.48,200.96 -83.67,21.56 -191.13,-48.46 -273.08,-48.46l-1.42 1.42c0,50.63 10.48,90.18 -38.41,124 -45.91,31.75 -113.89,145.38 -170.67,121.15 -83.1,-35.45 -155.06,-41.3 -244.64,-28.51l-1.42 1.43c0,19.01 97.72,84.12 113.78,109.74 92.66,147.88 -202.65,75.25 -280.19,114.02 -37.72,44.36 -127.14,95.5 -187.75,95.5l-1.42 -1.43c-8.71,-34.99 37.32,-138.25 -24.18,-138.25 -54.51,0 -71.48,11.11 -95.3,-39.91 -45.14,-96.64 -64.42,-33.62 -149.34,-57.01 -70.95,-19.53 -81.76,44.33 -150.76,29.93 -121.96,-25.47 -111.91,15.73 -194.86,102.62 -69.83,73.16 -120.06,117.02 -219.04,131.13 -1.47,5.89 -41.54,23.25 -48.36,24.22l15.65 216.64c4.21,58.23 92.24,141.62 22.76,185.29 -27.24,46.51 -51.06,59.08 -42.67,119.72 8.48,61.36 -39.53,144.74 -100.99,161.05 -52.41,13.9 -176.68,19.09 -203.39,-18.53 -47.66,-14.3 -81.47,-12.71 -115.21,-57.01 -56.75,-74.54 -109.86,1.79 -184.9,-25.65 -30.68,-11.21 -157.97,-3.51 -189.16,4.28 -31.06,38.69 30.57,140.94 32.71,181 5.86,109.45 -202.38,-0.77 -260.29,8.55 -62.77,10.11 -109.61,-49.93 -156.45,-42.75 -24.83,3.8 -25.03,39.65 -42.67,48.46 -23.5,11.75 -56.38,-20.25 -78.23,-29.93l-119.47 -14.26 0 0c-14.59,-31.45 -96.98,-119.08 -123.74,-141.1 -52.65,-43.33 -97.48,-75.98 -162.15,-45.61 -37.81,17.75 -60.8,73.08 -103.82,69.84 -49.76,-3.75 -46.31,-77.48 -48.36,-114.02 -1.23,-21.96 -11.13,-45.52 -25.67,-67.87 -1.89,-40.72 48.51,-62.96 65.49,-104.59 36.77,-90.09 27.02,-136.18 -73.25,-140.38l-84.99 -23.57 0 0 0 -4045.6 15553.81 0 0 0 -25.47 37.47c-1.27,9.61 -2,15.7 -2,24.58 3.97,3.97 11.68,10.34 17.07,11.41 7.15,12.54 28.45,11.74 28.45,28.5 0,46.18 -6.56,195.87 22.76,225.19 37.98,37.98 79.96,73.83 123.74,105.47 22.02,15.91 17.06,261.94 17.06,306.43 0,38.68 13.24,129.76 1.43,162.48 -9.38,25.97 -59.55,71.05 -79.65,91.22 0,4.56 -1.42,7.55 -1.42,11.4 12.47,12.52 46.74,35.52 36.98,58.44 3.51,10.93 23.94,63.02 34.13,65.56 2.86,20.12 25.24,37.86 22.76,59.86 -1.36,12.02 -17.17,20.94 -18.49,39.91 -1.53,21.88 22.45,68.58 28.44,92.64 2.93,11.76 14.27,71.99 22.76,74.11 6.18,24.83 104.46,47.77 120.9,101.19 14.62,47.54 2.94,286.62 35.56,295.03 57.37,14.81 53.74,10.95 65.42,68.41 10.76,52.88 5.69,112.18 5.69,166.76 -7.7,82.49 -1.44,159.72 36.98,229.47 59.91,108.78 103.6,240.46 64.01,369.14 -22.06,71.72 27.14,54.59 64,102.62 21.47,27.97 9.07,90.93 27.02,126.84l0 0z"/>
  <path class="fil0 str0" d="M1000 5045.6l84.99 23.57c100.27,4.2 110.02,50.29 73.25,140.38 -16.98,41.63 -67.38,63.87 -65.49,104.59 14.54,22.35 24.44,45.91 25.67,67.87 2.05,36.54 -1.4,110.27 48.36,114.02 43.02,3.24 66.01,-52.09 103.82,-69.84 64.67,-30.37 109.5,2.28 162.15,45.61 26.76,22.02 109.15,109.65 123.74,141.1l0 0c14.48,31.19 -15.68,125.02 18.49,168.18 6.3,7.96 29.72,48.07 35.56,52.74 5.17,4.13 22.09,27.6 24.18,32.78 7.05,17.41 114.66,69.39 126.58,88.36 20.01,31.83 75.46,100.81 96.72,141.11 67.18,127.28 164.07,28.4 253.17,-21.38 78.22,-43.71 104.82,-72.69 197.7,-72.69 113.49,0 163.27,-89.09 260.29,24.23 71.73,83.78 151.81,204.6 268.81,188.13 71.65,-10.08 90.83,-69.42 143.66,-2.85 33.56,42.29 82.58,96.17 139.38,111.17 21.9,5.78 45.32,2.15 69.72,-5.44l0 0 -62.6 88.11c-25.32,6.3 -83.03,68.94 -103.83,89.79 -43.55,43.68 -21.34,59.84 -21.34,106.89 7.43,2.47 -1.8,22.48 -17.07,17.11l-52.62 -18.53c-30.94,-10.89 -75.07,-28.64 -95.3,-55.59 -7.36,0 -44.26,-0.9 -45.51,2.85 -59.44,0 -119.72,390.5 -98.14,448.96 18.58,50.35 71.29,92.35 5.69,105.47 -79.48,15.91 -135.15,-1.37 -204.81,49.88 -71.26,52.41 -126.62,124.43 -193.44,175.31 -37.36,12.45 -26.75,87.52 -75.38,86.94l-118.05 -1.43c-7.72,23.29 -69.37,53.84 -92.45,65.57l-95.3 48.45c-5.86,0 -10.43,1.43 -15.64,1.43 -30.77,46.16 -134.33,81.61 -184.9,106.89 -28.94,-21.63 -26.17,-70.7 -39.83,-79.81 0,-8.71 -5.31,-14.15 -7.11,-21.38 -2.61,-0.65 -2.2,-0.24 -2.85,-2.85 -5.54,-1.38 -57.41,1.55 -58.31,4.28 -41.79,0 -69.01,74.11 -135.12,74.11 -80.73,0 -69.76,-2.17 -83.92,-78.39 -4.18,-22.5 -60.91,-37.37 -82.49,-42.76 -1.43,-5.72 -16.49,-35.85 -21.34,-37.05 -2.56,-10.31 -66.71,-4.28 -81.07,-4.28 -30.14,0 -58.7,-14.53 -86.76,-18.53 -1.39,-5.59 -35.38,-10.49 -39.96,-11.4l-81.3 -15.05 0 0 0 -2356.63 0 0z"/>
  <path class="fil0 str0" d="M10433.15 17633.53l-126.58 75.54c-73.27,-31.48 -21.6,-198.79 -91.03,-245.15 -21.18,-14.15 -86.08,-0.47 -113.79,-1.42 -44.53,-1.54 -86.06,30.15 -76.8,81.24 19.07,105.25 -63.9,23.81 -108.1,84.09 -13,17.73 -10.98,61 -18.57,76.3 -4.18,-8.36 -7.57,-16.05 -9.88,-22.14 -53.68,-141.46 -107.87,-16.67 -209.08,-42.76 -31.45,-8.11 -83.09,-83.56 -199.12,-148.23 -65.45,-36.5 -85.48,-73.18 -82.06,-147.17 -67.34,21.56 -138.04,112.75 -210.94,131.5 -88.07,22.65 -132.43,181.77 -201.96,165.33 -57.54,-13.61 -148.33,-67.3 -184.91,-111.17 -52.83,-6.6 -110.27,-17.64 -164.98,-7.13 -47.62,9.14 -39.62,46.34 -68.27,79.81 -42.48,49.6 -49.46,181.68 -126.59,200.96 -9.05,15.93 -24.16,37.96 -36.98,51.31 -46.13,27.8 -103.27,44.16 -150.77,72.69 -65.71,39.46 36.17,-65.05 38.41,-68.41 4.41,-6.63 42.75,-58.78 27.02,-62.71 -3.99,-16.01 -130.61,11.86 -130.85,12.83 -14.69,3.67 -12.48,48.31 -29.87,57.01 -25.8,12.92 -44.58,-15.17 -54.05,-34.21 -24.29,-48.78 -62.3,27.52 -75.38,55.58 -52.56,112.8 -207.54,50.18 -295.84,66.99 -61.4,11.69 -107.38,140.48 -163.57,84.09 -32.86,-32.99 -49.82,-35.41 -83.92,-58.43 -24.06,-16.25 -43.84,-70.74 -58.31,-59.86 -0.19,0.15 -37.69,19.95 -38.4,22.8 -18.23,4.54 -13.5,49.16 -18.49,64.14 -9.93,29.82 -42.57,36.69 -52.63,61.28 -49.26,120.46 -9.63,74.12 -126.58,74.12 -60.42,-36.32 -121.61,2.67 -182.06,-5.71 -97.71,-13.54 -74.68,26.53 -150.77,58.44 -48.05,20.16 -63.05,-7.9 -89.6,48.46 -8.27,17.54 -116.77,66.25 -139.39,71.26 -66.22,14.67 -189.3,56.29 -201.97,-32.78 -9.09,0 -39.69,23.63 -44.09,31.36 -38.07,5.43 -11.31,87.74 -35.56,118.29 -21.06,26.55 -108.02,74.34 -142.23,85.52 -21.32,6.97 -27.44,74.93 -38.4,96.92 0,53.16 -13.41,98.15 17.07,143.95 24.19,36.36 37.06,82.19 46.93,126.85 23.49,106.34 -169.66,39.6 -176.36,151.07 -3.91,65.14 -70.6,76.97 -119.48,76.97 -7.66,30.66 62.34,150.37 86.76,176.73 37.88,40.9 123.4,81.44 119.48,142.52 -14.93,25.03 12.77,82.69 -4.27,121.15 -6.94,15.65 -49.05,74.72 -49.78,81.24 -2.3,20.3 13.09,40.03 11.38,62.71 -2.6,34.57 -25.3,50.8 -14.23,94.07 11.75,45.97 38.18,84.84 78.23,106.89 20.62,11.36 0,180.05 0,215.22 0,6.49 4.19,50.39 -2.84,52.73 -2.56,10.29 -117.47,61.98 -133.7,66.99 -55.62,17.15 -83.25,8.41 -64,79.81 26.58,35.56 8.9,109.85 18.49,148.23 55.19,13.79 69.8,34.41 76.8,95.49 4.58,40.03 -32.46,96.69 -24.18,118.3 12.79,33.34 45.45,53.73 71.12,74.11 7.08,5.61 34.94,6.03 36.98,14.26 32.28,8.07 -25.56,142.93 1.42,166.75 45.3,39.97 11.49,88.44 55.47,132.55 35.31,35.4 -15.87,49.99 -19.91,78.39 -22.39,6.38 -24.03,38.38 -24.89,57.01l-0.06 60.36 0 0 -3660.2 0 0 0 -32.78 -58.94c-16.55,-20.69 -7.71,-64.42 -29.87,-75.53 -25.88,-12.96 -50.89,-8.57 -79.65,-2.85 -22.82,4.53 -48.1,1.43 -69.69,7.12 -30.49,8.05 -52.68,33.53 -82.5,42.76 -23.73,7.35 -19.2,1.95 -38.4,-2.85 -2.73,-19.22 -12.55,-36.89 -7.11,-59.86 5.34,-22.56 -8.17,-42.52 -24.18,-52.74 -41.92,-26.78 -110.1,3.81 -79.65,-78.39l0 -2.85c25.72,-8.57 41.25,-40.39 44.09,-68.41 3.87,-38.12 17.73,-54.03 32.71,-84.09 24.94,0 45.08,25.66 79.65,25.66 8.14,24.43 15.65,45.41 15.65,76.96 8.05,0 61.9,-61.86 66.85,-71.26 7.29,-13.87 42.28,-90.03 56.89,-94.07 15.81,-4.38 36.56,-17.07 42.67,-37.06 10.21,-33.34 46.52,-81.35 65.43,-114.02 20.02,-34.56 40.42,-121.91 76.8,-138.25 14.72,-6.6 32.24,16.49 52.63,11.4 0,-92.58 -85.19,-176.88 -162.15,-216.63 0,-9.28 -27.92,-29.43 -35.55,-35.64 -18.51,-15.04 -29.27,-27.09 -42.67,-47.03 -6.98,-10.4 -19.92,-24.34 -19.92,-38.48 0,-23.88 9.7,-31.91 21.34,-51.31 6.71,-11.19 7.11,-13.94 7.11,-25.66 -14.46,-3.61 -29.26,-2.85 -45.51,-2.85 -58.56,-19.42 -100.99,37.86 -100.99,-64.13 0,-68.56 -61.82,-78.49 -36.98,-159.63 19.52,-63.73 2.48,-30.29 -29.87,-82.67 -32.35,-52.38 -110.58,-68.84 -169.25,-75.54 -83.26,-9.5 -127.68,-56.71 -147.92,-138.25 -71.95,-17.98 -359.59,127.31 -378.34,78.39 -17.51,-45.71 -4.34,-66.98 -66.85,-66.98 -57.64,0 -74.73,-55.09 -146.5,1.42 -72.92,57.4 -151.63,42.63 -227.93,36.66l0 0 0 -12190.63 0 0 81.3 15.05c4.58,0.91 38.57,5.81 39.96,11.4 28.06,4 56.62,18.53 86.76,18.53 14.36,0 78.51,-6.03 81.07,4.28 4.85,1.2 19.91,31.33 21.34,37.05 21.58,5.39 78.31,20.26 82.49,42.76 14.16,76.22 3.19,78.39 83.92,78.39 66.11,0 93.33,-74.11 135.12,-74.11 0.9,-2.73 52.77,-5.66 58.31,-4.28 0.65,2.61 0.24,2.2 2.85,2.85 1.8,7.23 7.11,12.67 7.11,21.38 13.66,9.11 10.89,58.18 39.83,79.81 50.57,-25.28 154.13,-60.73 184.9,-106.89 5.21,0 9.78,-1.43 15.64,-1.43l95.3 -48.45c23.08,-11.73 84.73,-42.28 92.45,-65.57l118.05 1.43c48.63,0.58 38.02,-74.49 75.38,-86.94 66.82,-50.88 122.18,-122.9 193.44,-175.31 69.66,-51.25 125.33,-33.97 204.81,-49.88 65.6,-13.12 12.89,-55.12 -5.69,-105.47 -21.58,-58.46 38.7,-448.96 98.14,-448.96 1.25,-3.75 38.15,-2.85 45.51,-2.85 20.23,26.95 64.36,44.7 95.3,55.59l52.62 18.53c15.27,5.37 24.5,-14.64 17.07,-17.11 0,-47.05 -22.21,-63.21 21.34,-106.89 20.8,-20.85 78.51,-83.49 103.83,-89.79l62.6 -88.11 0 0c51.78,-16.12 108.02,-50.14 163.54,-50.14 93.92,0 50.33,77.77 11.38,132.55 -35.5,49.93 -41.35,66.55 -11.38,139.67 42.69,104.14 193.87,-68.77 256.02,9.98 36.17,45.83 0.83,130.22 22.76,183.86 56.09,137.18 163.46,-34.21 265.97,-34.21 125.39,0 158.34,116.77 209.08,208.09 51.11,92 206.21,24.67 287.31,62.71 181.32,85.05 -62.9,212.39 -76.81,296.45 -27.52,166.21 238.87,16.83 298.69,152.5 27.32,61.96 47.31,86.95 143.65,86.95 104.78,0 178.77,-7.78 241.8,86.94 37.94,57.01 68.76,68.24 99.54,66.38 62.12,-28.46 128.05,-151.58 207.68,-143.35 58.06,5.99 111.33,22.2 170.67,19.96 137.07,-5.18 250.74,234.39 318.6,-37.06l5.69 0c21.55,43.11 -6.49,101.02 15.65,145.38 26.04,52.15 47.49,47.41 21.33,106.89 -56.11,127.52 191.13,-10.41 227.57,-32.78 34.42,-21.12 99.42,-148.2 128.01,-66.99 43.53,123.68 168.26,59.82 173.52,193.84 3.63,92.45 23.34,263.11 72.54,340.63 53.25,32.74 13.38,130.77 -5.69,173.89 -20.76,46.91 -52.18,3.8 -75.38,-4.28 -40.66,-14.17 -51.08,-2.01 -52.55,15.49 13.55,34.6 14.4,75.31 -1.5,114.21 -70.77,173.22 24.83,250.91 -78.23,487.44 -23.48,53.88 6.4,74.15 38.41,114.02 24.56,30.59 52.88,111.16 75.38,135.4 7.51,8.1 54.81,115.22 64,129.69 -1.1,16.66 -20.57,191.13 -32.71,209.52 -37.95,57.43 39.64,208.16 -59.74,213.79 -95.52,5.42 -157.03,-76.97 -241.79,-76.97 0,54 -24.29,105.16 1.42,156.78 14.98,30.1 -0.94,132.75 -4.27,169.61 -2.84,33.35 11.78,80.12 -2.84,108.32 -15.12,29.14 -59.51,55.47 -66.85,84.09 -8.37,32.61 -111.02,248.55 -73.96,265.09 37.09,16.56 78.02,-76.96 125.16,-76.96 22.73,0 89.17,50.52 86.77,69.84 -27.56,17.19 -85.99,107.16 -99.57,139.67 -17.32,41.5 17.37,80.36 41.25,112.6 44.14,59.56 212.01,19.85 233.26,-44.18 11.77,-35.45 18.9,-90.8 49.78,-114.02 31.03,-23.35 111.32,-29.02 119.48,15.67 7.7,42.22 -1.19,73.05 24.17,108.32 35.1,48.79 -44.85,47.71 28.45,115.45 50.36,46.55 86.47,-59.92 155.03,-34.21 28.18,2.49 139.98,-38.85 146.5,-27.08 14.29,25.76 -56.94,57.33 -69.69,74.12 -30.84,40.63 -16.89,116.39 14.22,155.35 18.72,23.43 -5.25,112.85 -15.64,115.44 -1.8,12.71 -65.47,5.26 -45.52,65.57 12.27,37.08 -48.37,178.39 -79.65,205.23 -52.32,44.88 -107.29,73.86 -8.53,94.07 107.56,22 85.1,92.41 28.44,153.93 -22.42,24.35 -29.57,72.03 14.23,74.11 51.58,2.44 63.88,17.77 45.51,68.41 -22.35,39.24 -63.28,29.46 -95.29,48.46 -21.38,12.68 16.9,63.4 31.29,66.99 15.63,36.62 0.09,67.63 46.93,85.52 85.21,32.53 -141.25,311.72 -147.92,371.99 -42.72,36.7 -100.37,187.42 -103.83,245.14 -2.14,35.6 12.81,58.25 12.81,88.37 0,27.89 -24.86,55.38 -29.87,85.51 8.9,39.6 17.28,39.98 51.2,48.46 2.77,11.15 10.3,179.92 46.94,116.87 35.39,-60.92 71.42,-15.93 108.09,11.41 45.39,33.83 -0.44,72.18 -22.76,116.87 -30.48,61.06 -189.27,-53.3 -182.05,66.98 1.67,27.88 23.4,42.69 -4.27,68.42 -64.37,59.83 7.98,61.69 -15.64,129.7 -9.36,26.94 -78.92,-6.21 -102.41,4.27 -30.21,13.47 -38.43,112.85 -1.42,132.55 22.79,12.12 50.76,16.69 48.36,48.46 -2.67,35.44 9.13,37.5 12.8,66.99 18.74,46.25 25.07,115.09 79.65,129.69 105.46,28.21 82.16,113.25 98.14,196.69 18.4,96.03 134.3,77.21 182.05,141.1 6.37,0.79 34.48,15.92 35.56,21.38 25.22,14.41 44.33,123.69 54.05,155.35 17.31,56.38 61.32,85.72 110.94,114.02 4.49,15.78 40.73,97.47 52.62,99.77l132.28 25.66c11.69,20.5 45.91,30.38 51.2,57.01 47.35,37.36 206.31,205.19 265.98,159.62 32.83,-25.08 14.72,-94.55 55.47,-135.39 24.51,-24.55 80.91,-7.13 112.36,-7.13 21.68,28.91 -19.73,106.63 12.8,151.08 58.32,79.66 228.93,12.17 257.44,141.1 29.13,131.69 62.89,110.45 196.28,131.12 32.01,4.95 205.66,39.99 207.66,-4.28 7.59,-167.59 140.8,-8.97 140.8,-121.14 0,-116.74 146.5,-154.82 146.5,-66.99 52.36,44.4 84.59,3.14 132.28,24.23 69.29,30.66 67.66,109.75 163.56,109.75 93.84,0 93.44,3.58 160.73,61.28 77.58,66.54 -24.71,162.48 130.85,162.48 103.94,0 182.92,-24.58 284.46,-4.28 24.24,42.68 15.65,137.69 15.65,189.56 2.28,2.29 4.95,4.15 5.69,7.13 74.18,10.59 161.43,-20.33 220.45,34.21 68.59,63.4 177.15,-59.79 250.33,-15.68 39.6,1.16 21.85,67.68 27.03,104.04 28.58,16.38 72.72,5.7 105.25,5.7 19.44,26.01 -16.81,97.99 -8.54,131.13 14.45,57.93 524.41,-48.64 308.65,143.95 -68.98,61.56 -29.02,89.1 24.17,126.85 70.37,49.93 106.77,64.81 182.06,7.12 54.11,-41.47 98.87,-17.75 159.3,-19.95 50.24,-1.82 52.69,-52.67 78.23,-81.24 14.78,-16.55 118.57,100.11 136.54,121.15 83.27,97.44 -135.12,59.26 -135.12,139.67 0,73.11 95.69,244.4 130.85,314.98 45.79,43.96 19.15,115.53 49.78,156.78 31.92,43.01 96.71,48.09 21.34,98.34 -43.23,28.81 -47,68.17 -56.89,115.45 -10.1,48.33 -26.76,44.43 21.33,79.82 21.4,15.75 -5.69,58.15 -5.69,84.09 0,45.04 87.58,113.09 112.36,152.5 5.98,9.5 58.97,103.6 29.87,106.89 -13.58,1.54 -61.04,-45.13 -72.54,-17.1 -9.61,23.4 -6.21,39.54 -38.4,32.78 -106.88,-22.43 -9.54,104.87 -18.49,149.65 -14.02,4 -20.88,27.35 -34.13,35.63l-513.46 332.09 0 0z"/>
  <path class="fil0 str0" d="M13072.97 11623.22c17.8,-6.49 61.96,-37.56 75.38,-34.21l1.42 1.42c4.43,17.86 68.69,161.68 78.23,166.76 43.83,23.32 144.36,-20.9 196.92,-5.89 6.03,30.34 -54.62,52.32 -61.52,84.87 -5.6,26.46 -23.25,77.47 -24.22,86.2 -1.07,9.54 16.91,34.37 27.25,61.41 11.72,30.65 16.53,63.2 24.75,61.56 30.47,-61.38 79.96,-136.9 122.7,-194.08 39.4,-52.69 133.24,-49.29 159.3,-85.52 21.47,-29.87 -20.82,-102.6 -14.22,-142.52 1.04,-6.31 109.6,-81.85 125.16,-86.94 134.6,-44.09 21.48,-101.44 51.21,-172.46 58.34,-97.78 -21.69,-54.01 -38.41,-121.15 14.81,-11.07 66.78,7.33 88.19,4.28 3.48,-17.54 0,-35.17 0,-54.16 0,-9.22 19.85,-50.66 9.95,-55.59 -0.95,-3.83 -4.21,-4.15 -5.69,-7.12 -45.86,-6.55 -86.88,-22.91 -113.78,-64.14 -13.79,-21.12 -50.69,-102.02 -82.49,-94.07l-4.27 126.85 -2.85 0c-23.1,-34.65 -84.49,-101.46 -126.58,-118.3 -72.81,-29.14 -85.34,-120.64 -169.26,-76.96 -31.9,16.61 -99.66,86.83 -119.47,66.99 -5.33,-5.35 -35.31,-26.07 -32.72,-32.78 24.51,-63.46 68.28,-99.16 68.28,-182.44 0,-147.13 83.31,-141.84 153.61,-243.72 31.03,-44.98 -90.59,-40.96 -112.37,-44.18 -73.07,-10.8 -4.26,-53.88 -4.26,-94.07l-156.46 -29.93c-38.1,-19.05 -91.36,-19.55 -93.87,-72.68 -1.3,-27.52 -7.11,-94.06 -21.34,-115.45 -33.83,-50.83 -152.78,-154.69 -207.65,-178.16 -45.21,-19.33 -167.28,-12.11 -186.33,-47.03 -23.53,-43.1 0.66,-159.41 12.8,-205.24 12.34,-46.6 74.31,-48.27 82.5,-81.24 4.15,-16.75 23.29,-116.79 5.69,-119.72 -5.63,-22.52 -143.97,-34.11 -160.72,-109.74 -19.22,-86.81 14.82,-114.94 -103.83,-69.84 -62.96,23.94 -75.16,-28.76 -72.54,55.58 26.46,35.41 110.77,47.18 71.11,94.07 -29.65,35.07 -130.61,26.7 -174.94,38.48 -40.49,10.75 -55.5,83.58 -99.56,49.89 -94.91,-72.58 -55.67,-117.96 -129.43,4.27 -68.55,113.62 -100.14,119.14 -217.62,111.17 -173.89,-11.81 -198.04,-55.99 -176.36,-232.31 10.74,-87.34 -49.29,-44.19 -119.48,-44.19 0,26.02 7.79,61.07 12.8,86.94 3,15.48 33.47,50.57 27.03,57.01 -41.14,41.14 -103.26,28.03 -147.92,72.69 -30.12,30.12 -5.46,70.53 -59.74,65.56 -38.6,-3.54 -105.61,-42.08 -137.97,-35.63 -13.3,53.39 -62.16,123.22 -88.18,175.31 26.56,26.61 74.5,115.02 59.74,153.93 -24.95,65.73 -202.38,-65.34 -233.26,-79.82 -67.07,-31.43 -53.88,-1.45 -105.25,34.21 -25.83,17.92 -86.76,48.7 -86.76,84.09 63.74,21.24 142.74,-22.94 123.74,68.41 -12.59,60.51 -36.63,115.65 -45.52,178.16 -29.39,7.34 -45.73,-18.41 -75.38,-15.68 -32.21,2.96 -42.56,133.76 -44.09,163.9 -1.35,26.79 -38.22,81.75 -8.53,96.92 54.21,27.69 147.9,29.24 186.32,82.67 34.49,47.95 -30.07,98.96 -41.25,138.25 -15.56,4.44 -46.54,46.66 -59.74,59.86 -7.27,62.08 -63.27,75.74 -113.78,88.36 -12.68,50.91 -38.61,158 -22.76,209.52 14.11,45.9 77.54,91.44 35.56,136.82 -22.32,24.14 -45.98,67.15 -75.38,82.67 -84.5,44.63 -3.63,69.12 31.29,131.12 11.27,20.01 32.49,38.02 44.09,59.86l35.56 66.99c1.87,7.51 82.86,-6.35 98.14,-9.98 59.03,-14.03 160.66,21.6 196.28,-39.91 13.94,-24.06 27.52,-77.78 49.78,-92.64 25.5,-17.03 133.47,-72.75 157.87,-62.71 17.09,7.02 94.32,6.37 100.99,18.53 12.09,22.07 -20.68,61.11 7.11,81.24 9.1,6.58 110.45,23.89 119.47,17.1 42.44,-31.92 34.76,-78.39 96.72,-78.39 74.11,-4.77 59.97,158.96 122.32,128.28 53.53,-26.35 83.39,-131.82 136.54,-79.82 40.55,39.69 44.5,84.52 102.41,116.87 36.77,20.55 93.61,25.07 99.56,76.97 8.67,75.68 117.84,91.84 183.48,65.56 63.47,-25.4 14.35,-154.36 0,-199.54 -23.84,-75 -17.47,-64.03 46.94,-85.51 35.38,-11.8 189.66,-96.12 206.23,-58.44 24.15,54.88 44.09,136.94 44.09,196.69 19.78,19.71 56.87,-13.55 82.5,-15.68 49.79,-10.92 78.4,-32.78 132.27,-32.78 10.18,6.09 24.1,7.03 32.72,17.1 26.8,31.34 62.39,65.82 82.49,101.2 19.58,11.16 30.22,14 52.63,17.1 28.94,4 46.92,-14.25 72.53,-14.25l44.1 -27.08z"/>
  <path class="fil0 str0" d="M18811.78 18138.22l-76.58 -69.27c-37.71,-26.72 -115.68,-93.6 -98.14,-9.27 7.85,37.74 62.64,129.31 0,138.25 -39.22,157.43 -45.4,209.77 -226.15,176.73 -99.29,-18.15 -208.9,127.3 -240.37,-38.48 -19.27,-101.49 -59.11,-105.16 -135.12,-148.23 -55.1,-31.21 -52.4,27.08 -118.05,27.08 -54.99,0 0.29,55.88 -21.34,95.5 -12.29,22.53 -126.28,47.17 -153.61,48.46 -37.08,1.76 -65.95,-23.43 -102.4,-17.11l-106.68 18.53c-38.52,13.23 -109.37,-11.89 -119.47,35.63 -33.18,156.18 -50.3,32.38 -120.9,89.79 -53.02,43.11 -81.17,-41.21 -136.54,-12.82l-180.63 92.64c-43.23,22.17 -115.43,126.22 -126.59,171.03 -2.74,0.68 -3.59,1.53 -4.27,4.27 -2.45,0.61 -18.94,20.35 -19.91,24.23 -4.43,1.1 -31.44,25.04 -34.13,14.26 -14.44,-3.59 4.06,-124.53 -52.63,-142.53l-228.99 -72.69c-39.39,-12.51 -212.46,-63.22 -240.37,-55.58 -107.8,-24.39 -229.95,-20.29 -339.94,-41.34 -178.14,-34.11 -64.63,67.59 -89.6,168.19 -32.66,0 -68.67,-6.22 -100.99,-14.26 -79.17,-19.7 -80.63,205.51 -113.78,213.79 -7.14,28.67 -79.2,30.42 -88.19,48.46 15.69,15.69 84.54,140.06 36.98,143.95 -34.71,2.84 -257.43,-112.81 -257.43,-27.08 0,51.02 65.19,62.38 91.02,91.22 18.6,20.75 28.45,95.65 28.45,124 -2.13,70.55 -40.16,69.71 -61.16,121.14 -26.77,65.52 13.21,71.1 5.69,124 -26,3.7 -94.76,70.99 -102.41,94.07 -16.29,49.16 -54.47,76.83 -83.91,122.57 -21.79,33.85 -18.47,96.91 -39.83,121.15 -11.17,12.69 -98.72,11.58 -119.47,12.82 -27.3,1.64 32.85,-191.9 -25.6,-196.68 -14.9,-1.22 -117.74,77.45 -139.39,91.21 -27.67,17.6 -69.66,17.11 -102.41,17.11 -27.55,0 -35.2,33.96 -51.2,51.31 -64.01,69.38 -200.45,0.99 -263.13,-19.96 -48.25,-27.19 -111.73,-3.7 -119.47,58.44 -31.23,25.97 -18.95,42.92 -71.12,29.93 -109.37,-27.22 -155.14,87.75 -260.28,61.28 -4.17,-7.29 -11.73,-11.64 -15.65,-18.52 -57.85,-14.46 -64.69,8.55 -120.89,8.55 -84.57,0 -138.4,-5.22 -211.93,-45.61 -31.86,-17.51 -54.21,31.28 -79.65,18.53 -26.26,-13.15 -35.49,-49.89 -69.69,-49.89 -59.02,59.02 -48.37,45.61 -133.7,45.61l-24.18 -7.12c-45.01,-5.82 -95.08,-26.69 -137.96,-29.93 -104.37,-7.91 -100.99,-175.59 -233.26,-72.69 -39.32,30.58 -81.58,43.39 -126.59,12.82 -81.22,-55.15 -36.41,-175.25 -139.39,-192.41 -35.59,-5.93 -168.46,-19.14 -179.21,-54.15 -8.83,-28.79 28.86,-100.94 -27.02,-82.67 -87.4,28.59 -61.92,-81.19 -130.85,-38.48 -19.16,11.88 -53.1,45.46 -79.65,28.5 -16.06,-10.25 21.24,-40.22 17.06,-57.01 -31.19,-7.79 -53.75,-76.25 -79.65,-96.91 -45.16,-132.04 -15.28,-117.04 -109.51,-22.81 -28.65,28.65 -34.46,164.12 -75.39,153.93 -12.32,-49.47 -96.37,-83.57 -140.81,-58.44 -54.35,30.75 -109.37,75.43 -167.83,101.2 -36.32,16.02 -79.52,33 -110.94,58.43 -38.1,30.82 -20.16,67.91 -29.87,106.9 -25.57,5.11 -112.67,-15.21 -110.94,15.67 2.25,40.07 22.95,95.02 -48.58,128.63 0.87,-11.56 0.94,-25.18 0.22,-41.68 -4.52,-106.02 -124.24,-40.66 -183.48,-66.99 -17.95,-7.98 -31.14,-128.83 -38.4,-153.93 -12.56,-43.4 -3.23,-75.91 -12.8,-116.87 -3.35,-14.36 -2.5,-31.99 -17.07,-35.63 -101.78,-25.48 1.59,-93.15 11.38,-148.23 18.69,-105.21 -82.66,-79.9 -100.98,-151.08 -10.87,-42.26 30.68,-78.59 17.07,-126.84 22.75,-4.68 55.57,-7.2 59.73,-45.61 9.94,-91.74 87.38,-151.6 27.03,-236.6 -63.38,-7.9 -66.85,-177.75 -66.85,-226.61 0,-57.65 -50.32,-29.54 -88.19,-38.48 -20.1,-4.75 -112.31,-32.37 -115.2,-52.74 -20.27,-11.55 29.2,-118.62 24.18,-153.93 0.48,3.4 -0.41,4.62 2.84,5.71 0,-11.91 -5.69,-24.97 -5.69,-35.64 0,-8.69 15.37,-19.39 19.91,-27.08 8.89,-15.08 17.03,-72.53 0,-78.39 -19.03,-6.56 -47.31,5.37 -68.27,-1.42 -80.4,-26.04 -80.3,-192.71 -179.21,-109.75 -50.87,42.68 -85.94,37.32 -118.05,-17.1 -12.77,-21.63 -27.74,-40.27 -42.67,-59.86 -16.83,-22.07 -29.67,-56.82 -48.36,-75.54l-79.65 -128.27 0 0 -126.58 75.54c-73.27,-31.48 -21.6,-198.79 -91.03,-245.15 -21.18,-14.15 -86.08,-0.47 -113.79,-1.42 -44.53,-1.54 -86.06,30.15 -76.8,81.24 19.07,105.25 -63.9,23.81 -108.1,84.09 -13,17.73 -10.98,61 -18.57,76.3 -4.18,-8.36 -7.57,-16.05 -9.88,-22.14 -53.68,-141.46 -107.87,-16.67 -209.08,-42.76 -31.45,-8.11 -83.09,-83.56 -199.12,-148.23 -65.45,-36.5 -85.48,-73.18 -82.06,-147.17 -67.34,21.56 -138.04,112.75 -210.94,131.5 -88.07,22.65 -132.43,181.77 -201.96,165.33 -57.54,-13.61 -148.33,-67.3 -184.91,-111.17 -52.83,-6.6 -110.27,-17.64 -164.98,-7.13 -47.62,9.14 -39.62,46.34 -68.27,79.81 -42.48,49.6 -49.46,181.68 -126.59,200.96 -9.05,15.93 -24.16,37.96 -36.98,51.31 -46.13,27.8 -103.27,44.16 -150.77,72.69 -65.71,39.46 36.17,-65.05 38.41,-68.41 4.41,-6.63 42.75,-58.78 27.02,-62.71 -3.99,-16.01 -130.61,11.86 -130.85,12.83 -14.69,3.67 -12.48,48.31 -29.87,57.01 -25.8,12.92 -44.58,-15.17 -54.05,-34.21 -24.29,-48.78 -62.3,27.52 -75.38,55.58 -52.56,112.8 -207.54,50.18 -295.84,66.99 -61.4,11.69 -107.38,140.48 -163.57,84.09 -32.86,-32.99 -49.82,-35.41 -83.92,-58.43 -24.06,-16.25 -43.84,-70.74 -58.31,-59.86 -0.19,0.15 -37.69,19.95 -38.4,22.8 -18.23,4.54 -13.5,49.16 -18.49,64.14 -9.93,29.82 -42.57,36.69 -52.63,61.28 -49.26,120.46 -9.63,74.12 -126.58,74.12 -60.42,-36.32 -121.61,2.67 -182.06,-5.71 -97.71,-13.54 -74.68,26.53 -150.77,58.44 -48.05,20.16 -63.05,-7.9 -89.6,48.46 -8.27,17.54 -116.77,66.25 -139.39,71.26 -66.22,14.67 -189.3,56.29 -201.97,-32.78 -9.09,0 -39.69,23.63 -44.09,31.36 -38.07,5.43 -11.31,87.74 -35.56,118.29 -21.06,26.55 -108.02,74.34 -142.23,85.52 -21.32,6.97 -27.44,74.93 -38.4,96.92 0,53.16 -13.41,98.15 17.07,143.95 24.19,36.36 37.06,82.19 46.93,126.85 23.49,106.34 -169.66,39.6 -176.36,151.07 -3.91,65.14 -70.6,76.97 -119.48,76.97 -7.66,30.66 62.34,150.37 86.76,176.73 37.88,40.9 123.4,81.44 119.48,142.52 -14.93,25.03 12.77,82.69 -4.27,121.15 -6.94,15.65 -49.05,74.72 -49.78,81.24 -2.3,20.3 13.09,40.03 11.38,62.71 -2.6,34.57 -25.3,50.8 -14.23,94.07 11.75,45.97 38.18,84.84 78.23,106.89 20.62,11.36 0,180.05 0,215.22 0,6.49 4.19,50.39 -2.84,52.73 -2.56,10.29 -117.47,61.98 -133.7,66.99 -55.62,17.15 -83.25,8.41 -64,79.81 26.58,35.56 8.9,109.85 18.49,148.23 55.19,13.79 69.8,34.41 76.8,95.49 4.58,40.03 -32.46,96.69 -24.18,118.3 12.79,33.34 45.45,53.73 71.12,74.11 7.08,5.61 34.94,6.03 36.98,14.26 32.28,8.07 -25.56,142.93 1.42,166.75 45.3,39.97 11.49,88.44 55.47,132.55 35.31,35.4 -15.87,49.99 -19.91,78.39 -22.39,6.38 -24.03,38.38 -24.89,57.01l-0.06 60.36 0 0 13847.36 0 0 -1461.17 0 0c-24.95,-50.07 -66.41,-122.58 -52.99,-169.83 15.75,-9 8.53,-27.14 8.53,-39.9 -38.35,-38.49 -1.07,-77.04 11.38,-112.6 15.76,-45.04 -37.98,-108.79 -9.95,-136.82 24.8,-24.8 34.46,-35.94 22.75,-74.12 -10.42,-33.94 -27.32,-60.27 -45.51,-89.79 -32.7,-53.1 -31.88,-117.94 -95.3,-141.1 -42.93,-15.68 -54.6,-25.16 -86.76,-59.86 -4.6,-50.83 -94.07,-4.9 -123.74,-17.1 -39.27,-16.16 -55.86,-37.34 -103.83,-39.91 -127.55,-6.84 -171.04,-43.45 -268.81,-122.57 -67.01,-54.22 -97.11,-84.77 -182.06,-109.75 -93.34,-27.46 -206.91,-29.16 -278.77,-101.19 -65.75,-65.92 28.27,-218.47 -71.12,-230.89 -54.75,-76.96 21.4,-81.36 61.16,-156.78 7.92,-15.01 16.7,-35.24 26.8,-56.86l0 0z"/>
  <path class="fil0 str0" d="M1000 19592.86c76.3,5.97 155.01,20.74 227.93,-36.66 71.77,-56.51 88.86,-1.42 146.5,-1.42 62.51,0 49.34,21.27 66.85,66.98 18.75,48.92 306.39,-96.37 378.34,-78.39 20.24,81.54 64.66,128.75 147.92,138.25 58.67,6.7 136.9,23.16 169.25,75.54 32.35,52.38 49.39,18.94 29.87,82.67 -24.84,81.14 36.98,91.07 36.98,159.63 0,101.99 42.43,44.71 100.99,64.13 16.25,0 31.05,-0.76 45.51,2.85 0,11.72 -0.4,14.47 -7.11,25.66 -11.64,19.4 -21.34,27.43 -21.34,51.31 0,14.14 12.94,28.08 19.92,38.48 13.4,19.94 24.16,31.99 42.67,47.03 7.63,6.21 35.55,26.36 35.55,35.64 76.96,39.75 162.15,124.05 162.15,216.63 -20.39,5.09 -37.91,-18 -52.63,-11.4 -36.38,16.34 -56.78,103.69 -76.8,138.25 -18.91,32.67 -55.22,80.68 -65.43,114.02 -6.11,19.99 -26.86,32.68 -42.67,37.06 -14.61,4.04 -49.6,80.2 -56.89,94.07 -4.95,9.4 -58.8,71.26 -66.85,71.26 0,-31.55 -7.51,-52.53 -15.65,-76.96 -34.57,0 -54.71,-25.66 -79.65,-25.66 -14.98,30.06 -28.84,45.97 -32.71,84.09 -2.84,28.02 -18.37,59.84 -44.09,68.41l0 2.85c-30.45,82.2 37.73,51.61 79.65,78.39 16.01,10.22 29.52,30.18 24.18,52.74 -5.44,22.97 4.38,40.64 7.11,59.86 19.2,4.8 14.67,10.2 38.4,2.85 29.82,-9.23 52.01,-34.71 82.5,-42.76 21.59,-5.69 46.87,-2.59 69.69,-7.12 28.76,-5.72 53.77,-10.11 79.65,2.85 22.16,11.11 13.32,54.84 29.87,75.53l32.78 58.94 0 0 -1492.44 0 0 -1665.6 0 0z"/>
  <path class="fil0 str0" d="M13072.97 11623.22c17.8,-6.49 61.96,-37.56 75.38,-34.21l1.42 1.42c4.43,17.86 68.69,161.68 78.23,166.76 43.83,23.32 144.36,-20.9 196.92,-5.89 6.03,30.34 -54.62,52.32 -61.52,84.87 -5.6,26.46 -23.25,77.47 -24.22,86.2 -1.07,9.54 16.91,34.37 27.25,61.41 11.72,30.65 16.53,63.2 24.75,61.56 30.47,-61.38 79.96,-136.9 122.7,-194.08 39.4,-52.69 133.24,-49.29 159.3,-85.52 21.47,-29.87 -20.82,-102.6 -14.22,-142.52 1.04,-6.31 109.6,-81.85 125.16,-86.94 134.6,-44.09 21.48,-101.44 51.21,-172.46 58.34,-97.78 -21.69,-54.01 -38.41,-121.15 14.81,-11.07 66.78,7.33 88.19,4.28 3.48,-17.54 0,-35.17 0,-54.16 0,-9.22 19.85,-50.66 9.95,-55.59 -0.95,-3.83 -4.21,-4.15 -5.69,-7.12 -45.86,-6.55 -86.88,-22.91 -113.78,-64.14 -13.79,-21.12 -50.69,-102.02 -82.49,-94.07l-4.27 126.85 -2.85 0c-23.1,-34.65 -84.49,-101.46 -126.58,-118.3 -72.81,-29.14 -85.34,-120.64 -169.26,-76.96 -31.9,16.61 -99.66,86.83 -119.47,66.99 -5.33,-5.35 -35.31,-26.07 -32.72,-32.78 24.51,-63.46 68.28,-99.16 68.28,-182.44 0,-147.13 83.31,-141.84 153.61,-243.72 31.03,-44.98 -90.59,-40.96 -112.37,-44.18 -73.07,-10.8 -4.26,-53.88 -4.26,-94.07l-156.46 -29.93c-38.1,-19.05 -91.36,-19.55 -93.87,-72.68 -1.3,-27.52 -7.11,-94.06 -21.34,-115.45 -33.83,-50.83 -152.78,-154.69 -207.65,-178.16 -45.21,-19.33 -167.28,-12.11 -186.33,-47.03 -23.53,-43.1 0.66,-159.41 12.8,-205.24 12.34,-46.6 74.31,-48.27 82.5,-81.24 4.15,-16.75 23.29,-116.79 5.69,-119.72 -5.63,-22.52 -143.97,-34.11 -160.72,-109.74 -19.22,-86.81 14.82,-114.94 -103.83,-69.84 -62.96,23.94 -75.16,-28.76 -72.54,55.58 26.46,35.41 110.77,47.18 71.11,94.07 -29.65,35.07 -130.61,26.7 -174.94,38.48 -40.49,10.75 -55.5,83.58 -99.56,49.89 -94.91,-72.58 -55.67,-117.96 -129.43,4.27 -68.55,113.62 -100.14,119.14 -217.62,111.17 -173.89,-11.81 -198.04,-55.99 -176.36,-232.31 10.74,-87.34 -49.29,-44.19 -119.48,-44.19 0,26.02 7.79,61.07 12.8,86.94 3,15.48 33.47,50.57 27.03,57.01 -41.14,41.14 -103.26,28.03 -147.92,72.69 -30.12,30.12 -5.46,70.53 -59.74,65.56 -38.6,-3.54 -105.61,-42.08 -137.97,-35.63 -13.3,53.39 -62.16,123.22 -88.18,175.31 26.56,26.61 74.5,115.02 59.74,153.93 -24.95,65.73 -202.38,-65.34 -233.26,-79.82 -67.07,-31.43 -53.88,-1.45 -105.25,34.21 -25.83,17.92 -86.76,48.7 -86.76,84.09 63.74,21.24 142.74,-22.94 123.74,68.41 -12.59,60.51 -36.63,115.65 -45.52,178.16 -29.39,7.34 -45.73,-18.41 -75.38,-15.68 -32.21,2.96 -42.56,133.76 -44.09,163.9 -1.35,26.79 -38.22,81.75 -8.53,96.92 54.21,27.69 147.9,29.24 186.32,82.67 34.49,47.95 -30.07,98.96 -41.25,138.25 -15.56,4.44 -46.54,46.66 -59.74,59.86 -7.27,62.08 -63.27,75.74 -113.78,88.36 -12.68,50.91 -38.61,158 -22.76,209.52 14.11,45.9 77.54,91.44 35.56,136.82 -22.32,24.14 -45.98,67.15 -75.38,82.67 -84.5,44.63 -3.63,69.12 31.29,131.12 11.27,20.01 32.49,38.02 44.09,59.86l35.56 66.99c1.87,7.51 82.86,-6.35 98.14,-9.98 59.03,-14.03 160.66,21.6 196.28,-39.91 13.94,-24.06 27.52,-77.78 49.78,-92.64 25.5,-17.03 133.47,-72.75 157.87,-62.71 17.09,7.02 94.32,6.37 100.99,18.53 12.09,22.07 -20.68,61.11 7.11,81.24 9.1,6.58 110.45,23.89 119.47,17.1 42.44,-31.92 34.76,-78.39 96.72,-78.39 74.11,-4.77 59.97,158.96 122.32,128.28 53.53,-26.35 83.39,-131.82 136.54,-79.82 40.55,39.69 44.5,84.52 102.41,116.87 36.77,20.55 93.61,25.07 99.56,76.97 8.67,75.68 117.84,91.84 183.48,65.56 63.47,-25.4 14.35,-154.36 0,-199.54 -23.84,-75 -17.47,-64.03 46.94,-85.51 35.38,-11.8 189.66,-96.12 206.23,-58.44 24.15,54.88 44.09,136.94 44.09,196.69 19.78,19.71 56.87,-13.55 82.5,-15.68 49.79,-10.92 78.4,-32.78 132.27,-32.78 10.18,6.09 24.1,7.03 32.72,17.1 26.8,31.34 62.39,65.82 82.49,101.2 19.58,11.16 30.22,14 52.63,17.1 28.94,4 46.92,-14.25 72.53,-14.25l44.1 -27.08zm4128.97 -7769.09c7.55,1.07 10.28,11.14 17.07,12.83l1.42 4.28c25.73,8.53 -14.57,103.03 -21.33,118.29 -10.32,41.46 8.53,52.04 8.53,84.09 41.12,10.24 6.92,248 85.34,248 28.12,0 85.91,-14.75 102.06,-0.95 -1.68,24.36 0.35,50.71 0.35,89.32 0,54 -23.86,70.07 -51.2,111.17 -31.49,47.34 -19.67,115.75 -65.43,148.22 -57.97,41.13 -67.54,93.97 -82.5,148.23 -5.23,18.98 1.9,29.6 -9.95,49.88 -23.77,40.66 -96.42,20.71 -132.28,61.29 -32.41,36.68 -24.03,109.14 -36.98,145.38 -16.4,45.88 -40.56,94.01 -36.98,145.37 3.84,55.02 47.58,103.62 61.16,155.35 2.44,9.33 51,58.96 51.21,59.48 -6.45,23.13 -11.88,47.04 -15.65,71.65 -10.93,71.42 -36.95,170.39 -58.31,239.44 -42.8,138.34 -60.18,388.96 -177.79,481.74 -55.49,43.77 -142.75,108.65 -180.64,168.18 -46.32,72.77 -154.01,126.6 -204.81,183.86 -15.91,17.93 -107.5,72.1 -135.12,88.36 -45.59,26.85 -117.19,35.08 -156.46,66.99 -18.45,14.98 -173.15,165.1 -204.81,173.88 -24.51,6.79 -67.89,3.53 -82.49,19.96 -20.37,22.92 -15.65,29.57 -15.65,69.83 0,115.13 24.25,239.5 45.52,350.62 19.84,103.66 84.43,252.45 2.84,354.89 -90.21,113.26 -196.05,188.77 -100.98,327.81 18.06,26.41 55.52,36.22 100.98,38.48 70.11,3.48 337.25,10.27 372.65,96.92 13.13,32.14 76.27,112.05 103.83,139.67 65.43,65.54 130.86,131.13 196.27,196.69 76.36,76.52 207.96,39.09 288.73,125.42 127.06,135.84 253.47,393.59 395.41,497.41 33.29,24.36 30.29,81.65 61.16,112.6 22.82,22.89 95.56,34.92 109.52,65.56 3.23,7.11 12.55,39.81 15.64,48.46 6.68,18.68 14.09,35.89 31.29,47.03 153.24,99.29 306.91,232.84 476.48,307.86 75.28,33.3 170.44,104.57 216.19,168.18 19.07,26.53 24.18,73.74 24.18,106.89 0,46.3 35.77,64.51 62.58,86.94 46.27,38.7 110.07,37.14 78.23,111.17 -12.51,29.41 -66.21,39.7 -82.5,68.42 -2.91,5.13 -12.6,13.98 -15.64,17.1 -36.09,37.04 2.92,95.41 -45.52,143.95 -47.12,47.21 4.21,188.49 22.76,242.3 1.95,5.68 76.37,50.02 79.65,54.16 30.9,39.04 45,92.88 -1.42,132.54 -28.91,24.69 -57.85,49.42 -86.76,74.12 -46.09,39.36 -28.65,227.07 -159.3,292.18 -80.86,40.31 -190.2,7.81 -183.48,145.37 2.42,49.72 17.74,71.33 4.27,115.45 -8.35,27.36 -44.39,88.06 -51.21,116.87 -12.75,53.9 21.23,99.06 59.74,118.3 95.58,46.77 44.34,225.5 69.69,306.43 11.34,36.18 -19.19,110.91 19.92,132.54 75.84,41.96 54.7,61.31 85.33,126.85 38.47,82.32 -23.19,68.41 -38.4,132.55 -11.57,48.8 19.54,57.26 52.63,78.39 15.8,10.08 25.67,60.02 34.13,76.96 24.48,48.99 141.48,20.23 180.64,51.31 45.02,35.73 79.76,64.46 139.38,61.29 33.96,-1.81 68.05,-2.69 92.45,22.8 30.22,31.57 78.03,-7.67 113.79,52.74 12.82,21.67 63.31,97.16 75.38,105.47 24.01,16.53 14.22,130 12.8,153.93 -3.39,56.73 -33.16,102.49 -79.65,142.52 -26.54,22.85 -52.62,35.11 -52.62,74.11 0,37.56 30,53.18 45.51,71.27 24.75,28.87 33.38,96.84 31.29,131.12 -4.64,76.05 -73.43,110.94 -119.47,162.48 -19.69,22.04 7.76,72.35 14.22,96.92 9.65,36.66 25.31,91.09 8.54,129.7 -13.04,30.04 29.87,145.64 55.47,163.9 14.45,10.3 82.61,28.31 99.56,32.78 58.8,15.49 105.31,59.19 140.81,108.32 6.15,8.51 60.06,106.23 84.64,118.78 2.61,11.28 -13.41,41.79 -16.37,53.68 -19.89,4.97 -31.66,37.26 -48.36,45.61 0,74.48 20.98,156.69 -9.96,226.61 -19.55,44.2 -63.41,95.79 -95.29,135.4 -26.52,32.97 -79.02,42.99 -49.78,85.52 39.9,58.01 4.47,128.08 -38.41,171.03 -54.46,54.57 -4.01,135.82 24.18,192.41 36.28,49.69 18.62,65.94 11.38,116.87 -75.54,60.43 -40,88.38 -56.89,169.61 -6.43,30.9 -32.15,33.03 -44.09,57.01 -19.17,38.51 2.81,85.53 -29.87,118.29 -17.96,17.99 -45.42,43.73 -65.43,59.86 -25,20.17 -83.18,34.65 -85.34,68.42 -3.81,59.68 -48.05,100.84 -89.6,142.52 -48.74,63.43 -90.16,34.6 -140.81,71.26 -30.55,22.12 -0.84,73.09 -24.18,114.02 -4.23,0.84 -9.22,3.88 -11.38,7.13 -37.2,4.65 -72.54,-20.16 -72.54,39.91 0,39.91 -11.6,93.79 -2.84,131.12 7.81,33.25 51.22,39.46 64,72.69 34.57,89.91 75.35,44.6 143.66,68.41 75.12,26.17 141.59,181.28 126.58,255.12 -6.06,29.8 -43.83,73.74 -25.6,101.2 18.76,28.28 47.96,57.36 15.65,89.79 0,35.96 4.08,33.66 17.06,68.41 25,33.38 18.91,116.87 62.59,116.87 1.42,2.14 15.55,8.18 17.06,8.55 11.52,46.26 86.84,103.41 123.74,131.13 27.52,20.66 49.35,50.84 72.54,74.11 21.09,21.15 76.32,48.31 89.61,66.99 21.96,3.13 20.02,57.22 25.6,74.11 13.65,41.26 57.19,57.93 69.69,104.04 21.11,77.91 9.96,140.2 9.96,220.92 0,35.09 -6.98,94.67 15.65,122.57 28.17,34.71 38.4,46.77 38.4,96.92 14.43,51.5 -25.31,60.17 -45.52,95.49 -50.84,10.16 -85.34,74.6 -111.16,129.85l0 0 -76.58 -69.27c-37.71,-26.72 -115.68,-93.6 -98.14,-9.27 7.85,37.74 62.64,129.31 0,138.25 -39.22,157.43 -45.4,209.77 -226.15,176.73 -99.29,-18.15 -208.9,127.3 -240.37,-38.48 -19.27,-101.49 -59.11,-105.16 -135.12,-148.23 -55.1,-31.21 -52.4,27.08 -118.05,27.08 -54.99,0 0.29,55.88 -21.34,95.5 -12.29,22.53 -126.28,47.17 -153.61,48.46 -37.08,1.76 -65.95,-23.43 -102.4,-17.11l-106.68 18.53c-38.52,13.23 -109.37,-11.89 -119.47,35.63 -33.18,156.18 -50.3,32.38 -120.9,89.79 -53.02,43.11 -81.17,-41.21 -136.54,-12.82l-180.63 92.64c-43.23,22.17 -115.43,126.22 -126.59,171.03 -2.74,0.68 -3.59,1.53 -4.27,4.27 -2.45,0.61 -18.94,20.35 -19.91,24.23 -4.43,1.1 -31.44,25.04 -34.13,14.26 -14.44,-3.59 4.06,-124.53 -52.63,-142.53l-228.99 -72.69c-39.39,-12.51 -212.46,-63.22 -240.37,-55.58 -107.8,-24.39 -229.95,-20.29 -339.94,-41.34 -178.14,-34.11 -64.63,67.59 -89.6,168.19 -32.66,0 -68.67,-6.22 -100.99,-14.26 -79.17,-19.7 -80.63,205.51 -113.78,213.79 -7.14,28.67 -79.2,30.42 -88.19,48.46 15.69,15.69 84.54,140.06 36.98,143.95 -34.71,2.84 -257.43,-112.81 -257.43,-27.08 0,51.02 65.19,62.38 91.02,91.22 18.6,20.75 28.45,95.65 28.45,124 -2.13,70.55 -40.16,69.71 -61.16,121.14 -26.77,65.52 13.21,71.1 5.69,124 -26,3.7 -94.76,70.99 -102.41,94.07 -16.29,49.16 -54.47,76.83 -83.91,122.57 -21.79,33.85 -18.47,96.91 -39.83,121.15 -11.17,12.69 -98.72,11.58 -119.47,12.82 -27.3,1.64 32.85,-191.9 -25.6,-196.68 -14.9,-1.22 -117.74,77.45 -139.39,91.21 -27.67,17.6 -69.66,17.11 -102.41,17.11 -27.55,0 -35.2,33.96 -51.2,51.31 -64.01,69.38 -200.45,0.99 -263.13,-19.96 -48.25,-27.19 -111.73,-3.7 -119.47,58.44 -31.23,25.97 -18.95,42.92 -71.12,29.93 -109.37,-27.22 -155.14,87.75 -260.28,61.28 -4.17,-7.29 -11.73,-11.64 -15.65,-18.52 -57.85,-14.46 -64.69,8.55 -120.89,8.55 -84.57,0 -138.4,-5.22 -211.93,-45.61 -31.86,-17.51 -54.21,31.28 -79.65,18.53 -26.26,-13.15 -35.49,-49.89 -69.69,-49.89 -59.02,59.02 -48.37,45.61 -133.7,45.61l-24.18 -7.12c-45.01,-5.82 -95.08,-26.69 -137.96,-29.93 -104.37,-7.91 -100.99,-175.59 -233.26,-72.69 -39.32,30.58 -81.58,43.39 -126.59,12.82 -81.22,-55.15 -36.41,-175.25 -139.39,-192.41 -35.59,-5.93 -168.46,-19.14 -179.21,-54.15 -8.83,-28.79 28.86,-100.94 -27.02,-82.67 -87.4,28.59 -61.92,-81.19 -130.85,-38.48 -19.16,11.88 -53.1,45.46 -79.65,28.5 -16.06,-10.25 21.24,-40.22 17.06,-57.01 -31.19,-7.79 -53.75,-76.25 -79.65,-96.91 -45.16,-132.04 -15.28,-117.04 -109.51,-22.81 -28.65,28.65 -34.46,164.12 -75.39,153.93 -12.32,-49.47 -96.37,-83.57 -140.81,-58.44 -54.35,30.75 -109.37,75.43 -167.83,101.2 -36.32,16.02 -79.52,33 -110.94,58.43 -38.1,30.82 -20.16,67.91 -29.87,106.9 -25.57,5.11 -112.67,-15.21 -110.94,15.67 2.25,40.07 22.95,95.02 -48.58,128.63 0.87,-11.56 0.94,-25.18 0.22,-41.68 -4.52,-106.02 -124.24,-40.66 -183.48,-66.99 -17.95,-7.98 -31.14,-128.83 -38.4,-153.93 -12.56,-43.4 -3.23,-75.91 -12.8,-116.87 -3.35,-14.36 -2.5,-31.99 -17.07,-35.63 -101.78,-25.48 1.59,-93.15 11.38,-148.23 18.69,-105.21 -82.66,-79.9 -100.98,-151.08 -10.87,-42.26 30.68,-78.59 17.07,-126.84 22.75,-4.68 55.57,-7.2 59.73,-45.61 9.94,-91.74 87.38,-151.6 27.03,-236.6 -63.38,-7.9 -66.85,-177.75 -66.85,-226.61 0,-57.65 -50.32,-29.54 -88.19,-38.48 -20.1,-4.75 -112.31,-32.37 -115.2,-52.74 -20.27,-11.55 29.2,-118.62 24.18,-153.93 0.48,3.4 -0.41,4.62 2.84,5.71 0,-11.91 -5.69,-24.97 -5.69,-35.64 0,-8.69 15.37,-19.39 19.91,-27.08 8.89,-15.08 17.03,-72.53 0,-78.39 -19.03,-6.56 -47.31,5.37 -68.27,-1.42 -80.4,-26.04 -80.3,-192.71 -179.21,-109.75 -50.87,42.68 -85.94,37.32 -118.05,-17.1 -12.77,-21.63 -27.74,-40.27 -42.67,-59.86 -16.83,-22.07 -29.67,-56.82 -48.36,-75.54l-79.65 -128.27 0 0 513.46 -332.09c13.25,-8.28 20.11,-31.63 34.13,-35.63 8.95,-44.78 -88.39,-172.08 18.49,-149.65 32.19,6.76 28.79,-9.38 38.4,-32.78 11.5,-28.03 58.96,18.64 72.54,17.1 29.1,-3.29 -23.89,-97.39 -29.87,-106.89 -24.78,-39.41 -112.36,-107.46 -112.36,-152.5 0,-25.94 27.09,-68.34 5.69,-84.09 -48.09,-35.39 -31.43,-31.49 -21.33,-79.82 9.89,-47.28 13.66,-86.64 56.89,-115.45 75.37,-50.25 10.58,-55.33 -21.34,-98.34 -30.63,-41.25 -3.99,-112.82 -49.78,-156.78 -35.16,-70.58 -130.85,-241.87 -130.85,-314.98 0,-80.41 218.39,-42.23 135.12,-139.67 -17.97,-21.04 -121.76,-137.7 -136.54,-121.15 -25.54,28.57 -27.99,79.42 -78.23,81.24 -60.43,2.2 -105.19,-21.52 -159.3,19.95 -75.29,57.69 -111.69,42.81 -182.06,-7.12 -53.19,-37.75 -93.15,-65.29 -24.17,-126.85 215.76,-192.59 -294.2,-86.02 -308.65,-143.95 -8.27,-33.14 27.98,-105.12 8.54,-131.13 -32.53,0 -76.67,10.68 -105.25,-5.7 -5.18,-36.36 12.57,-102.88 -27.03,-104.04 -73.18,-44.11 -181.74,79.08 -250.33,15.68 -59.02,-54.54 -146.27,-23.62 -220.45,-34.21 -0.74,-2.98 -3.41,-4.84 -5.69,-7.13 0,-51.87 8.59,-146.88 -15.65,-189.56 -101.54,-20.3 -180.52,4.28 -284.46,4.28 -155.56,0 -53.27,-95.94 -130.85,-162.48 -67.29,-57.7 -66.89,-61.28 -160.73,-61.28 -95.9,0 -94.27,-79.09 -163.56,-109.75 -47.69,-21.09 -79.92,20.17 -132.28,-24.23 0,-87.83 -146.5,-49.75 -146.5,66.99 0,112.17 -133.21,-46.45 -140.8,121.14 -2,44.27 -175.65,9.23 -207.66,4.28 -133.39,-20.67 -167.15,0.57 -196.28,-131.12 -28.51,-128.93 -199.12,-61.44 -257.44,-141.1 -32.53,-44.45 8.88,-122.17 -12.8,-151.08 -31.45,0 -87.85,-17.42 -112.36,7.13 -40.75,40.84 -22.64,110.31 -55.47,135.39 -59.67,45.57 -218.63,-122.26 -265.98,-159.62 -5.29,-26.63 -39.51,-36.51 -51.2,-57.01l-132.28 -25.66c-11.89,-2.3 -48.13,-83.99 -52.62,-99.77 -49.62,-28.3 -93.63,-57.64 -110.94,-114.02 -9.72,-31.66 -28.83,-140.94 -54.05,-155.35 -1.08,-5.46 -29.19,-20.59 -35.56,-21.38 -47.75,-63.89 -163.65,-45.07 -182.05,-141.1 -15.98,-83.44 7.32,-168.48 -98.14,-196.69 -54.58,-14.6 -60.91,-83.44 -79.65,-129.69 -3.67,-29.49 -15.47,-31.55 -12.8,-66.99 2.4,-31.77 -25.57,-36.34 -48.36,-48.46 -37.01,-19.7 -28.79,-119.08 1.42,-132.55 23.49,-10.48 93.05,22.67 102.41,-4.27 23.62,-68.01 -48.73,-69.87 15.64,-129.7 27.67,-25.73 5.94,-40.54 4.27,-68.42 -7.22,-120.28 151.57,-5.92 182.05,-66.98 22.32,-44.69 68.15,-83.04 22.76,-116.87 -36.67,-27.34 -72.7,-72.33 -108.09,-11.41 -36.64,63.05 -44.17,-105.72 -46.94,-116.87 -33.92,-8.48 -42.3,-8.86 -51.2,-48.46 5.01,-30.13 29.87,-57.62 29.87,-85.51 0,-30.12 -14.95,-52.77 -12.81,-88.37 3.46,-57.72 61.11,-208.44 103.83,-245.14 6.67,-60.27 233.13,-339.46 147.92,-371.99 -46.84,-17.89 -31.3,-48.9 -46.93,-85.52 -14.39,-3.59 -52.67,-54.31 -31.29,-66.99 32.01,-19 72.94,-9.22 95.29,-48.46 18.37,-50.64 6.07,-65.97 -45.51,-68.41 -43.8,-2.08 -36.65,-49.76 -14.23,-74.11 56.66,-61.52 79.12,-131.93 -28.44,-153.93 -98.76,-20.21 -43.79,-49.19 8.53,-94.07 31.28,-26.84 91.92,-168.15 79.65,-205.23 -19.95,-60.31 43.72,-52.86 45.52,-65.57 10.39,-2.59 34.36,-92.01 15.64,-115.44 -31.11,-38.96 -45.06,-114.72 -14.22,-155.35 12.75,-16.79 83.98,-48.36 69.69,-74.12 -6.52,-11.77 -118.32,29.57 -146.5,27.08 -68.56,-25.71 -104.67,80.76 -155.03,34.21 -73.3,-67.74 6.65,-66.66 -28.45,-115.45 -25.36,-35.27 -16.47,-66.1 -24.17,-108.32 -8.16,-44.69 -88.45,-39.02 -119.48,-15.67 -30.88,23.22 -38.01,78.57 -49.78,114.02 -21.25,64.03 -189.12,103.74 -233.26,44.18 -23.88,-32.24 -58.57,-71.1 -41.25,-112.6 13.58,-32.51 72.01,-122.48 99.57,-139.67 2.4,-19.32 -64.04,-69.84 -86.77,-69.84 -47.14,0 -88.07,93.52 -125.16,76.96 -37.06,-16.54 65.59,-232.48 73.96,-265.09 7.34,-28.62 51.73,-54.95 66.85,-84.09 14.62,-28.2 0,-74.97 2.84,-108.32 3.33,-36.86 19.25,-139.51 4.27,-169.61 -25.71,-51.62 -1.42,-102.78 -1.42,-156.78 84.76,0 146.27,82.39 241.79,76.97 99.38,-5.63 21.79,-156.36 59.74,-213.79 12.14,-18.39 31.61,-192.86 32.71,-209.52 -9.19,-14.47 -56.49,-121.59 -64,-129.69 -22.5,-24.24 -50.82,-104.81 -75.38,-135.4 -32.01,-39.87 -61.89,-60.14 -38.41,-114.02 103.06,-236.53 7.46,-314.22 78.23,-487.44 15.9,-38.9 15.05,-79.61 1.5,-114.21 1.47,-17.5 11.89,-29.66 52.55,-15.49 23.2,8.08 54.62,51.19 75.38,4.28 19.07,-43.12 58.94,-141.15 5.69,-173.89 -49.2,-77.52 -68.91,-248.18 -72.54,-340.63 -5.26,-134.02 -129.99,-70.16 -173.52,-193.84 -28.59,-81.21 -93.59,45.87 -128.01,66.99 -36.44,22.37 -283.68,160.3 -227.57,32.78 26.16,-59.48 4.71,-54.74 -21.33,-106.89 -22.14,-44.36 5.9,-102.27 -15.65,-145.38l-5.69 0c-67.86,271.45 -181.53,31.88 -318.6,37.06 -59.34,2.24 -112.61,-13.97 -170.67,-19.96 -79.63,-8.23 -145.56,114.89 -207.68,143.35 -30.78,1.86 -61.6,-9.37 -99.54,-66.38 -63.03,-94.72 -137.02,-86.94 -241.8,-86.94 -96.34,0 -116.33,-24.99 -143.65,-86.95 -59.82,-135.67 -326.21,13.71 -298.69,-152.5 13.91,-84.06 258.13,-211.4 76.81,-296.45 -81.1,-38.04 -236.2,29.29 -287.31,-62.71 -50.74,-91.32 -83.69,-208.09 -209.08,-208.09 -102.51,0 -209.88,171.39 -265.97,34.21 -21.93,-53.64 13.41,-138.03 -22.76,-183.86 -62.15,-78.75 -213.33,94.16 -256.02,-9.98 -29.97,-73.12 -24.12,-89.74 11.38,-139.67 38.95,-54.78 82.54,-132.55 -11.38,-132.55 -55.52,0 -111.76,34.02 -163.54,50.14l0 0c-24.4,7.59 -47.82,11.22 -69.72,5.44 -56.8,-15 -105.82,-68.88 -139.38,-111.17 -52.83,-66.57 -72.01,-7.23 -143.66,2.85 -117,16.47 -197.08,-104.35 -268.81,-188.13 -97.02,-113.32 -146.8,-24.23 -260.29,-24.23 -92.88,0 -119.48,28.98 -197.7,72.69 -89.1,49.78 -185.99,148.66 -253.17,21.38 -21.26,-40.3 -76.71,-109.28 -96.72,-141.11 -11.92,-18.97 -119.53,-70.95 -126.58,-88.36 -2.09,-5.18 -19.01,-28.65 -24.18,-32.78 -5.84,-4.67 -29.26,-44.78 -35.56,-52.74 -34.17,-43.16 -4.01,-136.99 -18.49,-168.18l0 0 119.47 14.26c21.85,9.68 54.73,41.68 78.23,29.93 17.64,-8.81 17.84,-44.66 42.67,-48.46 46.84,-7.18 93.68,52.86 156.45,42.75 57.91,-9.32 266.15,100.9 260.29,-8.55 -2.14,-40.06 -63.77,-142.31 -32.71,-181 31.19,-7.79 158.48,-15.49 189.16,-4.28 75.04,27.44 128.15,-48.89 184.9,25.65 33.74,44.3 67.55,42.71 115.21,57.01 26.71,37.62 150.98,32.43 203.39,18.53 61.46,-16.31 109.47,-99.69 100.99,-161.05 -8.39,-60.64 15.43,-73.21 42.67,-119.72 69.48,-43.67 -18.55,-127.06 -22.76,-185.29l-15.65 -216.64c6.82,-0.97 46.89,-18.33 48.36,-24.22 98.98,-14.11 149.21,-57.97 219.04,-131.13 82.95,-86.89 72.9,-128.09 194.86,-102.62 69,14.4 79.81,-49.46 150.76,-29.93 84.92,23.39 104.2,-39.63 149.34,57.01 23.82,51.02 40.79,39.91 95.3,39.91 61.5,0 15.47,103.26 24.18,138.25l1.42 1.43c60.61,0 150.03,-51.14 187.75,-95.5 77.54,-38.77 372.85,33.86 280.19,-114.02 -16.06,-25.62 -113.78,-90.73 -113.78,-109.74l1.42 -1.43c89.58,-12.79 161.54,-6.94 244.64,28.51 56.78,24.23 124.76,-89.4 170.67,-121.15 48.89,-33.82 38.41,-73.37 38.41,-124l1.42 -1.42c81.95,0 189.41,70.02 273.08,48.46 29.07,-7.48 119.48,-170.87 119.48,-200.96l1.42 -1.43c74.37,0 272.92,24.93 247.48,-89.79 0,-37.74 -28.8,-61.31 -7.11,-101.19 13.53,-24.86 -5.36,-51.62 -19.91,-72.69 -25.22,-36.49 36.62,-102.45 69.69,-121.15 36.51,-20.66 99.61,-11.49 125.17,-41.33 31.58,-36.89 -48.36,-119.24 -48.36,-162.48l1.42 -1.43c27.9,0 132.19,-6.21 145.08,15.68 26.81,45.5 0.94,144.49 32.71,165.33 25.93,17 79.84,44.02 106.67,17.1 40.43,-40.59 53.07,-45.6 116.63,-45.6 68.62,0 69.93,-61.02 99.56,-105.47 75.58,0 1.81,221.09 118.06,192.41 96.17,-23.72 48.99,-132.2 150.76,-121.15 33.01,3.58 135.14,19.82 149.34,-22.8 6.42,0 22.76,87.17 28.45,102.61 12.46,33.75 22.85,71.57 29.87,106.9 92.72,13.24 110.97,114.85 210.5,27.08 73.96,-41.25 108.16,14.31 147.92,57.01 44.28,47.54 121.28,59.35 179.21,88.36 35.89,17.96 54.45,35.45 95.3,45.61 39.2,9.76 114.5,1.22 129.43,45.61 20.44,60.8 -22.35,165.81 55.47,185.28 141.54,35.43 97.49,60.44 122.32,185.29 72.44,10.34 152.32,-5.66 224.72,11.4 91.83,21.65 75.92,-39.17 146.5,-62.71 42.47,-14.17 95.7,-10.29 130.86,-37.06 71.16,0 134.85,53.44 194.85,88.37 25.27,14.72 145.79,105.14 164.99,89.79 18.1,-14.48 74.54,-97.99 82.5,-96.92l190.59 25.66c51.24,6.9 114.39,106.43 21.33,129.69 -31.95,75.01 212.52,99.75 247.48,106.9 55.21,11.29 241.06,-3.13 213.35,75.54 -9.53,27.05 -78.23,126.12 -78.23,133.97 0,36.04 119.45,12.56 130.86,92.64 125.67,72.06 134.08,-69.78 217.61,-76.96 36.15,5.16 48.11,39.64 92.45,27.08 32.34,-9.15 70.96,-52.04 92.45,-48.46 31.5,126.46 226.21,245.19 274.51,51.31 110.52,-15.78 126.5,-39.35 99.56,68.41 77.16,0 102.41,12.42 102.41,-76.96 0,-54.44 85.1,-12.39 125.16,-18.53 149.33,-22.92 -134.08,210.55 -93.87,220.92 22.9,5.91 48.74,-23.22 68.27,-19.96 33.21,5.56 34.06,56.28 62.58,65.56 78.36,25.52 184.36,-51.75 216.19,-118.29 21.54,-45.05 55.81,-175.18 111.52,-153.34 57.01,22.35 103.51,-9.4 155.79,-24.44 104.27,11.58 9.54,-81.42 58.4,-105.85 0,-53.13 130.53,96.26 122.32,-57.01 -3.41,-63.59 -59.08,-214.91 62.58,-153.93 73.16,36.66 61.33,-11.71 102.41,-62.71 39.76,-49.34 101.76,-18.53 157.88,-18.53 109.37,0 73.24,159.84 126.58,226.62 18.45,23.11 134.11,47.62 159.3,41.33l62.58 -210.94c28.43,-95.87 17.04,-160.17 118.05,-179.58 46.21,-8.87 133.09,-90.83 152.19,-131.12 24.85,-52.44 133.6,66.05 203.39,42.76 69.94,-23.35 47.11,-20.26 118.06,-11.41 2.8,11.26 29.76,20.31 35.55,41.34l18.49 66.98c11.66,42.27 29.14,102.34 58.32,136.83 81.95,96.9 97.2,-89.32 113.78,-122.57 23.3,-46.76 57.33,-78.73 75.39,-131.13 11.81,-34.26 58.78,-40.8 66.84,-71.26 10.4,-39.25 7.12,-76.2 7.12,-116.87 88.3,0 68.06,120.11 172.1,89.79 65.56,-19.11 116.29,-96.26 139.38,-152.5 7.98,-19.42 27.74,-134.69 29.87,-135.4l0 -2.85c13.11,0 50.62,96.66 76.81,54.16 15.55,-25.25 5.56,-139.65 -4.27,-166.76 0,-30.88 27.6,-123.88 -18.49,-135.4 -2.04,-14.36 -11.12,-56.02 15.64,-62.71 10.54,-42.31 39.91,-48.5 81.08,-39.91 42.58,8.89 52.44,-22.97 75.38,-51.31 45.08,-55.72 -3.12,-125.31 -31.29,-171.03 -38.87,-63.11 52.91,-68.41 92.45,-68.41 29.45,0 30.61,-36.45 42.67,-57.01 3.69,-6.28 184.42,-63.04 201.97,-59.86 56.96,10.33 61.94,17.67 91.02,-35.63 22.06,-40.41 1.43,-75.4 1.43,-118.3 0,-23.54 27.71,-188.32 58.31,-126.85 58.75,117.98 44.37,46.85 83.92,-21.38 14.61,-39.1 -6.48,-56.6 35.56,-82.66 32.48,-20.12 85.48,-44.33 110.94,-74.11 45.97,-53.74 128.71,-108.77 196.28,-112.6 86.76,-4.93 47.8,-13.07 125.16,25.65 63.6,31.84 139.75,32.46 207.66,22.81 32.7,-4.65 158.51,-135.63 150.76,-166.76 -8.19,-2.04 -42.85,-16.11 -45.51,-22.8l-112.36 -18.53c-11.46,-57.32 -43.7,-179.34 -68.27,-230.89 -42.67,-89.56 43.02,-142.11 62.58,-220.92 27.64,0 33.78,79.25 54.04,101.2 31.75,34.42 48.86,82.14 78.23,119.72 51.59,65.99 196.69,161.05 283.04,161.05 0.58,1.76 1.1,2.27 2.85,2.85 0,2.72 -0.87,3.52 1.42,4.28 -9.73,39.06 -10.2,94.3 -28.45,129.7 12.26,15.27 1.24,40.69 9.96,55.58 7.6,12.96 20.74,12.12 28.45,22.81 21.97,30.47 12.71,27.56 7.11,61.28 -69.01,17.25 152.14,176 162.14,215.22 8.38,32.83 -28.45,51.59 -28.45,71.26 0,10.99 11.91,16.71 8.54,29.93 -5.33,20.91 -39.95,23.15 -31.29,51.31 7.43,24.2 20.75,63.95 35.56,82.67 14.97,18.9 130.42,-53.49 159.29,-57.01 101.79,-12.42 180.4,-20.55 277.36,-52.74 23.31,-7.74 58.01,59.31 103.83,61.29 43.18,1.87 108.35,-1.69 149.34,8.55l1.42 1.42c8.57,34.43 -1.72,90.71 9.96,121.15 6.8,17.75 121.3,11.24 139.38,4.28 15.7,-26.23 50,-52.32 55.47,-79.82 44.43,-14.74 81.15,3.12 103.83,-48.46 13.33,-30.31 34.02,-104.21 73.96,-101.19 98.47,7.45 200.62,134.04 302.96,149.65 49.72,7.59 181.97,-42.32 196.28,-99.77 3.63,0 6.11,-1.16 7.11,2.85 10.23,2.55 51.2,84.36 56.89,98.35 14.49,35.65 0,97.2 0,136.82 0,111 -9.95,243 -64,340.64 -22.15,40.03 -80.85,189.35 -120.9,195.26 -40.63,81.54 -121.51,168.96 -192.01,225.19 -53.13,42.39 -96.68,103.17 -152.19,143.95 -101,74.18 -173.52,185.03 -173.52,312.13 52.07,0 183.74,3.17 211.92,-47.03 114.42,-43.03 141.04,51.04 231.84,44.18 20.35,-1.54 47.91,-26.88 65.42,-11.4 41.16,36.37 49.39,54.16 110.95,54.16 60.32,0 118.85,-7.64 173.52,-28.51 84.83,-32.4 -14.92,-155.59 25.6,-163.9 46.48,-9.52 88.68,-41.18 135.12,-52.74 92.51,-23.02 130.85,-146.64 130.85,-232.31 44.74,14.91 215.25,30.75 231.84,-35.63 80.84,0 89.68,-47.87 150.76,-84.81l79.65 -34.92 0 0z"/>
  <path class="fil1 str1" d="M1595.62 19434.9l2519.28 0 0 1592.86 -2519.28 0 0 -1592.86z"/>
  <path class="fil2" d="M1213.27 20928.47c0,-17.45 4.47,-34.48 13.46,-51.13 8.93,-16.61 21.77,-29.59 38.43,-38.86 16.69,-9.26 34.1,-13.92 52.16,-13.92 17.92,0 35.18,4.56 51.69,13.74 16.56,9.12 29.4,21.92 38.53,38.43 9.17,16.51 13.73,33.77 13.73,51.74 0,18.01 -4.56,35.27 -13.73,51.78 -9.13,16.51 -21.97,29.35 -38.53,38.53 -16.51,9.17 -33.77,13.78 -51.69,13.78 -18.06,0 -35.47,-4.66 -52.16,-13.97 -16.66,-9.36 -29.5,-22.34 -38.43,-38.95 -8.99,-16.65 -13.46,-33.68 -13.46,-51.17zm17.22 0c0,14.62 3.76,28.88 11.24,42.7 7.48,13.83 18.2,24.65 32.13,32.46 13.92,7.81 28.41,11.71 43.46,11.71 15,0 29.35,-3.85 43.08,-11.52 13.74,-7.67 24.46,-18.39 32.13,-32.17 7.67,-13.79 11.52,-28.18 11.52,-43.18 0,-14.96 -3.85,-29.36 -11.52,-43.14 -7.67,-13.78 -18.39,-24.5 -32.13,-32.12 -13.73,-7.62 -28.08,-11.43 -43.08,-11.43 -15.05,0 -29.54,3.9 -43.46,11.66 -13.93,7.76 -24.65,18.58 -32.13,32.46 -7.48,13.87 -11.24,28.08 -11.24,42.57zm103.57 -33.35l5.08 -16.94c11.53,2.78 20.7,8.61 27.52,17.55 6.87,8.98 10.3,19.85 10.3,32.59 0,16.19 -5.22,29.31 -15.71,39.42 -10.49,10.11 -24.98,15.15 -43.55,15.15 -12.14,0 -22.68,-2.31 -31.61,-6.92 -8.99,-4.56 -15.71,-11.15 -20.28,-19.61 -4.56,-8.52 -6.82,-18.25 -6.82,-29.16 0,-12.23 2.92,-22.39 8.8,-30.48 5.88,-8.09 13.88,-13.6 23.94,-16.56l4.23 16.37c-6.91,2.77 -12.23,6.82 -15.89,12.23 -3.72,5.41 -5.55,11.71 -5.55,19 0,10.58 3.76,19.33 11.28,26.2 7.53,6.87 18.35,10.3 32.37,10.3 14.06,0 24.69,-3.24 31.89,-9.74 7.19,-6.49 10.81,-14.86 10.81,-25.16 0,-8.28 -2.39,-15.57 -7.24,-21.83 -4.8,-6.25 -11.33,-10.39 -19.57,-12.41z"/>
  <path id="1" class="fil2" d="M1418.73 20633.31l-18.58 0c14.44,9.27 21.68,22.91 21.68,40.92 0,11.67 -3.19,22.39 -9.64,32.13 -6.4,9.78 -15.38,17.35 -26.86,22.76 -11.52,5.37 -24.74,8.05 -39.69,8.05 -14.59,0 -27.8,-2.45 -39.7,-7.29 -11.86,-4.9 -20.98,-12.19 -27.29,-21.92 -6.35,-9.69 -9.5,-20.61 -9.5,-32.6 0,-8.84 1.88,-16.7 5.6,-23.56 3.72,-6.87 8.61,-12.47 14.58,-16.8l-72.67 0 0 -24.83 202.07 0 0 23.14zm-73.05 78.46c18.72,0 32.69,-3.95 41.96,-11.9 9.26,-7.91 13.87,-17.27 13.87,-28.04 0,-10.86 -4.42,-20.08 -13.26,-27.7 -8.84,-7.57 -22.34,-11.38 -40.5,-11.38 -19.94,0 -34.62,3.85 -43.98,11.61 -9.36,7.72 -14.01,17.27 -14.01,28.6 0,11.06 4.46,20.27 13.45,27.71 8.98,7.38 23.14,11.1 42.47,11.1z"/>
  <path id="2" class="fil2" d="M1358.05 20580.77l-24.83 0 0 -76.76 24.83 0 0 76.76z"/>
  <path id="3" class="fil2" d="M1418.73 20476.91l-146.47 0 0 -22.29 20.69 0c-7.15,-4.56 -12.93,-10.68 -17.26,-18.3 -4.37,-7.62 -6.54,-16.27 -6.54,-26.01 0,-10.82 2.26,-19.71 6.73,-26.62 4.52,-6.92 10.77,-11.81 18.86,-14.63 -17.07,-11.67 -25.59,-26.77 -25.59,-45.39 0,-14.58 4,-25.83 12.04,-33.63 8.05,-7.86 20.42,-11.81 37.12,-11.81l100.42 0 0 24.84 -92.19 0c-9.88,0 -17.03,0.84 -21.4,2.44 -4.38,1.6 -7.86,4.52 -10.54,8.8 -2.68,4.23 -4,9.22 -4,14.91 0,10.35 3.44,18.91 10.26,25.73 6.86,6.82 17.82,10.2 32.87,10.2l85 0 0 24.84 -95.06 0c-11.01,0 -19.29,2.02 -24.79,6.07 -5.5,4.04 -8.28,10.67 -8.28,19.85 0,6.96 1.84,13.4 5.51,19.33 3.66,5.93 9.03,10.21 16.13,12.89 7.05,2.63 17.26,3.95 30.57,3.95l75.92 0 0 24.83z"/>
  <path id="4" class="fil2" d="M1400.39 20146.15c7.85,9.22 13.35,18.11 16.6,26.62 3.25,8.52 4.84,17.64 4.84,27.43 0,16.08 -3.9,28.45 -11.75,37.11 -7.81,8.65 -17.83,12.98 -30.01,12.98 -7.15,0 -13.69,-1.65 -19.62,-4.89 -5.93,-3.29 -10.63,-7.57 -14.2,-12.84 -3.58,-5.32 -6.31,-11.24 -8.14,-17.88 -1.27,-4.89 -2.49,-12.27 -3.72,-22.1 -2.35,-20.04 -5.22,-34.86 -8.51,-44.31 -3.39,-0.1 -5.55,-0.14 -6.44,-0.14 -10.07,0 -17.17,2.35 -21.31,7.05 -5.6,6.35 -8.37,15.81 -8.37,28.32 0,11.71 2.07,20.36 6.16,25.92 4.09,5.59 11.38,9.68 21.78,12.37l-3.39 24.27c-10.4,-2.21 -18.82,-5.84 -25.21,-10.92 -6.4,-5.08 -11.29,-12.41 -14.77,-22.01 -3.44,-9.55 -5.18,-20.7 -5.18,-33.3 0,-12.51 1.46,-22.72 4.42,-30.57 2.97,-7.81 6.64,-13.6 11.11,-17.27 4.46,-3.67 10.11,-6.25 16.93,-7.76 4.23,-0.8 11.85,-1.22 22.81,-1.22l32.93 0c23,0 37.53,-0.52 43.69,-1.55 6.17,-0.99 12.05,-3.06 17.69,-6.07l0 25.96c-5.22,2.5 -11.34,4.1 -18.34,4.8zm-55.04 1.98c3.67,9.03 6.78,22.57 9.32,40.64 1.45,10.25 3.1,17.49 4.93,21.73 1.84,4.23 4.52,7.48 8,9.78 3.53,2.31 7.43,3.48 11.76,3.48 6.54,0 12.04,-2.49 16.42,-7.52 4.37,-5.04 6.58,-12.38 6.58,-22.02 0,-9.55 -2.07,-18.06 -6.25,-25.54 -4.14,-7.43 -9.84,-12.93 -17.03,-16.41 -5.6,-2.69 -13.83,-4 -24.7,-4l-9.03 -0.14z"/>
  <path id="5" class="fil2" d="M1474.89 20084.86l-202.63 0 0 -22.57 19.24 0c-7.44,-5.32 -13.03,-11.34 -16.75,-18.07 -3.72,-6.68 -5.6,-14.81 -5.6,-24.36 0,-12.51 3.2,-23.52 9.65,-33.07 6.39,-9.55 15.47,-16.74 27.14,-21.63 11.71,-4.85 24.5,-7.3 38.47,-7.3 14.91,0 28.37,2.69 40.36,8.05 11.95,5.36 21.12,13.17 27.52,23.42 6.35,10.21 9.54,20.98 9.54,32.27 0,8.28 -1.74,15.71 -5.22,22.25 -3.48,6.58 -7.85,11.94 -13.17,16.18l71.45 0 0 24.83zm-128.5 -22.57c18.77,0 32.69,-3.81 41.67,-11.39 8.99,-7.62 13.45,-16.84 13.45,-27.65 0,-11.01 -4.65,-20.42 -13.97,-28.23 -9.31,-7.85 -23.7,-11.76 -43.22,-11.76 -18.63,0 -32.55,3.81 -41.82,11.48 -9.26,7.67 -13.87,16.79 -13.87,27.42 0,10.54 4.94,19.85 14.77,27.94 9.87,8.14 24.17,12.19 42.99,12.19z"/>
  <path id="6" class="fil2" d="M1374.99 19937.78l-3.96 -24.55c9.84,-1.37 17.36,-5.22 22.63,-11.53 5.22,-6.3 7.85,-15.14 7.85,-26.43 0,-11.43 -2.3,-19.9 -6.96,-25.45 -4.61,-5.5 -10.06,-8.28 -16.32,-8.28 -5.6,0 -10.02,2.5 -13.22,7.44 -2.21,3.48 -4.98,11.94 -8.42,25.4 -4.56,18.15 -8.51,30.71 -11.85,37.77 -3.39,7 -7.99,12.32 -13.92,15.94 -5.88,3.62 -12.42,5.46 -19.57,5.46 -6.54,0 -12.56,-1.51 -18.11,-4.47 -5.55,-3.01 -10.16,-7.06 -13.83,-12.18 -2.82,-3.86 -5.22,-9.13 -7.19,-15.76 -1.98,-6.68 -2.97,-13.78 -2.97,-21.4 0,-11.48 1.65,-21.54 4.99,-30.2 3.29,-8.7 7.81,-15.1 13.45,-19.24 5.69,-4.09 13.27,-6.96 22.77,-8.51l3.38 24.27c-7.62,1.08 -13.59,4.28 -17.87,9.55 -4.28,5.27 -6.4,12.7 -6.4,22.34 0,11.34 1.88,19.47 5.65,24.32 3.76,4.84 8.18,7.29 13.21,7.29 3.2,0 6.12,-0.99 8.71,-3.01 2.63,-2.02 4.84,-5.18 6.58,-9.5 0.94,-2.5 3.06,-9.74 6.35,-21.87 4.66,-17.5 8.52,-29.73 11.48,-36.69 2.96,-6.96 7.34,-12.42 12.98,-16.37 5.69,-4 12.75,-5.98 21.21,-5.98 8.24,0 16,2.4 23.29,7.25 7.29,4.84 12.93,11.8 16.93,20.88 4,9.13 5.97,19.43 5.97,30.91 0,19 -3.95,33.53 -11.8,43.5 -7.9,9.98 -19.57,16.33 -35.04,19.1z"/>
  <path id="7" class="fil2" d="M1418.73 19779.74l-28.22 0 0 -28.22 28.22 0 0 28.22z"/>
  <path id="8" class="fil2" d="M1365.11 19612.71l3.38 -24.27c16.7,2.68 29.73,9.45 39.19,20.41 9.45,10.96 14.15,24.46 14.15,40.41 0,19.99 -6.53,36.08 -19.61,48.21 -13.08,12.18 -31.8,18.25 -56.16,18.25 -15.81,0 -29.59,-2.63 -41.39,-7.85 -11.86,-5.22 -20.75,-13.17 -26.63,-23.9 -5.92,-10.68 -8.89,-22.29 -8.89,-34.9 0,-15.85 4,-28.88 12.04,-38.95 8.05,-10.11 19.48,-16.6 34.25,-19.42l3.67 23.99c-9.83,2.3 -17.22,6.35 -22.2,12.23 -4.94,5.83 -7.44,12.88 -7.44,21.16 0,12.51 4.47,22.67 13.41,30.53 8.98,7.81 23.09,11.71 42.47,11.71 19.66,0 33.92,-3.76 42.81,-11.29 8.89,-7.57 13.35,-17.4 13.35,-29.49 0,-9.78 -2.96,-17.92 -8.93,-24.41 -5.93,-6.54 -15.1,-10.68 -27.47,-12.42z"/>
  <path id="9" class="fil2" d="M1345.49 19576.59c-27.04,0 -47.08,-7.53 -60.11,-22.63 -10.82,-12.56 -16.23,-27.94 -16.23,-46.05 0,-20.08 6.59,-36.54 19.76,-49.34 13.12,-12.75 31.33,-19.14 54.51,-19.14 18.82,0 33.59,2.82 44.36,8.46 10.77,5.65 19.14,13.88 25.12,24.7 5.97,10.77 8.93,22.58 8.93,35.32 0,20.51 -6.53,37.07 -19.66,49.72 -13.12,12.65 -32.03,18.96 -56.68,18.96zm0.05 -25.4c18.72,0 32.74,-4.1 42,-12.28 9.32,-8.23 13.97,-18.53 13.97,-31 0,-12.32 -4.65,-22.57 -14.01,-30.81 -9.36,-8.18 -23.61,-12.27 -42.76,-12.27 -18.06,0 -31.75,4.14 -41.01,12.37 -9.32,8.23 -13.97,18.48 -13.97,30.71 0,12.47 4.61,22.77 13.87,31 9.27,8.18 23.24,12.28 41.91,12.28z"/>
  <path id="10" class="fil2" d="M1418.73 19410.31l-146.47 0 0 -22.29 20.69 0c-7.15,-4.56 -12.93,-10.68 -17.26,-18.3 -4.37,-7.62 -6.54,-16.27 -6.54,-26.01 0,-10.82 2.26,-19.71 6.73,-26.62 4.52,-6.92 10.77,-11.81 18.86,-14.63 -17.07,-11.67 -25.59,-26.77 -25.59,-45.39 0,-14.58 4,-25.83 12.04,-33.63 8.05,-7.86 20.42,-11.81 37.12,-11.81l100.42 0 0 24.84 -92.19 0c-9.88,0 -17.03,0.84 -21.4,2.44 -4.38,1.6 -7.86,4.52 -10.54,8.8 -2.68,4.23 -4,9.22 -4,14.91 0,10.35 3.44,18.91 10.26,25.73 6.86,6.82 17.82,10.2 32.87,10.2l85 0 0 24.84 -95.06 0c-11.01,0 -19.29,2.02 -24.79,6.07 -5.5,4.04 -8.28,10.67 -8.28,19.85 0,6.96 1.84,13.4 5.51,19.33 3.66,5.93 9.03,10.21 16.13,12.89 7.05,2.63 17.26,3.95 30.57,3.95l75.92 0 0 24.83z"/>
  <g id="_2977457091600">
   <g>
    <path class="fil3 str2" d="M1735.7 20041.11l699.96 0 0 99.16 -699.96 0 0 -99.16z"/>
    <path class="fil4 str2" d="M2435.66 20041.11l699.95 0 0 99.16 -699.95 0 0 -99.16z"/>
    <path class="fil3 str2" d="M3135.61 20041.11l699.95 0 0 99.16 -699.95 0 0 -99.16z"/>
    <path class="fil3 str2" d="M2857.65 20340.05l1119.51 0 0 99.16 -1119.51 0 0 -99.16z"/>
    <path class="fil4 str2" d="M1738.15 20340.05l1119.51 0 0 99.16 -1119.51 0 0 -99.16z"/>
   </g>
   <path class="fil5" d="M2378.74 19674.84c6.64,-15.76 15.11,-27.93 25.28,-36.51 10.17,-8.59 22.87,-12.88 38.04,-12.88 18.76,0 33.11,6.06 43.1,18.23 7.59,9.05 11.41,18.75 11.41,29.1 0,16.99 -10.7,34.57 -32.11,52.68 14.41,5.65 25.29,13.64 32.7,24.11 7.35,10.41 11.05,22.7 11.05,36.81 0,20.22 -6.47,37.69 -19.34,52.5 -16.76,19.29 -41.1,28.93 -72.97,28.93 -15.76,0 -26.46,-1.94 -32.16,-5.88 -5.71,-3.88 -8.53,-8.11 -8.53,-12.58 0,-3.35 1.35,-6.23 4.06,-8.76 2.7,-2.53 5.94,-3.82 9.76,-3.82 2.88,0 5.82,0.47 8.82,1.41 1.94,0.59 6.35,2.7 13.29,6.35 6.88,3.64 11.7,5.82 14.34,6.52 4.24,1.3 8.82,1.94 13.64,1.94 11.76,0 21.93,-4.52 30.64,-13.64 8.7,-9.05 13.05,-19.81 13.05,-32.22 0,-9.05 -2,-17.93 -6.06,-26.51 -3,-6.47 -6.29,-11.35 -9.82,-14.65 -4.99,-4.58 -11.76,-8.76 -20.4,-12.52 -8.64,-3.7 -17.46,-5.58 -26.46,-5.58l-5.52 0 0 -5.3c9.11,-1.17 18.16,-4.41 27.34,-9.82 9.11,-5.4 15.75,-11.87 19.87,-19.46 4.17,-7.58 6.23,-15.87 6.23,-24.99 0,-11.81 -3.7,-21.34 -11.11,-28.63 -7.47,-7.29 -16.7,-10.94 -27.75,-10.94 -17.82,0 -32.69,9.65 -44.69,28.87l-5.7 -2.76z"/>
   <path id="1" class="fil5" d="M2550.19 19748.34c0,-26.64 4,-49.51 12.05,-68.74 8.06,-19.22 18.7,-33.57 32.05,-42.98 10.29,-7.47 20.99,-11.17 31.98,-11.17 17.94,0 33.99,9.11 48.22,27.34 17.81,22.64 26.69,53.27 26.69,91.96 0,27.05 -3.88,50.09 -11.7,69.03 -7.82,18.93 -17.76,32.63 -29.87,41.21 -12.11,8.53 -23.81,12.82 -35.04,12.82 -22.29,0 -40.81,-13.11 -55.62,-39.39 -12.53,-22.17 -18.76,-48.86 -18.76,-80.08zm33.87 4.23c0,32.1 3.94,58.33 11.82,78.67 6.52,17.11 16.28,25.63 29.22,25.63 6.17,0 12.58,-2.76 19.22,-8.34 6.65,-5.59 11.65,-14.88 15.11,-27.99 5.24,-19.7 7.88,-47.57 7.88,-83.43 0,-26.64 -2.76,-48.86 -8.23,-66.62 -4.11,-13.23 -9.46,-22.58 -15.99,-28.05 -4.65,-3.82 -10.35,-5.7 -16.99,-5.7 -7.76,0 -14.7,3.53 -20.76,10.52 -8.23,9.53 -13.87,24.46 -16.81,44.92 -3,20.41 -4.47,40.52 -4.47,60.39z"/>
   <path id="2" class="fil5" d="M2859.94 19618.75l0 157.16 39.98 -36.63c8.52,-7.82 13.46,-12.76 14.81,-14.82 0.95,-1.41 1.42,-2.76 1.42,-4.17 0,-2.29 -1,-4.23 -2.89,-5.94 -1.88,-1.65 -4.99,-2.59 -9.4,-2.82l0 -5.65 68.61 0 0 5.65c-9.35,0.23 -17.17,1.7 -23.4,4.35 -6.23,2.7 -13.05,7.47 -20.52,14.29l-40.63 37.22 40.34 51.33c11.29,14.05 18.81,23.04 22.58,26.98 5.58,5.24 10.4,8.65 14.58,10.17 2.94,1.12 7.99,1.71 15.17,1.71l0 6.35 -76.73 0 0 -6.35c4.41,-0.12 7.35,-0.76 8.88,-1.94 1.58,-1.24 2.35,-2.88 2.35,-5.06 0,-2.64 -2.3,-6.88 -6.88,-12.7l-48.27 -61.79 0 52.21c0,10.23 0.7,16.93 2.11,20.17 1.47,3.17 3.47,5.46 6.12,6.88 2.64,1.35 8.35,2.11 17.17,2.23l0 6.35 -80.08 0 0 -6.35c7.99,0 14.05,-1 18.05,-2.94 2.41,-1.23 4.23,-3.17 5.46,-5.76 1.71,-3.76 2.59,-10.29 2.59,-19.52l0 -143.94c0,-18.05 -0.41,-29.1 -1.18,-33.16 -0.82,-4.05 -2.11,-6.82 -3.99,-8.35 -1.83,-1.58 -4.24,-2.35 -7.18,-2.35 -2.41,0 -6.05,1 -10.82,2.94l-2.93 -6.35 46.74 -19.4 7.94 0z"/>
   <path id="3" class="fil5" d="M3036.68 19735.05c11.41,-11.53 18.17,-18.17 20.22,-19.93 5.12,-4.36 10.65,-7.77 16.59,-10.18 5.93,-2.41 11.81,-3.64 17.63,-3.64 9.88,0 18.29,2.88 25.4,8.64 7.06,5.76 11.82,14.11 14.17,25.11 11.88,-13.88 21.88,-22.93 30.05,-27.28 8.17,-4.3 16.58,-6.47 25.22,-6.47 8.35,0 15.82,2.17 22.35,6.47 6.46,4.29 11.64,11.34 15.4,21.16 2.53,6.65 3.82,17.11 3.82,31.4l0 67.97c0,9.82 0.71,16.58 2.18,20.23 1.12,2.46 3.23,4.64 6.23,6.4 3.06,1.77 8,2.65 14.88,2.65l0 6.35 -77.26 0 0 -6.35 3.29 0c6.7,0 11.99,-1.29 15.76,-3.94 2.64,-1.82 4.52,-4.76 5.64,-8.76 0.47,-1.94 0.71,-7.47 0.71,-16.58l0 -67.91c0,-12.88 -1.53,-21.93 -4.65,-27.22 -4.52,-7.35 -11.7,-11.06 -21.63,-11.06 -6.06,0 -12.23,1.53 -18.41,4.59 -6.11,3 -13.58,8.7 -22.34,16.93l-0.35 1.94 0.7 7.41 0 75.32c0,10.7 0.59,17.4 1.77,20.05 1.23,2.59 3.46,4.82 6.76,6.58 3.29,1.77 8.93,2.65 16.87,2.65l0 6.35 -79.37 0 0 -6.35c8.64,0 14.58,-1 17.81,-3.06 3.24,-2.06 5.47,-5.17 6.7,-9.29 0.59,-1.94 0.89,-7.58 0.89,-16.93l0 -67.91c0,-12.88 -1.88,-22.17 -5.65,-27.87 -5.05,-7.41 -12.05,-11.11 -21.11,-11.11 -6.17,0 -12.28,1.7 -18.34,5.05 -9.47,5.06 -16.82,10.82 -21.93,17.17l0 84.67c0,10.29 0.7,16.93 2.12,20.05 1.41,3.06 3.52,5.35 6.35,6.94 2.76,1.53 8.4,2.29 16.93,2.29l0 6.35 -77.97 0 0 -6.35c7.24,0 12.29,-0.76 15.17,-2.29 2.89,-1.59 5.06,-4 6.59,-7.41 1.47,-3.35 2.23,-9.88 2.23,-19.58l0 -60.33c0,-17.28 -0.53,-28.45 -1.53,-33.51 -0.82,-3.82 -2.05,-6.41 -3.82,-7.82 -1.7,-1.47 -4.05,-2.18 -6.99,-2.18 -3.24,0 -7.06,0.89 -11.53,2.59l-2.58 -6.35 47.62 -19.4 7.41 0 0 33.75z"/>
   <path class="fil5" d="M2626.06 20788.33l-16.34 45.39 -137.82 0 0 -6.47c40.57,-36.98 69.08,-67.14 85.61,-90.54 16.52,-23.41 24.81,-44.81 24.81,-64.21 0,-14.82 -4.53,-26.99 -13.64,-36.51 -9.06,-9.53 -19.88,-14.29 -32.52,-14.29 -11.52,0 -21.81,3.29 -30.92,9.94 -9.18,6.64 -15.88,16.4 -20.29,29.22l-6.35 0c2.88,-21.11 10.29,-37.34 22.17,-48.69 11.87,-11.28 26.75,-16.93 44.62,-16.93 18.94,0 34.81,6.12 47.51,18.29 12.7,12.17 19.05,26.51 19.05,43.09 0,11.82 -2.76,23.7 -8.29,35.52 -8.47,18.58 -22.28,38.27 -41.33,59.09 -28.64,31.16 -46.28,49.86 -53.04,56.03l60.39 0c12.29,0 20.93,-0.47 25.87,-1.35 4.94,-0.94 9.41,-2.82 13.4,-5.65 4,-2.76 7.47,-6.76 10.41,-11.93l6.7 0z"/>
   <path id="1" class="fil5" d="M2653.58 20718.13c0,-26.64 4,-49.51 12.05,-68.74 8.06,-19.22 18.7,-33.57 32.05,-42.98 10.29,-7.47 20.99,-11.17 31.98,-11.17 17.94,0 33.99,9.11 48.22,27.34 17.81,22.64 26.69,53.27 26.69,91.96 0,27.05 -3.88,50.09 -11.7,69.03 -7.82,18.93 -17.76,32.63 -29.87,41.21 -12.11,8.53 -23.81,12.82 -35.04,12.82 -22.29,0 -40.81,-13.11 -55.62,-39.39 -12.53,-22.17 -18.76,-48.86 -18.76,-80.08zm33.87 4.23c0,32.1 3.94,58.33 11.82,78.67 6.52,17.11 16.28,25.63 29.22,25.63 6.17,0 12.58,-2.76 19.22,-8.34 6.65,-5.59 11.65,-14.88 15.11,-27.99 5.24,-19.7 7.88,-47.57 7.88,-83.43 0,-26.64 -2.76,-48.86 -8.23,-66.62 -4.11,-13.23 -9.46,-22.58 -15.99,-28.05 -4.65,-3.82 -10.35,-5.7 -16.99,-5.7 -7.76,0 -14.7,3.53 -20.76,10.52 -8.23,9.53 -13.87,24.46 -16.81,44.92 -3,20.41 -4.47,40.52 -4.47,60.39z"/>
   <path id="2" class="fil5" d="M2963.68 20704.84c11.41,-11.53 18.17,-18.17 20.22,-19.93 5.12,-4.36 10.65,-7.77 16.59,-10.18 5.93,-2.41 11.81,-3.64 17.63,-3.64 9.88,0 18.29,2.88 25.4,8.64 7.06,5.76 11.82,14.11 14.17,25.11 11.88,-13.88 21.88,-22.93 30.05,-27.28 8.17,-4.3 16.58,-6.47 25.22,-6.47 8.35,0 15.82,2.17 22.35,6.47 6.46,4.29 11.64,11.34 15.4,21.16 2.53,6.65 3.82,17.11 3.82,31.4l0 67.97c0,9.82 0.71,16.58 2.18,20.23 1.12,2.46 3.23,4.64 6.23,6.4 3.06,1.77 8,2.65 14.88,2.65l0 6.35 -77.26 0 0 -6.35 3.29 0c6.7,0 11.99,-1.29 15.76,-3.94 2.64,-1.82 4.52,-4.76 5.64,-8.76 0.47,-1.94 0.71,-7.47 0.71,-16.58l0 -67.91c0,-12.88 -1.53,-21.93 -4.65,-27.22 -4.52,-7.35 -11.7,-11.06 -21.63,-11.06 -6.06,0 -12.23,1.53 -18.41,4.59 -6.11,3 -13.58,8.7 -22.34,16.93l-0.35 1.94 0.7 7.41 0 75.32c0,10.7 0.59,17.4 1.77,20.05 1.23,2.59 3.46,4.82 6.76,6.58 3.29,1.77 8.93,2.65 16.87,2.65l0 6.35 -79.37 0 0 -6.35c8.64,0 14.58,-1 17.81,-3.06 3.24,-2.06 5.47,-5.17 6.7,-9.29 0.59,-1.94 0.89,-7.58 0.89,-16.93l0 -67.91c0,-12.88 -1.88,-22.17 -5.65,-27.87 -5.05,-7.41 -12.05,-11.11 -21.11,-11.11 -6.17,0 -12.28,1.7 -18.34,5.05 -9.47,5.06 -16.82,10.82 -21.93,17.17l0 84.67c0,10.29 0.7,16.93 2.12,20.05 1.41,3.06 3.52,5.35 6.35,6.94 2.76,1.53 8.4,2.29 16.93,2.29l0 6.35 -77.97 0 0 -6.35c7.24,0 12.29,-0.76 15.17,-2.29 2.89,-1.59 5.06,-4 6.59,-7.41 1.47,-3.35 2.23,-9.88 2.23,-19.58l0 -60.33c0,-17.28 -0.53,-28.45 -1.53,-33.51 -0.82,-3.82 -2.05,-6.41 -3.82,-7.82 -1.7,-1.47 -4.05,-2.18 -6.99,-2.18 -3.24,0 -7.06,0.89 -11.53,2.59l-2.58 -6.35 47.62 -19.4 7.41 0 0 33.75z"/>
   <path id="3" class="fil5" d="M3231.32 20588.54c4.76,0 8.88,1.7 12.29,5.05 3.35,3.41 5.05,7.53 5.05,12.29 0,4.82 -1.7,9 -5.05,12.41 -3.41,3.47 -7.53,5.17 -12.29,5.17 -4.82,0 -9,-1.7 -12.41,-5.17 -3.47,-3.41 -5.17,-7.59 -5.17,-12.41 0,-4.76 1.7,-8.88 5.05,-12.29 3.41,-3.35 7.59,-5.05 12.53,-5.05zm14.17 82.55l0 127c0,9.82 0.7,16.34 2.17,19.58 1.41,3.29 3.53,5.7 6.35,7.29 2.82,1.59 8,2.41 15.47,2.41l0 6.35 -76.56 0 0 -6.35c7.65,0 12.82,-0.76 15.41,-2.23 2.64,-1.47 4.7,-3.94 6.29,-7.35 1.53,-3.41 2.29,-10 2.29,-19.7l0 -61.03c0,-16.99 -0.53,-27.99 -1.53,-33.05 -0.82,-3.64 -2.05,-6.17 -3.82,-7.58 -1.7,-1.47 -4.06,-2.18 -7,-2.18 -3.23,0 -7.11,0.89 -11.7,2.59l-2.41 -6.35 47.45 -19.4 7.59 0z"/>
  </g>
  <rect class="fil6 str3" x="1000" y="999.99" width="19000" height="20258.45"/>
  <g id="_2977457088336">
   <path class="fil1 str1" d="M4268.24 19431.69l815.93 0 0 1592.89 -815.93 0 0 -1592.89z"/>
   <path class="fil7" d="M4616.34 19867.82c-0.92,3.32 -1.63,6.35 -2.07,9.15 -0.44,2.79 -0.65,5.18 -0.65,7.22 0,5.59 1.8,9.56 5.29,11.89 3.49,2.33 9.55,3.49 18.05,3.49l4.15 0 -4.96 22.72 -78.17 0 5.29 -22.72 2.89 0c7.36,0 12.82,-1.51 16.48,-4.54 3.6,-2.97 6.32,-8.39 8.12,-16.14l37.59 -153.79c0.6,-2.74 1.14,-5.54 1.52,-8.45 0.33,-2.91 0.55,-5.77 0.55,-8.62 0,-5.36 -1.96,-9.15 -5.95,-11.36 -3.92,-2.22 -10.69,-3.32 -20.23,-3.32l-3.06 0 5.29 -22.72 72.33 0 62.14 183.5 31.31 -129.03c1.08,-4.2 1.85,-7.63 2.34,-10.31 0.49,-2.68 0.71,-4.72 0.71,-6.06 0,-5.6 -1.8,-9.56 -5.35,-11.89 -3.6,-2.33 -9.71,-3.49 -18.32,-3.49l-4.15 0 4.96 -22.72 78.5 0 -5.62 22.72 -2.84 0c-7.37,0 -12.87,1.51 -16.47,4.54 -3.66,2.97 -6.33,8.33 -8.18,15.96l-50.68 208.44 -21.54 0 -72.06 -209.48 -37.21 155.01z"/>
   <path class="fil6 str4" d="M4677.03 20891.38l0 -769.27"/>
   <path class="fil6 str4" d="M4394.98 20615.33l563.14 0"/>
   <path class="fil6 str4" d="M4532.13 20755.32l294.22 -286.81"/>
   <path class="fil6 str4" d="M4528.99 20468.27l297.98 288.85"/>
   <path class="fil6 str4" d="M4676.89 20124.84l-95.47 118.01"/>
   <path class="fil6 str4" d="M4677.51 20124.8l87.89 118.05"/>
  </g>
  <g id="_2977457084240">
   <path class="fil1 str1" d="M8151.48 20550.88l0 473.7 -2309.37 0 0 -473.7 2309.37 0z"/>
   <path class="fil7" d="M6919.45 20889.35l0 -202.07 40.07 0 47.79 143.04c4.42,13.31 7.62,23.28 9.64,29.91 2.31,-7.33 5.93,-18.15 10.82,-32.4l48.64 -140.55 35.79 0 0 202.07 -25.68 0 0 -169.05 -58.98 169.05 -24.09 0 -58.32 -172.15 0 172.15 -25.68 0z"/>
   <path id="1" class="fil7" d="M7251.9 20841.94l25.68 3.38c-3.99,14.91 -11.47,26.53 -22.39,34.76 -10.91,8.24 -24.83,12.37 -41.81,12.37 -21.36,0 -38.29,-6.58 -50.8,-19.75 -12.51,-13.12 -18.77,-31.61 -18.77,-55.36 0,-24.56 6.31,-43.65 18.96,-57.2 12.65,-13.59 29.07,-20.37 49.25,-20.37 19.52,0 35.46,6.64 47.83,19.95 12.37,13.31 18.58,32.03 18.58,56.16 0,1.46 -0.05,3.67 -0.14,6.58l-109.08 0c0.94,16.04 5.46,28.37 13.64,36.88 8.14,8.51 18.35,12.79 30.53,12.79 9.08,0 16.84,-2.39 23.24,-7.19 6.44,-4.8 11.52,-12.47 15.28,-23zm-81.28 -39.8l81.56 0c-1.08,-12.32 -4.23,-21.54 -9.36,-27.7 -7.85,-9.55 -18.1,-14.35 -30.66,-14.35 -11.39,0 -20.93,3.81 -28.7,11.43 -7.71,7.62 -11.99,17.83 -12.84,30.62z"/>
   <path id="2" class="fil7" d="M7308.67 20889.35l0 -146.47 22.3 0 0 22.43c5.69,-10.39 10.96,-17.26 15.8,-20.55 4.85,-3.34 10.16,-4.99 15.95,-4.99 8.37,0 16.89,2.64 25.54,7.86l-8.84 22.91c-6.02,-3.39 -12.04,-5.08 -18.06,-5.08 -5.41,0 -10.26,1.64 -14.54,4.89 -4.28,3.24 -7.34,7.76 -9.17,13.54 -2.78,8.8 -4.14,18.44 -4.14,28.93l0 76.53 -24.84 0z"/>
   <path id="3" class="fil7" d="M7498.61 20835.73l24.27 3.38c-2.68,16.7 -9.45,29.73 -20.41,39.19 -10.96,9.45 -24.46,14.15 -40.41,14.15 -19.99,0 -36.08,-6.53 -48.21,-19.61 -12.18,-13.08 -18.25,-31.8 -18.25,-56.16 0,-15.81 2.63,-29.59 7.85,-41.44 5.22,-11.81 13.17,-20.7 23.9,-26.58 10.68,-5.92 22.29,-8.89 34.9,-8.89 15.85,0 28.88,4 38.95,12.04 10.11,8.05 16.6,19.48 19.42,34.25l-23.99 3.67c-2.3,-9.83 -6.35,-17.22 -12.23,-22.2 -5.83,-4.94 -12.88,-7.44 -21.16,-7.44 -12.51,0 -22.67,4.47 -30.53,13.41 -7.81,8.98 -11.71,23.09 -11.71,42.47 0,19.66 3.76,33.92 11.29,42.81 7.57,8.89 17.4,13.35 29.49,13.35 9.78,0 17.92,-2.96 24.41,-8.93 6.54,-5.93 10.68,-15.1 12.42,-27.47z"/>
   <path id="4" class="fil7" d="M7639.72 20871.01c-9.22,7.85 -18.11,13.35 -26.62,16.6 -8.52,3.25 -17.64,4.84 -27.43,4.84 -16.08,0 -28.45,-3.9 -37.11,-11.75 -8.65,-7.81 -12.98,-17.83 -12.98,-30.01 0,-7.15 1.65,-13.69 4.89,-19.62 3.29,-5.93 7.57,-10.63 12.84,-14.2 5.32,-3.58 11.24,-6.31 17.88,-8.14 4.89,-1.27 12.27,-2.49 22.1,-3.72 20.04,-2.35 34.86,-5.22 44.31,-8.51 0.1,-3.39 0.14,-5.55 0.14,-6.44 0,-10.07 -2.35,-17.17 -7.05,-21.31 -6.35,-5.6 -15.81,-8.37 -28.32,-8.37 -11.71,0 -20.36,2.07 -25.92,6.16 -5.59,4.09 -9.68,11.33 -12.37,21.78l-24.27 -3.39c2.21,-10.4 5.84,-18.82 10.92,-25.21 5.08,-6.4 12.41,-11.29 22.01,-14.77 9.55,-3.44 20.7,-5.18 33.3,-5.18 12.51,0 22.72,1.46 30.57,4.42 7.81,2.97 13.6,6.64 17.27,11.11 3.67,4.46 6.25,10.11 7.76,16.93 0.8,4.23 1.22,11.85 1.22,22.81l0 32.93c0,23 0.52,37.53 1.55,43.69 0.99,6.17 3.06,12.05 6.07,17.69l-25.96 0c-2.5,-5.22 -4.1,-11.34 -4.8,-18.34zm-1.98 -55.04c-9.03,3.67 -22.57,6.78 -40.64,9.32 -10.25,1.45 -17.49,3.1 -21.73,4.93 -4.23,1.84 -7.48,4.52 -9.78,8 -2.31,3.53 -3.48,7.43 -3.48,11.76 0,6.54 2.49,12.04 7.52,16.42 5.04,4.37 12.38,6.58 22.02,6.58 9.55,0 18.06,-2.07 25.54,-6.25 7.43,-4.14 12.93,-9.84 16.41,-17.03 2.69,-5.6 4,-13.83 4,-24.7l0.14 -9.03z"/>
   <path id="5" class="fil7" d="M7754.91 20867.2l3.39 21.91c-6.96,1.46 -13.22,2.22 -18.68,2.22 -8.98,0 -15.94,-1.42 -20.93,-4.28 -4.94,-2.87 -8.42,-6.59 -10.44,-11.25 -2.02,-4.65 -3.01,-14.44 -3.01,-29.35l0 -84.38 -18.34 0 0 -19.19 18.34 0 0 -36.22 24.84 -14.91 0 51.13 24.83 0 0 19.19 -24.83 0 0 85.79c0,7.11 0.42,11.67 1.31,13.69 0.85,2.02 2.26,3.62 4.24,4.85 1.97,1.17 4.79,1.78 8.46,1.78 2.73,0 6.35,-0.33 10.82,-0.98z"/>
   <path id="6" class="fil7" d="M7770.1 20816.11c0,-27.04 7.53,-47.08 22.63,-60.11 12.56,-10.82 27.94,-16.23 46.05,-16.23 20.08,0 36.54,6.59 49.34,19.76 12.75,13.12 19.14,31.33 19.14,54.51 0,18.82 -2.82,33.59 -8.46,44.36 -5.65,10.77 -13.88,19.14 -24.7,25.12 -10.77,5.97 -22.58,8.93 -35.32,8.93 -20.51,0 -37.07,-6.53 -49.72,-19.66 -12.65,-13.12 -18.96,-32.03 -18.96,-56.68zm25.4 0.05c0,18.72 4.1,32.74 12.28,42 8.23,9.32 18.53,13.97 31,13.97 12.32,0 22.57,-4.65 30.81,-14.01 8.18,-9.36 12.27,-23.61 12.27,-42.76 0,-18.06 -4.14,-31.75 -12.37,-41.01 -8.23,-9.32 -18.48,-13.97 -30.71,-13.97 -12.47,0 -22.77,4.61 -31,13.87 -8.18,9.27 -12.28,23.24 -12.28,41.91z"/>
   <path id="7" class="fil7" d="M7936.09 20889.35l0 -146.47 22.3 0 0 22.43c5.69,-10.39 10.96,-17.26 15.8,-20.55 4.85,-3.34 10.16,-4.99 15.95,-4.99 8.37,0 16.89,2.64 25.54,7.86l-8.84 22.91c-6.02,-3.39 -12.04,-5.08 -18.06,-5.08 -5.41,0 -10.26,1.64 -14.54,4.89 -4.28,3.24 -7.34,7.76 -9.17,13.54 -2.78,8.8 -4.14,18.44 -4.14,28.93l0 76.53 -24.84 0z"/>
   <circle class="fil8 str5" cx="6060.48" cy="20784.03" r="118.79"/>
   <rect class="fil8 str5" x="6518.41" y="20675.75" width="226.91" height="226.91"/>
   <path class="fil6 str6" d="M6234.38 20783.16l220.31 0"/>
   <path class="fil6 str6" d="M6452.03 20783.82l-64.02 65.38"/>
   <path class="fil6 str6" d="M6452.2 20782.68l-63.42 -61.39"/>
  </g>
 </g>
</svg>
