<?xml version="1.0" encoding="UTF-8"?>
<!DOCTYPE svg PUBLIC "-//W3C//DTD SVG 1.1//EN" "http://www.w3.org/Graphics/SVG/1.1/DTD/svg11.dtd">
<!-- Creator: CorelDRAW -->
<svg xmlns="http://www.w3.org/2000/svg" xml:space="preserve" width="210mm" height="297mm" version="1.1" style="shape-rendering:geometricPrecision; text-rendering:geometricPrecision; image-rendering:optimizeQuality; fill-rule:evenodd; clip-rule:evenodd"
viewBox="0 0 21000 29700"
 xmlns:xlink="http://www.w3.org/1999/xlink">
 <defs>
  <style type="text/css">
   <![CDATA[
    .str1 {stroke:black;stroke-width:10;stroke-miterlimit:3.864;stroke-opacity:0.501961}
    .str3 {stroke:black;stroke-width:50;stroke-miterlimit:22.9256}
    .str5 {stroke:#434242;stroke-width:10;stroke-miterlimit:22.9256}
    .str2 {stroke:#3F3E3F;stroke-width:10;stroke-miterlimit:3.864}
    .str0 {stroke:black;stroke-width:10;stroke-miterlimit:22.9256}
    .str6 {stroke:#2B2A29;stroke-width:7.62;stroke-miterlimit:22.9256}
    .str4 {stroke:black;stroke-width:7.62;stroke-miterlimit:22.9256}
    .fil6 {fill:none}
    .fil0 {fill:#FEFEFE}
    .fil8 {fill:#D9DADA}
    .fil4 {fill:#FEFEFE;fill-rule:nonzero}
    .fil3 {fill:#D9DADA;fill-rule:nonzero}
    .fil7 {fill:#434242;fill-rule:nonzero}
    .fil5 {fill:#2B2A29;fill-rule:nonzero}
    .fil2 {fill:black;fill-rule:nonzero}
    .fil1 {fill:#FEFEFE;fill-rule:nonzero;fill-opacity:0.501961}
   ]]>
  </style>
 </defs>
 <g id="Plan_x0020_1">
  <metadata id="CorelCorpID_0Corel-Layer"/>
  <rect class="fil0" x="1000" y="999.99" width="19000" height="22996.95"/>
  <path class="fil0 str0" d="M18014.09 23996.95c11.2,-2.8 0.25,2.96 8.53,-5.35 6.25,0 11.55,-1.42 17.07,-1.42 1.55,-3.11 6.84,-4.01 9.95,-7.13 12.26,0 65.8,-42.08 71.12,-52.73 14.25,-2.03 34.55,-28.17 46.94,-29.93 3.32,-4.99 13.49,-14.26 18.49,-15.68 21.11,-84.47 284.52,-69.84 348.46,-69.84 141.21,0 304.36,-65.43 439.5,-38.48l68.27 -1.42c2.07,1.03 2.72,1.42 4.98,1.42 4.1,2.05 9.72,4.5 14.22,4.99 2.86,1.82 3.79,2.56 7.11,2.85l2.85 2.14c21.25,5.31 32.71,55.4 32.71,74.11 0,16.32 1.03,29.69 -2.13,45.61 -3.17,16.01 -6.78,32.76 -10.67,48.46l-11.38 42.4 -1066.02 0zm-11505.1 -8407.25c-65.64,-196.62 -116.43,-467.37 -76.81,-674.14 9.91,-51.77 22.76,-105.53 22.76,-159.63 -2.81,0 -3.26,0.83 -5.69,1.43 -9.49,38.11 -83.02,128.79 -110.94,156.78 -53.35,53.5 -59.88,170.45 -91.03,238.01 0,77.19 -12.83,177.98 -44.09,247.99 -26.07,58.36 -27.02,107.72 -27.02,168.18 3.36,3.36 23.21,31.77 24.17,35.63 3.19,1.82 5.35,3.88 8.54,5.7 1.22,4.29 4.52,5.43 7.11,9.98 7.89,1.97 58.6,57.28 66.85,65.56 35.61,28.54 70.83,69.5 93.87,106.89 10.87,17.66 39.18,83.94 56.89,88.36 0,11.36 29.42,38.45 39.83,41.34 41.98,11.65 80.73,13.24 122.32,31.35 28,12.2 74.77,37.06 103.83,37.06 -4.19,-16.82 -28.96,-51.34 -39.83,-66.99 -12.54,-18.03 -17.66,-42.23 -28.44,-62.71 -18.62,-35.41 -42.78,-67.21 -61.16,-104.04 -8.73,-17.49 -44.98,-110.22 -58.32,-114.02l-2.84 -52.73zm31.29 381.96c-30.75,0 -59.15,-5.7 -88.19,-5.7 0,52.19 96.49,110.43 113.79,166.75 29.37,95.65 84.25,196.04 155.03,273.64 34.15,37.43 67.27,53.76 110.94,75.54 11.63,5.79 108.03,34.38 115.21,12.83 10.77,0 17.01,-10.44 24.18,-12.83l0 -2.85c23.11,-7.7 -12.07,-88.44 -17.07,-99.76 -24.43,-55.2 -75.99,-94.28 -105.25,-149.65 -12.4,-23.45 -59.26,-138.86 -79.65,-143.95 -0.9,-3.63 -4.67,-10.44 -8.53,-11.4 -0.79,-3.17 -3.48,-3.95 -4.27,-7.13 -37.67,-9.41 -88.72,-59.86 -133.7,-59.86l-82.49 -35.63zm189.17 -5521.43c2.81,-3.76 1.82,-12.85 0,-17.1 0,-47.91 -7.08,-95.89 -14.23,-142.53 -2.01,-13.17 -1.77,-32.13 -7.11,-44.18 0,-18.93 -6.24,-42.02 -9.96,-61.29l-35.55 -510.24 -17.07 -698.38c-1.49,-60.81 -5.24,-122.34 -75.38,-108.32 -3.68,5.16 -8.33,6.29 -9.96,12.83 -23.2,16.61 -44.05,168.91 -51.2,203.81 -12.93,63.02 -46.94,135.5 -46.94,199.54 7.36,36.91 -3.63,82.26 -14.22,118.29 -9.85,33.48 -31.1,77.62 -34.14,111.17 -5.23,6.75 -6.19,14.7 -11.38,21.38 -2.5,25.16 -21.3,49.5 -24.18,72.69 -22.53,28.32 -18.86,86.59 -29.86,119.72 7.89,46.21 -43.1,174.29 -58.32,223.77 -30.67,99.71 -26.92,200.64 27.02,292.18 20.11,34.14 49.36,79.36 76.81,106.89 16.18,16.22 79.59,81.24 99.56,84.09 4.03,8.09 67.09,47.46 76.81,49.88 12.31,12.34 19.77,15.76 31.29,25.66 14.22,12.21 37.3,58.88 52.62,62.71 0,10.53 44.1,46.66 54.05,58.44 7.33,8.66 14.78,16.21 21.34,25.65 2.31,3.34 15.21,22.67 15.64,22.81 0,-53.42 -14.22,-106.49 -14.22,-159.63l-1.42 -69.84zm211.92 3467.65c25.23,-67.53 -2.15,-165.83 17.07,-235.17 14.94,-53.87 2.85,-125.95 -8.54,-178.15 -21.22,-97.28 13.2,-361.8 86.77,-423.31 3.5,-28.17 40.46,-92.19 55.47,-118.29 6.56,-21.4 13.11,-64.66 25.6,-81.24 0,-21.14 17.06,-44.95 17.06,-69.84 15.23,-18.98 14.02,-94.03 15.65,-121.15 2.18,-36.42 28.42,-89.74 45.51,-123.99 11.3,-22.63 15.6,-66.52 28.45,-82.67 0,-53.81 15.55,-111.89 14.22,-169.6l-4.26 -185.29c-51.94,-207.31 -128.66,-437.89 -96.72,-655.62 6.93,-47.31 31.54,-116.1 21.33,-162.48 -7.25,-32.98 -73.36,-99.59 -103.82,-109.74 0,25.76 -29.3,78.34 -39.83,105.47 -14.29,36.85 -17.64,72.43 -19.91,112.59 -5.48,97.01 -38.54,200.35 -62.58,293.61 -15.99,62.01 -55.9,119.82 -78.23,179.58 -36.01,159.74 -119.63,299.2 -96.72,471.76 12.83,96.59 126.43,386.53 65.43,463.21 0,4.85 0.25,6.1 -2.85,9.98l1.43 84.09c15.75,84.31 5.69,169.98 5.69,255.12 0,64.94 -23.89,199.71 -49.79,257.97 0,44.2 -6.76,144.68 -24.18,183.86 0,39.6 -14.71,81.55 -19.91,121.14 -4.94,37.53 -2.1,117.66 -15.64,148.23 2.44,46.55 -21.34,101.82 -21.34,153.93 0,108.96 -31.22,216.77 -5.69,319.26 1.74,0.58 7.11,8.45 7.11,11.4 2.75,0.68 3.58,1.51 4.27,4.27 3.04,1.01 4.92,5.71 9.96,5.71 0.79,2.37 2.89,1.42 5.69,1.42 4.91,-14.74 35.82,-25.93 42.67,-47.03 6.19,-19.05 34.13,-41.3 36.98,-52.74 15.45,-3.86 56.89,-51.25 61.16,-68.41 6.53,-1.63 4.33,-11.07 11.37,-12.83 2.85,-20.02 35.83,-38.85 38.41,-57.01 3.77,-0.94 2.84,-1.98 2.84,-5.7 18.7,-9.35 18.21,-102.02 24.18,-124l5.69 -98.34zm3059.4 5256.35l52.78 241.35c0,28.6 16.72,101.99 36.82,122.09 53.09,0 77.76,-76.96 122.32,-76.96l2.85 2.85c0,71.14 -118.01,271.45 -35.56,314.98 107.21,56.62 221.95,110.04 305.8,199.54 48.91,52.19 -8.14,131.82 -41.25,183.86 -26.7,41.94 -71.89,122.5 -78.23,163.9 16.11,34.02 56.35,109.77 88.19,128.27 60.12,34.93 83.42,72.38 120.89,129.7 46.01,70.38 148.61,70.92 226.15,74.12 79.01,3.26 136.78,24.78 207.66,48.46 65.13,21.76 69.64,57.42 143.65,47.03 75.6,102.13 158.54,270.42 170.68,377.69 11.41,100.89 5.94,242.32 -11.38,340.64 -16.11,59.23 -16.19,118.58 -34.13,179.58 -11.24,38.2 -27.03,79.5 -27.03,119.72 0,60.08 43.98,189.3 79.65,238.02 95.99,131.14 240.9,267.34 372.65,366.29 28.41,21.33 88.74,47.7 109.52,68.41 79.9,0 50.78,-121.03 99.56,-166.75 55.65,-153.62 81.11,-17.09 163.56,-76.96 77.74,-56.44 148.29,172.84 250.33,62.71 49.76,-53.72 -32.42,-106.3 -52.62,-149.66 -37.17,-79.76 73.51,-49.88 100.98,-86.94 19.6,-26.46 60.98,-35.63 92.45,-35.63 0,-94.89 -116.6,-121.71 -25.6,-189.56 17.58,-13.1 29.93,-36.87 46.94,-51.31 24.59,-20.86 29.44,53.89 32.71,66.99 39.46,0 34.75,-96.78 62.58,-108.32 34.37,-14.26 21.99,108.46 22.76,128.27 5.05,128.74 0.59,179.54 113.78,255.13 33.21,22.18 31.39,67.7 32.25,100.74 22.44,25.66 44.1,53.85 74.43,63.16 63.17,19.38 115.77,36.78 173.52,76.96 115.16,80.12 307.07,103.87 406.78,203.82 40.4,40.5 63.3,117.58 118.05,139.67 86.21,34.79 27.21,79.73 81.07,135.4 49.07,50.72 105.55,63.51 167.84,105.47 43.19,29.09 101.46,-57.61 152.18,-24.23 62.18,40.93 43.6,67.25 122.32,47.03 3.85,-5.82 22.58,-17.41 25.61,-24.23 8.88,-19.96 18.81,-33.4 32.71,-51.3 45.01,-51.63 168.07,-205.73 162.14,-48.46 -2.63,69.77 -92.61,283.99 35.56,173.88 17.84,-197.03 120.58,-138.92 264.55,-158.21 191.34,-25.63 52.7,-126.19 17.07,-213.78 -26.14,-64.24 3.91,-150.8 -34.14,-210.94 -22.51,-35.56 -44.28,-59 -41.24,-105.47 2.99,-45.82 21.92,-72.67 29.86,-112.6l32.62 -26.72 45.32 6.25 0 0c-9.16,34.66 -15.73,70.31 -18.2,107.41 3.34,41.42 -2.84,89.04 -2.84,132.55 0,41.47 23.61,59.71 29.87,91.22 4.41,1.1 50.95,51.95 55.47,59.86 11.31,1.61 85.75,73.95 103.82,86.94 49.92,35.86 121.93,79.86 157.88,129.7l103.83 143.95c1.56,11.02 11.38,23.26 11.38,34.21 2.65,0.88 4.88,9.55 5.69,12.82 6.76,2.25 10.18,34.03 15.64,41.34 8.81,12.07 46.14,82.83 56.9,85.51 26.62,106.85 221.11,96.16 301.53,109.75l581.72 98.34c90.82,15.34 159.3,22.57 159.3,141.1 0,95.93 21.58,254.99 142.23,272.22l1.43 4.28c158.56,44.74 278.69,-187.46 402.51,-260.82 157.71,-93.45 281.79,-157.72 467.94,-131.13 49.43,99.56 52.35,132.03 19.91,252.28 -22.13,82 -61.15,154.69 -61.15,243.71 0,193.29 161.81,84.01 226.14,2.85 32.14,-40.56 94.76,-80.26 120.9,-11.4 26.83,70.71 46.8,87.09 105.25,131.13l133.7 50.95 -16739.58 0 0 -14484.54c30.38,4.84 61.09,9.98 92.81,9.98 2.63,1.96 1.97,1.42 5.69,1.42 2.64,1.98 1.96,1.43 5.69,1.43 2.41,1.8 5.56,2.43 8.54,2.85l4.26 4.27c25.82,3.68 78.87,44.32 108.1,55.59 73.7,28.41 352.37,35.69 412.47,-17.11 31.68,-3.95 225.86,-94.32 230.42,-112.59 74.66,-38.61 173.58,-153.87 221.88,-223.77 29.87,-43.24 65.93,-86.02 102.4,-122.57 13.8,-13.84 18.81,-35.11 36.98,-44.18 7.72,-3.86 38.08,-12.89 39.83,-19.96 3.27,-0.81 1.91,-2.07 4.27,-2.85 0,-22.94 12.8,-37.04 15.64,-57.01 2.13,-0.71 18.89,-27.6 19.91,-29.93 4.4,-9.95 21.32,-21.19 22.76,-31.35 28.49,-16.3 82.89,-114.3 105.25,-146.8 40.07,-58.27 84.28,-123.47 106.68,-190.99 22.31,-13.23 109.07,-197.7 79.64,-212.36 -5.57,-22.36 -56.89,-22.89 -56.89,-58.44 0,-58.19 16.61,-315.15 85.34,-324.96 14.18,-28.37 71.05,-39.06 92.45,-71.26 30.37,-45.67 82.69,-74.73 118.05,-118.3 42.95,-52.94 37.57,-126.33 71.12,-185.28 5.55,-13.7 18.77,-34.2 21.33,-47.03l2.85 -1.43c1.27,-2.56 2.3,-4.4 2.84,-7.12 2.66,-0.88 4.91,-11.14 8.54,-14.26 7,-56.24 33.42,-106.44 34.13,-171.03l7.11 -649.92c16.36,-65.54 4.27,-145.04 4.27,-213.78 0,-108.74 19.9,-228.2 4.27,-334.94 -12.65,-86.37 -27.03,-175.12 -17.07,-255.12 14.32,-14.37 24.51,-185.7 17.07,-198.11 22.16,-86.36 0.38,-302.6 -39.83,-376.27 -11.54,-21.14 -12.23,-50.2 -25.6,-71.26 -20.59,-32.4 38.3,-40.38 17.07,-71.27 -9.82,-14.28 -40.39,-48.45 -59.74,-48.45 0,22.26 8.75,56.43 14.23,78.38 -11.12,-3.69 -81.87,-83.19 -99.57,-99.76 -49.15,-45.98 -112.67,-105.13 -183.48,-65.57 -38.61,21.58 -80.24,34.91 -119.47,51.31 -41.42,17.31 -111.76,67.6 -152.19,71.27 -52.83,6.2 -100.37,46.71 -145.07,71.26 -68.66,37.72 -204.47,37.06 -283.04,37.06 -163.7,0 -312.26,-73.91 -477.9,-48.46 -110.56,16.98 -210.94,22.8 -321.44,22.8 10.38,-31.16 98.14,-13.54 98.14,-76.96 0,-83.96 32.71,-169.36 32.71,-249.42 30.56,-63.33 22.76,-164.56 35.56,-235.17 20.84,-114.99 21.83,-251.45 24.18,-370.57l8.53 -431.85c-1.86,-3.12 -1.42,-4.8 -1.42,-8.55l89.6 -380.55c16.38,-69.57 18.18,-135.79 31.29,-203.81 3.33,-17.27 -36.97,-84.57 -48.35,-88.36 0,-14.73 44.1,-110.21 54.04,-131.13l85.34 -179.58c46.54,-71.16 82.45,-152.6 128.01,-225.19 64,-101.94 142.44,-192.04 238.95,-260.82 38.58,-27.5 67.66,-65.73 103.83,-92.64 22.74,-16.93 69.33,-76.94 92.45,-79.82 3.6,-5.42 20,-11.4 27.02,-11.4 9.58,-27.21 19.34,-113.9 54.05,-122.57 6.64,-9.34 14.52,-10.49 22.76,-17.11 5.67,0 19.77,-5.02 24.18,-8.55 29.1,0 76.68,-40.75 99.56,-57.01 50.19,-35.69 135.04,-68.08 192.01,-94.06l268.82 -122.58 130.85 28.51c48.39,10.53 118.54,13.79 162.15,35.63 198.5,16.99 412.93,68.85 541.9,238.02 84.41,110.71 214.77,207 214.77,356.31 57.71,0 107.07,102.5 137.96,145.38 23.03,31.95 14.8,60.25 32.71,88.36 17.77,27.87 62.98,81.46 66.85,112.6 80.68,192.9 294.83,282.09 349.89,503.12 2.16,0.54 9.55,5.88 9.96,7.12 8.28,0 14.63,-1.42 22.76,-1.42 13.9,-20.95 104.57,57.92 119.47,69.83 165.98,132.58 342.07,157.88 527.68,250.85 42.02,17.1 125.92,11.71 156.45,38.48 81.07,7.36 195.33,48.63 273.09,76.97 55.87,78.37 86.98,97.2 182.05,111.17 131.51,19.32 209.59,111.24 332.82,168.18 123.78,57.2 286.67,15.25 419.59,34.2 22.35,26.88 240.54,72.69 284.46,72.69 265.59,0 401.91,8.22 490.7,-259.4 0,90.82 -49.78,160.23 -49.78,245.15 0,122.33 185.68,230.53 265.97,302.15 -0.12,-0.5 65.06,57.63 100.98,78.39 44.03,25.46 102.42,54.62 155.04,57.01 87.17,3.95 165.89,-25.71 216.19,52.74 63.59,99.2 87.64,218.75 115.21,329.23 25.25,101.15 2.45,172.59 -103.83,193.84 -33.11,66.23 -164.08,124.32 -229,161.05 -87.54,49.52 -175.06,72.55 -250.32,148.23 -16.97,11.53 -47.01,31.16 -58.32,47.03 -13.17,2.63 -59.67,68.7 -66.85,81.24 -18.03,4.5 -30.32,14.25 -52.62,14.25 -57.57,46.22 -115.25,111.59 -159.3,171.03 -32.28,43.57 -150.77,174.66 -150.77,225.2 -34.14,42.67 -70.78,119.95 -99.56,169.6 -26.76,46.14 -92.45,140.9 -96.72,192.41 -32.54,42.93 -62.9,96.16 -88.18,142.53 -16.25,29.83 -62.69,113.46 -85.34,129.7 -3.73,29.94 -33.27,78.84 -41.25,115.44 -14.01,64.17 23.45,140.65 11.38,209.51 -11.52,65.77 -3.18,135.85 -54.04,186.71l4.26 124c1.61,46.72 32.72,80.28 32.72,128.27 4.37,22.68 1.42,42.19 1.42,64.14 -2.69,0.89 -1.42,17.7 -1.42,21.38 0,45.81 -5.69,92.71 -5.69,139.67l0 143.96 4.26 183.85c0.76,32.99 5.37,115.9 -5.69,145.38l0 39.91c-5.18,13.87 1.17,32.25 -2.84,47.03l0 92.64c4.42,16.3 2.84,42.83 2.84,59.86 2.78,10.2 1.43,22.08 1.43,32.78l-38.41 279.35c-12.5,90.95 -59.73,188.38 -59.73,277.93 -17.5,23.36 -32.15,132.58 -41.25,168.18 -12.04,47.06 -32.71,114.69 -32.71,162.48 -22.15,33.25 -31.23,123.03 -34.14,163.9 -25.82,55.25 -28.77,135.85 -42.67,196.69l-73.96 323.53c-21.73,95.07 11.38,176.11 11.38,266.53 46.6,46.6 63.76,114.66 122.32,158.2l182.05 135.4c16.66,39.8 85.15,76.1 95.3,116.87 91.86,65.98 96.24,244.7 120.9,349.19l49.78 210.94c16.92,71.68 -28.45,104.21 -28.45,172.45 7.19,74.66 9.69,285.6 -41.25,336.36 -3.03,21.38 -33.12,45.03 -35.55,66.99 -26.4,30.22 -47.31,99.28 -56.9,138.25 -18.72,76.07 -50.75,112.7 -49.78,196.69l2.85 247.99c-3.21,19.95 1.42,36.09 1.42,55.59 7.35,12.25 5.69,43.19 5.69,58.43 17.37,29.12 -8.54,196.37 -8.54,243.72 11.48,19.16 12.7,141.11 14.23,169.61l12.8 238.02 -4.27 96.91c-1.78,40.72 -34.5,75.2 -36.98,112.6l-2.84 66.99c-9.03,14.98 -15.65,107.54 -15.65,128.27 -6.49,10.81 -9.95,56.87 -9.95,71.26 -43.36,72.33 -26.33,288.07 -35.56,376.27l-21.34 203.81c-4.83,46.23 -13.54,192.34 -39.82,225.19l-14.22 89.79c-24.02,24.08 -44.96,75.54 -59.74,106.9 -22.58,47.94 -54.28,94.69 -66.85,145.37 -10.87,43.87 -15.64,98.06 -34.14,139.68 -1.56,1.78 -15.11,21.12 -18.49,22.8 -5.02,20.17 -31.06,58.12 -39.82,81.24 -47.55,125.52 -59.62,261.31 -91.03,393.37 -27.74,116.6 -1.14,233.03 -21.33,347.75 -31.96,66.14 -135.68,86.1 -189.17,139.68 -79.61,79.72 -162.15,193.32 -162.15,310.7 0,91.25 73.69,166.51 103.83,242.29 3.16,0.78 2.85,1.15 2.85,4.27l2.84 1.43c29.8,-29.91 -60.17,-152.68 -66.85,-185.28 -64.58,-315.27 312.09,-339.86 352.74,-584.35l2.84 0c3.49,-10.47 40.3,30.8 45.52,35.63 85.55,79.05 125.96,120.33 180.63,223.76 65.24,123.4 101.21,264.36 193.43,380.54 50.79,64 83.37,128.25 146.5,179.58 27.05,22 55.39,44.95 91.03,49.88 15.22,2.11 98.12,-1.57 100.99,9.98 28.91,-5.6 56.44,-29.74 81.07,-25.65 1.77,7.11 22.52,16.22 25.6,27.08 18.06,5.16 61.85,63.65 76.8,79.81 20.46,22.14 46.65,33.9 68.28,55.58 14.01,14.03 21.72,30.44 36.98,42.76 15.43,12.44 37.31,35.19 44.09,52.73 8.49,21.99 1.42,34.7 1.42,54.16 -3.09,1.03 -4.71,15.53 0,17.1l0 2.86c1.67,0.55 2.28,3.45 2.84,5.7 2.78,0.92 0.09,0.5 2.85,1.42l1.42 1.43c14.23,55.25 113.79,116.65 113.79,172.45 0,32.31 72.18,63.48 92.45,92.64 18.41,26.5 36.1,-69.5 4.26,-78.39 -57.8,-16.13 -67.5,-32.12 -103.83,-72.68 -15.7,-17.52 -63.29,-131.84 -65.42,-132.55 19.92,0 52.01,30.04 66.85,42.76 37.13,31.85 97.1,53.03 139.38,84.08 67.09,49.29 133.92,90.12 209.08,125.43 37.8,17.75 68.98,29.98 106.68,51.3 34.67,19.62 69.07,47.78 105.25,68.41 37,20.58 80.98,51.71 119.47,61.33 1.84,3.69 8.71,7.53 12.8,8.55 0.8,4.84 7.24,7.59 8.54,12.83 2.3,0.76 2.2,3.41 5.69,4.28 0.83,2.49 3.43,1.78 4.26,4.27 29.59,0 55.81,32.09 78.23,49.89 54.99,43.63 137.37,58.98 199.13,108.32 65.58,52.38 186.31,140.72 268.81,145.37l201.97 11.4c32.3,1.81 179.67,8.92 196.28,21.38 138.66,3.95 240.91,56.34 354.16,121.15 1.03,7.25 13.81,19.79 17.06,28.5 4.51,1.12 4.1,7.76 8.54,9.98l55.47 131.13c25.69,60.72 42.67,204.67 42.67,273.64 0,59.79 -2.29,119.68 7.11,178.16 8.54,53.2 39.82,126.54 39.82,176.73 2.02,71.23 74.42,293.69 136.55,329.24 7.73,31.05 64.41,61.64 68.27,92.64 30.44,21.86 76.69,80.62 103.83,111.17 29.26,32.92 104.75,66.94 123.74,95.49l0 0zm-1822.46 -13527.41c-13.13,10.83 -25.27,23.25 -33.66,31.64 -13.84,7.16 -35.96,31.73 -48.36,34.21 -43.15,75.83 -265.54,78.28 -344.2,111.17 -99.66,41.66 -210.24,51.41 -312.91,81.24 -272.12,79.09 -307.6,532.3 -452.3,725.46 -38.32,123.07 -83.06,248.39 -83.91,381.97l-2.85 444.68c1.91,0.63 2.26,1.88 2.85,4.27l51.2 -1.42c0,17.14 -42.08,46.08 -45.51,71.26l-14.23 104.04 0 17.11c-16.87,45.14 -13.61,103.69 -24.18,151.07 -31.59,141.65 -36.49,344.2 29.87,477.47 6.39,70.56 44.09,147.12 44.09,218.06l1.43 5.7c15.3,81.93 -24.62,253.14 71.11,285.05 0,2.74 -0.87,3.52 1.43,4.28 0,53.07 -79.87,89.03 -61.16,163.9 71.85,17.96 -1.43,110.03 -1.43,163.91 0,46.46 28.27,88.88 29.87,136.82l4.27 128.28c2.08,0.69 18.27,16.21 18.49,17.1 3.27,0.81 1.91,2.07 4.27,2.85 0,3.56 0.61,1.82 1.42,4.28 -47.43,11.85 -54.05,62.64 -54.05,104.04l5.69 300.73c13.61,3.4 14.22,90.25 14.22,106.89 0,42.55 10.89,66.49 19.92,102.62 3.94,0.98 7.14,4.65 11.37,5.7 6.27,25.17 -12.41,59.09 -24.18,82.67 -14.56,29.18 -39.11,33.11 -35.55,68.41 10.29,102 39.82,202.93 39.82,306.43 -5.75,61.61 18.49,125.3 18.49,188.13 0,51.43 -1.77,138.29 27.03,178.16 43.24,59.83 96.69,38.51 159.29,54.16 -1.09,3.28 -5.98,5.74 -7.11,11.4 -52.79,13.19 31.99,227.91 49.78,259.4 41.2,72.95 90.78,246.63 76.81,330.66 -2.13,22.12 -11.38,44 -11.38,65.56 -2.2,3.69 -1.42,8.3 -1.42,12.83 -22.16,37.05 -10.08,169.83 -11.38,216.64l-5.69 203.81c-2.44,87.85 22.76,171.33 22.76,262.25 0,99.05 -41.01,188.3 -46.94,283.62 -28.52,81.02 -66.29,184.99 -76.8,269.38 -11.52,9.57 -45.38,102.06 -54.05,122.57 -11.55,27.35 -41.46,101.12 -65.43,118.3 -5.49,22.07 -25.35,46.42 -28.44,71.26 -31.32,27.46 -45.2,140.26 -55.47,182.43 -18.31,75.11 11.43,160 5.68,236.6 -24.04,46.58 -14.22,163.6 -14.22,218.06 0,108.92 -7.49,233.86 -21.33,340.64 -6.12,47.2 -41.51,71.75 -66.85,108.32 -10.37,14.95 -81.33,94.39 -93.88,99.76 -0.61,4.36 -52.88,63.77 -55.47,64.14 -0.58,4.14 -9.44,15.43 -12.8,17.1 -3.42,13.74 -56.26,44.28 -66.84,57.01 -2.4,7.46 -14.05,39.13 -21.34,42.77l-59.74 427.57 -15.64 310.7c-1.98,39.55 10.2,94.76 24.18,131.12 12.12,31.55 40.66,98.69 44.09,129.7 7.87,39.48 18.11,75.38 29.33,110.37l0 0 76.63 6.51c84.21,-7.13 178.7,-68.41 256.73,-68.41 23.48,93.92 106.32,63.04 176.37,37.05 59.87,-22.22 86.4,24.59 142.23,38.49 0,35.18 -32.16,90.2 22.75,111.17 52.08,19.88 24.43,51.31 89.61,51.31 28.57,0 60.18,161.51 99.56,198.11 16.76,15.59 61.8,24.23 83.92,24.23 64.88,0 41.81,112.79 115.21,54.16 12.83,-10.25 167.4,49.26 179.21,68.41 34.07,55.21 104.59,95.83 122.32,166.75 54.51,0 127.27,-105.47 174.94,-105.47 14.73,-29.52 66.72,-112.63 96.72,-92.64 24.33,16.22 117.9,86.94 139.39,86.94 7.85,-31.43 73.85,-202.36 99.56,-215.21 3.75,-15.05 64.13,10.56 73.96,14.25l211.92 79.82 93.88 35.63c8.64,3.27 67.47,12.44 68.27,15.67 6.06,1.01 0.2,0.08 4.26,1.43 1.01,4.08 2.85,5.1 2.85,9.98 33.85,22.57 -30.03,118.83 -35.56,141.1 -26.57,107.06 -153.51,156.81 -226.15,240.87 -49.71,57.51 -214.86,150.57 -52.62,190.98 0,4 1.42,4.99 1.42,8.55 -87.2,29.06 -73.96,119.25 -73.96,186.71 5.82,4.39 22.09,-2.85 29.87,-2.85 13.08,39.43 31.91,39.19 64,49.88 61.87,-16.37 143.96,8.26 130.85,89.8 -15.24,94.83 52.86,95.66 118.06,65.56 93.72,-43.26 268.25,-53.35 253.17,-192.41 -5.34,-49.25 61.16,-255.52 93.87,-250.85 19.18,30.79 140.77,136.4 167.83,81.24 10.63,-21.69 -5.2,-63.92 35.56,-54.16 37.91,9.07 65.68,-1.44 86.76,-38.48 25.12,-5.01 36,35.07 49.78,52.73 38.92,49.86 98.32,-7.5 145.08,68.42 34.01,55.2 154.06,221.51 216.19,229.46 65.86,8.42 90.7,-35.41 136.54,27.08 52.65,71.79 -5.86,69.13 12.8,143.95 52.39,58.81 60.79,44.18 85.34,124 7.05,22.91 26.2,103.36 41.25,116.87 9.9,8.9 68.91,-8.78 96.72,2.85 60.77,25.4 139.47,-127.81 192.01,-81.24 22.42,19.86 14.3,161.31 81.07,111.17 45.44,-34.13 49.55,-89.61 110.94,-104.04 79.37,-18.67 147.47,-55.52 199.13,-121.15 18.97,-24.09 119.31,-109.1 140.81,-118.29 21.03,15.77 39.4,67.94 65.42,94.06 33.07,33.18 -25.6,93.97 -19.91,139.68 22.3,12.74 68.43,109.1 89.61,94.07 91.35,-64.82 120.8,-131.58 173.52,-220.92 20.65,-34.98 177.55,43.46 224.72,51.31 31.78,8.19 95.91,-13.28 115.21,-1.42 15.36,9.45 -1.96,133.41 41.25,176.73 16.57,16.6 54.56,19.96 62.58,44.18 16.33,49.25 38.55,65.17 82.49,96.92 22.85,16.51 80.29,-37.12 86.23,-6.37 4.66,-0.91 9.14,-0.77 13.34,0.67 25.04,8.63 -31.59,96 -36.98,122.57 -15.62,76.88 -7.88,228.87 95.29,125.42 81.24,-81.46 124.92,65.76 200.55,54.16 95.32,-14.63 78.49,-102.56 166.41,-14.25 36.43,36.59 244.06,238.07 290.15,196.68 36.18,-32.49 -24.16,-80.8 1.42,-112.59 15.78,-19.61 58.36,9.92 88.19,-19.95 45.76,-45.83 84.49,-79.58 123.74,4.27 8.28,17.68 70.94,104.77 73.96,34.21 0.6,-14.18 -5.61,-116.73 28.44,-79.82 51.6,55.94 47.03,87.77 92.45,1.43 35.86,-68.17 32.2,59.81 38.41,75.54 2.85,7.24 9.81,14.2 18.49,12.82 20.79,-3.31 94.51,-65.16 110.94,-38.48 7.71,12.52 28.78,56.89 49.78,49.89 14.23,-4.74 23.48,-71.71 28.44,-86.94 9.38,-28.77 61.88,46.72 76.81,51.31 19.75,6.08 36.71,8.46 42.67,-12.83 4.57,-16.36 -2.81,-34.88 0,-51.31 2.02,-11.83 0.8,-27.32 9.96,-32.78 22.49,-13.42 44.3,70.39 76.8,74.11 38.65,4.42 38.68,-44.36 73.96,-52.73 42.75,-10.15 73.94,25.63 122.32,1.42 12.77,-6.38 45.74,-28.18 56.89,-9.98 10.2,16.65 -13.43,32.85 -28.44,42.76 -127.08,83.92 97.13,104.27 109.51,135.4 3.34,8.42 36.88,18.82 49.78,22.81 43.96,13.59 60.05,-11.76 79.65,39.9 20.82,54.88 36.98,131.44 36.98,190.99 0,31.83 0,63.66 0,95.49 0,36.21 52,18.04 73.96,35.63 22.61,18.11 -2.42,52.23 8.54,76.97 11.44,25.84 58.75,61.77 86.76,66.98 88.59,16.49 58.47,40.91 105.25,104.05 18.07,24.4 18.93,76.55 45.52,92.64 46.67,28.25 62.57,-29.3 83.91,0 36.49,50.1 -25.55,181.06 35.56,226.61 30.2,22.51 155.49,-60.18 186.32,-74.11 34.01,-15.37 110.34,9.61 156.46,0 53.53,-11.16 66.48,-18.27 115.2,5.7 59.01,29.04 159.82,-52.61 244.64,-41.33 6.04,0.8 11.78,2.06 20.26,2.26 17.05,-10.62 29.78,-21.72 40.9,-35.04 48.41,-57.94 97.91,-211.3 156.46,-79.82 23.77,53.36 64.09,186.63 128.01,173.89 51.29,-61.31 68.26,-147.92 120.89,-213.79 79.56,-99.6 52.63,-79.22 52.63,-200.96 30.63,-30.74 105.56,-30.27 147.92,-72.69 72.16,-72.24 187.04,-117.81 268.82,-179.59 71.23,-53.8 94.11,10.58 149.34,59.87 38.85,34.68 97.2,46.58 143.65,68.41 101.4,47.68 57.98,87.61 105.25,182.43 40,80.22 146.31,138.27 179.21,210.94 43.1,19.59 110.72,145.17 140.81,186.71 84.48,45.31 279.46,187.04 113.79,256.54 -76.4,32.04 -259.36,41.69 -298.69,108.32 -49.46,83.81 -126.9,85.05 -216.19,96.92 -60.01,7.98 -109.52,10.34 -145.07,65.56 -48.67,75.62 113.08,130.45 164.98,162.48 69.49,42.87 45.53,162.05 91.03,188.14 2.8,19.66 15.65,33.84 15.65,58.43 -13.33,47.51 -2.97,179.33 72.54,143.95 30.1,-14.11 35.24,7.54 59.73,2.85 29.02,-5.57 45.52,-31.35 78.23,-31.35 37.84,0 79.35,27.92 123.74,29.93 53.66,2.42 16.48,130.52 76.81,149.65 46.37,14.71 126.24,-71.26 173.52,-71.26l2.84 2.85c0,29.47 33.51,77.87 -7.11,91.22 -62.82,20.66 -74.47,39.75 -123.74,76.96 -35.07,26.5 -93.35,30.97 -133.7,51.31l-220.46 111.17c-48.83,24.62 -139.71,138.66 -48.35,158.2 68.17,14.57 51.98,54.41 25.6,102.62 -20.88,38.14 -7.22,139.6 -7.34,133.98 3.34,16.07 3.07,29.34 3.07,45.6 -16.74,22.4 -14.77,175.2 -9.96,205.24 23.6,147.45 -60.72,361.97 91.03,467.49 81.98,57.01 62.66,93.23 98.14,173.88 15.1,34.34 48.85,28.97 71.12,52.73 21.67,23.14 44,64.18 55.47,94.07 8.22,21.3 11.05,57.34 -5.69,74.11 -4.88,39.18 -100.74,76.13 -106.68,153.93 -9.52,124.79 -159.47,177.43 -261.7,216.64 -66.8,25.63 -128.16,39.58 -184.9,85.51 -26.41,21.39 -30.07,59.21 -55.47,78.39 -22.83,17.25 -57.53,8.21 -83.92,19.96 -25.24,50.66 47.03,223.06 -31.29,226.61 -48.06,2.18 -71.32,-28.17 -113.78,-32.78 -53.83,-5.84 -31.24,47.15 -36.98,79.82l-2.85 182.43c-3.25,34.84 -14.67,139.87 -71.12,124 -41.48,-11.67 -57.42,50.47 -99.56,32.78 -31.38,-13.18 -115.26,-132.56 -135.12,-37.06 -12.96,62.28 -75.65,17.1 -115.2,17.1 -13.21,10.58 -18.89,53.57 -27.64,65.25l0 0c51.43,9.42 98.38,22 125.78,40.22 57.73,13.07 383.79,53.19 391.13,82.67 72.62,18.15 7.02,493.24 254.6,354.89 49.28,-27.54 92.55,-93.7 129.43,-136.83 121.65,-142.22 322.44,-246.57 512.03,-246.57 122.77,-23.78 196.28,40.53 196.28,163.91 0,132.12 -127.88,262.12 -91.03,401.92 26.62,101.02 125.55,-5.78 159.3,-47.03 24.37,-29.77 158.68,-95.78 169.26,-21.38l122.31 115.44c59.43,56.08 235.51,80.83 315.76,68.42 94.75,-14.66 102.96,-37.1 169.25,-98.35 25.15,-23.25 50.4,-57.88 81.08,-74.11 12.16,-6.44 89.51,-35.96 92.45,-27.08 144.92,-8.57 308.83,20.62 452.29,-7.13 107.03,-20.71 234.78,-42.67 342.78,-15.67 1.52,3.04 13.26,10.92 17.07,15.67 3.41,0.85 6.48,5.14 9.95,7.13 3.7,14.87 24.18,23.49 24.18,44.18 0,56.79 11.21,105.54 -11.38,158.21l-12.8 21.02 882.65 0 0.01 -22996.95 -13184.25 0c8.24,12.12 10.45,30.57 18.49,40.68 1.13,9.13 15.8,45.78 21.33,52.73 6,48.18 43.6,118.46 66.85,162.48 44.92,85.01 69.11,185.32 103.83,276.5 37.08,97.39 103.23,183.75 147.92,277.92 23.31,74.81 52.55,145.37 82.5,218.07l78.37 190.22 0 0 29.01 -9.93c79.86,28.47 196.77,75.14 266.68,4.99l4.27 0c18.75,-37.5 245.41,43.94 278.78,54.16 131.26,40.19 282.18,85.37 402.51,149.65 63.64,28.87 179.86,21.43 228.99,59.87 113.06,10.26 207.17,188.83 300.11,198.11 77.64,62.11 378.36,-302.84 428.12,-349.19 150.14,-139.82 382.92,-67.48 556.12,-54.16 66.58,38.09 145.95,21.09 211.93,54.16 21.02,63.22 -61.78,188.26 -109.52,229.46 -49.91,43.09 -68.63,125.4 -110.94,159.63 -204.18,165.23 -331.24,337.45 -361.27,608.59 -7.75,80.41 48.09,204.65 83.92,276.5 62.98,126.33 73.35,272.29 127.62,398.65 10.04,8.11 19.24,19.13 27.41,31.78 43.72,67.63 106.03,36.52 139.39,14.25 25.43,-16.97 83.29,6.1 122.32,-11.4 13.22,-5.93 26.45,-11.86 39.67,-17.79 -66.15,100.75 -44.03,209.35 -58.16,322.79 25.88,39.63 27.02,140.39 27.02,189.56 0,67.4 -65.28,-57.01 -79.65,-57.01 -19.79,79.45 26.14,176.63 -51.2,238.02 -52.51,41.67 -34.56,128.86 -25.61,189.56 8.01,54.27 1.59,111.72 11.38,165.33 11.18,61.28 96.36,80.31 112.37,156.78 5.32,25.41 1.9,73.88 25.6,91.21 18,13.17 65.37,-16.81 92.45,-11.4 0.88,6.2 5.69,9.55 5.69,17.1 20.66,42.83 -1.17,74.46 -27.03,105.47 0,55.17 70.96,85.28 14.23,145.38 -26.46,28.04 -117.56,95.03 -153.61,104.04 -45.14,63.27 -111.12,68 -115.21,162.48 -4.64,107.2 -267.71,62.94 -221.88,145.38 27.43,49.33 79.84,76.74 19.91,132.55 -29.62,27.59 -63.08,76.12 -85.34,111.17l-192.01 116.87c-63.46,38.62 -63.51,69.47 -54.05,133.97 20.79,141.82 -90.35,94.21 -167.83,58.44 -75.06,-34.64 -133.98,-29.93 -214.77,-29.93l-4.27 -4.28c0,-77.89 22.82,-117.75 -19.91,-192.41 -19.55,-34.18 -83.32,-92.38 -126.59,-65.56 -57.96,35.91 6.08,140.92 -58.07,199.55 -14.8,13.53 -22.21,40.67 -55.71,45.6 -9.91,1.46 -21.69,10.37 -35.5,11.31 -23.06,1.56 -49.69,-6.71 -66.91,-18.44 -27.3,-18.6 -23.44,-82.39 -38.4,-84.09 -52.98,-6.02 -78.89,41.46 -99.56,-42.76 -11.46,-46.74 85.48,-135.3 99.56,-198.11 16.22,-72.31 48.04,-155.51 -21.34,-205.24l-259.33 -302.44 0 0z"/>
  <path class="fil0 str0" d="M14618.73 22168.18c42.89,-162.35 142.52,-303.29 142.52,-471.24 0,-73.65 -28.8,-74.63 -62.58,-125.42 -30.85,-3.85 -79.1,-32.48 -113.78,-41.34 -41.68,-10.66 -78.7,-9.97 -122.32,-9.97 -90.62,0 -178.18,22.52 -268.82,31.35 -2.71,-8.14 -72.1,-21.97 -86.76,-35.63 -21.2,-19.74 -46.09,-31.89 -66.85,-52.73 -17.73,-17.79 -77.82,-109.69 -81.07,-132.55 -55.35,-31.68 -37.06,-69.56 -122.32,-75.54 -54.85,-3.85 -113.95,8.85 -166.41,-4.28 -120.96,-30.27 -226.03,-96.76 -321.44,-175.3 -60.21,-49.55 -102.96,-103.88 -174.95,-142.53 -5.79,-23.17 -105.48,-84.78 -129.43,-98.34 -51.67,-29.28 -113.45,-42.42 -170.68,-54.16 -34.49,-7.08 -75.33,-7.59 -108.09,-18.53 -32.29,-10.77 -116.75,-33.96 -136.55,-62.71 -8.97,-13.01 -50.94,-52.32 -52.62,-64.14 -15.45,-8.81 -18.67,-37.16 -32.71,-44.18 -5.82,-40.94 -71.85,-83.65 -85.34,-129.7 -12.72,-140.46 -174.71,-154.71 -213.35,-263.67 -32.62,-91.96 -122.7,-144.24 -169.26,-235.17l-83.91 -163.9c-21.62,-42.22 -27.54,-15.68 -62.58,-15.68 0,19.68 5.35,45.69 8.53,58.43 13.18,0 40.15,3.39 42.67,9.98 4.05,10.56 31.11,48.46 42.67,48.46 -4.57,13.71 -50.93,34.22 -66.85,41.33 -31.09,13.87 -10.55,43.39 -4.27,69.84 15.46,65.18 52.97,133.74 76.81,196.68 16.02,42.28 -2.05,60.05 -46.94,71.27 -12.44,-37.52 -39.51,-75.62 -56.89,-115.45 -6.87,-55.23 -104.1,-360.37 -150.77,-371.99 -8.19,-14.4 -41.15,-25.34 -55.47,-34.21 -28.29,-17.54 -20.48,-33.48 -36.98,-52.73 0,-138.44 -376.99,-221.21 -477.89,-226.62 -171.47,-9.19 -390.38,-43.98 -536.22,-129.7 -49.04,-49.04 -228.29,-117.33 -297.26,-122.57l-318.6 -24.23c-25.89,-1.96 -30.71,-24.16 -51.2,-27.08l0 0 52.78 241.35c0,28.6 16.72,101.99 36.82,122.09 53.09,0 77.76,-76.96 122.32,-76.96l2.85 2.85c0,71.14 -118.01,271.45 -35.56,314.98 107.21,56.62 221.95,110.04 305.8,199.54 48.91,52.19 -8.14,131.82 -41.25,183.86 -26.7,41.94 -71.89,122.5 -78.23,163.9 16.11,34.02 56.35,109.77 88.19,128.27 60.12,34.93 83.42,72.38 120.89,129.7 46.01,70.38 148.61,70.92 226.15,74.12 79.01,3.26 136.78,24.78 207.66,48.46 65.13,21.76 69.64,57.42 143.65,47.03 75.6,102.13 158.54,270.42 170.68,377.69 11.41,100.89 5.94,242.32 -11.38,340.64 -16.11,59.23 -16.19,118.58 -34.13,179.58 -11.24,38.2 -27.03,79.5 -27.03,119.72 0,60.08 43.98,189.3 79.65,238.02 95.99,131.14 240.9,267.34 372.65,366.29 28.41,21.33 88.74,47.7 109.52,68.41 79.9,0 50.78,-121.03 99.56,-166.75 55.65,-153.62 81.11,-17.09 163.56,-76.96 77.74,-56.44 148.29,172.84 250.33,62.71 49.76,-53.72 -32.42,-106.3 -52.62,-149.66 -37.17,-79.76 73.51,-49.88 100.98,-86.94 19.6,-26.46 60.98,-35.63 92.45,-35.63 0,-94.89 -116.6,-121.71 -25.6,-189.56 17.58,-13.1 29.93,-36.87 46.94,-51.31 24.59,-20.86 29.44,53.89 32.71,66.99 39.46,0 34.75,-96.78 62.58,-108.32 34.37,-14.26 21.99,108.46 22.76,128.27 5.05,128.74 0.59,179.54 113.78,255.13 33.21,22.18 31.39,67.7 32.25,100.74 22.44,25.66 44.1,53.85 74.43,63.16 63.17,19.38 115.77,36.78 173.52,76.96 115.16,80.12 307.07,103.87 406.78,203.82 40.4,40.5 63.3,117.58 118.05,139.67 86.21,34.79 27.21,79.73 81.07,135.4 49.07,50.72 105.55,63.51 167.84,105.47 43.19,29.09 101.46,-57.61 152.18,-24.23 62.18,40.93 43.6,67.25 122.32,47.03 3.85,-5.82 22.58,-17.41 25.61,-24.23 8.88,-19.96 18.81,-33.4 32.71,-51.3 45.01,-51.63 168.07,-205.73 162.14,-48.46 -2.63,69.77 -92.61,283.99 35.56,173.88 17.84,-197.03 120.58,-138.92 264.55,-158.21 191.34,-25.63 52.7,-126.19 17.07,-213.78 -26.14,-64.24 3.91,-150.8 -34.14,-210.94 -22.51,-35.56 -44.28,-59 -41.24,-105.47 2.99,-45.82 21.92,-72.67 29.86,-112.6l32.62 -26.72 45.32 6.25 0 0zm-7962.36 -6555.05c11.94,37.25 25.02,73.5 37.52,111.96 14,43.09 69.69,117.25 69.69,158.2 30.48,7.62 71.48,33.97 106.67,42.76 0.58,1.76 1.1,2.27 2.85,2.85 0,16.28 7.39,52.62 -2.85,65.56 -15.39,19.43 -39.12,0.8 -14.22,35.63 54.35,76.03 121.91,132.91 162.15,218.06 21.41,45.33 41.64,97.42 69.69,139.68 21.12,31.84 79.65,98.39 79.65,133.97 28.92,36.22 95.99,77.36 112.36,118.29 43.98,12.54 179.17,153.93 224.73,190.98 124.23,101.01 276.7,173.14 415.31,250.85l238.95 133.97c68.83,38.58 213.2,91.17 264.55,142.52 42.86,75.14 168.99,101.58 246.06,112.59 0.81,2.46 2.77,1.27 4.27,4.28 41.06,5.86 81.54,44.26 136.54,48.46l372.65 28.5c133.16,10.17 294.28,136.69 366.95,238.02 59.35,82.77 58.32,328.03 58.32,433.27l34.13 256.54c13.18,99.06 83.78,162.88 95.3,243.71 27.19,13.59 93.58,164.59 120.9,202.39 82.65,114.39 211.49,202.17 358.42,193.83 44.65,-2.53 392.34,44.87 402.51,75.54 65.75,25.18 126.42,64.21 192.02,91.21 52.29,21.51 100.67,49.43 159.3,58.44 149.6,22.98 292.16,41.33 442.34,41.33l98.14 -270.72 -174.95 -143.95 17.07 -11.41 176.37 138.25 79.64 -41.33 15.65 24.23 -142.23 186.71 -9.96 91.22 54.05 14.25 145.08 -236.59 29.87 22.8 -99.57 176.73 89.61 45.61 132.27 -153.93 18.49 12.83 -95.29 132.55 99.56 37.06 85.34 -129.7 31.29 18.53 -83.92 131.12 172.1 29.93 54.05 -42.76 38.41 21.38 19.91 71.26 -463.68 -94.06 -271.66 -19.96 -8.53 18.53 418.16 86.94 -59.74 5.7 116.63 89.79 29.87 -58.43 98.14 82.66 28.44 84.09 -48.35 -18.52 39.82 79.81 14.22 -35.63 93.88 101.19 183.48 -22.8 275.92 320.68 -311.48 -259.4 -72.54 111.17 -85.34 -59.86 268.82 312.13 389.71 323.54 -12.8 18.53 -352.73 -283.63 48.36 95.49c64.03,100.49 157.07,245.76 253.17,314.98 52.28,37.65 163,43.81 227.57,59.87 35.88,8.93 166.64,56.01 180.63,84.09l4.27 0c0.92,1.84 10.73,8.55 12.8,8.55 0.74,2.23 5.21,5.7 8.53,5.7 0.83,3.35 9.12,7.12 12.8,7.12 0.78,3.16 1.16,2.85 4.27,2.85 0.78,3.17 1.15,2.86 4.27,2.86 0.81,3.25 2.07,1.94 2.84,4.27 2.3,0.57 9.51,5.29 9.96,7.13 15.76,0 66.28,47.32 68.27,61.28 4.99,1.24 40.98,47.37 42.67,54.16 21.32,5.33 64.55,59.1 83.92,74.12l88.18 68.41 18.49 2.85c0.91,2.75 31.25,19.34 35.56,19.95 1.23,4.96 51.65,31.36 58.31,31.36 20.97,31.46 239.77,44.18 285.89,44.18 0.63,0.96 4.92,3.74 7.11,4.28 1.54,3.08 23.08,17.97 27.02,18.53 1.03,4.13 30.91,34.47 35.56,35.63 0.83,3.35 5.35,10.61 8.53,11.4 0.79,3.19 3.42,5.15 4.27,8.55 3.3,0.82 5.22,5.21 5.69,8.55 46.27,23.13 80.33,120.24 133.7,143.95 198.07,87.97 478.58,-96.47 648.57,74.12l190.59 292.18c-88.98,-89.17 -57.6,-60.59 -113.78,-108.32l-8.54 95.49 100.99 176.73 -115.21 -133.97 -89.6 169.6 78.22 66.99 7.11 86.94 -100.98 -42.76 9.96 -79.81 -19.92 -2.85 -49.78 179.58 38.41 7.13 11.37 -49.89 69.7 104.05 -126.59 -25.66 0 131.12c0.6,19.59 18.86,61.39 39.83,65.57 0.87,3.51 3.91,4.38 5.69,8.55 70.9,20.25 178.54,162.99 246.06,208.09 158.68,105.97 169.72,279.69 278.77,406.19 41.05,47.61 196.25,56.83 258.86,66.99 48.2,7.82 130,14.86 202.78,28.19l0 0c8.75,-11.68 14.43,-54.67 27.64,-65.25 39.55,0 102.24,45.18 115.2,-17.1 19.86,-95.5 103.74,23.88 135.12,37.06 42.14,17.69 58.08,-44.45 99.56,-32.78 56.45,15.87 67.87,-89.16 71.12,-124l2.85 -182.43c5.74,-32.67 -16.85,-85.66 36.98,-79.82 42.46,4.61 65.72,34.96 113.78,32.78 78.32,-3.55 6.05,-175.95 31.29,-226.61 26.39,-11.75 61.09,-2.71 83.92,-19.96 25.4,-19.18 29.06,-57 55.47,-78.39 56.74,-45.93 118.1,-59.88 184.9,-85.51 102.23,-39.21 252.18,-91.85 261.7,-216.64 5.94,-77.8 101.8,-114.75 106.68,-153.93 16.74,-16.77 13.91,-52.81 5.69,-74.11 -11.47,-29.89 -33.8,-70.93 -55.47,-94.07 -22.27,-23.76 -56.02,-18.39 -71.12,-52.73 -35.48,-80.65 -16.16,-116.87 -98.14,-173.88 -151.75,-105.52 -67.43,-320.04 -91.03,-467.49 -4.81,-30.04 -6.78,-182.84 9.96,-205.24 0,-16.26 0.27,-29.53 -3.07,-45.6 0.12,5.62 -13.54,-95.84 7.34,-133.98 26.38,-48.21 42.57,-88.05 -25.6,-102.62 -91.36,-19.54 -0.48,-133.58 48.35,-158.2l220.46 -111.17c40.35,-20.34 98.63,-24.81 133.7,-51.31 49.27,-37.21 60.92,-56.3 123.74,-76.96 40.62,-13.35 7.11,-61.75 7.11,-91.22l-2.84 -2.85c-47.28,0 -127.15,85.97 -173.52,71.26 -60.33,-19.13 -23.15,-147.23 -76.81,-149.65 -44.39,-2.01 -85.9,-29.93 -123.74,-29.93 -32.71,0 -49.21,25.78 -78.23,31.35 -24.49,4.69 -29.63,-16.96 -59.73,-2.85 -75.51,35.38 -85.87,-96.44 -72.54,-143.95 0,-24.59 -12.85,-38.77 -15.65,-58.43 -45.5,-26.09 -21.54,-145.27 -91.03,-188.14 -51.9,-32.03 -213.65,-86.86 -164.98,-162.48 35.55,-55.22 85.06,-57.58 145.07,-65.56 89.29,-11.87 166.73,-13.11 216.19,-96.92 39.33,-66.63 222.29,-76.28 298.69,-108.32 165.67,-69.5 -29.31,-211.23 -113.79,-256.54 -30.09,-41.54 -97.71,-167.12 -140.81,-186.71 -32.9,-72.67 -139.21,-130.72 -179.21,-210.94 -47.27,-94.82 -3.85,-134.75 -105.25,-182.43 -46.45,-21.83 -104.8,-33.73 -143.65,-68.41 -55.23,-49.29 -78.11,-113.67 -149.34,-59.87 -81.78,61.78 -196.66,107.35 -268.82,179.59 -42.36,42.42 -117.29,41.95 -147.92,72.69 0,121.74 26.93,101.36 -52.63,200.96 -52.63,65.87 -69.6,152.48 -120.89,213.79 -63.92,12.74 -104.24,-120.53 -128.01,-173.89 -58.55,-131.48 -108.05,21.88 -156.46,79.82 -11.12,13.32 -23.85,24.42 -40.9,35.04 -8.48,-0.2 -14.22,-1.46 -20.26,-2.26 -84.82,-11.28 -185.63,70.37 -244.64,41.33 -48.72,-23.97 -61.67,-16.86 -115.2,-5.7 -46.12,9.61 -122.45,-15.37 -156.46,0 -30.83,13.93 -156.12,96.62 -186.32,74.11 -61.11,-45.55 0.93,-176.51 -35.56,-226.61 -21.34,-29.3 -37.24,28.25 -83.91,0 -26.59,-16.09 -27.45,-68.24 -45.52,-92.64 -46.78,-63.14 -16.66,-87.56 -105.25,-104.05 -28.01,-5.21 -75.32,-41.14 -86.76,-66.98 -10.96,-24.74 14.07,-58.86 -8.54,-76.97 -21.96,-17.59 -73.96,0.58 -73.96,-35.63 0,-31.83 0,-63.66 0,-95.49 0,-59.55 -16.16,-136.11 -36.98,-190.99 -19.6,-51.66 -35.69,-26.31 -79.65,-39.9 -12.9,-3.99 -46.44,-14.39 -49.78,-22.81 -12.38,-31.13 -236.59,-51.48 -109.51,-135.4 15.01,-9.91 38.64,-26.11 28.44,-42.76 -11.15,-18.2 -44.12,3.6 -56.89,9.98 -48.38,24.21 -79.57,-11.57 -122.32,-1.42 -35.28,8.37 -35.31,57.15 -73.96,52.73 -32.5,-3.72 -54.31,-87.53 -76.8,-74.11 -9.16,5.46 -7.94,20.95 -9.96,32.78 -2.81,16.43 4.57,34.95 0,51.31 -5.96,21.29 -22.92,18.91 -42.67,12.83 -14.93,-4.59 -67.43,-80.08 -76.81,-51.31 -4.96,15.23 -14.21,82.2 -28.44,86.94 -21,7 -42.07,-37.37 -49.78,-49.89 -16.43,-26.68 -90.15,35.17 -110.94,38.48 -8.68,1.38 -15.64,-5.58 -18.49,-12.82 -6.21,-15.73 -2.55,-143.71 -38.41,-75.54 -45.42,86.34 -40.85,54.51 -92.45,-1.43 -34.05,-36.91 -27.84,65.64 -28.44,79.82 -3.02,70.56 -65.68,-16.53 -73.96,-34.21 -39.25,-83.85 -77.98,-50.1 -123.74,-4.27 -29.83,29.87 -72.41,0.34 -88.19,19.95 -25.58,31.79 34.76,80.1 -1.42,112.59 -46.09,41.39 -253.72,-160.09 -290.15,-196.68 -87.92,-88.31 -71.09,-0.38 -166.41,14.25 -75.63,11.6 -119.31,-135.62 -200.55,-54.16 -103.17,103.45 -110.91,-48.54 -95.29,-125.42 5.39,-26.57 62.02,-113.94 36.98,-122.57 -4.2,-1.44 -8.68,-1.58 -13.34,-0.67 -5.94,-30.75 -63.38,22.88 -86.23,6.37 -43.94,-31.75 -66.16,-47.67 -82.49,-96.92 -8.02,-24.22 -46.01,-27.58 -62.58,-44.18 -43.21,-43.32 -25.89,-167.28 -41.25,-176.73 -19.3,-11.86 -83.43,9.61 -115.21,1.42 -47.17,-7.85 -204.07,-86.29 -224.72,-51.31 -52.72,89.34 -82.17,156.1 -173.52,220.92 -21.18,15.03 -67.31,-81.33 -89.61,-94.07 -5.69,-45.71 52.98,-106.5 19.91,-139.68 -26.02,-26.12 -44.39,-78.29 -65.42,-94.06 -21.5,9.19 -121.84,94.2 -140.81,118.29 -51.66,65.63 -119.76,102.48 -199.13,121.15 -61.39,14.43 -65.5,69.91 -110.94,104.04 -66.77,50.14 -58.65,-91.31 -81.07,-111.17 -52.54,-46.57 -131.24,106.64 -192.01,81.24 -27.81,-11.63 -86.82,6.05 -96.72,-2.85 -15.05,-13.51 -34.2,-93.96 -41.25,-116.87 -24.55,-79.82 -32.95,-65.19 -85.34,-124 -18.66,-74.82 39.85,-72.16 -12.8,-143.95 -45.84,-62.49 -70.68,-18.66 -136.54,-27.08 -62.13,-7.95 -182.18,-174.26 -216.19,-229.46 -46.76,-75.92 -106.16,-18.56 -145.08,-68.42 -13.78,-17.66 -24.66,-57.74 -49.78,-52.73 -21.08,37.04 -48.85,47.55 -86.76,38.48 -40.76,-9.76 -24.93,32.47 -35.56,54.16 -27.06,55.16 -148.65,-50.45 -167.83,-81.24 -32.71,-4.67 -99.21,201.6 -93.87,250.85 15.08,139.06 -159.45,149.15 -253.17,192.41 -65.2,30.1 -133.3,29.27 -118.06,-65.56 13.11,-81.54 -68.98,-106.17 -130.85,-89.8 -32.09,-10.69 -50.92,-10.45 -64,-49.88 -7.78,0 -24.05,7.24 -29.87,2.85 0,-67.46 -13.24,-157.65 73.96,-186.71 0,-3.56 -1.42,-4.55 -1.42,-8.55 -162.24,-40.41 2.91,-133.47 52.62,-190.98 72.64,-84.06 199.58,-133.81 226.15,-240.87 5.53,-22.27 69.41,-118.53 35.56,-141.1 0,-4.88 -1.84,-5.9 -2.85,-9.98 -4.06,-1.35 1.8,-0.42 -4.26,-1.43 -0.8,-3.23 -59.63,-12.4 -68.27,-15.67l-93.88 -35.63 -211.92 -79.82c-9.83,-3.69 -70.21,-29.3 -73.96,-14.25 -25.71,12.85 -91.71,183.78 -99.56,215.21 -21.49,0 -115.06,-70.72 -139.39,-86.94 -30,-19.99 -81.99,63.12 -96.72,92.64 -47.67,0 -120.43,105.47 -174.94,105.47 -17.73,-70.92 -88.25,-111.54 -122.32,-166.75 -11.81,-19.15 -166.38,-78.66 -179.21,-68.41 -73.4,58.63 -50.33,-54.16 -115.21,-54.16 -22.12,0 -67.16,-8.64 -83.92,-24.23 -39.38,-36.6 -70.99,-198.11 -99.56,-198.11 -65.18,0 -37.53,-31.43 -89.61,-51.31 -54.91,-20.97 -22.75,-75.99 -22.75,-111.17 -55.83,-13.9 -82.36,-60.71 -142.23,-38.49 -70.05,25.99 -152.89,56.87 -176.37,-37.05 -78.03,0 -172.52,61.28 -256.73,68.41l-76.63 -6.51 0 0zm5129.4 3987.25c-17.31,0 -41.38,-19.64 -56.89,-25.65 -21.19,-8.2 -50.42,-22.8 -73.96,-22.8 9.53,28.61 76.53,71.53 105.25,82.66 34.73,13.47 57.3,41.38 86.76,62.71 18.76,13.57 33.11,27.28 54.05,34.21 62,20.55 11.67,-28.71 -5.69,-48.46 -11.07,-12.61 -17.26,-18.19 -32.71,-28.51 -10.65,-7.1 -35.16,-26.83 -46.94,-28.5l-29.87 -25.66zm-4448.85 -17381.78l29.01 -9.93c79.86,28.47 196.77,75.14 266.68,4.99l4.27 0c18.75,-37.5 245.41,43.94 278.78,54.16 131.26,40.19 282.18,85.37 402.51,149.65 63.64,28.87 179.86,21.43 228.99,59.87 113.06,10.26 207.17,188.83 300.11,198.11 77.64,62.11 378.36,-302.84 428.12,-349.19 150.14,-139.82 382.92,-67.48 556.12,-54.16 66.58,38.09 145.95,21.09 211.93,54.16 21.02,63.22 -61.78,188.26 -109.52,229.46 -49.91,43.09 -68.63,125.4 -110.94,159.63 -204.18,165.23 -331.24,337.45 -361.27,608.59 -7.75,80.41 48.09,204.65 83.92,276.5 62.98,126.33 73.35,272.29 127.62,398.65 10.04,8.11 19.24,19.13 27.41,31.78 43.72,67.63 106.03,36.52 139.39,14.25 25.43,-16.97 83.29,6.1 122.32,-11.4 13.22,-5.93 26.45,-11.86 39.67,-17.79 -66.15,100.75 -44.03,209.35 -58.16,322.79 25.88,39.63 27.02,140.39 27.02,189.56 0,67.4 -65.28,-57.01 -79.65,-57.01 -19.79,79.45 26.14,176.63 -51.2,238.02 -52.51,41.67 -34.56,128.86 -25.61,189.56 8.01,54.27 1.59,111.72 11.38,165.33 11.18,61.28 96.36,80.31 112.37,156.78 5.32,25.41 1.9,73.88 25.6,91.21 18,13.17 65.37,-16.81 92.45,-11.4 0.88,6.2 5.69,9.55 5.69,17.1 20.66,42.83 -1.17,74.46 -27.03,105.47 0,55.17 70.96,85.28 14.23,145.38 -26.46,28.04 -117.56,95.03 -153.61,104.04 -45.14,63.27 -111.12,68 -115.21,162.48 -4.64,107.2 -267.71,62.94 -221.88,145.38 27.43,49.33 79.84,76.74 19.91,132.55 -29.62,27.59 -63.08,76.12 -85.34,111.17l-192.01 116.87c-63.46,38.62 -63.51,69.47 -54.05,133.97 20.79,141.82 -90.35,94.21 -167.83,58.44 -75.06,-34.64 -133.98,-29.93 -214.77,-29.93l-4.27 -4.28c0,-77.89 22.82,-117.75 -19.91,-192.41 -19.55,-34.18 -83.32,-92.38 -126.59,-65.56 -57.96,35.91 6.08,140.92 -58.07,199.55 -14.8,13.53 -22.21,40.67 -55.71,45.6 -9.91,1.46 -21.69,10.37 -35.5,11.31 -23.06,1.56 -49.69,-6.71 -66.91,-18.44 -27.3,-18.6 -23.44,-82.39 -38.4,-84.09 -52.98,-6.02 -78.89,41.46 -99.56,-42.76 -11.46,-46.74 85.48,-135.3 99.56,-198.11 16.22,-72.31 48.04,-155.51 -21.34,-205.24l-259.33 -302.44 0 0c14.89,-12.27 31.08,-22.51 44.57,-22.51 0,-2.74 0.87,-3.52 -1.43,-4.28 0,-71.54 0.48,-84.48 51.21,-141.1 50.43,-56.3 91.71,-153.15 113.78,-225.19 45.48,-148.5 93.87,-316.43 93.87,-476.04 0,-11.99 2.85,-22.79 2.85,-35.63 41.19,0 51.72,14.94 61.16,52.73 21.73,0 19.65,-37.45 27.02,-39.9 0,-36.03 15.11,-39.64 21.34,-58.44l2.84 0 0 -14.25c-35.16,0 -70.07,28.5 -98.14,28.5 -12.2,36.78 -8.91,-148.14 -11.38,-155.35 -5.94,-17.27 -106.67,-130.33 -106.67,-76.96l-2.84 1.42c-2.26,-1.69 -1.46,-1.42 -4.27,-1.42 -10.66,-42.82 -37.97,-121.7 -58.32,-162.48 -24.36,-48.79 -68.44,-174.14 -109.51,-203.81 -27.89,-20.16 -64.01,-40.4 -64.01,-78.39l-1.42 -1.43c-56.03,0 -37.71,-7.2 -64.01,-58.43 -26.08,-50.78 -50.24,-97.24 -85.33,-145.38l-46.94 -66.99 7.11 -323.53 54.05 -7.13 5.69 111.17 15.64 245.15 147.92 106.89 9.96 64.14 227.57 423.3 27.02 -25.65 -173.52 -290.76 -56.89 -123.99 5.69 -94.07 100.98 -171.03 -8.53 -31.36 -95.3 151.08 -25.6 -4.28 34.14 -225.19 -36.98 -12.82 -64.01 259.39 -59.73 -45.61 45.51 -57.01 -9.96 -75.54 -34.13 37.06 0 -89.79 -29.87 -172.46 169.26 -133.97 -4.27 -44.18 -73.96 18.53 -93.87 49.88 -29.87 4.28 -5.69 -109.75 -22.76 1.43 4.27 105.46 -82.5 11.41 -5.69 108.32 44.1 7.12 -14.23 239.45c0,-26.02 -79.86,-137.17 -98.14,-162.48 -48.05,-66.49 -94.7,-126.95 -132.27,-202.39 -60.66,-121.84 -189.73,-273.6 -206.24,-406.2 -26.3,-18.78 -32.74,-83.48 -27.02,-114.02 -1.78,-10.74 -23.59,-27.08 -35.56,-27.08 -2.07,-6.22 -9.96,-3.24 -9.96,-15.68l2.85 0c8.61,-34.45 120.9,-49.04 120.9,-119.72 -8.71,-2.89 -23.13,-11.86 -32.72,-14.25 0,-2.89 0.77,-2.12 -1.42,-2.85 0,-2.65 -2.81,-8.07 -4.27,-8.55 0,-2.72 0.87,-3.52 -1.42,-4.28 0,-29.54 -27.32,-75.94 -41.25,-101.19 -26.41,-47.83 -40.07,-98.47 -61.16,-149.65l-49.63 -120.49 0 0z"/>
  <path class="fil1 str1" d="M16075.05 1231.11l3339.33 0 0 1592.89 -3339.33 0 0 -1592.89z"/>
  <path class="fil2" d="M19583.11 2958.2c0,-17.45 4.47,-34.48 13.46,-51.13 8.93,-16.61 21.77,-29.59 38.43,-38.86 16.69,-9.26 34.1,-13.92 52.16,-13.92 17.92,0 35.18,4.56 51.69,13.74 16.56,9.12 29.4,21.92 38.53,38.43 9.17,16.51 13.73,33.77 13.73,51.74 0,18.01 -4.56,35.27 -13.73,51.78 -9.13,16.51 -21.97,29.35 -38.53,38.53 -16.51,9.17 -33.77,13.78 -51.69,13.78 -18.06,0 -35.47,-4.66 -52.16,-13.97 -16.66,-9.36 -29.5,-22.34 -38.43,-38.95 -8.99,-16.65 -13.46,-33.68 -13.46,-51.17zm17.22 0c0,14.62 3.76,28.88 11.24,42.7 7.48,13.83 18.2,24.65 32.13,32.46 13.92,7.81 28.41,11.71 43.46,11.71 15,0 29.35,-3.85 43.08,-11.52 13.74,-7.67 24.46,-18.39 32.13,-32.17 7.67,-13.79 11.52,-28.18 11.52,-43.18 0,-14.96 -3.85,-29.36 -11.52,-43.14 -7.67,-13.78 -18.39,-24.5 -32.13,-32.12 -13.73,-7.62 -28.08,-11.43 -43.08,-11.43 -15.05,0 -29.54,3.9 -43.46,11.66 -13.93,7.76 -24.65,18.58 -32.13,32.46 -7.48,13.87 -11.24,28.08 -11.24,42.57zm103.57 -33.35l5.08 -16.94c11.53,2.78 20.7,8.61 27.52,17.55 6.87,8.98 10.3,19.85 10.3,32.59 0,16.19 -5.22,29.31 -15.71,39.42 -10.49,10.11 -24.98,15.15 -43.55,15.15 -12.14,0 -22.68,-2.31 -31.61,-6.92 -8.99,-4.56 -15.71,-11.15 -20.28,-19.61 -4.56,-8.52 -6.82,-18.25 -6.82,-29.16 0,-12.23 2.92,-22.39 8.8,-30.48 5.88,-8.09 13.88,-13.6 23.94,-16.56l4.23 16.37c-6.91,2.77 -12.23,6.82 -15.89,12.23 -3.72,5.41 -5.55,11.71 -5.55,19 0,10.58 3.76,19.33 11.28,26.2 7.53,6.87 18.35,10.3 32.37,10.3 14.06,0 24.69,-3.24 31.89,-9.74 7.19,-6.49 10.81,-14.86 10.81,-25.16 0,-8.28 -2.39,-15.57 -7.24,-21.83 -4.8,-6.25 -11.33,-10.39 -19.57,-12.41z"/>
  <path id="1" class="fil2" d="M19788.57 2663.04l-18.58 0c14.44,9.27 21.68,22.91 21.68,40.92 0,11.67 -3.19,22.39 -9.64,32.13 -6.4,9.78 -15.38,17.35 -26.86,22.76 -11.52,5.37 -24.74,8.05 -39.69,8.05 -14.59,0 -27.8,-2.45 -39.7,-7.29 -11.86,-4.9 -20.98,-12.19 -27.29,-21.92 -6.35,-9.69 -9.5,-20.61 -9.5,-32.6 0,-8.84 1.88,-16.7 5.6,-23.56 3.72,-6.87 8.61,-12.47 14.58,-16.8l-72.67 0 0 -24.83 202.07 0 0 23.14zm-73.05 78.46c18.72,0 32.69,-3.95 41.96,-11.9 9.26,-7.91 13.87,-17.27 13.87,-28.04 0,-10.86 -4.42,-20.08 -13.26,-27.7 -8.84,-7.57 -22.34,-11.38 -40.5,-11.38 -19.94,0 -34.62,3.85 -43.98,11.61 -9.36,7.72 -14.01,17.27 -14.01,28.6 0,11.06 4.46,20.27 13.45,27.71 8.98,7.38 23.14,11.1 42.47,11.1z"/>
  <path id="2" class="fil2" d="M19727.89 2610.5l-24.83 0 0 -76.76 24.83 0 0 76.76z"/>
  <path id="3" class="fil2" d="M19788.57 2506.64l-146.47 0 0 -22.29 20.69 0c-7.15,-4.56 -12.93,-10.68 -17.26,-18.3 -4.37,-7.62 -6.54,-16.27 -6.54,-26.01 0,-10.82 2.26,-19.71 6.73,-26.62 4.52,-6.92 10.77,-11.81 18.86,-14.63 -17.07,-11.67 -25.59,-26.77 -25.59,-45.39 0,-14.58 4,-25.83 12.04,-33.63 8.05,-7.86 20.42,-11.81 37.12,-11.81l100.42 0 0 24.84 -92.19 0c-9.88,0 -17.03,0.84 -21.4,2.44 -4.38,1.6 -7.86,4.52 -10.54,8.8 -2.68,4.23 -4,9.22 -4,14.91 0,10.35 3.44,18.91 10.26,25.73 6.86,6.82 17.82,10.2 32.87,10.2l85 0 0 24.84 -95.06 0c-11.01,0 -19.29,2.02 -24.79,6.07 -5.5,4.04 -8.28,10.67 -8.28,19.85 0,6.96 1.84,13.4 5.51,19.33 3.66,5.93 9.03,10.21 16.13,12.89 7.05,2.63 17.26,3.95 30.57,3.95l75.92 0 0 24.83z"/>
  <path id="4" class="fil2" d="M19770.23 2175.88c7.85,9.22 13.35,18.11 16.6,26.62 3.25,8.52 4.84,17.64 4.84,27.43 0,16.08 -3.9,28.45 -11.75,37.11 -7.81,8.65 -17.83,12.98 -30.01,12.98 -7.15,0 -13.69,-1.65 -19.62,-4.89 -5.93,-3.29 -10.63,-7.57 -14.2,-12.84 -3.58,-5.32 -6.31,-11.24 -8.14,-17.88 -1.27,-4.89 -2.49,-12.27 -3.72,-22.1 -2.35,-20.04 -5.22,-34.86 -8.51,-44.31 -3.39,-0.1 -5.55,-0.14 -6.44,-0.14 -10.07,0 -17.17,2.35 -21.31,7.05 -5.6,6.35 -8.37,15.81 -8.37,28.32 0,11.71 2.07,20.36 6.16,25.92 4.09,5.59 11.38,9.68 21.78,12.37l-3.39 24.27c-10.4,-2.21 -18.82,-5.84 -25.21,-10.92 -6.4,-5.08 -11.29,-12.41 -14.77,-22.01 -3.44,-9.55 -5.18,-20.7 -5.18,-33.3 0,-12.51 1.46,-22.72 4.42,-30.57 2.97,-7.81 6.64,-13.6 11.11,-17.27 4.46,-3.67 10.11,-6.25 16.93,-7.76 4.23,-0.8 11.85,-1.22 22.81,-1.22l32.93 0c23,0 37.53,-0.52 43.69,-1.55 6.17,-0.99 12.05,-3.06 17.69,-6.07l0 25.96c-5.22,2.5 -11.34,4.1 -18.34,4.8zm-55.04 1.98c3.67,9.03 6.78,22.57 9.32,40.64 1.45,10.25 3.1,17.49 4.93,21.73 1.84,4.23 4.52,7.48 8,9.78 3.53,2.31 7.43,3.48 11.76,3.48 6.54,0 12.04,-2.49 16.42,-7.52 4.37,-5.04 6.58,-12.38 6.58,-22.02 0,-9.55 -2.07,-18.06 -6.25,-25.54 -4.14,-7.43 -9.84,-12.93 -17.03,-16.41 -5.6,-2.69 -13.83,-4 -24.7,-4l-9.03 -0.14z"/>
  <path id="5" class="fil2" d="M19844.73 2114.59l-202.63 0 0 -22.57 19.24 0c-7.44,-5.32 -13.03,-11.34 -16.75,-18.07 -3.72,-6.68 -5.6,-14.81 -5.6,-24.36 0,-12.51 3.2,-23.52 9.65,-33.07 6.39,-9.55 15.47,-16.74 27.14,-21.63 11.71,-4.85 24.5,-7.3 38.47,-7.3 14.91,0 28.37,2.69 40.36,8.05 11.95,5.36 21.12,13.17 27.52,23.42 6.35,10.21 9.54,20.98 9.54,32.27 0,8.28 -1.74,15.71 -5.22,22.25 -3.48,6.58 -7.85,11.94 -13.17,16.18l71.45 0 0 24.83zm-128.5 -22.57c18.77,0 32.69,-3.81 41.67,-11.39 8.99,-7.62 13.45,-16.84 13.45,-27.65 0,-11.01 -4.65,-20.42 -13.97,-28.23 -9.31,-7.85 -23.7,-11.76 -43.22,-11.76 -18.63,0 -32.55,3.81 -41.82,11.48 -9.26,7.67 -13.87,16.79 -13.87,27.42 0,10.54 4.94,19.85 14.77,27.94 9.87,8.14 24.17,12.19 42.99,12.19z"/>
  <path id="6" class="fil2" d="M19744.83 1967.51l-3.96 -24.55c9.84,-1.37 17.36,-5.22 22.63,-11.53 5.22,-6.3 7.85,-15.14 7.85,-26.43 0,-11.43 -2.3,-19.9 -6.96,-25.45 -4.61,-5.5 -10.06,-8.28 -16.32,-8.28 -5.6,0 -10.02,2.5 -13.22,7.44 -2.21,3.48 -4.98,11.94 -8.42,25.4 -4.56,18.15 -8.51,30.71 -11.85,37.77 -3.39,7 -7.99,12.32 -13.92,15.94 -5.88,3.62 -12.42,5.46 -19.57,5.46 -6.54,0 -12.56,-1.51 -18.11,-4.47 -5.55,-3.01 -10.16,-7.06 -13.83,-12.18 -2.82,-3.86 -5.22,-9.13 -7.19,-15.76 -1.98,-6.68 -2.97,-13.78 -2.97,-21.4 0,-11.48 1.65,-21.54 4.99,-30.2 3.29,-8.7 7.81,-15.1 13.45,-19.24 5.69,-4.09 13.27,-6.96 22.77,-8.51l3.38 24.27c-7.62,1.08 -13.59,4.28 -17.87,9.55 -4.28,5.27 -6.4,12.7 -6.4,22.34 0,11.34 1.88,19.47 5.65,24.32 3.76,4.84 8.18,7.29 13.21,7.29 3.2,0 6.12,-0.99 8.71,-3.01 2.63,-2.02 4.84,-5.18 6.58,-9.5 0.94,-2.5 3.06,-9.74 6.35,-21.87 4.66,-17.5 8.52,-29.73 11.48,-36.69 2.96,-6.96 7.34,-12.42 12.98,-16.37 5.69,-4 12.75,-5.98 21.21,-5.98 8.24,0 16,2.4 23.29,7.25 7.29,4.84 12.93,11.8 16.93,20.88 4,9.13 5.97,19.43 5.97,30.91 0,19 -3.95,33.53 -11.8,43.5 -7.9,9.98 -19.57,16.33 -35.04,19.1z"/>
  <path id="7" class="fil2" d="M19788.57 1809.47l-28.22 0 0 -28.22 28.22 0 0 28.22z"/>
  <path id="8" class="fil2" d="M19734.95 1642.44l3.38 -24.27c16.7,2.68 29.73,9.45 39.19,20.41 9.45,10.96 14.15,24.46 14.15,40.41 0,19.99 -6.53,36.08 -19.61,48.21 -13.08,12.18 -31.8,18.25 -56.16,18.25 -15.81,0 -29.59,-2.63 -41.39,-7.85 -11.86,-5.22 -20.75,-13.17 -26.63,-23.9 -5.92,-10.68 -8.89,-22.29 -8.89,-34.9 0,-15.85 4,-28.88 12.04,-38.95 8.05,-10.11 19.48,-16.6 34.25,-19.42l3.67 23.99c-9.83,2.3 -17.22,6.35 -22.2,12.23 -4.94,5.83 -7.44,12.88 -7.44,21.16 0,12.51 4.47,22.67 13.41,30.53 8.98,7.81 23.09,11.71 42.47,11.71 19.66,0 33.92,-3.76 42.81,-11.29 8.89,-7.57 13.35,-17.4 13.35,-29.49 0,-9.78 -2.96,-17.92 -8.93,-24.41 -5.93,-6.54 -15.1,-10.68 -27.47,-12.42z"/>
  <path id="9" class="fil2" d="M19715.33 1606.32c-27.04,0 -47.08,-7.53 -60.11,-22.63 -10.82,-12.56 -16.23,-27.94 -16.23,-46.05 0,-20.08 6.59,-36.54 19.76,-49.34 13.12,-12.75 31.33,-19.14 54.51,-19.14 18.82,0 33.59,2.82 44.36,8.46 10.77,5.65 19.14,13.88 25.12,24.7 5.97,10.77 8.93,22.58 8.93,35.32 0,20.51 -6.53,37.07 -19.66,49.72 -13.12,12.65 -32.03,18.96 -56.68,18.96zm0.05 -25.4c18.72,0 32.74,-4.1 42,-12.28 9.32,-8.23 13.97,-18.53 13.97,-31 0,-12.32 -4.65,-22.57 -14.01,-30.81 -9.36,-8.18 -23.61,-12.27 -42.76,-12.27 -18.06,0 -31.75,4.14 -41.01,12.37 -9.32,8.23 -13.97,18.48 -13.97,30.71 0,12.47 4.61,22.77 13.87,31 9.27,8.18 23.24,12.28 41.91,12.28z"/>
  <path id="10" class="fil2" d="M19788.57 1440.04l-146.47 0 0 -22.29 20.69 0c-7.15,-4.56 -12.93,-10.68 -17.26,-18.3 -4.37,-7.62 -6.54,-16.27 -6.54,-26.01 0,-10.82 2.26,-19.71 6.73,-26.62 4.52,-6.92 10.77,-11.81 18.86,-14.63 -17.07,-11.67 -25.59,-26.77 -25.59,-45.39 0,-14.58 4,-25.83 12.04,-33.63 8.05,-7.86 20.42,-11.81 37.12,-11.81l100.42 0 0 24.84 -92.19 0c-9.88,0 -17.03,0.84 -21.4,2.44 -4.38,1.6 -7.86,4.52 -10.54,8.8 -2.68,4.23 -4,9.22 -4,14.91 0,10.35 3.44,18.91 10.26,25.73 6.86,6.82 17.82,10.2 32.87,10.2l85 0 0 24.84 -95.06 0c-11.01,0 -19.29,2.02 -24.79,6.07 -5.5,4.04 -8.28,10.67 -8.28,19.85 0,6.96 1.84,13.4 5.51,19.33 3.66,5.93 9.03,10.21 16.13,12.89 7.05,2.63 17.26,3.95 30.57,3.95l75.92 0 0 24.83z"/>
  <g id="_2977579098720">
   <g>
    <path class="fil3 str2" d="M16203.4 1825.51l618.45 0 0 99.16 -618.45 0 0 -99.16z"/>
    <path class="fil4 str2" d="M16821.85 1825.51l618.44 0 0 99.16 -618.44 0 0 -99.16z"/>
    <path class="fil3 str2" d="M17440.29 1825.51l618.45 0 0 99.16 -618.45 0 0 -99.16z"/>
    <path class="fil4 str2" d="M18058.88 1825.51l618.45 0 0 99.16 -618.45 0 0 -99.16z"/>
    <path class="fil3 str2" d="M18677.34 1825.51l618.45 0 0 99.16 -618.45 0 0 -99.16z"/>
    <path class="fil4 str2" d="M18183.84 2124.45l989.15 0 0 99.16 -989.15 0 0 -99.16z"/>
    <path class="fil3 str2" d="M17194.7 2124.45l989.15 0 0 99.16 -989.15 0 0 -99.16z"/>
    <path class="fil4 str2" d="M16205.57 2124.45l989.14 0 0 99.16 -989.14 0 0 -99.16z"/>
   </g>
   <path class="fil5" d="M17362.49 1441.2l57.09 -27.52 5.71 0 0 197.2c0,13.12 0.53,21.35 1.64,24.58 1.12,3.18 3.36,5.71 6.82,7.41 3.47,1.71 10.53,2.7 21.17,2.94l0 6.35 -88.19 0 0 -6.35c11.05,-0.24 18.16,-1.18 21.34,-2.88 3.23,-1.65 5.47,-3.88 6.76,-6.7 1.24,-2.83 1.88,-11.29 1.88,-25.35l0 -126.29c0,-16.99 -0.59,-27.93 -1.7,-32.75 -0.83,-3.7 -2.3,-6.41 -4.41,-8.11 -2.18,-1.71 -4.71,-2.59 -7.71,-2.59 -4.29,0 -10.23,1.76 -17.81,5.35l-2.59 -5.29z"/>
   <path id="1" class="fil5" d="M17820.41 1406.98l0 157.16 39.98 -36.63c8.52,-7.82 13.46,-12.76 14.81,-14.82 0.95,-1.41 1.42,-2.76 1.42,-4.17 0,-2.29 -1,-4.23 -2.89,-5.94 -1.88,-1.65 -4.99,-2.59 -9.4,-2.82l0 -5.65 68.61 0 0 5.65c-9.35,0.23 -17.17,1.7 -23.4,4.35 -6.23,2.7 -13.05,7.47 -20.52,14.29l-40.63 37.22 40.34 51.33c11.29,14.05 18.81,23.04 22.58,26.98 5.58,5.24 10.4,8.65 14.58,10.17 2.94,1.12 7.99,1.71 15.17,1.71l0 6.35 -76.73 0 0 -6.35c4.41,-0.12 7.35,-0.76 8.88,-1.94 1.58,-1.24 2.35,-2.88 2.35,-5.06 0,-2.64 -2.3,-6.88 -6.88,-12.7l-48.27 -61.79 0 52.21c0,10.23 0.7,16.93 2.11,20.17 1.47,3.17 3.47,5.46 6.12,6.88 2.64,1.35 8.35,2.11 17.17,2.23l0 6.35 -80.08 0 0 -6.35c7.99,0 14.05,-1 18.05,-2.94 2.41,-1.23 4.23,-3.17 5.46,-5.76 1.71,-3.76 2.59,-10.29 2.59,-19.52l0 -143.94c0,-18.05 -0.41,-29.1 -1.18,-33.16 -0.82,-4.05 -2.11,-6.82 -3.99,-8.35 -1.83,-1.58 -4.24,-2.35 -7.18,-2.35 -2.41,0 -6.05,1 -10.82,2.94l-2.93 -6.35 46.74 -19.4 7.94 0z"/>
   <path id="2" class="fil5" d="M17997.15 1523.28c11.41,-11.53 18.17,-18.17 20.22,-19.93 5.12,-4.36 10.65,-7.77 16.59,-10.18 5.93,-2.41 11.81,-3.64 17.63,-3.64 9.88,0 18.29,2.88 25.4,8.64 7.06,5.76 11.82,14.11 14.17,25.11 11.88,-13.88 21.88,-22.93 30.05,-27.28 8.17,-4.3 16.58,-6.47 25.22,-6.47 8.35,0 15.82,2.17 22.35,6.47 6.46,4.29 11.64,11.34 15.4,21.16 2.53,6.65 3.82,17.11 3.82,31.4l0 67.97c0,9.82 0.71,16.58 2.18,20.23 1.12,2.46 3.23,4.64 6.23,6.4 3.06,1.77 8,2.65 14.88,2.65l0 6.35 -77.26 0 0 -6.35 3.29 0c6.7,0 11.99,-1.29 15.76,-3.94 2.64,-1.82 4.52,-4.76 5.64,-8.76 0.47,-1.94 0.71,-7.47 0.71,-16.58l0 -67.91c0,-12.88 -1.53,-21.93 -4.65,-27.22 -4.52,-7.35 -11.7,-11.06 -21.63,-11.06 -6.06,0 -12.23,1.53 -18.41,4.59 -6.11,3 -13.58,8.7 -22.34,16.93l-0.35 1.94 0.7 7.41 0 75.32c0,10.7 0.59,17.4 1.77,20.05 1.23,2.59 3.46,4.82 6.76,6.58 3.29,1.77 8.93,2.65 16.87,2.65l0 6.35 -79.37 0 0 -6.35c8.64,0 14.58,-1 17.81,-3.06 3.24,-2.06 5.47,-5.17 6.7,-9.29 0.59,-1.94 0.89,-7.58 0.89,-16.93l0 -67.91c0,-12.88 -1.88,-22.17 -5.65,-27.87 -5.05,-7.41 -12.05,-11.11 -21.11,-11.11 -6.17,0 -12.28,1.7 -18.34,5.05 -9.47,5.06 -16.82,10.82 -21.93,17.17l0 84.67c0,10.29 0.7,16.93 2.12,20.05 1.41,3.06 3.52,5.35 6.35,6.94 2.76,1.53 8.4,2.29 16.93,2.29l0 6.35 -77.97 0 0 -6.35c7.24,0 12.29,-0.76 15.17,-2.29 2.89,-1.59 5.06,-4 6.59,-7.41 1.47,-3.35 2.23,-9.88 2.23,-19.58l0 -60.33c0,-17.28 -0.53,-28.45 -1.53,-33.51 -0.82,-3.82 -2.05,-6.41 -3.82,-7.82 -1.7,-1.47 -4.05,-2.18 -6.99,-2.18 -3.24,0 -7.06,0.89 -11.53,2.59l-2.58 -6.35 47.62 -19.4 7.41 0 0 33.75z"/>
   <path id="3" class="fil5" d="M17510.66 1536.57c0,-26.64 4,-49.51 12.05,-68.74 8.06,-19.22 18.7,-33.57 32.05,-42.98 10.29,-7.47 20.99,-11.17 31.98,-11.17 17.94,0 33.99,9.11 48.22,27.34 17.81,22.64 26.69,53.27 26.69,91.96 0,27.05 -3.88,50.09 -11.7,69.03 -7.82,18.93 -17.76,32.63 -29.87,41.21 -12.11,8.53 -23.81,12.82 -35.04,12.82 -22.29,0 -40.81,-13.11 -55.62,-39.39 -12.53,-22.17 -18.76,-48.86 -18.76,-80.08zm33.87 4.23c0,32.1 3.94,58.33 11.82,78.67 6.52,17.11 16.28,25.63 29.22,25.63 6.17,0 12.58,-2.76 19.22,-8.34 6.65,-5.59 11.65,-14.88 15.11,-27.99 5.24,-19.7 7.88,-47.57 7.88,-83.43 0,-26.64 -2.76,-48.86 -8.23,-66.62 -4.11,-13.23 -9.46,-22.58 -15.99,-28.05 -4.65,-3.82 -10.35,-5.7 -16.99,-5.7 -7.76,0 -14.7,3.53 -20.76,10.52 -8.23,9.53 -13.87,24.46 -16.81,44.92 -3,20.41 -4.47,40.52 -4.47,60.39z"/>
   <path class="fil5" d="M17558.29 2383.11l0 6.7c-15.12,1.47 -27.46,4.47 -37.05,9 -9.58,4.53 -19.05,11.41 -28.34,20.7 -9.35,9.23 -17.11,19.58 -23.22,30.92 -6.12,11.41 -11.23,24.93 -15.35,40.57 16.47,-11.23 32.99,-16.87 49.63,-16.87 15.93,0 29.69,6.41 41.39,19.28 11.7,12.82 17.52,29.34 17.52,49.51 0,19.46 -5.88,37.28 -17.7,53.33 -14.23,19.46 -33.04,29.22 -56.44,29.22 -15.93,0 -29.52,-5.29 -40.63,-15.82 -21.81,-20.57 -32.69,-47.21 -32.69,-79.9 0,-20.87 4.17,-40.75 12.58,-59.56 8.35,-18.82 20.35,-35.51 35.87,-50.1 15.58,-14.52 30.45,-24.34 44.68,-29.39 14.23,-5.06 27.46,-7.59 39.75,-7.59l10 0zm-106.9 120.48c-2.11,15.52 -3.17,28.04 -3.17,37.57 0,11.05 2.06,22.99 6.11,35.92 4.06,12.94 10.12,23.17 18.11,30.75 5.82,5.41 12.94,8.12 21.29,8.12 9.93,0 18.87,-4.71 26.69,-14.12 7.82,-9.46 11.76,-22.87 11.76,-40.33 0,-19.64 -3.88,-36.63 -11.64,-51.04 -7.82,-14.34 -18.82,-21.52 -33.1,-21.52 -4.36,0 -9.06,0.95 -14,2.77 -5,1.82 -12.35,5.82 -22.05,11.88z"/>
   <path id="1" class="fil5" d="M17723.04 2492.71c11.41,-11.53 18.17,-18.17 20.22,-19.93 5.12,-4.36 10.65,-7.77 16.59,-10.18 5.93,-2.41 11.81,-3.64 17.63,-3.64 9.88,0 18.29,2.88 25.4,8.64 7.06,5.76 11.82,14.11 14.17,25.11 11.88,-13.88 21.88,-22.93 30.05,-27.28 8.17,-4.3 16.58,-6.47 25.22,-6.47 8.35,0 15.82,2.17 22.35,6.47 6.46,4.29 11.64,11.34 15.4,21.16 2.53,6.65 3.82,17.11 3.82,31.4l0 67.97c0,9.82 0.71,16.58 2.18,20.23 1.12,2.46 3.23,4.64 6.23,6.4 3.06,1.77 8,2.65 14.88,2.65l0 6.35 -77.26 0 0 -6.35 3.29 0c6.7,0 11.99,-1.29 15.76,-3.94 2.64,-1.82 4.52,-4.76 5.64,-8.76 0.47,-1.94 0.71,-7.47 0.71,-16.58l0 -67.91c0,-12.88 -1.53,-21.93 -4.65,-27.22 -4.52,-7.35 -11.7,-11.06 -21.63,-11.06 -6.06,0 -12.23,1.53 -18.41,4.59 -6.11,3 -13.58,8.7 -22.34,16.93l-0.35 1.94 0.7 7.41 0 75.32c0,10.7 0.59,17.4 1.77,20.05 1.23,2.59 3.46,4.82 6.76,6.58 3.29,1.77 8.93,2.65 16.87,2.65l0 6.35 -79.37 0 0 -6.35c8.64,0 14.58,-1 17.81,-3.06 3.24,-2.06 5.47,-5.17 6.7,-9.29 0.59,-1.94 0.89,-7.58 0.89,-16.93l0 -67.91c0,-12.88 -1.88,-22.17 -5.65,-27.87 -5.05,-7.41 -12.05,-11.11 -21.11,-11.11 -6.17,0 -12.28,1.7 -18.34,5.05 -9.47,5.06 -16.82,10.82 -21.93,17.17l0 84.67c0,10.29 0.7,16.93 2.12,20.05 1.41,3.06 3.52,5.35 6.35,6.94 2.76,1.53 8.4,2.29 16.93,2.29l0 6.35 -77.97 0 0 -6.35c7.24,0 12.29,-0.76 15.17,-2.29 2.89,-1.59 5.06,-4 6.59,-7.41 1.47,-3.35 2.23,-9.88 2.23,-19.58l0 -60.33c0,-17.28 -0.53,-28.45 -1.53,-33.51 -0.82,-3.82 -2.05,-6.41 -3.82,-7.82 -1.7,-1.47 -4.05,-2.18 -6.99,-2.18 -3.24,0 -7.06,0.89 -11.53,2.59l-2.58 -6.35 47.62 -19.4 7.41 0 0 33.75z"/>
   <path id="2" class="fil5" d="M17990.68 2376.41c4.76,0 8.88,1.7 12.29,5.05 3.35,3.41 5.05,7.53 5.05,12.29 0,4.82 -1.7,9 -5.05,12.41 -3.41,3.47 -7.53,5.17 -12.29,5.17 -4.82,0 -9,-1.7 -12.41,-5.17 -3.47,-3.41 -5.17,-7.59 -5.17,-12.41 0,-4.76 1.7,-8.88 5.05,-12.29 3.41,-3.35 7.59,-5.05 12.53,-5.05zm14.17 82.55l0 127c0,9.82 0.7,16.34 2.17,19.58 1.41,3.29 3.53,5.7 6.35,7.29 2.82,1.59 8,2.41 15.47,2.41l0 6.35 -76.56 0 0 -6.35c7.65,0 12.82,-0.76 15.41,-2.23 2.64,-1.47 4.7,-3.94 6.29,-7.35 1.53,-3.41 2.29,-10 2.29,-19.7l0 -61.03c0,-16.99 -0.53,-27.99 -1.53,-33.05 -0.82,-3.64 -2.05,-6.17 -3.82,-7.58 -1.7,-1.47 -4.06,-2.18 -7,-2.18 -3.23,0 -7.11,0.89 -11.7,2.59l-2.41 -6.35 47.45 -19.4 7.59 0z"/>
  </g>
  <rect class="fil6 str3" x="1000" y="999.99" width="19000" height="22996.95"/>
  <g id="_2977579087776">
   <path class="fil1 str1" d="M18609.82 3352.82l815.93 0 0 1592.89 -815.93 0 0 -1592.89z"/>
   <path class="fil7" d="M18957.92 3788.95c-0.92,3.32 -1.63,6.35 -2.07,9.15 -0.44,2.79 -0.65,5.18 -0.65,7.22 0,5.59 1.8,9.56 5.29,11.89 3.49,2.33 9.55,3.49 18.05,3.49l4.15 0 -4.96 22.72 -78.17 0 5.29 -22.72 2.89 0c7.36,0 12.82,-1.51 16.48,-4.54 3.6,-2.97 6.32,-8.39 8.12,-16.14l37.59 -153.79c0.6,-2.74 1.14,-5.54 1.52,-8.45 0.33,-2.91 0.55,-5.77 0.55,-8.62 0,-5.36 -1.96,-9.15 -5.95,-11.36 -3.92,-2.22 -10.69,-3.32 -20.23,-3.32l-3.06 0 5.29 -22.72 72.33 0 62.14 183.5 31.31 -129.03c1.08,-4.2 1.85,-7.63 2.34,-10.31 0.49,-2.68 0.71,-4.72 0.71,-6.06 0,-5.6 -1.8,-9.56 -5.35,-11.89 -3.6,-2.33 -9.71,-3.49 -18.32,-3.49l-4.15 0 4.96 -22.72 78.5 0 -5.62 22.72 -2.84 0c-7.37,0 -12.87,1.51 -16.47,4.54 -3.66,2.97 -6.33,8.33 -8.18,15.96l-50.68 208.44 -21.54 0 -72.06 -209.48 -37.21 155.01z"/>
   <path class="fil6 str4" d="M19018.61 4812.51l0 -769.27"/>
   <path class="fil6 str4" d="M18736.56 4536.46l563.14 0"/>
   <path class="fil6 str4" d="M18873.71 4676.45l294.22 -286.81"/>
   <path class="fil6 str4" d="M18870.57 4389.4l297.98 288.85"/>
   <path class="fil6 str4" d="M19018.47 4045.97l-95.47 118.01"/>
   <path class="fil6 str4" d="M19019.09 4045.93l87.89 118.05"/>
  </g>
  <g id="_2977579086016">
   <path class="fil1 str1" d="M18402.14 3360.8l0 473.7 -2309.37 0 0 -473.7 2309.37 0z"/>
   <path class="fil7" d="M17170.11 3699.27l0 -202.07 40.07 0 47.79 143.04c4.42,13.31 7.62,23.28 9.64,29.91 2.31,-7.33 5.93,-18.15 10.82,-32.4l48.64 -140.55 35.79 0 0 202.07 -25.68 0 0 -169.05 -58.98 169.05 -24.09 0 -58.32 -172.15 0 172.15 -25.68 0z"/>
   <path id="1" class="fil7" d="M17502.56 3651.86l25.68 3.38c-3.99,14.91 -11.47,26.53 -22.39,34.76 -10.91,8.24 -24.83,12.37 -41.81,12.37 -21.36,0 -38.29,-6.58 -50.8,-19.75 -12.51,-13.12 -18.77,-31.61 -18.77,-55.36 0,-24.56 6.31,-43.65 18.96,-57.2 12.65,-13.59 29.07,-20.37 49.25,-20.37 19.52,0 35.46,6.64 47.83,19.95 12.37,13.31 18.58,32.03 18.58,56.16 0,1.46 -0.05,3.67 -0.14,6.58l-109.08 0c0.94,16.04 5.46,28.37 13.64,36.88 8.14,8.51 18.35,12.79 30.53,12.79 9.08,0 16.84,-2.39 23.24,-7.19 6.44,-4.8 11.52,-12.47 15.28,-23zm-81.28 -39.8l81.56 0c-1.08,-12.32 -4.23,-21.54 -9.36,-27.7 -7.85,-9.55 -18.1,-14.35 -30.66,-14.35 -11.39,0 -20.93,3.81 -28.7,11.43 -7.71,7.62 -11.99,17.83 -12.84,30.62z"/>
   <path id="2" class="fil7" d="M17559.33 3699.27l0 -146.47 22.3 0 0 22.43c5.69,-10.39 10.96,-17.26 15.8,-20.55 4.85,-3.34 10.16,-4.99 15.95,-4.99 8.37,0 16.89,2.64 25.54,7.86l-8.84 22.91c-6.02,-3.39 -12.04,-5.08 -18.06,-5.08 -5.41,0 -10.26,1.64 -14.54,4.89 -4.28,3.24 -7.34,7.76 -9.17,13.54 -2.78,8.8 -4.14,18.44 -4.14,28.93l0 76.53 -24.84 0z"/>
   <path id="3" class="fil7" d="M17749.27 3645.65l24.27 3.38c-2.68,16.7 -9.45,29.73 -20.41,39.19 -10.96,9.45 -24.46,14.15 -40.41,14.15 -19.99,0 -36.08,-6.53 -48.21,-19.61 -12.18,-13.08 -18.25,-31.8 -18.25,-56.16 0,-15.81 2.63,-29.59 7.85,-41.44 5.22,-11.81 13.17,-20.7 23.9,-26.58 10.68,-5.92 22.29,-8.89 34.9,-8.89 15.85,0 28.88,4 38.95,12.04 10.11,8.05 16.6,19.48 19.42,34.25l-23.99 3.67c-2.3,-9.83 -6.35,-17.22 -12.23,-22.2 -5.83,-4.94 -12.88,-7.44 -21.16,-7.44 -12.51,0 -22.67,4.47 -30.53,13.41 -7.81,8.98 -11.71,23.09 -11.71,42.47 0,19.66 3.76,33.92 11.29,42.81 7.57,8.89 17.4,13.35 29.49,13.35 9.78,0 17.92,-2.96 24.41,-8.93 6.54,-5.93 10.68,-15.1 12.42,-27.47z"/>
   <path id="4" class="fil7" d="M17890.38 3680.93c-9.22,7.85 -18.11,13.35 -26.62,16.6 -8.52,3.25 -17.64,4.84 -27.43,4.84 -16.08,0 -28.45,-3.9 -37.11,-11.75 -8.65,-7.81 -12.98,-17.83 -12.98,-30.01 0,-7.15 1.65,-13.69 4.89,-19.62 3.29,-5.93 7.57,-10.63 12.84,-14.2 5.32,-3.58 11.24,-6.31 17.88,-8.14 4.89,-1.27 12.27,-2.49 22.1,-3.72 20.04,-2.35 34.86,-5.22 44.31,-8.51 0.1,-3.39 0.14,-5.55 0.14,-6.44 0,-10.07 -2.35,-17.17 -7.05,-21.31 -6.35,-5.6 -15.81,-8.37 -28.32,-8.37 -11.71,0 -20.36,2.07 -25.92,6.16 -5.59,4.09 -9.68,11.33 -12.37,21.78l-24.27 -3.39c2.21,-10.4 5.84,-18.82 10.92,-25.21 5.08,-6.4 12.41,-11.29 22.01,-14.77 9.55,-3.44 20.7,-5.18 33.3,-5.18 12.51,0 22.72,1.46 30.57,4.42 7.81,2.97 13.6,6.64 17.27,11.11 3.67,4.46 6.25,10.11 7.76,16.93 0.8,4.23 1.22,11.85 1.22,22.81l0 32.93c0,23 0.52,37.53 1.55,43.69 0.99,6.17 3.06,12.05 6.07,17.69l-25.96 0c-2.5,-5.22 -4.1,-11.34 -4.8,-18.34zm-1.98 -55.04c-9.03,3.67 -22.57,6.78 -40.64,9.32 -10.25,1.45 -17.49,3.1 -21.73,4.93 -4.23,1.84 -7.48,4.52 -9.78,8 -2.31,3.53 -3.48,7.43 -3.48,11.76 0,6.54 2.49,12.04 7.52,16.42 5.04,4.37 12.38,6.58 22.02,6.58 9.55,0 18.06,-2.07 25.54,-6.25 7.43,-4.14 12.93,-9.84 16.41,-17.03 2.69,-5.6 4,-13.83 4,-24.7l0.14 -9.03z"/>
   <path id="5" class="fil7" d="M18005.57 3677.12l3.39 21.91c-6.96,1.46 -13.22,2.22 -18.68,2.22 -8.98,0 -15.94,-1.42 -20.93,-4.28 -4.94,-2.87 -8.42,-6.59 -10.44,-11.25 -2.02,-4.65 -3.01,-14.44 -3.01,-29.35l0 -84.38 -18.34 0 0 -19.19 18.34 0 0 -36.22 24.84 -14.91 0 51.13 24.83 0 0 19.19 -24.83 0 0 85.79c0,7.11 0.42,11.67 1.31,13.69 0.85,2.02 2.26,3.62 4.24,4.85 1.97,1.17 4.79,1.78 8.46,1.78 2.73,0 6.35,-0.33 10.82,-0.98z"/>
   <path id="6" class="fil7" d="M18020.76 3626.03c0,-27.04 7.53,-47.08 22.63,-60.11 12.56,-10.82 27.94,-16.23 46.05,-16.23 20.08,0 36.54,6.59 49.34,19.76 12.75,13.12 19.14,31.33 19.14,54.51 0,18.82 -2.82,33.59 -8.46,44.36 -5.65,10.77 -13.88,19.14 -24.7,25.12 -10.77,5.97 -22.58,8.93 -35.32,8.93 -20.51,0 -37.07,-6.53 -49.72,-19.66 -12.65,-13.12 -18.96,-32.03 -18.96,-56.68zm25.4 0.05c0,18.72 4.1,32.74 12.28,42 8.23,9.32 18.53,13.97 31,13.97 12.32,0 22.57,-4.65 30.81,-14.01 8.18,-9.36 12.27,-23.61 12.27,-42.76 0,-18.06 -4.14,-31.75 -12.37,-41.01 -8.23,-9.32 -18.48,-13.97 -30.71,-13.97 -12.47,0 -22.77,4.61 -31,13.87 -8.18,9.27 -12.28,23.24 -12.28,41.91z"/>
   <path id="7" class="fil7" d="M18186.75 3699.27l0 -146.47 22.3 0 0 22.43c5.69,-10.39 10.96,-17.26 15.8,-20.55 4.85,-3.34 10.16,-4.99 15.95,-4.99 8.37,0 16.89,2.64 25.54,7.86l-8.84 22.91c-6.02,-3.39 -12.04,-5.08 -18.06,-5.08 -5.41,0 -10.26,1.64 -14.54,4.89 -4.28,3.24 -7.34,7.76 -9.17,13.54 -2.78,8.8 -4.14,18.44 -4.14,28.93l0 76.53 -24.84 0z"/>
   <circle class="fil8 str5" cx="16311.14" cy="3593.95" r="118.79"/>
   <rect class="fil8 str5" x="16769.07" y="3485.67" width="226.91" height="226.91"/>
   <path class="fil6 str6" d="M16485.04 3593.08l220.31 0"/>
  </g>
  <path class="fil6 str6" d="M16702.69 3593.74l-64.02 65.38"/>
  <path class="fil6 str6" d="M16702.86 3592.6l-63.42 -61.39"/>
 </g>
</svg>
