<?xml version="1.0" encoding="UTF-8"?>
<!DOCTYPE svg PUBLIC "-//W3C//DTD SVG 1.1//EN" "http://www.w3.org/Graphics/SVG/1.1/DTD/svg11.dtd">
<!-- Creator: CorelDRAW -->
<svg xmlns="http://www.w3.org/2000/svg" xml:space="preserve" width="297mm" height="210mm" version="1.1" style="shape-rendering:geometricPrecision; text-rendering:geometricPrecision; image-rendering:optimizeQuality; fill-rule:evenodd; clip-rule:evenodd"
viewBox="0 0 29700 21000"
 xmlns:xlink="http://www.w3.org/1999/xlink">
 <defs>
  <style type="text/css">
   <![CDATA[
    .str1 {stroke:black;stroke-width:10;stroke-miterlimit:3.864;stroke-opacity:0.501961}
    .str3 {stroke:black;stroke-width:50;stroke-miterlimit:22.9256}
    .str5 {stroke:#434242;stroke-width:10;stroke-miterlimit:22.9256}
    .str2 {stroke:#3F3E3F;stroke-width:10;stroke-miterlimit:3.864}
    .str0 {stroke:black;stroke-width:10;stroke-miterlimit:22.9256}
    .str6 {stroke:#2B2A29;stroke-width:7.62;stroke-miterlimit:22.9256}
    .str4 {stroke:black;stroke-width:7.62;stroke-miterlimit:22.9256}
    .fil6 {fill:none}
    .fil0 {fill:#FEFEFE}
    .fil8 {fill:#D9DADA}
    .fil5 {fill:#FEFEFE;fill-rule:nonzero}
    .fil4 {fill:#D9DADA;fill-rule:nonzero}
    .fil7 {fill:#434242;fill-rule:nonzero}
    .fil3 {fill:#2B2A29;fill-rule:nonzero}
    .fil2 {fill:black;fill-rule:nonzero}
    .fil1 {fill:#FEFEFE;fill-rule:nonzero;fill-opacity:0.501961}
   ]]>
  </style>
 </defs>
 <g id="Plan_x0020_1">
  <metadata id="CorelCorpID_0Corel-Layer"/>
  <rect class="fil0" x="1000" y="1000" width="20102.68" height="19000"/>
  <path class="fil0 str0" d="M2995.89 11879.02c-47.35,-12.91 -100.87,-11.77 -149.68,-26.74 -35.8,-10.97 -72.35,-23.9 -109.07,-30.23 -96.74,-16.67 -181.06,25.23 -272.69,47.67 -58.62,14.36 -121.86,-4.79 -177.53,-20.93 -41.19,-11.93 -179.48,-60.39 -201.9,-91.86 -14.96,-7.48 -49.84,-33.31 -58.02,-47.67 -10.46,-5.98 -18.83,-18.61 -30.16,-22.09 0,-70.78 -1.31,-93.02 80.06,-93.02 138.56,0 250.95,-19.18 386.39,-52.32 116.55,-28.51 226.13,-30.24 344.63,-30.24 1.43,1.92 0.63,1.77 2.32,2.33 0,46 -5.19,82.55 56.86,82.55 6.31,-25.24 0.59,-66.63 35.97,-61.62 26.41,3.73 107.55,14.18 120.67,37.21 38.33,11.99 73.68,15.44 110.24,33.72 61.08,30.54 122.52,22.97 184.49,38.37 40.62,10.1 81.15,26.45 119.52,36.04 0,23.76 -45.81,45.72 -48.74,66.28 -2.36,0.59 -4.05,2.29 -4.64,4.65 -20.57,5.14 -49.19,34.61 -68.46,46.51 -86.06,53.19 -169.29,73.56 -269.2,86.04l-51.06 -4.65zm-1352.96 -820.9c-11.8,5.46 -40.38,-5.94 -52.22,-10.46 -25.82,-9.85 -53.85,-10.4 -81.22,-6.98 -13.44,18.86 -9.03,26.33 2.32,46.51 7.15,12.73 12.73,28.12 19.73,40.7 33.76,60.71 131.97,53.48 193.77,53.48 14.2,0 78.76,-22.2 47.58,-40.69 -16.31,-9.68 -32.88,-23.13 -47.58,-34.89 -7.16,-5.74 -37.46,-30.9 -44.09,-32.55l-38.29 -15.12zm2348.54 425.57c-39.29,0 -72.84,33.07 -111.39,34.88 -27.89,1.31 -65.95,-33.3 -89.35,-47.67 -64.3,-39.46 -129.35,-70.48 -208.86,-52.33 -38.55,8.8 -91.05,38.24 -126.48,11.63 -42.64,-32.04 -91.15,-60.9 -120.67,-108.13 -39.42,-5.61 -79.01,-27.28 -125.32,-29.07 -46.3,-1.78 -92.17,-0.83 -138.08,3.49 -26.11,0 -52.52,-18.61 -82.39,-18.61l-70.78 0c-86.38,-57.59 -200.57,-41.86 -301.69,-41.86 -91.88,0 -175.95,-34.41 -264.56,-48.83 -38.47,-6.25 -117.88,12.51 -148.52,-10.47 -6.08,0 -8.75,-3.35 -15.09,-6.97 -35.46,-47.49 -93.16,-81.36 -152,-67.44 -118.04,27.92 -55.38,93.06 -128.8,151.15 -33.48,26.5 -103.38,-6.13 -149.69,9.31 -67.56,22.54 -85.91,28.26 -147.36,-12.8 -64.1,-42.82 -109.9,-98.48 -163.61,-152.32 -50.46,-50.57 -155.84,-110.32 -189.14,-168.59 -4.59,-0.65 -14.93,-8 -18.56,-11.63 0.58,-2.93 1.44,-3.77 3.48,-5.82 79.91,0 156.13,27.91 239.03,27.91 33.51,10.83 91.27,13.41 119.52,31.39 63.46,5.28 112.09,40.83 183.33,27.91 44.71,-8.1 67.09,-12 109.07,8.14 71.24,34.19 98.72,19.77 171.74,19.77 25.54,0 49.38,1.5 71.94,12.79 23.45,11.75 57.38,50.65 80.06,53.48 23.25,7.57 49.43,20.31 73.1,23.26 6.74,5.39 15.96,6.68 22.05,12.79 50.55,12.63 67.92,46.71 128.8,46.51l359.71 -1.16c77.89,-0.25 240.07,-15.12 300.53,45.34 4.44,-1.57 8.06,-3.13 12.76,-3.48 58.54,29.27 123.09,44.71 187.98,52.32 56.45,6.63 101.15,-39.1 152,-48.84 33.19,-6.35 63.99,12.14 96.31,16.28 128.55,16.48 313.64,-17.05 430.49,34.88 40.32,3.47 81.73,23.16 121.84,32.56 53.82,12.61 121.11,24.42 176.37,24.42 22.07,0 41.97,-1.17 56.85,17.44 5.53,6.93 31.33,48.47 31.33,55.81l-1.16 1.17 -132.28 0c-31.91,0 -76.89,-8.74 -93.98,25.58 -17.8,35.72 -6.6,68.3 -39.46,101.16 -25.86,25.86 -52.76,-34.42 -70.78,-48.84l-38.29 3.49zm228.46 394.09l-50.19 39.03c-36.7,13.26 -64.65,3.62 -92.4,28.49 -32.39,29.01 -24.18,40.56 -12.77,83.72l67.3 254.64c13.44,50.84 60.65,73.64 63.82,130.23 3.76,66.98 -54.19,118.2 42.94,149.99 30.46,9.97 47.82,40.62 59.17,66.28 14.61,33 -8.12,36.54 -8.12,68.6 14,4.66 19.57,1.17 34.81,1.17 32.86,6.21 58,-6.82 60.34,32.55 3.26,54.61 32.75,108.42 46.41,161.63 10.61,41.31 61.5,103.31 61.5,140.69 -42.04,-10.51 -89.76,-71.53 -123,-98.83 -39.59,-32.5 -78.73,-53.14 -125.31,-70.93 -45.59,-17.4 -40.66,9.26 -59.18,44.18 -14.39,27.12 -40.56,42.82 -55.7,68.6 -11.11,18.94 -0.7,43.06 -15.08,62.79 -34.81,47.79 -6.72,72.58 -26.69,117.44 -20.49,46.06 -26.69,41.47 -26.69,95.35 0,27.76 -13.9,34.47 -24.36,58.13 -13.86,31.32 16.77,65.8 -8.13,90.7 -31.79,31.79 -45.96,43.22 -40.61,86.04 11.98,5.81 33.99,19.99 37.13,32.56 6.32,1.58 30.46,39.45 53.38,46.51 55.1,16.96 63.44,71.46 118.35,88.37 89.37,27.51 161.59,114.74 248.32,132.55 24.83,5.09 7.12,58.14 40.61,77.91 16.23,9.59 83.79,-1.82 85.87,2.32 9.31,18.59 -32.28,128.04 -38.3,152.32 -10.78,43.41 -60.36,203.02 13.93,180.23 94.36,-28.94 188.48,-76.74 285.44,-76.74 41.23,26.51 71.82,38.37 121.84,38.37 38.5,0 70.89,-19.77 106.75,-19.77l1.16 2.33c3.19,0.79 3.52,3.53 5.8,5.81 0,51.39 4.48,110.82 -10.44,159.3 -14.14,45.91 -30.52,72.65 -38.29,120.92 -4.68,29.14 5.31,65.61 -4.64,93.02 -21.15,58.29 -24.25,82.1 -15.09,141.86 6.64,43.27 3.85,148.09 -15.08,186.04 10.99,48.2 -35.97,118.91 -35.97,170.92 17.55,14.1 40.84,-12.79 56.86,-12.79l1.16 1.17c0,67.63 -49.7,206.07 -22.05,261.62 29.2,3.65 73.64,-4.14 93.99,16.27 17.94,18.01 5.67,59.82 11.6,83.72 10.51,42.39 72.28,-6.32 85.87,24.42 13.31,30.08 13.92,96.44 13.92,130.23l5.8 63.95 162.45 6.98 653.28 549.98 453.69 613.93c23.01,30.34 24.26,86.02 70.78,101.16 81.61,26.58 69.29,35.16 91.67,106.97 15.6,50.03 58.02,70.67 58.02,137.21l1.16 1.16c67.41,16.85 82.04,-51.25 67.3,-97.67 -9.83,-30.93 -13.55,-66.53 -25.53,-95.35 -6.54,-15.72 -34.18,-47.86 -35.97,-60.46 -105.64,-30.18 -5.67,-191.2 12.76,-246.5 31.73,0 170.5,70.65 142.73,-19.77 -9.77,-31.81 -24.51,-67.54 -11.61,-101.16 4.13,-10.76 41.2,-65.11 47.58,-65.11 27.36,36.48 13.47,80.85 73.1,105.81 52.64,22.03 94.49,-37.63 129.96,-73.26l269.2 -282.54c74.09,-6.98 75.45,-74.8 112.55,-123.26 19.5,-25.48 36.35,-41.8 54.54,-73.25 10.05,-17.39 46.27,-61.22 49.89,-72.09 44.21,0 23.46,107.21 104.43,94.18 55.57,-8.95 11.03,-28.16 2.33,-72.09 -7.86,-39.64 13.53,-80.56 20.88,-117.44 22.88,-5.72 45.12,44.57 58.02,60.47 21.1,26.02 68.99,23.56 87.02,-3.49 4.64,0 5.83,0.89 9.29,3.49 0,52.84 37.95,87.95 71.94,122.09 65.92,45.54 86.86,113.74 121.84,183.71 28.97,16.55 47.76,49.59 83.54,67.44 25.92,12.94 71.49,46.3 75.42,77.91 25.3,31.63 24.27,112.09 30.17,152.32 9.24,63.03 10.45,112.05 37.13,172.08 8.89,6.37 58.78,89.04 60.34,100 7.43,15.9 15.09,33.32 15.09,51.16 -2.26,2.26 -6.45,7.82 -6.97,10.47 -38.69,22.11 -41.53,52.53 -61.49,87.2 -34.45,59.87 -77.3,111.99 -123,161.62 -56.03,60.87 10.25,165.29 16.24,245.35 2.55,34.06 -44.21,58.23 -64.98,79.06 -12.59,12.64 -10.01,31.77 -15.08,46.51 -6.59,19.19 -24.16,29.9 -35.97,47.68 -41.38,36.47 -140.4,206.66 -140.4,259.29 65.12,0 190.91,49.77 242.51,89.53 21.7,16.73 155.64,-132.02 175.21,-154.64 37.13,-42.89 86.6,-106.45 132.28,-139.54 18.24,-13.2 42.1,24.42 63.82,24.42 43.8,0 11.01,-74.4 97.47,-60.46 29.09,4.69 197.46,7.82 205.38,19.77l56.86 -6.98 139.24 -274.41 -113.71 -66.28 32.49 -47.67 276.16 110.46c47.11,18.83 96.81,19.83 143.88,41.86 34.42,16.12 14.65,67.83 58.02,73.25 8.17,11.47 28.75,42.21 40.61,48.84 30.56,17.07 80.27,-15.12 114.87,-15.12 22.04,0 39.62,70.22 46.42,88.37 31.6,43.36 90.37,54.95 136.92,19.77 41.21,-31.16 53.46,-23.23 44.09,25.58 -11.94,62.25 9.39,120.58 6.96,183.72l-5.8 149.99 2.32 1.16c4.44,13.42 104.66,-2.17 119.52,-5.81 26.89,-6.58 70.32,-10.25 77.74,-41.86 15.91,-67.83 58.8,-56.37 85.87,-111.62l31.33 -63.95c5.1,-10.41 24.75,-74.81 27.85,-75.58 7.92,-31.84 113.87,39.16 121.83,15.11 16.84,-50.9 56.86,-151.73 56.86,-202.32 2.13,-0.53 1.79,-0.19 2.32,-2.32 12.39,-21.87 18,-54.32 31.33,-72.09 48.17,0 96.47,49.57 141.56,54.65 21.31,2.4 107.43,-99.54 123,-120.93 24.86,-34.17 58.51,-77.44 90.51,-103.48 14.4,-11.73 30.44,13.42 44.09,22.09 20.27,12.86 80.16,-9.42 112.55,-2.33 25.28,5.54 97.16,-0.25 120.68,-6.97 8.91,-22.35 -23.47,-54.65 12.76,-54.65 56.68,0 47.85,-60.66 83.55,-89.54 21.48,-17.39 106.31,-93.02 127.64,-93.02 103.19,-66.69 10.99,-167.39 -68.46,-209.29 -58.06,-30.61 -227.06,-70.83 -257.6,-124.42 -39.78,-5.68 70.47,-110.83 82.38,-126.74 16.28,-21.77 107.87,-144.76 125.32,-136.04 11.61,46.66 28.95,70.65 74.26,90.7 29.4,13.02 148.05,40.85 162.45,58.13 54.26,0 60.7,-69.75 89.35,-105.81 35,-44.07 106.68,45.6 171.73,15.12 44.14,-20.69 35.55,-24.42 84.7,-24.42 30.95,0 69.15,-21.87 78.91,-51.16 35.49,-51.38 49.36,-84.73 -10.44,-116.27 -26.37,-13.9 -53.97,-28.85 -83.55,-34.89 -26.85,-5.49 -46.19,-34.26 -67.3,-39.53 -5.63,-22.55 67.3,-93.99 67.3,-131.39 -27.12,-13.56 -45.9,-73.09 -32.49,-100 12.27,-24.64 11.7,-67.96 27.85,-86.04 15.77,-17.67 33.81,0.42 47.57,-32.56 12.06,-28.88 -3.43,-60.97 39.45,-63.95 42.71,-2.96 61.46,-34.21 82.39,-70.93 2.23,-0.44 24.63,-35.39 26.37,-36.78l0 0 49.05 67.01c65.56,102.24 207.01,151.38 287.77,250 52.46,64.05 246.69,162.74 328.38,174.41 4.75,19.03 57.49,79.53 78.9,84.88 3.26,19.58 63.25,-0.53 74.26,4.65 29.61,13.91 157.81,157.86 157.81,179.06 1.48,5.3 7.95,36.89 0,39.54l0 2.32c-9.78,2.44 3.67,34.76 5.8,39.54 3.9,8.78 51.25,10.71 69.62,38.37 22.18,33.38 36.39,27.5 63.82,46.51 6.01,4.17 67.85,116.26 69.62,127.9 10.86,71.37 78.07,170.62 113.72,236.04 20.9,38.35 29.9,91.58 53.37,124.41 23.93,33.46 10.27,82.08 24.37,119.77l38.29 152.32c10.3,40.95 32.31,73.76 42.93,105.81 16.33,-12.32 37.13,-41.33 37.13,-5.82 0,30.16 -0.77,27.91 25.53,27.91 19.43,0 25.62,23.22 46.42,24.42 55.48,3.21 96.5,0.28 149.68,17.44 79.75,25.72 149.44,52.32 236.71,52.32 102.31,0 185.97,-2.45 285.45,17.44 20.67,11.11 72.01,38.1 92.82,40.7 28.99,40.55 39.13,32.87 47.58,88.37 5,32.91 105.02,116.63 128.8,151.16 41.3,60 66.08,42.08 81.22,120.92 17.22,89.71 32.47,143.45 84.71,222.09 23.57,35.47 42.15,68.95 71.94,98.83 27.56,27.63 64.53,53.06 84.7,88.37 9.1,44.32 62.85,87.96 97.47,115.11 38.35,30.06 74.25,80.1 110.24,105.81 16.91,59.35 279.36,205.34 339.98,204.65l204.22 -2.33c82.47,-0.94 163.2,-17.44 242.51,-17.44 10.53,-7.3 6.98,-4.65 12.77,-8.14 18.17,0 34.74,-11.77 52.21,-13.95 27.38,-24.02 159.32,-63.85 192.62,-37.21 4.76,0.59 7.44,2.45 11.6,3.49 61.25,61.4 242.88,60.41 326.06,84.88 147.92,43.51 290.6,22.81 439.77,47.67 53.71,-5.19 122.91,8.09 182.18,4.66 37.9,-2.2 149.38,-53.52 171.73,-84.89 84.65,-10.58 177.22,-225.56 205.38,-293.01l68.46 -163.95c17.68,-42.33 45.61,-189.93 69.62,-213.94 50.5,-40.51 106.55,-168.84 150.85,-227.9 105.4,-140.54 263.77,-196.53 427,-246.51 68.77,-21.06 138.38,-93.24 210.03,-95.34l158.96 -4.65c-2.48,-7.49 -82.42,-45.17 -46.41,-47.68 46.14,-3.21 100.92,-44.44 143.88,-61.62 40.63,2.38 214.28,-170.77 239.03,-210.46 126.54,-31.63 239.22,-156.02 381.76,-84.88 52.39,26.15 108.72,85.81 148.52,129.06 46.13,50.11 124.49,111 158.97,166.28 16.38,19.4 86.54,86.44 90.51,102.32 5.94,0 65.56,21.51 66.14,23.26l-2.32 0c-6.52,-26.2 -103.27,-61.72 -103.27,-103.49 43.24,0 96.67,39.62 139.24,43.02l319.09 25.58c97.89,7.84 210.79,-29.07 310.98,-29.07 85.08,-15.95 188.98,-12.79 277.32,-12.79 35.83,0 169.79,43.07 182.17,80.23 3.95,0 10,4.14 11.61,-2.32 1.98,-0.99 1.84,-1.06 2.32,-3.49 59.37,-35.62 134.27,17.91 176.37,70.93 26.12,32.88 68.31,70.93 102.11,97.67 21.9,17.34 79.95,92.71 99.79,97.67l40.61 53.49 0 2208.39 -20108.91 1.61 0 -9044.66c5.12,1.26 6.11,-0.33 7.06,3.49l2.32 0 38.29 29.07c1.85,7.4 51.69,55.68 56.86,56.97 0.99,3.99 4.81,2.99 5.8,6.98 2.25,0.75 0.07,0.41 2.32,1.16 0.79,3.2 3.73,2.15 4.64,5.82 2.13,0.53 1.79,0.19 2.32,2.32l2.32 0c1.47,5.9 33.71,37.9 39.46,39.54 5.49,19.24 78.3,91.26 96.3,109.29 55.68,55.81 99.62,102.35 165.93,146.51 59.09,39.34 124.74,77.42 175.22,127.9 61.78,35.41 117.97,87 184.49,119.77 39.46,19.43 69.5,60.97 110.23,83.72 19.31,10.79 84.73,51.89 95.15,68.6 29.38,7.34 80.63,59.29 114.88,74.41 63.09,27.84 127.96,58.12 193.77,75.58 78.14,20.72 153.5,-10.36 222.79,3.49 82.51,16 168.92,-40.7 250.64,-40.7 83.27,0 80.98,2.81 152,38.38 74.48,37.31 205,-4.78 280.81,-26.75 45.9,-13.31 249.92,-131.94 261.07,-176.74 2.47,-0.61 5.2,-3.34 5.81,-5.81 25.18,-6.29 75.82,13.95 111.39,13.95 72.63,25.67 180.74,13.03 257.6,9.3l215.82 -10.46c0.75,2.26 0.41,0.07 1.16,2.33 2.24,0.56 2.92,1.24 3.48,3.48 14.42,3.6 59.42,63.88 73.1,76.75 27.83,26.16 56.86,54.19 86.9,82.47l0 0z"/>
  <path class="fil0 str0" d="M19986.86 17145.13c-11.2,0 -26.83,-2.49 -34.81,-10.47 -7.52,-7.52 -14.42,-5.86 -20.89,2.33 -7.74,9.82 -12.52,26.21 -18.57,38.37 -8.57,17.19 -17.93,31.91 -4.64,48.83 9.75,12.4 29.51,3.23 40.62,-2.32 22.15,-11.07 43.46,-14.42 68.46,-16.28 10.05,-0.75 16.36,-9.1 19.72,-17.44 2.28,-5.65 0.71,-6.26 -3.48,-10.47 -3.48,-3.48 -8.07,-9.86 -11.6,-11.62l0 -2.33 -34.81 -18.6zm-87.03 123.25c-34.83,0 -51.18,8.24 -84.7,-5.82 -27.18,-11.39 -40.69,-19.05 -71.95,-12.79 -80.45,16.1 -107.52,40.87 -192.61,30.24 -46.74,-54.67 -130.35,-119.75 -187.98,-169.77 -72.55,-62.95 -136.66,-102.27 -221.63,-146.5 -51.14,-26.63 -110.37,-27.46 -156.64,-52.33 130.35,-60.16 341.85,4.73 468.78,47.68 33.07,11.18 185.94,65.17 212.34,53.48 40.19,-17.78 150.63,4.2 177.53,41.86 20.45,3.71 41.8,30.25 69.62,33.72 41.4,-3.65 95.98,16.78 131.12,37.21 32.36,18.8 76.3,17.85 111.4,30.23 45.74,16.12 115.14,36.06 163.61,40.7 23.27,2.23 45.81,7.97 69.62,9.3 6.97,0.39 52.02,2.74 53.37,8.14 -56.31,14.07 -117.88,10.46 -177.53,10.46 -57.55,0 -110.31,29.42 -146.2,-24.41 -2.23,0.55 -17.38,26.33 -25.53,31.39 -22.12,13.71 -42.14,15.12 -68.46,15.12 -27.05,0 -48.08,10.38 -73.1,13.95l-51.06 8.14zm-688.39 -429.87c65.88,8.13 133.06,24.61 162.75,54.3l466.46 116.27c137.56,34.28 298.28,104.65 436.29,104.65l-56.85 -31.39c-16.76,-9.26 -47.95,-40.7 -63.82,-40.7 3,-9.02 97.02,22.45 114.87,31.4 11.27,5.64 88.79,33.8 90.51,40.69l192.62 0c48.47,0 78.81,51.17 116.03,60.47 -34.73,8.68 -83.69,-32.63 -102.11,-24.42 -25.43,11.35 -53.38,29.91 -82.38,12.79 -25.8,-15.24 -26.12,-17.76 -60.34,-15.12 -86.54,6.7 75.94,44.07 93.99,47.68 60.09,12.02 117.81,35.69 176.37,47.67 61.68,12.61 156.84,40.67 196.1,89.53 9.84,12.24 28.7,14.65 42.93,20.93 39.68,17.49 80.61,95.24 117.2,124.41l50.62 31.4 0 -16509.07 -20102.68 -0.52 0 9027.29c31.85,20.91 71.7,79.88 98.73,110.46 52.71,59.66 119.93,126.84 193.77,168.59 37.61,21.27 90.38,43.52 133.44,46.51 34.64,2.41 80.15,-32.89 105.6,-24.41 -4.88,1.62 -31.27,31.34 -32.49,36.04 -4.13,15.97 -75.27,53.87 -91.67,63.95 -25.21,15.48 39.31,63.99 41.77,83.72 0,17.85 97.16,103.19 109.07,67.44 -62.67,-15.66 -33.72,-139.9 -10.44,-177.9 13.51,-22.07 125.29,22.09 147.36,22.09 2.55,10.2 13.93,18.47 13.93,29.07 20.56,5.14 35.31,25.58 70.78,25.58 7.46,29.85 3.48,69.06 3.48,101.16 0,39.06 -40.56,33.71 -76.58,33.71 0,29.57 80.3,22.66 100.95,25.58 23.13,3.26 1.16,-39.43 1.16,-66.27 0,-45 193.33,20.19 201.9,54.65 -1.78,0.59 -1.16,-0.03 -1.16,2.32 -44.33,11.08 -82.36,6.98 -128.8,6.98 11.18,33.55 111.46,22.18 141.56,32.56 24.11,8.32 20.98,-36.05 52.22,-36.05 67.61,0 86.41,26.34 139.24,61.63 56.96,38.06 140.7,39.93 204.22,55.81l12.76 -1.17c104.86,63.06 304.41,-1.15 406.13,80.23 97,0 199.15,27.91 299.37,27.91 22.6,0 43.59,7.16 64.67,14.75l0 0 5.11 -133.93c15.63,-49.36 24.16,-117.69 33.49,-168.02 9.27,-50.05 30.17,-92.09 30.17,-147.66 0,-31.91 -73.34,-102.15 -10.45,-130.23 47.46,-21.18 98.87,-29.07 150.85,-29.07 -12.06,-48.24 -41.51,-102.77 -58.02,-152.31 -10.44,2.61 -41,61.54 -55.7,52.32 -32.5,-20.37 -65.45,-68.95 -85.86,-103.48 -12.04,-20.36 60.21,-126.43 75.42,-130.23 17.07,-23.76 96.49,-154.12 112.55,-158.13 0.53,-2.14 0.2,-1.8 2.33,-2.33 0.68,-2.04 2.8,-1.44 3.48,-3.48 26.86,0 62.42,3.82 87.02,-2.33l19.73 -106.97c2.47,-13.4 23.01,-87.67 6.96,-93.02 -0.39,-1.97 -4.87,-8.78 -6.96,-9.3 -4.5,-18.03 -33.27,-54.15 -42.93,-74.41 -18.36,-38.46 -34.24,-107.78 -9.29,-147.67 21.85,-34.95 51.53,-143.29 88.19,-161.62 14.41,-31.61 22.95,-72.36 32.49,-101.16l90.51 22.09c22.15,5.4 69.39,37.21 83.54,37.21l1.16 -1.16c0,-53.23 41.28,-135.63 59.18,-189.53 15.93,-47.95 62.66,-139.79 62.66,-184.87 -32.94,0 -61.07,-49.51 -89.35,-60.46 -78.2,-30.28 -65.38,-83.24 -39.45,-141.85 12.13,-27.4 34.4,-60.32 52.21,-86.05 22.52,-32.56 29.19,-71.49 40.62,-105.8l41.77 -224.41 107.91 -45.35 12.77 -108.13 170.57 -13.95 -53.38 229.05 55.7 302.31 438.61 230.22 63.82 5.82 10.44 40.69 68.46 74.42 131.12 -76.74 78.9 104.64 -47.57 113.95 -114.87 24.42c-29.35,26.24 -57.61,47.88 -93.99,56.97l-1.16 1.16c0,38.47 29.37,83.28 37.13,122.09 10.68,5.34 50.74,57.48 56.85,69.76 51.09,102.76 172.07,155.24 241.36,241.85l37.13 41.86 47.57 -4.65 313.3 341.84 47.57 5.81 165.93 89.53c23.3,-9.47 36.96,-45.6 54.54,-49.99 1.31,-5.29 55.12,1.63 67.3,-4.65 21.26,-10.95 39.71,-17.1 58.01,-33.72 25.96,-23.59 52.86,-58.14 89.35,-58.14 28.12,0 41.97,12.18 66.14,-8.14 35.08,-29.5 4.04,-64.98 -4.64,-99.99 -6.08,-24.51 -6.84,-36.3 1.16,-60.47 7.07,-21.39 33.28,-40.35 37.13,-55.81 20.83,-8.74 27.41,-8.14 48.73,-8.14 0.59,-1.78 -0.02,-1.16 2.33,-1.16l1.16 -1.16c8.7,-34.8 -5.06,-80.96 4.64,-119.76 34.56,-8.64 81.43,8.14 119.51,8.14 42.09,0 3.73,-40.64 16.25,-67.44 9.18,-19.63 88.32,-47.94 111.39,-68.6 30.68,-27.49 80.76,42.82 112.55,34.88 18.32,-73.3 129.04,-80.05 133.44,-97.67 2.05,-0.68 1.45,-2.81 3.49,-3.49l0 -152.31c0,-18.24 37.83,-51.62 48.73,-67.44 26.81,-38.95 28.74,-109.61 53.38,-137.2 23.35,-26.13 102.3,-67.53 136.92,-79.07l47.57 -32.56 30.17 -209.29 312.13 -309.28 44.1 0 69.62 -67.44 105.59 -31.39c0,-61.93 -91.67,-57.51 -68.46,-134.88 22,-73.37 123.75,-182.05 190.3,-219.76 26.08,-14.77 97.41,-57.79 99.79,-89.53 3.24,-43.35 -15.99,-81.34 -5.81,-122.08 12.28,-3.07 90.2,-45.28 92.83,-55.81 45.29,-11.32 -17.4,-160.13 -17.4,-188.37 1.91,-1.43 1.76,-0.64 2.32,-2.32 17.81,0 36.16,-13.95 52.21,-13.95 16.71,-9.57 7.05,-8.17 16.25,-10.47 7.62,-22.87 113.01,-29.44 121.83,-52.32 26.94,-69.93 -50.54,-182.09 -31.33,-244.17 12.14,-39.26 28.87,-94.76 31.33,-136.04 0.63,-10.72 11.08,-100.91 16.25,-103.49 0,-9.11 81.65,-21.41 96.31,-18.6 19.36,3.72 95.44,1.14 100.95,-20.93 7.64,-2.54 9.26,-67.66 16.24,-80.23 2.5,-4.52 72.32,22.08 92.83,19.77 31.05,-3.49 48.79,-33.72 74.26,-33.72 23.61,94.46 140.74,95.34 216.99,95.34 46.18,-15.85 94.15,-7.53 135.76,17.45 50.34,30.21 61.41,-12.46 107.91,-5.82 25.14,35.28 144.36,3.49 185.66,3.49 90.81,90.81 226.25,68.25 337.66,97.67 65.25,17.22 79.34,68.11 146.2,32.56 45.27,-24.06 60.89,51.16 111.39,51.16l81.23 -62.79 120.67 104.64 69.63 -84.88 80.06 60.47 34.81 -30.23c40.84,-10.83 56.65,19.67 89.35,36.04 12.99,6.51 27.8,16.29 42.93,15.12 15.78,-1.21 32.53,-15.31 47.57,-17.45 9.2,-12.89 15.12,-8.87 18.57,-27.9 9.45,-52.15 6.89,-123.18 -5.8,-174.41 -9.55,-38.52 -31.57,-106.08 -22.05,-144.18 3.84,-0.96 5.25,-4.08 9.28,-4.65 9.51,-14.26 38.39,-24.49 51.06,-37.21 66.51,-75.74 110.87,-116.83 90.51,-229.05 -8.6,-47.39 -19.8,-104.37 -22.05,-152.32 -1.12,-23.93 1.75,-43.07 3.48,-66.28 1.95,-26.05 -9.83,-37.61 -12.76,-58.13 -30.58,-15.29 -20.62,-85 -11.61,-110.46 14.57,-41.12 17.41,-50.55 17.41,-91.86 -30.09,-20.06 16.32,-79.47 26.69,-97.67 5.07,-16.27 18.56,-69.6 18.56,-83.71l164.77 -246.5c44.71,0 85.16,29.59 129.96,17.44 45.16,-12.26 59.97,-25.87 107.91,-13.95 41.12,10.22 64.28,-10.47 102.11,-10.47 56.04,0 104.28,17.67 161.29,3.49 18.77,-4.66 158.21,-13.64 167.09,-6.98 184.6,29.87 292.99,-13.95 570.89,-22.09l228.59 208.13 181.01 -36.04c58.68,-8.82 103.73,-34.42 165.93,-37.21 51.32,-2.31 84.71,-22.7 128.8,-33.72 0,-24.1 -23.05,-48.62 -34.81,-69.76 -16.67,-29.99 -43.78,-87.37 -46.41,-119.76 -2.58,-31.89 24.68,-49.95 15.08,-88.37l-140.4 -6.98c-4.19,-5.59 -3.24,-99.55 2.32,-106.97 26.77,0 69.48,-17.73 91.67,-32.56 26.27,-17.54 25.53,-52.78 25.53,-82.55 0,-24.83 24.35,-20.48 32.49,-40.69 8.22,-20.38 9.28,-67.57 9.28,-90.7 0,-42.46 40.87,-47.22 44.09,-69.76l6.96 -18.6c1.4,-0.46 3.01,-2.72 3.49,-4.66 57.79,-14.44 37.84,-70.44 73.1,-105.8 32.14,-32.25 32.63,-42.62 76.58,-59.3 22.64,-8.6 57.31,2.56 37.13,-26.75 -48.75,-70.83 66.14,-132.31 66.14,-194.17 -3.44,-1.14 -4.75,-4.65 -10.44,-4.65 -6.77,-13.54 -107.76,-44.42 -126.48,-48.84 -51.06,-12.04 -99.4,-51.95 -142.72,-62.78 0,-23.73 80.87,-91.9 96.31,-118.6 16.69,-28.88 -3.02,-21.3 -23.21,-30.23 -17.68,-7.83 -39.5,-34.32 -55.7,-38.37l0 -8.14c41.14,-13.71 -3.15,-93.29 64.98,-59.3 70.35,35.11 63.82,-26.11 118.36,-53.49l157.8 -341.84c28.9,-1.69 56.21,11.08 82.39,19.77 93.21,30.92 261.67,3.4 315.61,90.69 28.73,46.48 39.26,53.49 90.51,53.49 28.41,0 23.66,-7.99 39.45,13.95 8.44,11.71 20.03,47.45 22.05,61.62 37.26,18.63 122.65,12.51 150.84,40.7 19.74,7.65 111.37,25.89 131.12,19.77 71.52,-22.16 36.31,-140.86 129.96,-60.47 49.83,42.76 19.47,101.16 102.11,101.16 26.49,-26.49 56.29,-106.68 77.75,-145.34 42.42,-76.38 72.93,-135 136.92,-194.18 47.15,-43.59 132.42,-141.17 193.78,-148.82 20.26,-24.38 67.45,-59.4 93.98,-86.05 14,0 33.58,0.31 45.26,6.98 26.17,-5.08 48.69,6.97 71.94,1.16 0.53,-2.13 0.19,-1.79 2.32,-2.32 47.27,-189.92 235.97,-197.71 368.99,-296.5 59.6,-44.27 134.6,-47.82 134.6,-130.22 0,-32.83 -6.8,-85.67 10.44,-111.63 6.91,-10.39 34.27,-75.23 35.97,-87.2 4.15,-2.07 17.21,-16.51 19.73,-20.93 102.94,-25.73 197.2,1.27 276.16,80.23 7.92,4.09 44.44,22.11 46.42,29.07 27.59,7.88 49.43,91.62 74.26,111.62 30.14,24.29 74.22,54.48 111.39,68.6 30.46,11.56 55.85,14.02 82.39,32.56 47.82,33.43 64.72,84.21 134.6,62.78 38.82,-11.91 101.03,-20.41 85.86,40.7 -18.35,73.93 -47.57,177.78 -47.57,253.47 0,107.14 -39.02,169.05 -74.26,266.27l-203.06 459.28c-55.93,10.82 -103.52,-16.08 -142.73,-52.33 -25.6,-23.68 -39.76,-68.28 -52.21,-101.15 -17.14,-45.21 -55.8,20.3 -85.87,29.06l-63.82 18.61c-10.15,2.95 -59.93,7.64 -60.34,9.3 -38.26,9.56 33.74,87.84 41.78,102.32 17.02,30.69 -185.17,136.64 -216.99,152.32 -90.57,44.61 -113.21,49.14 -71.94,152.31 80.7,44.66 67.7,110.75 53.38,194.18l-37.14 216.27c-10.72,62.48 30.53,152.74 -35.97,186.03 -28.61,14.33 -60.33,27.88 -60.33,63.95 0,27.22 -20.72,54.04 -46.42,60.46 -18.54,37.24 0.45,35.67 -3.48,79.07 0,106.38 -88.05,175.74 -170.57,226.73 -48.81,30.17 -49.75,25.56 -91.67,-11.63 -7.79,-6.9 -27.45,5.82 -38.29,5.82 -19.06,0 -47.91,-7.46 -63.82,-3.49 0,19.99 24.29,64.55 29.01,88.37 6.6,33.33 4.76,69.12 12.76,101.15 5.27,0 7.77,0.36 11.61,-3.48 12.7,5.08 42.19,-12.59 66.14,-3.49 41.6,15.79 61.41,36.61 110.23,39.53 39.11,2.33 68.42,44.18 91.67,44.18 1.09,3.3 15.7,9.47 19.72,10.47l0 2.32c23.21,-19.92 33.85,-37.37 38.3,-68.6 39.55,-22.6 30.19,37.89 35.97,60.47 5.44,21.29 17.4,61.26 17.4,81.39 0,22.11 -15.77,36.83 -13.92,61.62 3.45,45.99 29.28,81.31 73.1,88.37 85.09,13.73 -71.33,-179.24 32.49,-122.09 23.04,12.69 41.54,44.14 67.3,59.3 24.74,14.55 44.63,38.21 67.3,51.16 2.43,17.05 52.48,80.46 67.3,93.02 66.53,56.37 129.95,-80.68 170.57,-44.18 21.56,19.38 42.73,56.86 38.29,87.2 -5.84,39.84 -39.08,59.49 -10.44,97.67 10.55,12.02 31.18,40.44 42.93,48.83 13.92,55.83 75.13,30.68 112.56,29.07l107.91 -4.65c11.19,-0.48 81.16,134.77 92.83,158.13 39.2,78.4 -54.7,181.97 100.95,189.53 26.13,1.26 34.88,17.01 56.85,26.74 28.11,12.44 74.58,-2.4 96.31,22.09 17.76,20 21.14,67.16 -5.8,82.55 -11.48,40.31 20,53.52 27.85,94.19l20.88 108.13c6.35,7.12 9.53,7.49 10.45,13.95 66.5,38 -59.69,262.18 -88.19,306.96 -28.39,44.63 -62.34,75.03 -92.83,120.93 -21.74,32.71 -28.01,40.69 13.93,40.69 40.13,0 67.14,14.52 99.79,18.6 40.74,65.46 87.28,72.17 156.64,55.82 55.95,-13.18 118.38,4.65 176.38,4.65 80.39,0 146.99,-1.13 218.14,44.18 45.93,29.24 133.38,64.25 183.34,76.74 12.86,51.47 -139.95,95.83 -143.89,111.62 -2.84,0.71 -2.77,2.87 -4.64,3.49 0,12.94 3.14,23.76 -2.32,36.04 12.3,31.85 -1.63,73.57 10.44,106.98 27.53,76.25 39.96,53.88 -30.16,116.27l-134.6 119.76c-3.96,-11.89 -67.7,-48.39 -80.07,-55.81 -16.27,12.2 -37.28,30.86 -58.02,36.04 -6.19,24.89 13.66,99.34 -22.04,113.95 -35.87,14.67 -73.62,23.43 -105.59,46.51 -45.02,32.49 -58.23,101.91 -113.72,136.04 -61.3,37.72 -140.36,65.07 -181.01,129.06 -87.09,99.17 7.43,139.98 69.62,202.32 82.62,10.32 50.49,225.26 63.82,279.05 29.99,121.01 78.71,169.37 -1.16,289.52 0.34,-1.57 0.89,-2.15 0,-3.49 -21.85,5.46 -18.79,35.69 -25.53,53.49 -17.17,45.28 -90.87,-9.86 -69.62,59.3 21.16,68.86 57.39,136.69 78.9,206.96 10.33,33.74 42.3,64.97 58.02,96.51 17.21,34.55 43.07,63.74 59.18,99.99l68.46 117.44 -89.35 84.88 -60.34 -115.11 -565.09 68.6 -280.8 37.2c-11.34,-27.1 -27.38,-48.29 -38.29,-76.74 -2.42,-6.31 13.92,-52.91 13.92,-67.43 -24.34,-8.11 -33.02,-27.13 -67.3,-3.49 -47.7,32.91 -41.93,135.43 -73.1,187.2 -43.67,72.55 -137.7,102.89 -179.85,180.22 -17.34,31.83 -15.09,90.89 -15.09,127.9 0,61.49 -9.91,102.32 -33.65,159.29 -5.77,32.81 -2.53,59.64 -17.4,90.7 -19.81,41.4 -52.76,72.15 -55.7,118.59 -1.96,30.9 -14.96,83.1 -8.12,110.46 50.62,25.31 107.21,44.85 161.29,69.77l116.03 53.48c33.49,15.42 28.28,97.39 41.77,132.55 9.75,25.39 18.57,46.7 18.57,74.42 0,15.09 -23.4,77.73 -34.81,84.88 7.58,27.02 0.81,22.83 -9.28,43.02 -13.92,5.22 -23.16,12.16 -33.65,20.93 -9.91,79.33 -68.57,109.68 -120.68,165.1 -22.86,24.3 -58.86,63.18 -84.71,82.56 -26.04,19.54 -43.28,51.09 -66.14,67.44 -1.17,5.86 -3.48,8.54 -3.48,15.11 63.86,63.86 146.81,79.8 126.48,191.85 -4.85,26.75 -13.03,90.47 9.28,110.46 38.93,34.87 41.87,53.52 37.14,110.46 6.8,39.78 -8.57,93.73 45.25,67.44l92.83 -45.35c22.36,-10.93 28.05,-25.02 53.37,-16.28 67.16,23.2 148.95,-4.08 210.03,16.28 0,36.06 7.72,131.32 -32.49,139.53 -84.05,17.15 -29.11,74.55 -93.99,111.62 -2.24,15.76 -18.27,36.1 -22.05,54.65 -6.97,34.27 36.96,58.9 16.25,94.18 -30.27,51.54 -57.42,95.06 -54.54,159.29 1.37,30.46 17.4,59.64 17.4,91.86 0,38.88 17.28,39.08 27.85,70.93 4.15,6.34 6.39,9.3 9.29,15.11 19.33,15.34 27.9,53.12 53.37,62.79 23.39,8.87 55.93,0.68 76.58,11.63 98.76,52.42 241.56,113.33 323.74,187.19 46.2,41.53 108.13,74.64 150.85,117.44 29.68,29.75 43.57,78.88 89.34,67.44 21.93,-51.31 27.22,-60.64 83.55,-73.25 32,-7.17 119.05,-1.62 141.56,-15.12l106.75 -13.95 262.24 -262.78c22.98,9.98 26.47,59.44 32.49,83.72 13.45,54.15 49.94,91.02 53.38,148.83 3.85,64.54 83.48,125.89 134.6,162.78 31.26,22.57 12.76,88.41 12.76,119.76 0,27.15 28.08,69.96 52.22,87.2 2.94,23.68 71.52,1.42 76.58,46.51 2.39,21.28 -22.12,73.67 -34.81,89.53 -1.77,16.87 -7.1,29.1 -15.09,43.02 -87.59,21.89 -92.82,80.47 -92.82,165.11 21.06,21.06 71.01,-12.42 90.5,24.42 31.03,58.68 46.34,137.2 131.12,137.2 72.38,0 89.37,-45.29 147.37,-67.44 28.75,-10.97 56.48,8.56 83.54,18.61 71.82,26.66 46.35,50.46 25.53,115.11 -17.35,53.84 -23.93,139.29 -49.89,186.03 6.66,77.89 45.18,32.43 81.22,68.6 26.95,27.03 27.65,211.55 35.97,259.29 13.01,74.68 93.06,68.34 150.85,90.69 34.11,13.2 120.03,45.93 143.88,72.09 35.02,38.39 70.91,121.34 132.28,94.18 32.14,-14.23 43.76,-31.37 77.74,-17.44 12.58,5.16 83.55,27.05 83.55,38.37l-16.25 55.81c-34.64,119.01 109.56,34.69 145.04,46.51 3.44,24.14 20.11,44.94 24.37,66.28l25.53 44.18 -27.85 163.95 181.02 104.64 -56.86 122.09 133.44 93.02c14.4,12.7 25.17,35.36 40.61,44.18 12.45,43.7 159.88,113.11 203.06,123.25 57.31,13.47 108.51,83.88 154.33,123.25l244.83 210.45c38.27,32.89 44.8,40.25 -12.76,68.6 -17.77,8.76 -100.58,55.53 -104.43,70.93l2.32 1.16c5.01,15.14 61.71,59.41 76.58,73.25 16.65,15.48 33.65,75.58 35.97,76.74 0,5.09 7.36,21.91 12.76,23.26 6.67,13.35 17.11,25.76 22.05,39.53 6.15,17.17 12,35.95 30.17,41.86 36.87,12.01 77.89,16.61 118.35,11.63 24.05,-2.96 49.17,-0.98 73.11,-4.65 10.34,-1.59 38.62,0.06 46.41,-5.82 2.86,2.16 10.02,1.17 13.92,1.17l76.59 -452.31 134.6 11.63 223.94 119.76 -298.2 449.98c5.86,3.44 13.89,10.86 20.88,11.63 13.08,10.47 30.7,10.33 44.1,18.6 19.57,12.06 37.25,18.45 48.73,39.53 12.78,23.45 -8.12,47.5 -8.12,69.77 -4.39,7.32 -4.56,49.82 -8.43,56.29l0 0z"/>
  <path class="fil0 str0" d="M3200.97 10871.71c23.89,8.61 47.93,17.8 74.57,17.8 39.99,0 135.63,-4.54 169.41,10.47 61.02,35.46 146.96,26.27 215.82,34.88l306.33 38.37c85.37,10.68 233.14,-22.54 286.61,52.32 32.29,4.03 144.94,22.48 167.09,41.86 15.53,1.41 29.26,18.39 44.09,22.09 100.67,0 162.62,20.78 254.12,52.33 88.37,30.46 198.03,92.32 290.09,99.99 11.54,9 74.35,26.45 90.5,27.91 28.7,25.11 154.73,44.88 197.26,56.97 72.16,20.51 177.77,39.93 241.35,74.41 11.58,1.5 38.05,9.82 47.58,17.44 71.25,0 134.85,29.1 203.06,48.84l365.51 105.81c63.01,18.23 138.48,39.48 199.58,63.95 53.41,21.38 142.86,21.29 186.81,46.51 22.52,0 153.49,5.95 158.97,27.9 28.06,4 21.68,7.91 55.7,5.82 110.66,-6.8 266.34,32.38 374.79,68.6 66.81,22.32 141.43,44.18 212.34,44.18 35.94,0 196.06,-23.83 216.99,-8.14 72.24,21.01 191.68,17.44 268.04,17.44 84.83,0 172.89,19.77 254.12,19.77 10.42,4.63 25.74,6.97 37.13,6.97 46.1,20.58 283.76,23.5 330.7,0 35.92,0 73.21,-10.46 109.07,-10.46 95.1,12.27 193.78,51.16 292.41,51.16 95.22,-76.18 205.35,-53.46 317.93,-84.88 61.41,-17.14 107.93,-31.04 171.73,-39.53 34.67,-4.62 159.49,-8.13 181.02,22.09 53.88,20.38 128.22,18.2 185.65,32.58 34.74,8.69 90.03,26.75 124.16,26.75 -41.14,10.28 -44.58,13.02 -10.44,34.88 24.6,15.74 97.49,55.81 125.31,55.81 21.86,0 109.32,-38.11 118.36,-29.07l215.82 -8.14 8.13 24.42 -284.29 30.23 58.02 38.37 236.71 -3.48 10.44 25.58 -171.73 9.3 196.1 76.74 196.1 -38.37 -80.07 -216.27 119.52 -32.56 0 19.77 -95.15 31.39 77.74 167.44c106.21,0 207.88,21.76 310.98,39.53 55.81,9.61 222.15,66.14 234.39,115.11 -109.96,0 -209.6,-95.26 -327.22,-99.99 -30.82,-1.23 -234.64,-43.35 -156.65,34.88 26.7,26.77 114.46,38.74 152.01,45.35 100.02,17.63 182.84,60.12 275,90.69 80.64,26.76 157.23,88.07 235.55,123.25 18.53,8.33 -81.62,-190.18 -92.83,-219.76 -13.86,-36.6 -60.57,-98.02 -45.25,-122.09 27.78,-43.68 59.04,41.14 70.78,58.14 20.15,29.2 46.27,71.88 58.02,104.65 7.24,20.18 -37.05,-10.6 -25.53,8.14 9.21,15 10.36,58.76 27.85,63.95 18.2,5.41 55.46,15.16 64.98,27.91 -43.05,0 -8.3,76.95 1.16,94.18 14.88,27.13 110.57,64.51 114.87,86.04 82.83,10.72 160.6,29.07 247.16,29.07 71.85,0 81.93,-10.27 138.08,-47.67 51.85,-34.52 187.31,26.09 242.51,43.02 28.99,8.88 56.45,27.27 83.55,33.72 24.02,5.71 60.8,3.55 82.38,12.79l1.16 3.49 -84.7 17.44c-9.44,29.29 -19.54,42.87 -2.33,72.09 18.18,30.85 25.54,56.98 68.47,56.98 20.78,0 44.39,-8.14 66.13,-8.14 13.1,0 48.39,-0.03 59.18,-4.65 5.78,3.47 25.49,-0.07 29.01,6.97 2.29,0 2.65,0.68 4.64,1.17l1.16 1.16 1.16 1.16c0,6.69 -68.73,27.01 -81.22,36.05 -12.94,9.38 -1.16,43.96 -1.16,58.13 0,17.9 -11.6,30.13 -11.6,48.84 0,29.48 23.49,54.91 39.45,77.9 13.51,19.44 55.69,44.02 55.69,69.77 -6.25,16.18 -10.83,31.56 -11.6,48.83 -0.71,16.13 5.42,24.5 6.96,38.37 12.88,14.79 17.56,35.23 30.17,50 33.74,39.48 87.61,62.13 93.99,119.77 21.74,25.36 18.57,70.96 18.57,103.48l1.16 2.33 -139.25 4.65 -19.72 -152.32 -163.61 25.58 -35.97 -168.6c13.61,-24.73 10.67,-45.79 17.4,-72.09 9.69,-37.91 11.61,-81.52 11.61,-122.09 0,-12.24 -5.14,-34.79 -11.61,-44.19 -4.44,-6.47 -18.63,-36.48 -19.72,-44.18 -2.63,-1.88 -11.98,-11.94 -12.77,-15.12 -30.49,-42.77 -72.81,-67.72 -110.23,-102.32 -59.34,-54.88 -96.05,-106.93 -192.62,-88.37 -32.51,6.25 -78.78,-5.81 -113.71,-5.81 -17.69,0 -34.78,4.65 -52.22,4.65 -7.67,0 -46.5,-4.41 -48.73,2.33l-2.32 0 0 4.65c15.12,5.04 32.32,30.71 47.57,39.53l126.48 73.25c57.41,33.24 102.24,102.93 147.36,151.16 34.76,37.17 114.34,126.27 124.16,175.58 4.16,5.56 11.87,19.29 17.41,23.25 2.17,17.43 23.1,38.45 31.33,55.81 36.58,77.2 47.57,172.47 47.57,258.14 0,44.79 -17.91,72.58 -26.69,112.78 -8.39,38.38 -12.84,67.15 -16.24,108.14 0.17,5.25 11.02,45.21 16.24,46.51 0,184.93 362.86,273.06 502.43,283.71 104.68,7.98 229.61,63.65 300.53,140.69 58.78,63.87 114.79,263.69 67.3,345.34 -16.32,79.46 -0.8,126.39 75.43,151.16 21.7,7.05 35.41,33.87 56.85,38.37 122.62,25.74 239.5,47.12 357.39,94.18 97.15,38.77 155.18,44.19 257.6,44.19l1.16 1.16 0 3.49c-30.07,7.51 -69.47,82.54 -98.63,88.37 -5.73,22.94 -135.04,-16.72 -154.33,-24.42 -55.26,-22.05 -107.1,-37.21 -163.61,-37.21l-2.32 1.16c-2.24,9 -17.41,16.33 -19.72,23.26l-4.65 0c-14.94,-44.84 -91.39,-58.63 -129.95,-77.91 -33.66,-16.82 -73.07,-18.27 -109.08,-27.9 -42.77,-11.45 -79.87,-32.3 -120.67,-47.68 -32.52,24.77 -123.39,6.98 -164.77,6.98 -1.43,-1.91 -0.64,-1.76 -2.32,-2.32 -9.6,-48.18 -15.32,-118.21 12.76,-160.46 11.04,-16.63 28.14,-33.23 47.57,-38.37 21.09,-5.59 37.54,5.99 47.58,3.48 5.71,-28.59 40.18,-40.01 47.57,-69.76 15.34,-61.81 30.15,-123.42 6.96,-186.04 -74.94,-202.41 -262.44,-239.53 -460.65,-239.53 -184.9,-32.61 -358.24,-127.04 -406.12,-318.59l-2.33 0c-14.17,42.52 -50.01,86.54 -63.81,131.39 -22.79,74.01 -38.29,142.6 -70.79,216.27 -34.18,77.45 -15.42,147.57 -29,229.06 -7.05,80.2 -6.22,167.56 12.76,244.18 11.58,46.72 39.11,163.67 80.06,193.02 3.99,43.98 98.88,136.01 127.64,182.55 34.83,56.35 77.75,175.41 77.75,240.69 16.12,88.85 -4.48,185.44 16.24,273.25l30.17 127.9c8.92,37.81 28.19,90.02 31.33,127.9 20.52,26.43 21.82,72.15 51.05,93.02 3.42,9.44 10.69,13.29 15.09,22.09 17.08,10.71 24.99,31.73 45.25,41.86 2.53,4.06 5.59,7.57 8.12,11.63 27.34,13.67 108.65,67.99 126.48,93.02 102.14,69.45 182.88,117.69 270.36,210.46l139.24 147.67c19.28,20.44 92.92,126.19 109.08,130.23 0.75,2.25 0.41,0.07 1.16,2.32 4.01,0 7.71,-15.24 9.28,-19.77 10.98,-31.74 55.36,-49.69 78.9,-67.44 1.58,1.19 2.77,1.86 4.65,2.33 3.06,21.47 53.66,88.02 66.14,116.28 20.56,46.52 22.04,83.11 22.04,131.39 -15.03,5.01 -68.74,-71.13 -77.74,-88.37 -9.16,-17.52 -71.94,-65.25 -71.94,-19.77l105.59 132.55c31.45,39.47 63.82,123.71 63.82,175.58 0,35.48 11.58,53.32 15.08,81.39 40.62,29.01 50.6,156.83 85.87,205.81 41.39,57.49 58.23,114.17 111.39,167.44 71.33,71.5 208.8,149.59 310.97,158.13 93.6,7.83 321.23,-28.18 391.04,27.91 16.23,7.42 52.55,24.17 62.66,38.37 42.06,8.41 145.8,136.13 177.53,170.92 38.84,42.6 135.77,165.2 142.73,220.92 33.24,27.8 61.08,145.57 88.18,189.53 13.77,22.32 82.39,142.92 82.39,163.95 3.91,7.59 21.91,43.29 30.17,45.35 1.25,2.93 1.35,4.99 4.64,5.81 1.65,4.96 9.28,13.09 9.28,19.77l2.32 1.16c0.69,2.77 2.83,4.37 3.48,6.98 2.57,0.64 9.76,10.06 10.44,12.79 41.66,10.37 130.67,130.15 167.09,163.95 124.43,115.51 223.63,178.22 395.68,191.85 76.87,6.09 141.51,10.92 207.71,-34.88 50.56,-34.99 111.11,-111.63 178.69,-111.63 91.84,0 236.55,-30.51 320.25,0 28.79,10.5 210.37,73.9 218.15,89.54 16.15,4.61 46.62,46.66 67.3,58.13 135.34,75.02 278.88,61.63 430.49,61.63 5.08,0.49 11.78,2.68 16.24,0 161.84,20.23 270.06,-74.71 328.38,-212.78l223.95 -530.22 83.54 -188.37c20.13,-45.4 73.28,-95.92 84.71,-130.22 4.39,0 2.32,2.61 5.8,3.48 0,5.07 4.94,5.85 5.8,9.31 33.01,8.25 131.54,-92.28 168.25,-106.98 47.68,-19.08 81.69,-13.42 127.64,-26.74 81.78,-23.7 179.97,-50.4 255.28,-86.04 92.68,-43.87 198.79,-59.65 283.12,-123.26 9.32,-1.64 18.74,-7.14 26.69,-8.13 58.1,-48.59 173.09,-87.39 213.5,-152.33 54.5,-24.77 105.69,-99.56 157.81,-133.71 93.37,-61.16 195.51,-130.59 313.29,-136.04 31.43,-1.46 81.9,-0.17 133.14,6.16l0 0c3.87,-6.47 4.04,-48.97 8.43,-56.29 0,-22.27 20.9,-46.32 8.12,-69.77 -11.48,-21.08 -29.16,-27.47 -48.73,-39.53 -13.4,-8.27 -31.02,-8.13 -44.1,-18.6 -6.99,-0.77 -15.02,-8.19 -20.88,-11.63l298.2 -449.98 -223.94 -119.76 -134.6 -11.63 -76.59 452.31c-3.9,0 -11.06,0.99 -13.92,-1.17 -7.79,5.88 -36.07,4.23 -46.41,5.82 -23.94,3.67 -49.06,1.69 -73.11,4.65 -40.46,4.98 -81.48,0.38 -118.35,-11.63 -18.17,-5.91 -24.02,-24.69 -30.17,-41.86 -4.94,-13.77 -15.38,-26.18 -22.05,-39.53 -5.4,-1.35 -12.76,-18.17 -12.76,-23.26 -2.32,-1.16 -19.32,-61.26 -35.97,-76.74 -14.87,-13.84 -71.57,-58.11 -76.58,-73.25l-2.32 -1.16c3.85,-15.4 86.66,-62.17 104.43,-70.93 57.56,-28.35 51.03,-35.71 12.76,-68.6l-244.83 -210.45c-45.82,-39.37 -97.02,-109.78 -154.33,-123.25 -43.18,-10.14 -190.61,-79.55 -203.06,-123.25 -15.44,-8.82 -26.21,-31.48 -40.61,-44.18l-133.44 -93.02 56.86 -122.09 -181.02 -104.64 27.85 -163.95 -25.53 -44.18c-4.26,-21.34 -20.93,-42.14 -24.37,-66.28 -35.48,-11.82 -179.68,72.5 -145.04,-46.51l16.25 -55.81c0,-11.32 -70.97,-33.21 -83.55,-38.37 -33.98,-13.93 -45.6,3.21 -77.74,17.44 -61.37,27.16 -97.26,-55.79 -132.28,-94.18 -23.85,-26.16 -109.77,-58.89 -143.88,-72.09 -57.79,-22.35 -137.84,-16.01 -150.85,-90.69 -8.32,-47.74 -9.02,-232.26 -35.97,-259.29 -36.04,-36.17 -74.56,9.29 -81.22,-68.6 25.96,-46.74 32.54,-132.19 49.89,-186.03 20.82,-64.65 46.29,-88.45 -25.53,-115.11 -27.06,-10.05 -54.79,-29.58 -83.54,-18.61 -58,22.15 -74.99,67.44 -147.37,67.44 -84.78,0 -100.09,-78.52 -131.12,-137.2 -19.49,-36.84 -69.44,-3.36 -90.5,-24.42 0,-84.64 5.23,-143.22 92.82,-165.11 7.99,-13.92 13.32,-26.15 15.09,-43.02 12.69,-15.86 37.2,-68.25 34.81,-89.53 -5.06,-45.09 -73.64,-22.83 -76.58,-46.51 -24.14,-17.24 -52.22,-60.05 -52.22,-87.2 0,-31.35 18.5,-97.19 -12.76,-119.76 -51.12,-36.89 -130.75,-98.24 -134.6,-162.78 -3.44,-57.81 -39.93,-94.68 -53.38,-148.83 -6.02,-24.28 -9.51,-73.74 -32.49,-83.72l-262.24 262.78 -106.75 13.95c-22.51,13.5 -109.56,7.95 -141.56,15.12 -56.33,12.61 -61.62,21.94 -83.55,73.25 -45.77,11.44 -59.66,-37.69 -89.34,-67.44 -42.72,-42.8 -104.65,-75.91 -150.85,-117.44 -82.18,-73.86 -224.98,-134.77 -323.74,-187.19 -20.65,-10.95 -53.19,-2.76 -76.58,-11.63 -25.47,-9.67 -34.04,-47.45 -53.37,-62.79 -2.9,-5.81 -5.14,-8.77 -9.29,-15.11 -10.57,-31.85 -27.85,-32.05 -27.85,-70.93 0,-32.22 -16.03,-61.4 -17.4,-91.86 -2.88,-64.23 24.27,-107.75 54.54,-159.29 20.71,-35.28 -23.22,-59.91 -16.25,-94.18 3.78,-18.55 19.81,-38.89 22.05,-54.65 64.88,-37.07 9.94,-94.47 93.99,-111.62 40.21,-8.21 32.49,-103.47 32.49,-139.53 -61.08,-20.36 -142.87,6.92 -210.03,-16.28 -25.32,-8.74 -31.01,5.35 -53.37,16.28l-92.83 45.35c-53.82,26.29 -38.45,-27.66 -45.25,-67.44 4.73,-56.94 1.79,-75.59 -37.14,-110.46 -22.31,-19.99 -14.13,-83.71 -9.28,-110.46 20.33,-112.05 -62.62,-127.99 -126.48,-191.85 0,-6.57 2.31,-9.25 3.48,-15.11 22.86,-16.35 40.1,-47.9 66.14,-67.44 25.85,-19.38 61.85,-58.26 84.71,-82.56 52.11,-55.42 110.77,-85.77 120.68,-165.1 10.49,-8.77 19.73,-15.71 33.65,-20.93 10.09,-20.19 16.86,-16 9.28,-43.02 11.41,-7.15 34.81,-69.79 34.81,-84.88 0,-27.72 -8.82,-49.03 -18.57,-74.42 -13.49,-35.16 -8.28,-117.13 -41.77,-132.55l-116.03 -53.48c-54.08,-24.92 -110.67,-44.46 -161.29,-69.77 -6.84,-27.36 6.16,-79.56 8.12,-110.46 2.94,-46.44 35.89,-77.19 55.7,-118.59 14.87,-31.06 11.63,-57.89 17.4,-90.7 23.74,-56.97 33.65,-97.8 33.65,-159.29 0,-37.01 -2.25,-96.07 15.09,-127.9 42.15,-77.33 136.18,-107.67 179.85,-180.22 31.17,-51.77 25.4,-154.29 73.1,-187.2 34.28,-23.64 42.96,-4.62 67.3,3.49 0,14.52 -16.34,61.12 -13.92,67.43 10.91,28.45 26.95,49.64 38.29,76.74l280.8 -37.2 565.09 -68.6 60.34 115.11 89.35 -84.88 -68.46 -117.44c-16.11,-36.25 -41.97,-65.44 -59.18,-99.99 -15.72,-31.54 -47.69,-62.77 -58.02,-96.51 -21.51,-70.27 -57.74,-138.1 -78.9,-206.96 -21.25,-69.16 52.45,-14.02 69.62,-59.3 6.74,-17.8 3.68,-48.03 25.53,-53.49 0.89,1.34 0.34,1.92 0,3.49 79.87,-120.15 31.15,-168.51 1.16,-289.52 -13.33,-53.79 18.8,-268.73 -63.82,-279.05 -62.19,-62.34 -156.71,-103.15 -69.62,-202.32 40.65,-63.99 119.71,-91.34 181.01,-129.06 55.49,-34.13 68.7,-103.55 113.72,-136.04 31.97,-23.08 69.72,-31.84 105.59,-46.51 35.7,-14.61 15.85,-89.06 22.04,-113.95 20.74,-5.18 41.75,-23.84 58.02,-36.04 12.37,7.42 76.11,43.92 80.07,55.81l134.6 -119.76c70.12,-62.39 57.69,-40.02 30.16,-116.27 -12.07,-33.41 1.86,-75.13 -10.44,-106.98 5.46,-12.28 2.32,-23.1 2.32,-36.04 1.87,-0.62 1.8,-2.78 4.64,-3.49 3.94,-15.79 156.75,-60.15 143.89,-111.62 -49.96,-12.49 -137.41,-47.5 -183.34,-76.74 -71.15,-45.31 -137.75,-44.18 -218.14,-44.18 -58,0 -120.43,-17.83 -176.38,-4.65 -69.36,16.35 -115.9,9.64 -156.64,-55.82 -32.65,-4.08 -59.66,-18.6 -99.79,-18.6 -41.94,0 -35.67,-7.98 -13.93,-40.69 30.49,-45.9 64.44,-76.3 92.83,-120.93 28.5,-44.78 154.69,-268.96 88.19,-306.96 -0.92,-6.46 -4.1,-6.83 -10.45,-13.95l-20.88 -108.13c-7.85,-40.67 -39.33,-53.88 -27.85,-94.19 26.94,-15.39 23.56,-62.55 5.8,-82.55 -21.73,-24.49 -68.2,-9.65 -96.31,-22.09 -21.97,-9.73 -30.72,-25.48 -56.85,-26.74 -155.65,-7.56 -61.75,-111.13 -100.95,-189.53 -11.67,-23.36 -81.64,-158.61 -92.83,-158.13l-107.91 4.65c-37.43,1.61 -98.64,26.76 -112.56,-29.07 -11.75,-8.39 -32.38,-36.81 -42.93,-48.83 -28.64,-38.18 4.6,-57.83 10.44,-97.67 4.44,-30.34 -16.73,-67.82 -38.29,-87.2 -40.62,-36.5 -104.04,100.55 -170.57,44.18 -14.82,-12.56 -64.87,-75.97 -67.3,-93.02 -22.67,-12.95 -42.56,-36.61 -67.3,-51.16 -25.76,-15.16 -44.26,-46.61 -67.3,-59.3 -103.82,-57.15 52.6,135.82 -32.49,122.09 -43.82,-7.06 -69.65,-42.38 -73.1,-88.37 -1.85,-24.79 13.92,-39.51 13.92,-61.62 0,-20.13 -11.96,-60.1 -17.4,-81.39 -5.78,-22.58 3.58,-83.07 -35.97,-60.47 -4.45,31.23 -15.09,48.68 -38.3,68.6l0 -2.32c-4.02,-1 -18.63,-7.17 -19.72,-10.47 -23.25,0 -52.56,-41.85 -91.67,-44.18 -48.82,-2.92 -68.63,-23.74 -110.23,-39.53 -23.95,-9.1 -53.44,8.57 -66.14,3.49 -3.84,3.84 -6.34,3.48 -11.61,3.48 -8,-32.03 -6.16,-67.82 -12.76,-101.15 -4.72,-23.82 -29.01,-68.38 -29.01,-88.37 15.91,-3.97 44.76,3.49 63.82,3.49 10.84,0 30.5,-12.72 38.29,-5.82 41.92,37.19 42.86,41.8 91.67,11.63 82.52,-50.99 170.57,-120.35 170.57,-226.73 3.93,-43.4 -15.06,-41.83 3.48,-79.07 25.7,-6.42 46.42,-33.24 46.42,-60.46 0,-36.07 31.72,-49.62 60.33,-63.95 66.5,-33.29 25.25,-123.55 35.97,-186.03l37.14 -216.27c14.32,-83.43 27.32,-149.52 -53.38,-194.18 -41.27,-103.17 -18.63,-107.7 71.94,-152.31 31.82,-15.68 234.01,-121.63 216.99,-152.32 -8.04,-14.48 -80.04,-92.76 -41.78,-102.32 0.41,-1.66 50.19,-6.35 60.34,-9.3l63.82 -18.61c30.07,-8.76 68.73,-74.27 85.87,-29.06 12.45,32.87 26.61,77.47 52.21,101.15 39.21,36.25 86.8,63.15 142.73,52.33l203.06 -459.28c35.24,-97.22 74.26,-159.13 74.26,-266.27 0,-75.69 29.22,-179.54 47.57,-253.47 15.17,-61.11 -47.04,-52.61 -85.86,-40.7 -69.88,21.43 -86.78,-29.35 -134.6,-62.78 -26.54,-18.54 -51.93,-21 -82.39,-32.56 -37.17,-14.12 -81.25,-44.31 -111.39,-68.6 -24.83,-20 -46.67,-103.74 -74.26,-111.62 -1.98,-6.96 -38.5,-24.98 -46.42,-29.07 -78.96,-78.96 -173.22,-105.96 -276.16,-80.23 -2.52,4.42 -15.58,18.86 -19.73,20.93 -1.7,11.97 -29.06,76.81 -35.97,87.2 -17.24,25.96 -10.44,78.8 -10.44,111.63 0,82.4 -75,85.95 -134.6,130.22 -133.02,98.79 -321.72,106.58 -368.99,296.5 -2.13,0.53 -1.79,0.19 -2.32,2.32 -23.25,5.81 -45.77,-6.24 -71.94,-1.16 -11.68,-6.67 -31.26,-6.98 -45.26,-6.98 -26.53,26.65 -73.72,61.67 -93.98,86.05 -61.36,7.65 -146.63,105.23 -193.78,148.82 -63.99,59.18 -94.5,117.8 -136.92,194.18 -21.46,38.66 -51.26,118.85 -77.75,145.34 -82.64,0 -52.28,-58.4 -102.11,-101.16 -93.65,-80.39 -58.44,38.31 -129.96,60.47 -19.75,6.12 -111.38,-12.12 -131.12,-19.77 -28.19,-28.19 -113.58,-22.07 -150.84,-40.7 -2.02,-14.17 -13.61,-49.91 -22.05,-61.62 -15.79,-21.94 -11.04,-13.95 -39.45,-13.95 -51.25,0 -61.78,-7.01 -90.51,-53.49 -53.94,-87.29 -222.4,-59.77 -315.61,-90.69 -26.18,-8.69 -53.49,-21.46 -82.39,-19.77l-157.8 341.84c-54.54,27.38 -48.01,88.6 -118.36,53.49 -68.13,-33.99 -23.84,45.59 -64.98,59.3l0 8.14c16.2,4.05 38.02,30.54 55.7,38.37 20.19,8.93 39.9,1.35 23.21,30.23 -15.44,26.7 -96.31,94.87 -96.31,118.6 43.32,10.83 91.66,50.74 142.72,62.78 18.72,4.42 119.71,35.3 126.48,48.84 5.69,0 7,3.51 10.44,4.65 0,61.86 -114.89,123.34 -66.14,194.17 20.18,29.31 -14.49,18.15 -37.13,26.75 -43.95,16.68 -44.44,27.05 -76.58,59.3 -35.26,35.36 -15.31,91.36 -73.1,105.8 -0.48,1.94 -2.09,4.2 -3.49,4.66l-6.96 18.6c-3.22,22.54 -44.09,27.3 -44.09,69.76 0,23.13 -1.06,70.32 -9.28,90.7 -8.14,20.21 -32.49,15.86 -32.49,40.69 0,29.77 0.74,65.01 -25.53,82.55 -22.19,14.83 -64.9,32.56 -91.67,32.56 -5.56,7.42 -6.51,101.38 -2.32,106.97l140.4 6.98c9.6,38.42 -17.66,56.48 -15.08,88.37 2.63,32.39 29.74,89.77 46.41,119.76 11.76,21.14 34.81,45.66 34.81,69.76 -44.09,11.02 -77.48,31.41 -128.8,33.72 -62.2,2.79 -107.25,28.39 -165.93,37.21l-181.01 36.04 -228.59 -208.13c-277.9,8.14 -386.29,51.96 -570.89,22.09 -8.88,-6.66 -148.32,2.32 -167.09,6.98 -57.01,14.18 -105.25,-3.49 -161.29,-3.49 -37.83,0 -60.99,20.69 -102.11,10.47 -47.94,-11.92 -62.75,1.69 -107.91,13.95 -44.8,12.15 -85.25,-17.44 -129.96,-17.44l-164.77 246.5c0,14.11 -13.49,67.44 -18.56,83.71 -10.37,18.2 -56.78,77.61 -26.69,97.67 0,41.31 -2.84,50.74 -17.41,91.86 -9.01,25.46 -18.97,95.17 11.61,110.46 2.93,20.52 14.71,32.08 12.76,58.13 -1.73,23.21 -4.6,42.35 -3.48,66.28 2.25,47.95 13.45,104.93 22.05,152.32 20.36,112.22 -24,153.31 -90.51,229.05 -12.67,12.72 -41.55,22.95 -51.06,37.21 -4.03,0.57 -5.44,3.69 -9.28,4.65 -9.52,38.1 12.5,105.66 22.05,144.18 12.69,51.23 15.25,122.26 5.8,174.41 -3.45,19.03 -9.37,15.01 -18.57,27.9 -15.04,2.14 -31.79,16.24 -47.57,17.45 -15.13,1.17 -29.94,-8.61 -42.93,-15.12 -32.7,-16.37 -48.51,-46.87 -89.35,-36.04l-34.81 30.23 -80.06 -60.47 -69.63 84.88 -120.67 -104.64 -81.23 62.79c-50.5,0 -66.12,-75.22 -111.39,-51.16 -66.86,35.55 -80.95,-15.34 -146.2,-32.56 -111.41,-29.42 -246.85,-6.86 -337.66,-97.67 -41.3,0 -160.52,31.79 -185.66,-3.49 -46.5,-6.64 -57.57,36.03 -107.91,5.82 -41.61,-24.98 -89.58,-33.3 -135.76,-17.45 -76.25,0 -193.38,-0.88 -216.99,-95.34 -25.47,0 -43.21,30.23 -74.26,33.72 -20.51,2.31 -90.33,-24.29 -92.83,-19.77 -6.98,12.57 -8.6,77.69 -16.24,80.23 -5.51,22.07 -81.59,24.65 -100.95,20.93 -14.66,-2.81 -96.31,9.49 -96.31,18.6 -5.17,2.58 -15.62,92.77 -16.25,103.49 -2.46,41.28 -19.19,96.78 -31.33,136.04 -19.21,62.08 58.27,174.24 31.33,244.17 -8.82,22.88 -114.21,29.45 -121.83,52.32 -9.2,2.3 0.46,0.9 -16.25,10.47 -16.05,0 -34.4,13.95 -52.21,13.95 -0.56,1.68 -0.41,0.89 -2.32,2.32 0,28.24 62.69,177.05 17.4,188.37 -2.63,10.53 -80.55,52.74 -92.83,55.81 -10.18,40.74 9.05,78.73 5.81,122.08 -2.38,31.74 -73.71,74.76 -99.79,89.53 -66.55,37.71 -168.3,146.39 -190.3,219.76 -23.21,77.37 68.46,72.95 68.46,134.88l-105.59 31.39 -69.62 67.44 -44.1 0 -312.13 309.28 -30.17 209.29 -47.57 32.56c-34.62,11.54 -113.57,52.94 -136.92,79.07 -24.64,27.59 -26.57,98.25 -53.38,137.2 -10.9,15.82 -48.73,49.2 -48.73,67.44l0 152.31c-2.04,0.68 -1.44,2.81 -3.49,3.49 -4.4,17.62 -115.12,24.37 -133.44,97.67 -31.79,7.94 -81.87,-62.37 -112.55,-34.88 -23.07,20.66 -102.21,48.97 -111.39,68.6 -12.52,26.8 25.84,67.44 -16.25,67.44 -38.08,0 -84.95,-16.78 -119.51,-8.14 -9.7,38.8 4.06,84.96 -4.64,119.76l-1.16 1.16c-2.35,0 -1.74,-0.62 -2.33,1.16 -21.32,0 -27.9,-0.6 -48.73,8.14 -3.85,15.46 -30.06,34.42 -37.13,55.81 -8,24.17 -7.24,35.96 -1.16,60.47 8.68,35.01 39.72,70.49 4.64,99.99 -24.17,20.32 -38.02,8.14 -66.14,8.14 -36.49,0 -63.39,34.55 -89.35,58.14 -18.3,16.62 -36.75,22.77 -58.01,33.72 -12.18,6.28 -65.99,-0.64 -67.3,4.65 -17.58,4.39 -31.24,40.52 -54.54,49.99l-165.93 -89.53 -47.57 -5.81 -313.3 -341.84 -47.57 4.65 -37.13 -41.86c-69.29,-86.61 -190.27,-139.09 -241.36,-241.85 -6.11,-12.28 -46.17,-64.42 -56.85,-69.76 -7.76,-38.81 -37.13,-83.62 -37.13,-122.09l1.16 -1.16c36.38,-9.09 64.64,-30.73 93.99,-56.97l114.87 -24.42 47.57 -113.95 -78.9 -104.64 -131.12 76.74 -68.46 -74.42 -10.44 -40.69 -63.82 -5.82 -438.61 -230.22 -55.7 -302.31 53.38 -229.05 -170.57 13.95 -12.77 108.13 -107.91 45.35 -41.77 224.41c-11.43,34.31 -18.1,73.24 -40.62,105.8 -17.81,25.73 -40.08,58.65 -52.21,86.05 -25.93,58.61 -38.75,111.57 39.45,141.85 28.28,10.95 56.41,60.46 89.35,60.46 0,45.08 -46.73,136.92 -62.66,184.87 -17.9,53.9 -59.18,136.3 -59.18,189.53l-1.16 1.16c-14.15,0 -61.39,-31.81 -83.54,-37.21l-90.51 -22.09c-9.54,28.8 -18.08,69.55 -32.49,101.16 -36.66,18.33 -66.34,126.67 -88.19,161.62 -24.95,39.89 -9.07,109.21 9.29,147.67 9.66,20.26 38.43,56.38 42.93,74.41 2.09,0.52 6.57,7.33 6.96,9.3 16.05,5.35 -4.49,79.62 -6.96,93.02l-19.73 106.97c-24.6,6.15 -60.16,2.33 -87.02,2.33 -0.68,2.04 -2.8,1.44 -3.48,3.48 -2.13,0.53 -1.8,0.19 -2.33,2.33 -16.06,4.01 -95.48,134.37 -112.55,158.13 -15.21,3.8 -87.46,109.87 -75.42,130.23 20.41,34.53 53.36,83.11 85.86,103.48 14.7,9.22 45.26,-49.71 55.7,-52.32 16.51,49.54 45.96,104.07 58.02,152.31 -51.98,0 -103.39,7.89 -150.85,29.07 -62.89,28.08 10.45,98.32 10.45,130.23 0,55.57 -20.9,97.61 -30.17,147.66 -9.33,50.33 -17.86,118.66 -33.49,168.02l-5.11 133.93 0 0zm1231.43 565.47c15.3,24.51 24.49,35.23 11.61,62.79 -21.39,45.79 -78.37,37.2 -123,37.2 -19.49,0 -37.91,-3.16 -48.73,16.28 -27.68,49.77 58.65,39.62 81.22,31.4 32.96,-12.02 61.41,-24.42 97.47,-24.42 32.18,0 83.45,31.8 85.86,-22.09 0.98,-21.92 -25.98,-84.79 -51.05,-88.37 -1.95,-2.93 -0.37,-2.33 -3.48,-2.33l-49.9 -10.46zm3453.2 610.44c2.05,9.6 3.22,30.98 -2.32,38.37l109.07 4.65c44.67,1.89 -4.65,133.02 0,174.42 3.89,34.61 91.88,87.04 119.51,109.3l261.08 210.45c71.42,57.56 170.84,27.32 133.44,139.53 17.74,0 28.54,52.33 39.45,52.33 8.79,0 79.6,-121.41 90.51,-31.4 9.82,81.09 5.93,31.86 58.02,70.93 0,-59.94 64.09,-30.31 51.05,-102.32 -20.18,-111.35 14.83,-239.71 -23.2,-347.66 -51.93,-147.44 -160.08,-289.53 -324.9,-289.53 -37.1,0 -70.59,-29.35 -111.39,-29.07l-331.86 2.33 -68.46 -2.33zm1352.96 1342.98c-24.98,0 -50.49,-9.3 -70.78,-9.3l-2.32 -1.16c-3.97,-15.98 -47.6,-55.64 -58.02,-74.42 -18.28,-32.91 -54.47,-61.25 -77.74,-91.86 -39.96,-52.57 -90.51,-111.02 -90.51,-179.06 -1.41,-0.35 -6.76,-3.18 -6.96,-3.49 -21.33,0 -45.22,-11.63 -64.98,-11.63 -12.3,-36.92 -4.38,-129.93 3.48,-170.92 10.59,-55.16 8.12,-107.64 8.12,-166.27 9.5,-25.44 2.17,-67.01 1.16,-94.19 -1.12,-30.2 -9.17,-60.89 -10.44,-90.69 -2.47,-57.53 -25.53,-115.78 -25.53,-173.25 -1.42,-2.38 -1.16,-2.83 -1.16,-5.82 -5.47,-10.94 -6.77,-22.96 -11.6,-34.88 -14.28,-46.49 -47.69,-109.87 -76.58,-149.99 -29.42,-40.88 -84.71,-45.27 -84.71,-103.49 119.89,0 127.75,41.57 193.78,137.21 29.76,43.12 135.5,229.46 44.09,252.31 -0.55,2.24 -1.23,2.93 -3.48,3.49l2.32 177.9c2.45,0.81 4.19,3.73 6.96,5.82 24.39,-18.4 81.19,-185.94 89.35,-224.41 12.07,-56.83 17.26,-76.96 -20.89,-125.58 -26,-33.12 -45.1,-97.49 -63.81,-137.21 -6.58,-13.99 -60.51,-87.11 -46.42,-94.18 29.04,-14.56 153.34,10.62 167.09,41.86 44.72,101.55 88.71,178.57 106.75,290.69 7.62,47.42 11.07,92.44 8.13,141.85 -1.75,29.43 -13.26,54.38 -3.48,83.72l2.32 0c0.58,1.74 58.67,-4.03 67.3,-1.16 0,14.71 4.64,31.1 4.64,46.51 5.84,68.3 11.6,135.75 11.6,204.64 0,21.43 8.52,57.39 1.16,77.91 -3.19,8.92 -35.89,48.57 -20.89,52.32 1.79,3.59 41.77,19.2 48.74,20.93 14.71,3.65 31.5,8.08 45.25,4.65l1.16 -1.16c0.58,-2.34 1.16,-3.07 1.16,-5.81 1.93,-0.64 1.16,-2.37 1.16,-4.66 -1.97,-0.65 -1.16,-3.44 -1.16,-5.81l10.45 -334.87 64.98 46.51 15.08 231.39 212.34 -184.88 75.43 0 -29.01 96.51 -174.05 163.94c3.3,25.67 28.09,116.18 67.3,93.02 72.87,-43.03 130.02,-164.46 143.88,-246.5 9.68,-57.26 27.07,-139.25 12.76,-196.5 -17.69,-4.42 -57.72,2.55 -75.42,6.97l-1.16 1.17 -1.16 1.16 -1.16 1.16c-31.83,127.33 -281.89,-69.63 -320.26,-108.14 -51.89,-33.39 -43.6,-17.17 -51.05,-82.55 -13.64,-119.7 89.67,-24.9 126.48,18.6 32.95,38.92 91.12,87.44 135.76,115.12 145.26,90.07 -3.01,-81.18 -45.26,-117.44 -37.77,-32.43 -221.62,-148.85 -221.62,-189.53 2.76,-0.69 24.84,-37.04 30.17,-43.02 10.13,-11.34 76.19,56.87 89.34,67.44l170.57 137.2c62.55,50.3 52.22,-39.32 52.22,-94.18 -63.53,0 -238.04,-135.56 -304.01,-168.6 -105.88,-53.02 -177.82,-140.38 -2.32,-96.51 0,-72.02 -11.72,-35.3 -61.5,-47.67 -19.9,-4.95 -98.63,-27.84 -98.63,-50 23.78,0 68.46,-15.84 68.46,-38.37 0,-75.13 398,-98.69 398,-8.14 44.48,11.12 64.92,1.93 112.55,34.88 59.68,41.3 116.05,60.01 174.06,94.19 58.31,34.37 155.95,47.22 203.06,82.55 0,10.01 -1.16,18.26 -1.16,27.91l1.16 1.16c22.03,0 45.3,-27.1 64.98,-10.46 52.8,44.63 0.86,195.44 16.24,256.96 3.05,0 19.19,-2.47 19.73,-4.65 3.32,-1.1 16.31,-100.25 19.72,-113.95 30.5,0 49.33,36.41 67.3,55.81 36.66,39.6 93.25,57.97 131.12,98.84 39.77,42.94 74.11,104.92 85.87,163.95 19.43,50.28 11.03,120.86 90.5,104.64 15.15,-3.09 41.43,-12.95 56.86,-8.13 7.51,2.34 12.26,12.67 19.73,17.44 4.15,2.66 18.99,9.85 19.72,12.79 2.55,0.63 6.33,4.42 6.96,6.97 10.15,0 22.88,2.33 34.82,2.33 7.29,-21.88 11.38,-19.3 3.48,-51.16 -6.31,-25.43 -52.38,-68.57 -74.27,-84.88 -14.88,-11.1 -69.44,-45.29 -71.94,-62.79 -48.27,-12.06 -111.92,-94.12 -141.56,-133.72 -40.63,-54.3 -103.5,-83.96 -139.24,-146.5 -2.86,-9.19 -5.8,-14.36 -5.8,-23.26 14.98,-4.99 41.13,-41.09 52.21,-13.95 8.86,21.73 52.52,76.33 74.26,87.2 19.96,9.97 66.14,-28.75 66.14,-46.51 -24.27,0 -51.57,-42.39 -69.62,-56.97 -26.75,-21.6 73.36,-3.3 88.19,2.32 17.54,6.66 69,35.9 73.1,52.33 2.85,0 3.95,0.72 4.64,3.49l2.32 0c4.61,13.84 40.73,28.25 46.42,45.34l2.32 0c2.26,9.09 27.32,16.5 29.01,23.26 25.96,0 79.58,48.34 106.75,62.79 77.34,41.11 141.41,110.99 80.06,199.99 -22.03,31.97 -97.84,141.94 -87.02,174.41 71.45,0 97.2,-60.98 121.83,-125.57 24.3,-63.69 40.25,-96.84 12.77,-155.81 -32.12,-68.96 -71.65,-104.48 -131.12,-147.67 -31.04,-22.53 -45.48,-51.9 -78.91,-68.6 -21.22,-10.61 -72.07,-48.51 -83.54,-52.33l0 -2.32c92.63,0 206.15,51.9 294.73,81.39 65.74,21.88 150.25,100.37 212.34,108.13 38.67,18.77 75.37,47.84 113.72,65.12 42.84,19.31 76.65,17.77 117.19,27.9 17.2,69.1 0.41,88.4 -38.29,151.16 -24.9,40.37 -67.35,116.24 -81.23,158.14 -89.83,0 -180.55,17.44 -270.36,17.44 -50.41,0 -157.46,21 -198.42,3.49 -13.63,-9.76 -15.25,-22.29 -26.68,-33.72 -28.3,4.04 -42.93,34.88 -80.07,34.88 -58.73,0 -141.16,-28.97 -198.42,-44.19l-323.73 -86.04c-44.91,-11.94 -92.6,-12.62 -138.09,-22.09 -31.66,-6.58 -81.02,-24.42 -111.39,-24.42 -5.21,-6.87 -13.04,-15.24 -16.24,-23.25 -2.59,-0.64 -2,-0.9 -3.48,-3.49 -2.25,-0.56 -6.35,-4.03 -8.13,-5.82 -20.66,0 -31.26,-4.34 -48.73,8.14 -6.7,33.63 3.89,60.15 5.8,94.19 3.5,62.4 4.33,116.18 -2.32,177.9 -8.06,74.71 -43.6,143.79 -67.3,215.11 -12.9,51.71 -47.57,76.39 -47.57,136.04 0,66.72 -43.92,146.39 -56.86,213.94l-33.65 175.58c-1.69,0.56 -0.89,0.41 -2.32,2.33 -69.74,0 -172.51,-69.4 -240.19,-96.51 -15.58,-6.23 -127.78,-59.77 -112.56,-79.07 11.6,-14.69 67.3,-71.29 67.3,-84.88 -1.87,-0.62 -1.8,-2.78 -4.64,-3.49 -2.89,-5.79 -15.81,-4.58 -22.05,-8.14l-42.93 -12.79zm714.78 906.95c-5.04,-45.53 -51.66,-86.19 -61.5,-132.56 -7.65,-36.04 -23.05,-86.01 -37.13,-119.76 -24.83,-59.48 -8.43,-174.32 -62.66,-199.99 -45.82,-21.68 -81.89,-59.13 -128.8,-77.91 -63.34,-25.37 -115.45,-22.12 -178.7,-38.37 -44.99,-11.55 -188.67,-81.13 -222.78,-69.76 -4.63,37.07 8.11,82.38 17.4,118.6 5.59,21.77 54.54,80.93 54.54,89.53 -1.13,0.37 -3.11,2.36 -3.48,3.49 -70.06,10 -76.59,12.96 -127.64,-29.07 0,-16.17 -16.97,-41.24 -23.21,-55.81 -15.26,0 -77.74,45.36 -81.22,55.81l-6.96 0c-8.09,-32.37 -63.63,-73.99 -67.3,-110.46 -2.74,-27.17 64.94,-65.1 80.06,-90.7 50.91,-86.24 -45.79,-234.16 -98.63,-303.48 -20.21,-26.53 -98.4,-163.41 -124.16,-156.97 -21.89,87.93 0.99,227.19 18.57,315.11 2.44,0.81 2.55,3.93 3.48,6.98l18.57 106.97c4.37,25.17 11.9,75.41 27.84,95.34 1.78,19.74 20.78,42.13 23.21,61.63 17.67,22.09 19.29,60.23 47.58,74.42 5.02,8.03 16.06,19.67 17.4,29.06 68.66,47.67 129,147.23 157.81,223.25 15.92,42 44.46,45.5 83.54,62.79 20.85,9.23 43.59,15.47 64.98,24.42 13.82,5.77 29.65,24.65 39.45,27.91l0 2.32c-49.07,0 -96.6,-15.11 -145.04,-15.11l0 2.32c17.25,5.75 67.65,141.87 69.62,161.62 50.23,39.88 78.96,154.42 127.64,206.97 91.4,98.69 189.11,177.22 300.53,252.32 61.14,41.22 220.35,141.86 291.25,141.86 8.29,-33.3 -16.43,-116.59 -18.57,-159.3 -1.96,-38.99 -26.14,-52.87 -15.08,-100 23.03,-98.18 -38.29,-213.82 -38.29,-312.78l-2.32 -90.69zm2392.63 1510.41c-2.62,-10.51 -43.99,-52.79 -53.38,-62.79 -20.37,-21.72 -28.46,-55.26 -48.73,-75.58 -2.87,-12.94 -29.52,-76.17 -37.13,-84.88 -0.57,-4.58 -1.8,-6.81 -4.64,-10.46 -9.68,-87.35 -39.32,-162.17 -42.93,-254.64l-10.45 -267.44c-39.9,-119.72 -65.11,-219.19 -165.93,-305.8 -85.16,-73.17 -109.5,-194.84 -117.19,-299.99 -5.44,-74.45 -34.81,-151.94 -34.81,-223.25 5.26,-47.38 1.95,-95.67 6.96,-143.02 5.07,-47.83 21.41,-88.46 40.61,-131.39l116.04 -259.29c17.76,-39.7 35.07,-108 62.65,-139.53 1.38,-11.1 11.9,-25.57 17.41,-34.88 0,-37.18 8.92,-71.17 1.16,-109.3 -3.26,-15.99 -24.62,-82.21 -17.41,-93.02l0 -3.49c3.39,-3.95 5.43,-8.93 9.29,-12.79 9.47,-47.39 -46.08,-181.12 -80.07,-215.11 -13.71,-75.56 -152.63,-193.83 -206.54,-251.16 -77.94,-82.87 -161.98,-130.26 -268.04,-168.59 0,-12.53 -73.37,-35.63 -80.06,-55.82l-2.32 0c-4.52,18.16 -12.99,53.29 2.32,67.44 12.96,11.99 39.3,41.33 34.81,59.3l-40.61 0c-18.42,0 -46.13,-31.39 -55.7,-31.39 -8.84,-35.37 29.57,-65.11 22.05,-95.35 -24.69,4.93 -63.01,101.5 -83.55,122.09 -34.04,34.1 -93.36,122.74 -80.06,173.25 9.9,37.56 -46.3,24.42 -78.91,24.42 -46.7,0 -117.9,23.4 -157.8,6.98 -81.28,-33.44 -78.71,-67.59 -181.02,-43.02 -81.16,19.5 -233.99,60.47 -314.45,45.34 -90.75,0 -186.19,35.8 -278.49,40.7 -62.04,3.3 -83.63,-44.37 -119.51,-89.53 -38.77,-48.82 -182.61,-181.83 -244.83,-166.28 0,24.12 -8.08,54.19 -10.45,79.07 -2.39,24.98 0.58,74.92 -9.28,95.35 -15.5,62.03 -45.5,118.15 -60.34,177.9 -7.79,31.4 -35.94,124.35 -54.53,147.67 0,31.29 -17.3,71.47 -23.21,102.32 -6.8,35.44 -7.13,72.69 -13.93,108.13 -14.61,76.16 -33.83,161.44 -27.84,239.53 37.86,22.33 65.88,60 102.11,87.21 21.17,15.91 57.61,54.27 82.38,60.46 0.37,1.12 2.36,3.12 3.48,3.49 0,22.66 40.51,93.75 55.7,112.79 22.16,27.8 48.52,118.1 71.94,133.71 0,13.07 -21.59,16.39 -15.08,41.86 5.52,21.56 18.64,19.1 39.45,23.26 6.46,19.38 4.64,59.18 4.64,82.55 33.67,138.83 -12.81,297.12 29.01,433.71 15.39,50.26 -5.84,138.7 35.97,175.57 33.03,29.14 26.41,103.61 35.97,141.86 32.75,0 80.28,23.69 113.71,31.39l131.12 30.24c127.35,65.76 251.29,131.07 401.48,77.9 76.71,-27.16 157.74,-46.34 239.03,-59.3 71.38,-11.39 150.55,-56.98 220.47,-56.98 29.98,24.09 132.99,61.7 169.41,72.1 104.9,12.71 307.53,145.98 373.63,224.41 38.79,46.04 187.19,268.59 236.71,268.59l96.31 98.84c23.6,24.21 116.37,90.04 120.68,111.62 9.96,5.46 20.44,14.66 26.72,24.42 11.63,18.04 35.03,33.44 51.06,48.83 27.02,25.92 60.36,46.63 92.24,66.28 30.46,18.79 55.47,23.26 90.51,23.26 0.68,-0.92 0.58,-0.61 0.58,-1.75 -30.88,-23.16 -53.88,-52.19 -81.22,-79.65l-37.17 -38.37zm-2343.9 -3066.17c12.18,14.64 32.2,24.53 42.93,40.69 2.76,4.15 29,35.47 31.33,36.05 4.72,14.17 99.03,40.67 117.2,46.51 38.54,12.38 75.38,26.74 116.03,26.74 0.62,-1.87 1.26,-1.16 3.48,-1.16 5.33,-21.33 8.13,-47.47 8.13,-69.77 -13.49,-3.35 -30.85,-15.59 -45.26,-20.93 -35.66,-13.24 -78.09,-26.25 -114.87,-34.88 -33.03,-7.76 -74.14,-27.27 -106.75,-30.23l-52.22 6.98zm-5782.14 -864.01l-50.19 39.03c-36.7,13.26 -64.65,3.62 -92.4,28.49 -32.39,29.01 -24.18,40.56 -12.77,83.72l67.3 254.64c13.44,50.84 60.65,73.64 63.82,130.23 3.76,66.98 -54.19,118.2 42.94,149.99 30.46,9.97 47.82,40.62 59.17,66.28 14.61,33 -8.12,36.54 -8.12,68.6 14,4.66 19.57,1.17 34.81,1.17 32.86,6.21 58,-6.82 60.34,32.55 3.26,54.61 32.75,108.42 46.41,161.63 10.61,41.31 61.5,103.31 61.5,140.69 -42.04,-10.51 -89.76,-71.53 -123,-98.83 -39.59,-32.5 -78.73,-53.14 -125.31,-70.93 -45.59,-17.4 -40.66,9.26 -59.18,44.18 -14.39,27.12 -40.56,42.82 -55.7,68.6 -11.11,18.94 -0.7,43.06 -15.08,62.79 -34.81,47.79 -6.72,72.58 -26.69,117.44 -20.49,46.06 -26.69,41.47 -26.69,95.35 0,27.76 -13.9,34.47 -24.36,58.13 -13.86,31.32 16.77,65.8 -8.13,90.7 -31.79,31.79 -45.96,43.22 -40.61,86.04 11.98,5.81 33.99,19.99 37.13,32.56 6.32,1.58 30.46,39.45 53.38,46.51 55.1,16.96 63.44,71.46 118.35,88.37 89.37,27.51 161.59,114.74 248.32,132.55 24.83,5.09 7.12,58.14 40.61,77.91 16.23,9.59 83.79,-1.82 85.87,2.32 9.31,18.59 -32.28,128.04 -38.3,152.32 -10.78,43.41 -60.36,203.02 13.93,180.23 94.36,-28.94 188.48,-76.74 285.44,-76.74 41.23,26.51 71.82,38.37 121.84,38.37 38.5,0 70.89,-19.77 106.75,-19.77l1.16 2.33c3.19,0.79 3.52,3.53 5.8,5.81 0,51.39 4.48,110.82 -10.44,159.3 -14.14,45.91 -30.52,72.65 -38.29,120.92 -4.68,29.14 5.31,65.61 -4.64,93.02 -21.15,58.29 -24.25,82.1 -15.09,141.86 6.64,43.27 3.85,148.09 -15.08,186.04 10.99,48.2 -35.97,118.91 -35.97,170.92 17.55,14.1 40.84,-12.79 56.86,-12.79l1.16 1.17c0,67.63 -49.7,206.07 -22.05,261.62 29.2,3.65 73.64,-4.14 93.99,16.27 17.94,18.01 5.67,59.82 11.6,83.72 10.51,42.39 72.28,-6.32 85.87,24.42 13.31,30.08 13.92,96.44 13.92,130.23l5.8 63.95 162.45 6.98 653.28 549.98 453.69 613.93c23.01,30.34 24.26,86.02 70.78,101.16 81.61,26.58 69.29,35.16 91.67,106.97 15.6,50.03 58.02,70.67 58.02,137.21l1.16 1.16c67.41,16.85 82.04,-51.25 67.3,-97.67 -9.83,-30.93 -13.55,-66.53 -25.53,-95.35 -6.54,-15.72 -34.18,-47.86 -35.97,-60.46 -105.64,-30.18 -5.67,-191.2 12.76,-246.5 31.73,0 170.5,70.65 142.73,-19.77 -9.77,-31.81 -24.51,-67.54 -11.61,-101.16 4.13,-10.76 41.2,-65.11 47.58,-65.11 27.36,36.48 13.47,80.85 73.1,105.81 52.64,22.03 94.49,-37.63 129.96,-73.26l269.2 -282.54c74.09,-6.98 75.45,-74.8 112.55,-123.26 19.5,-25.48 36.35,-41.8 54.54,-73.25 10.05,-17.39 46.27,-61.22 49.89,-72.09 44.21,0 23.46,107.21 104.43,94.18 55.57,-8.95 11.03,-28.16 2.33,-72.09 -7.86,-39.64 13.53,-80.56 20.88,-117.44 22.88,-5.72 45.12,44.57 58.02,60.47 21.1,26.02 68.99,23.56 87.02,-3.49 4.64,0 5.83,0.89 9.29,3.49 0,52.84 37.95,87.95 71.94,122.09 65.92,45.54 86.86,113.74 121.84,183.71 28.97,16.55 47.76,49.59 83.54,67.44 25.92,12.94 71.49,46.3 75.42,77.91 25.3,31.63 24.27,112.09 30.17,152.32 9.24,63.03 10.45,112.05 37.13,172.08 8.89,6.37 58.78,89.04 60.34,100 7.43,15.9 15.09,33.32 15.09,51.16 -2.26,2.26 -6.45,7.82 -6.97,10.47 -38.69,22.11 -41.53,52.53 -61.49,87.2 -34.45,59.87 -77.3,111.99 -123,161.62 -56.03,60.87 10.25,165.29 16.24,245.35 2.55,34.06 -44.21,58.23 -64.98,79.06 -12.59,12.64 -10.01,31.77 -15.08,46.51 -6.59,19.19 -24.16,29.9 -35.97,47.68 -41.38,36.47 -140.4,206.66 -140.4,259.29 65.12,0 190.91,49.77 242.51,89.53 21.7,16.73 155.64,-132.02 175.21,-154.64 37.13,-42.89 86.6,-106.45 132.28,-139.54 18.24,-13.2 42.1,24.42 63.82,24.42 43.8,0 11.01,-74.4 97.47,-60.46 29.09,4.69 197.46,7.82 205.38,19.77l56.86 -6.98 139.24 -274.41 -113.71 -66.28 32.49 -47.67 276.16 110.46c47.11,18.83 96.81,19.83 143.88,41.86 34.42,16.12 14.65,67.83 58.02,73.25 8.17,11.47 28.75,42.21 40.61,48.84 30.56,17.07 80.27,-15.12 114.87,-15.12 22.04,0 39.62,70.22 46.42,88.37 31.6,43.36 90.37,54.95 136.92,19.77 41.21,-31.16 53.46,-23.23 44.09,25.58 -11.94,62.25 9.39,120.58 6.96,183.72l-5.8 149.99 2.32 1.16c4.44,13.42 104.66,-2.17 119.52,-5.81 26.89,-6.58 70.32,-10.25 77.74,-41.86 15.91,-67.83 58.8,-56.37 85.87,-111.62l31.33 -63.95c5.1,-10.41 24.75,-74.81 27.85,-75.58 7.92,-31.84 113.87,39.16 121.83,15.11 16.84,-50.9 56.86,-151.73 56.86,-202.32 2.13,-0.53 1.79,-0.19 2.32,-2.32 12.39,-21.87 18,-54.32 31.33,-72.09 48.17,0 96.47,49.57 141.56,54.65 21.31,2.4 107.43,-99.54 123,-120.93 24.86,-34.17 58.51,-77.44 90.51,-103.48 14.4,-11.73 30.44,13.42 44.09,22.09 20.27,12.86 80.16,-9.42 112.55,-2.33 25.28,5.54 97.16,-0.25 120.68,-6.97 8.91,-22.35 -23.47,-54.65 12.76,-54.65 56.68,0 47.85,-60.66 83.55,-89.54 21.48,-17.39 106.31,-93.02 127.64,-93.02 103.19,-66.69 10.99,-167.39 -68.46,-209.29 -58.06,-30.61 -227.06,-70.83 -257.6,-124.42 -39.78,-5.68 70.47,-110.83 82.38,-126.74 16.28,-21.77 107.87,-144.76 125.32,-136.04 11.61,46.66 28.95,70.65 74.26,90.7 29.4,13.02 148.05,40.85 162.45,58.13 54.26,0 60.7,-69.75 89.35,-105.81 35,-44.07 106.68,45.6 171.73,15.12 44.14,-20.69 35.55,-24.42 84.7,-24.42 30.95,0 69.15,-21.87 78.91,-51.16 35.49,-51.38 49.36,-84.73 -10.44,-116.27 -26.37,-13.9 -53.97,-28.85 -83.55,-34.89 -26.85,-5.49 -46.19,-34.26 -67.3,-39.53 -5.63,-22.55 67.3,-93.99 67.3,-131.39 -27.12,-13.56 -45.9,-73.09 -32.49,-100 12.27,-24.64 11.7,-67.96 27.85,-86.04 15.77,-17.67 33.81,0.42 47.57,-32.56 12.06,-28.88 -3.43,-60.97 39.45,-63.95 42.71,-2.96 61.46,-34.21 82.39,-70.93 2.23,-0.44 24.63,-35.39 26.37,-36.78l0 0 -91.35 -124.84c-38.67,-52.83 -115.13,-132.33 -171.73,-163.95 -31.97,-17.87 -110.34,-58.1 -131.12,-87.2 -64.52,-9.21 -124.13,-76.19 -196.1,-72.1l-225.11 12.8c-49.54,2.82 -99.19,21.33 -148.52,25.58 -27.25,0 -85.44,32.2 -119.52,38.37 -45.93,8.31 -93.11,13.95 -140.4,13.95 -19.58,0 -162.82,1.27 -168.25,-15.12 -2.46,0 -6.3,0.84 -6.96,-1.16 -2.22,0 -2.86,0.71 -3.48,-1.16 -2.22,0 -2.86,0.71 -3.48,-1.16 -2.3,0 -4,0.78 -4.64,-1.17 -2.35,0 -1.74,0.62 -2.33,-1.16 -4.43,0 -25.77,-5.4 -26.68,-8.14 -3.48,0 -4.65,-2.32 -8.13,-2.32 -10.48,-21.05 -181.62,-46.68 -206.54,-38.38 -0.59,-1.78 0.03,-1.16 -2.32,-1.16 -1,-3.01 -5.74,-4.41 -6.96,-9.3 -41.95,-10.48 -104.71,-45.4 -153.17,-62.79l-155.48 -55.81 -1.16 -2.33 -99.79 202.32 -17.41 -2.32 27.85 -237.2 -73.1 -45.35 -82.39 245.34 -31.33 -10.47 66.14 -252.31 -98.63 -82.56 -102.11 293.01 -45.25 -2.32 97.47 -329.06 -100.95 -88.37 -149.69 346.5 -51.05 -2.32 133.44 -351.16c0,-7.4 0.82,-15.91 0,-23.25 -0.54,-4.92 -3.01,-11.57 -3.48,-16.28 -0.85,-8.55 -8.77,-33.76 -17.41,-37.21 -0.42,-2.98 -8.02,-10.3 -10.44,-13.95 -3.69,-5.54 -6.89,-11.67 -10.44,-17.44 -5.26,-8.53 -5.39,-7.62 -8.13,-19.77 -35.44,-59.07 -79.18,-130.42 -103.27,-198.83 -26.56,-75.4 -77.87,-137.41 -106.75,-208.13 -16,-39.21 -40.6,-90.27 -64.98,-125.58 -21.41,-31.03 -103.28,-96.51 -109.07,-125.58 -44.05,-11.01 -88.65,10.47 -138.08,10.47l1.16 -112.79c-12.86,-102.88 -10.44,-197.16 -10.44,-301.15 0,-26.53 -16.25,-43.79 -16.25,-69.77 0,-49.4 14.23,-51.82 -8.12,-102.32 -15.19,-34.35 0.42,-87.01 -19.73,-115.11 -7.09,-9.9 -32.85,-29.37 -34.81,-37.21 -14.17,3.54 -67.19,135.16 -89.34,140.69 -2.23,-6.71 -30.6,-25.98 -38.3,-27.9 5.64,-16.94 23.31,-28.63 33.65,-44.19 12.67,-19.08 27.05,-49.31 34.81,-69.76 16.09,-42.35 44.5,-81.6 66.14,-122.09 25.35,-18.1 35.97,-57.7 35.97,-87.21 0,-23.75 -4.07,-50.05 -5.8,-73.25 -0.98,-13.08 -8.12,-28.21 -8.12,-40.7 -1.12,-0.37 -3.11,-2.36 -3.48,-3.48 -39.13,0 -91.3,-19.26 -131.12,-9.31 -7.73,31.06 -56.08,71.46 -76.58,96.51 -2.52,3.07 -22.14,24.16 -24.37,17.44l-2.32 0 -1.16 -1.16 -1.16 -1.16c-4.11,-16.46 -15.33,-34.07 -24.37,-48.84 -10.28,-16.78 8.54,-23.29 18.57,-37.21 30.73,-42.69 27.48,-79.35 -10.45,-112.78 -19.1,-19.18 -35.1,-51.6 -60.33,-62.79 -21.4,-9.48 -42.23,-34.44 -62.66,-46.51 -13.07,-7.71 -40.57,-17.96 -47.58,-30.23 -12.65,-1.8 -109.84,-54.26 -116.03,-65.12 -18.29,-2.61 -43.69,-37.11 -62.66,-45.34 -50.85,-29.18 -97.53,-56.37 -141.56,-94.19 -36.2,-31.11 -82.28,-62.25 -121.84,-89.53 -13.14,-9.07 -62.81,-40.09 -66.14,-53.49 -6.51,0 -1.59,0.33 -11.6,-9.3l-416.57 -13.95 -2.32 -55.81 399.16 17.44c0,-70.03 -25.12,-117.41 -100.95,-127.9l-285.44 -39.54c-49.83,-6.89 -145.45,-28.52 -192.62,-17.44 -11.58,2.72 -77.74,6.67 -77.74,15.12 19.5,4.87 42.07,25.11 69.62,30.23 22.38,4.15 54.02,1.1 74.26,8.14 40.16,13.98 24.32,103.48 -32.49,103.48 0,25.65 126.14,101.99 147.36,123.25 40.72,40.82 104.14,108.98 161.29,123.26 15.34,61.38 37.99,160.12 -6.96,217.43 0,50.87 26.6,167.29 63.82,204.64 35.43,35.54 87.83,47.76 126.48,83.72 28.39,26.4 57.55,40.94 89.34,60.47 15.79,9.71 20.02,6.92 2.32,26.74 -6.68,7.47 -26.87,48.31 -33.65,50 -0.65,3.9 -4.77,7.49 -5.8,11.63 -2.78,0 -3.89,0.7 -4.64,-2.33 -1.93,-0.48 -4.18,-2.09 -4.64,-3.49 -1.94,-0.48 -2.97,-0.78 -3.48,-2.32 -2.37,-0.59 -6.41,-2.43 -6.96,-4.65 -16.81,-4.2 -65.71,-60.01 -83.55,-73.26 -11.69,-8.69 -83.63,-46.87 -84.7,-51.16l-6.97 0c-2.71,8.13 -35.22,41.8 -44.09,48.84 -22.33,17.75 -36.86,-11.13 -55.7,5.81 -7.74,30.96 -235.53,39.67 -279.64,33.72l-292.41 -39.53c-81.3,-10.98 -128.66,27.26 -191.46,61.62 -34.4,18.81 -54.43,59.65 -89.34,70.93 -46.74,0 -100.82,22.35 -152.01,25.58l-128.8 8.14c-93.04,5.88 -174.98,25.91 -269.2,2.33 -46.93,-11.75 -85.57,-38.75 -129.96,-52.33 -30.9,-9.46 -152.7,-107.65 -162.44,-132.55 -12.83,-32.76 -15.76,-73.6 -26.69,-109.3 -14.57,-47.6 -48.45,-96.27 -66.14,-146.51 -22.19,-62.99 16.4,-77.79 23.21,-138.37 0.48,-4.31 43.04,5.82 53.37,5.82 0,63.37 43.15,146.65 60.34,209.29 19.19,69.96 30.83,141.16 66.14,204.65 43.78,78.69 271.18,158.24 352.74,115.11 61.99,-32.79 183.8,27.03 226.27,-26.74 57.51,19.17 109.71,-30.18 158.97,-37.21 3.92,-5.5 31.54,-23.46 38.29,-24.42 17.6,-24.64 148.4,-55.86 181.02,-63.95 55.99,-13.9 135.13,-13.75 185.65,13.95 74.37,40.76 305.15,40.95 389.88,19.77 0.52,-2.1 1.8,-2.55 2.32,-4.65 7.9,-1.97 5.98,-65.06 6.96,-75.58 0,-86.57 -2.32,-160.59 9.28,-241.85 5.65,-1.41 5.82,-12.81 10.45,-13.96 0,-26.17 -12.77,-46.97 -12.77,-79.06 0,-25.97 10.88,-84.63 -2.32,-105.81 -34.06,-54.6 -101.11,-99.73 -156.65,-131.39 -4.65,-32.65 -76.74,-108.18 -109.07,-112.79 -11.23,-19.7 -69.2,-68.62 -88.18,-86.04 -15.12,-45.63 -67.13,-61.87 -95.15,-96.51 -34.8,-43 -75.93,-70.93 -133.44,-70.93 -60.29,0 104.47,222.27 114.87,252.32 27.58,79.62 -70.17,-65.34 -81.22,-80.23 -22.15,-29.88 -128.23,-186.09 -148.53,-188.37 -43.09,-4.86 -97.45,-12.4 -139.24,-27.91 -66.04,-24.52 -135.32,-29.82 -200.74,-49.99 -42.31,-13.05 -30.36,-6.45 -11.6,33.72 9.61,20.56 30.17,50.82 30.17,72.09 0,35.95 -5.54,138.36 54.53,138.36 -37.19,28.05 -90.5,-48.64 -90.5,-80.23 0,-64.67 -4.25,-105.73 -51.06,-158.13 -31.76,-35.57 -78.08,-36.07 -121.84,-47.67l-245.99 -62.79c-127.17,-32.45 -270.59,-86.04 -401.48,-86.04 -30.13,30.13 -74.13,93.39 -104.43,115.11 -0.88,6.18 -2.82,4.66 -10.44,10.46 -18.61,4.65 -61.67,72.69 -77.75,90.7 -20.86,23.35 -24.36,49.37 -24.36,80.23 0,74.58 63.25,77.86 114.87,115.11 22.91,16.54 80.62,63.6 93.99,83.72 49.77,6.22 115,98.88 150.84,134.88 0,49.24 -25.88,69.78 -69.62,96.51 -20.93,12.78 -98.91,63.87 -111.39,81.39 -30.84,4.4 -52.84,39.53 -89.35,39.53 -122.68,-70.1 -268.19,-63.38 -391.03,-146.51 -66.62,-45.09 -175.3,-132.8 -251.8,-153.48 -25.63,-6.93 -126.98,-49.34 -141.56,-69.76 -31.51,-3.5 -122.06,-66.88 -157.81,-83.72 -95.36,-47.68 -186.27,-127.73 -269.33,-205.89l0 0z"/>
  <path class="fil1 str1" d="M18247.14 18176.66l2259.92 0 0 1592.9 -2259.92 0 0 -1592.9z"/>
  <path class="fil2" d="M20685.79 19676.66c0,-17.45 4.47,-34.48 13.46,-51.13 8.93,-16.61 21.77,-29.59 38.43,-38.86 16.69,-9.26 34.1,-13.92 52.16,-13.92 17.92,0 35.18,4.56 51.69,13.74 16.56,9.12 29.4,21.92 38.53,38.43 9.17,16.51 13.73,33.77 13.73,51.74 0,18.01 -4.56,35.27 -13.73,51.78 -9.13,16.51 -21.97,29.35 -38.53,38.53 -16.51,9.17 -33.77,13.78 -51.69,13.78 -18.06,0 -35.47,-4.66 -52.16,-13.97 -16.66,-9.36 -29.5,-22.34 -38.43,-38.95 -8.99,-16.65 -13.46,-33.68 -13.46,-51.17zm17.22 0c0,14.62 3.76,28.88 11.24,42.7 7.48,13.83 18.2,24.65 32.13,32.46 13.92,7.81 28.41,11.71 43.46,11.71 15,0 29.35,-3.85 43.08,-11.52 13.74,-7.67 24.46,-18.39 32.13,-32.17 7.67,-13.79 11.52,-28.18 11.52,-43.18 0,-14.96 -3.85,-29.36 -11.52,-43.14 -7.67,-13.78 -18.39,-24.5 -32.13,-32.12 -13.73,-7.62 -28.08,-11.43 -43.08,-11.43 -15.05,0 -29.54,3.9 -43.46,11.66 -13.93,7.76 -24.65,18.58 -32.13,32.46 -7.48,13.87 -11.24,28.08 -11.24,42.57zm103.57 -33.35l5.08 -16.94c11.53,2.78 20.7,8.61 27.52,17.55 6.87,8.98 10.3,19.85 10.3,32.59 0,16.19 -5.22,29.31 -15.71,39.42 -10.49,10.11 -24.98,15.15 -43.55,15.15 -12.14,0 -22.68,-2.31 -31.61,-6.92 -8.99,-4.56 -15.71,-11.15 -20.28,-19.61 -4.56,-8.52 -6.82,-18.25 -6.82,-29.16 0,-12.23 2.92,-22.39 8.8,-30.48 5.88,-8.09 13.88,-13.6 23.94,-16.56l4.23 16.37c-6.91,2.77 -12.23,6.82 -15.89,12.23 -3.72,5.41 -5.55,11.71 -5.55,19 0,10.58 3.76,19.33 11.28,26.2 7.53,6.87 18.35,10.3 32.37,10.3 14.06,0 24.69,-3.24 31.89,-9.74 7.19,-6.49 10.81,-14.86 10.81,-25.16 0,-8.28 -2.39,-15.57 -7.24,-21.83 -4.8,-6.25 -11.33,-10.39 -19.57,-12.41z"/>
  <path id="1" class="fil2" d="M20891.25 19381.5l-18.58 0c14.44,9.27 21.68,22.91 21.68,40.92 0,11.67 -3.19,22.39 -9.64,32.13 -6.4,9.78 -15.38,17.35 -26.86,22.76 -11.52,5.37 -24.74,8.05 -39.69,8.05 -14.59,0 -27.8,-2.45 -39.7,-7.29 -11.86,-4.9 -20.98,-12.19 -27.29,-21.92 -6.35,-9.69 -9.5,-20.61 -9.5,-32.6 0,-8.84 1.88,-16.7 5.6,-23.56 3.72,-6.87 8.61,-12.47 14.58,-16.8l-72.67 0 0 -24.83 202.07 0 0 23.14zm-73.05 78.46c18.72,0 32.69,-3.95 41.96,-11.9 9.26,-7.91 13.87,-17.27 13.87,-28.04 0,-10.86 -4.42,-20.08 -13.26,-27.7 -8.84,-7.57 -22.34,-11.38 -40.5,-11.38 -19.94,0 -34.62,3.85 -43.98,11.61 -9.36,7.72 -14.01,17.27 -14.01,28.6 0,11.06 4.46,20.27 13.45,27.71 8.98,7.38 23.14,11.1 42.47,11.1z"/>
  <path id="2" class="fil2" d="M20830.57 19328.96l-24.83 0 0 -76.76 24.83 0 0 76.76z"/>
  <path id="3" class="fil2" d="M20891.25 19225.1l-146.47 0 0 -22.29 20.69 0c-7.15,-4.56 -12.93,-10.68 -17.26,-18.3 -4.37,-7.62 -6.54,-16.27 -6.54,-26.01 0,-10.82 2.26,-19.71 6.73,-26.62 4.52,-6.92 10.77,-11.81 18.86,-14.63 -17.07,-11.67 -25.59,-26.77 -25.59,-45.39 0,-14.58 4,-25.83 12.04,-33.63 8.05,-7.86 20.42,-11.81 37.12,-11.81l100.42 0 0 24.84 -92.19 0c-9.88,0 -17.03,0.84 -21.4,2.44 -4.38,1.6 -7.86,4.52 -10.54,8.8 -2.68,4.23 -4,9.22 -4,14.91 0,10.35 3.44,18.91 10.26,25.73 6.86,6.82 17.82,10.2 32.87,10.2l85 0 0 24.84 -95.06 0c-11.01,0 -19.29,2.02 -24.79,6.07 -5.5,4.04 -8.28,10.67 -8.28,19.85 0,6.96 1.84,13.4 5.51,19.33 3.66,5.93 9.03,10.21 16.13,12.89 7.05,2.63 17.26,3.95 30.57,3.95l75.92 0 0 24.83z"/>
  <path id="4" class="fil2" d="M20872.91 18894.34c7.85,9.22 13.35,18.11 16.6,26.62 3.25,8.52 4.84,17.64 4.84,27.43 0,16.08 -3.9,28.45 -11.75,37.11 -7.81,8.65 -17.83,12.98 -30.01,12.98 -7.15,0 -13.69,-1.65 -19.62,-4.89 -5.93,-3.29 -10.63,-7.57 -14.2,-12.84 -3.58,-5.32 -6.31,-11.24 -8.14,-17.88 -1.27,-4.89 -2.49,-12.27 -3.72,-22.1 -2.35,-20.04 -5.22,-34.86 -8.51,-44.31 -3.39,-0.1 -5.55,-0.14 -6.44,-0.14 -10.07,0 -17.17,2.35 -21.31,7.05 -5.6,6.35 -8.37,15.81 -8.37,28.32 0,11.71 2.07,20.36 6.16,25.92 4.09,5.59 11.38,9.68 21.78,12.37l-3.39 24.27c-10.4,-2.21 -18.82,-5.84 -25.21,-10.92 -6.4,-5.08 -11.29,-12.41 -14.77,-22.01 -3.44,-9.55 -5.18,-20.7 -5.18,-33.3 0,-12.51 1.46,-22.72 4.42,-30.57 2.97,-7.81 6.64,-13.6 11.11,-17.27 4.46,-3.67 10.11,-6.25 16.93,-7.76 4.23,-0.8 11.85,-1.22 22.81,-1.22l32.93 0c23,0 37.53,-0.52 43.69,-1.55 6.17,-0.99 12.05,-3.06 17.69,-6.07l0 25.96c-5.22,2.5 -11.34,4.1 -18.34,4.8zm-55.04 1.98c3.67,9.03 6.78,22.57 9.32,40.64 1.45,10.25 3.1,17.49 4.93,21.73 1.84,4.23 4.52,7.48 8,9.78 3.53,2.31 7.43,3.48 11.76,3.48 6.54,0 12.04,-2.49 16.42,-7.52 4.37,-5.04 6.58,-12.38 6.58,-22.02 0,-9.55 -2.07,-18.06 -6.25,-25.54 -4.14,-7.43 -9.84,-12.93 -17.03,-16.41 -5.6,-2.69 -13.83,-4 -24.7,-4l-9.03 -0.14z"/>
  <path id="5" class="fil2" d="M20947.41 18833.05l-202.63 0 0 -22.57 19.24 0c-7.44,-5.32 -13.03,-11.34 -16.75,-18.07 -3.72,-6.68 -5.6,-14.81 -5.6,-24.36 0,-12.51 3.2,-23.52 9.65,-33.07 6.39,-9.55 15.47,-16.74 27.14,-21.63 11.71,-4.85 24.5,-7.3 38.47,-7.3 14.91,0 28.37,2.69 40.36,8.05 11.95,5.36 21.12,13.17 27.52,23.42 6.35,10.21 9.54,20.98 9.54,32.27 0,8.28 -1.74,15.71 -5.22,22.25 -3.48,6.58 -7.85,11.94 -13.17,16.18l71.45 0 0 24.83zm-128.5 -22.57c18.77,0 32.69,-3.81 41.67,-11.39 8.99,-7.62 13.45,-16.84 13.45,-27.65 0,-11.01 -4.65,-20.42 -13.97,-28.23 -9.31,-7.85 -23.7,-11.76 -43.22,-11.76 -18.63,0 -32.55,3.81 -41.82,11.48 -9.26,7.67 -13.87,16.79 -13.87,27.42 0,10.54 4.94,19.85 14.77,27.94 9.87,8.14 24.17,12.19 42.99,12.19z"/>
  <path id="6" class="fil2" d="M20847.51 18685.97l-3.96 -24.55c9.84,-1.37 17.36,-5.22 22.63,-11.53 5.22,-6.3 7.85,-15.14 7.85,-26.43 0,-11.43 -2.3,-19.9 -6.96,-25.45 -4.61,-5.5 -10.06,-8.28 -16.32,-8.28 -5.6,0 -10.02,2.5 -13.22,7.44 -2.21,3.48 -4.98,11.94 -8.42,25.4 -4.56,18.15 -8.51,30.71 -11.85,37.77 -3.39,7 -7.99,12.32 -13.92,15.94 -5.88,3.62 -12.42,5.46 -19.57,5.46 -6.54,0 -12.56,-1.51 -18.11,-4.47 -5.55,-3.01 -10.16,-7.06 -13.83,-12.18 -2.82,-3.86 -5.22,-9.13 -7.19,-15.76 -1.98,-6.68 -2.97,-13.78 -2.97,-21.4 0,-11.48 1.65,-21.54 4.99,-30.2 3.29,-8.7 7.81,-15.1 13.45,-19.24 5.69,-4.09 13.27,-6.96 22.77,-8.51l3.38 24.27c-7.62,1.08 -13.59,4.28 -17.87,9.55 -4.28,5.27 -6.4,12.7 -6.4,22.34 0,11.34 1.88,19.47 5.65,24.32 3.76,4.84 8.18,7.29 13.21,7.29 3.2,0 6.12,-0.99 8.71,-3.01 2.63,-2.02 4.84,-5.18 6.58,-9.5 0.94,-2.5 3.06,-9.74 6.35,-21.87 4.66,-17.5 8.52,-29.73 11.48,-36.69 2.96,-6.96 7.34,-12.42 12.98,-16.37 5.69,-4 12.75,-5.98 21.21,-5.98 8.24,0 16,2.4 23.29,7.25 7.29,4.84 12.93,11.8 16.93,20.88 4,9.13 5.97,19.43 5.97,30.91 0,19 -3.95,33.53 -11.8,43.5 -7.9,9.98 -19.57,16.33 -35.04,19.1z"/>
  <path id="7" class="fil2" d="M20891.25 18527.93l-28.22 0 0 -28.22 28.22 0 0 28.22z"/>
  <path id="8" class="fil2" d="M20837.63 18360.9l3.38 -24.27c16.7,2.68 29.73,9.45 39.19,20.41 9.45,10.96 14.15,24.46 14.15,40.41 0,19.99 -6.53,36.08 -19.61,48.21 -13.08,12.18 -31.8,18.25 -56.16,18.25 -15.81,0 -29.59,-2.63 -41.39,-7.85 -11.86,-5.22 -20.75,-13.17 -26.63,-23.9 -5.92,-10.68 -8.89,-22.29 -8.89,-34.9 0,-15.85 4,-28.88 12.04,-38.95 8.05,-10.11 19.48,-16.6 34.25,-19.42l3.67 23.99c-9.83,2.3 -17.22,6.35 -22.2,12.23 -4.94,5.83 -7.44,12.88 -7.44,21.16 0,12.51 4.47,22.67 13.41,30.53 8.98,7.81 23.09,11.71 42.47,11.71 19.66,0 33.92,-3.76 42.81,-11.29 8.89,-7.57 13.35,-17.4 13.35,-29.49 0,-9.78 -2.96,-17.92 -8.93,-24.41 -5.93,-6.54 -15.1,-10.68 -27.47,-12.42z"/>
  <path id="9" class="fil2" d="M20818.01 18324.78c-27.04,0 -47.08,-7.53 -60.11,-22.63 -10.82,-12.56 -16.23,-27.94 -16.23,-46.05 0,-20.08 6.59,-36.54 19.76,-49.34 13.12,-12.75 31.33,-19.14 54.51,-19.14 18.82,0 33.59,2.82 44.36,8.46 10.77,5.65 19.14,13.88 25.12,24.7 5.97,10.77 8.93,22.58 8.93,35.32 0,20.51 -6.53,37.07 -19.66,49.72 -13.12,12.65 -32.03,18.96 -56.68,18.96zm0.05 -25.4c18.72,0 32.74,-4.1 42,-12.28 9.32,-8.23 13.97,-18.53 13.97,-31 0,-12.32 -4.65,-22.57 -14.01,-30.81 -9.36,-8.18 -23.61,-12.27 -42.76,-12.27 -18.06,0 -31.75,4.14 -41.01,12.37 -9.32,8.23 -13.97,18.48 -13.97,30.71 0,12.47 4.61,22.77 13.87,31 9.27,8.18 23.24,12.28 41.91,12.28z"/>
  <path id="10" class="fil2" d="M20891.25 18158.5l-146.47 0 0 -22.29 20.69 0c-7.15,-4.56 -12.93,-10.68 -17.26,-18.3 -4.37,-7.62 -6.54,-16.27 -6.54,-26.01 0,-10.82 2.26,-19.71 6.73,-26.62 4.52,-6.92 10.77,-11.81 18.86,-14.63 -17.07,-11.67 -25.59,-26.77 -25.59,-45.39 0,-14.58 4,-25.83 12.04,-33.63 8.05,-7.86 20.42,-11.81 37.12,-11.81l100.42 0 0 24.84 -92.19 0c-9.88,0 -17.03,0.84 -21.4,2.44 -4.38,1.6 -7.86,4.52 -10.54,8.8 -2.68,4.23 -4,9.22 -4,14.91 0,10.35 3.44,18.91 10.26,25.73 6.86,6.82 17.82,10.2 32.87,10.2l85 0 0 24.84 -95.06 0c-11.01,0 -19.29,2.02 -24.79,6.07 -5.5,4.04 -8.28,10.67 -8.28,19.85 0,6.96 1.84,13.4 5.51,19.33 3.66,5.93 9.03,10.21 16.13,12.89 7.05,2.63 17.26,3.95 30.57,3.95l75.92 0 0 24.83z"/>
  <g id="_2483029754864">
   <path class="fil3" d="M19168.02 18347.16l-13.47 29.28 -70.55 0 -15.47 31.28c30.81,4.52 55.04,15.81 72.79,33.98 15.23,15.64 22.82,33.99 22.82,55.15 0,12.29 -2.47,23.7 -7.47,34.11 -5,10.46 -11.29,19.4 -18.87,26.75 -7.53,7.35 -16,13.29 -25.29,17.75 -13.17,6.3 -26.69,9.47 -40.57,9.47 -13.99,0 -24.16,-2.35 -30.57,-7.11 -6.35,-4.71 -9.53,-9.94 -9.53,-15.64 0,-3.18 1.3,-6 3.94,-8.47 2.65,-2.47 6,-3.65 10,-3.65 2.94,0 5.58,0.42 7.82,1.36 2.23,0.88 6,3.23 11.4,6.99 8.59,5.94 17.35,8.88 26.17,8.88 13.4,0 25.22,-5.11 35.39,-15.29 10.12,-10.17 15.23,-22.57 15.23,-37.21 0,-14.12 -4.52,-27.34 -13.58,-39.57 -9.11,-12.29 -21.58,-21.76 -37.57,-28.4 -12.46,-5.18 -29.52,-8.18 -51.09,-9l44.8 -90.66 83.67 0z"/>
   <path id="1" class="fil3" d="M19337.36 18335.87l0 157.16 39.98 -36.63c8.52,-7.82 13.46,-12.76 14.81,-14.82 0.95,-1.41 1.42,-2.76 1.42,-4.17 0,-2.29 -1,-4.23 -2.89,-5.94 -1.88,-1.65 -4.99,-2.59 -9.4,-2.82l0 -5.65 68.61 0 0 5.65c-9.35,0.23 -17.17,1.7 -23.4,4.35 -6.23,2.7 -13.05,7.47 -20.52,14.29l-40.63 37.22 40.34 51.33c11.29,14.05 18.81,23.04 22.58,26.98 5.58,5.24 10.4,8.65 14.58,10.17 2.94,1.12 7.99,1.71 15.17,1.71l0 6.35 -76.73 0 0 -6.35c4.41,-0.12 7.35,-0.76 8.88,-1.94 1.58,-1.24 2.35,-2.88 2.35,-5.06 0,-2.64 -2.3,-6.88 -6.88,-12.7l-48.27 -61.79 0 52.21c0,10.23 0.7,16.93 2.11,20.17 1.47,3.17 3.47,5.46 6.12,6.88 2.64,1.35 8.35,2.11 17.17,2.23l0 6.35 -80.08 0 0 -6.35c7.99,0 14.05,-1 18.05,-2.94 2.41,-1.23 4.23,-3.17 5.46,-5.76 1.71,-3.76 2.59,-10.29 2.59,-19.52l0 -143.94c0,-18.05 -0.41,-29.1 -1.18,-33.16 -0.82,-4.05 -2.11,-6.82 -3.99,-8.35 -1.83,-1.58 -4.24,-2.35 -7.18,-2.35 -2.41,0 -6.05,1 -10.82,2.94l-2.93 -6.35 46.74 -19.4 7.94 0z"/>
   <path id="2" class="fil3" d="M19514.1 18452.17c11.41,-11.53 18.17,-18.17 20.22,-19.93 5.12,-4.36 10.65,-7.77 16.59,-10.18 5.93,-2.41 11.81,-3.64 17.63,-3.64 9.88,0 18.29,2.88 25.4,8.64 7.06,5.76 11.82,14.11 14.17,25.11 11.88,-13.88 21.88,-22.93 30.05,-27.28 8.17,-4.3 16.58,-6.47 25.22,-6.47 8.35,0 15.82,2.17 22.35,6.47 6.46,4.29 11.64,11.34 15.4,21.16 2.53,6.65 3.82,17.11 3.82,31.4l0 67.97c0,9.82 0.71,16.58 2.18,20.23 1.12,2.46 3.23,4.64 6.23,6.4 3.06,1.77 8,2.65 14.88,2.65l0 6.35 -77.26 0 0 -6.35 3.29 0c6.7,0 11.99,-1.29 15.76,-3.94 2.64,-1.82 4.52,-4.76 5.64,-8.76 0.47,-1.94 0.71,-7.47 0.71,-16.58l0 -67.91c0,-12.88 -1.53,-21.93 -4.65,-27.22 -4.52,-7.35 -11.7,-11.06 -21.63,-11.06 -6.06,0 -12.23,1.53 -18.41,4.59 -6.11,3 -13.58,8.7 -22.34,16.93l-0.35 1.94 0.7 7.41 0 75.32c0,10.7 0.59,17.4 1.77,20.05 1.23,2.59 3.46,4.82 6.76,6.58 3.29,1.77 8.93,2.65 16.87,2.65l0 6.35 -79.37 0 0 -6.35c8.64,0 14.58,-1 17.81,-3.06 3.24,-2.06 5.47,-5.17 6.7,-9.29 0.59,-1.94 0.89,-7.58 0.89,-16.93l0 -67.91c0,-12.88 -1.88,-22.17 -5.65,-27.87 -5.05,-7.41 -12.05,-11.11 -21.11,-11.11 -6.17,0 -12.28,1.7 -18.34,5.05 -9.47,5.06 -16.82,10.82 -21.93,17.17l0 84.67c0,10.29 0.7,16.93 2.12,20.05 1.41,3.06 3.52,5.35 6.35,6.94 2.76,1.53 8.4,2.29 16.93,2.29l0 6.35 -77.97 0 0 -6.35c7.24,0 12.29,-0.76 15.17,-2.29 2.89,-1.59 5.06,-4 6.59,-7.41 1.47,-3.35 2.23,-9.88 2.23,-19.58l0 -60.33c0,-17.28 -0.53,-28.45 -1.53,-33.51 -0.82,-3.82 -2.05,-6.41 -3.82,-7.82 -1.7,-1.47 -4.05,-2.18 -6.99,-2.18 -3.24,0 -7.06,0.89 -11.53,2.59l-2.58 -6.35 47.62 -19.4 7.41 0 0 33.75z"/>
   <path class="fil3" d="M19083.2 19361.84c6.64,-15.76 15.11,-27.93 25.28,-36.51 10.17,-8.59 22.87,-12.88 38.04,-12.88 18.76,0 33.11,6.06 43.1,18.23 7.59,9.05 11.41,18.75 11.41,29.1 0,16.99 -10.7,34.57 -32.11,52.68 14.41,5.65 25.29,13.64 32.7,24.11 7.35,10.41 11.05,22.7 11.05,36.81 0,20.22 -6.47,37.69 -19.34,52.5 -16.76,19.29 -41.1,28.93 -72.97,28.93 -15.76,0 -26.46,-1.94 -32.16,-5.88 -5.71,-3.88 -8.53,-8.11 -8.53,-12.58 0,-3.35 1.35,-6.23 4.06,-8.76 2.7,-2.53 5.94,-3.82 9.76,-3.82 2.88,0 5.82,0.47 8.82,1.41 1.94,0.59 6.35,2.7 13.29,6.35 6.88,3.64 11.7,5.82 14.34,6.52 4.24,1.3 8.82,1.94 13.64,1.94 11.76,0 21.93,-4.52 30.64,-13.64 8.7,-9.05 13.05,-19.81 13.05,-32.22 0,-9.05 -2,-17.93 -6.06,-26.51 -3,-6.47 -6.29,-11.35 -9.82,-14.65 -4.99,-4.58 -11.76,-8.76 -20.4,-12.52 -8.64,-3.7 -17.46,-5.58 -26.46,-5.58l-5.52 0 0 -5.3c9.11,-1.17 18.16,-4.41 27.34,-9.82 9.11,-5.4 15.75,-11.87 19.87,-19.46 4.17,-7.58 6.23,-15.87 6.23,-24.99 0,-11.81 -3.7,-21.34 -11.11,-28.63 -7.47,-7.29 -16.7,-10.94 -27.75,-10.94 -17.82,0 -32.69,9.65 -44.69,28.87l-5.7 -2.76z"/>
   <path id="1" class="fil3" d="M19388.36 19422.05c11.41,-11.53 18.17,-18.17 20.22,-19.93 5.12,-4.36 10.65,-7.77 16.59,-10.18 5.93,-2.41 11.81,-3.64 17.63,-3.64 9.88,0 18.29,2.88 25.4,8.64 7.06,5.76 11.82,14.11 14.17,25.11 11.88,-13.88 21.88,-22.93 30.05,-27.28 8.17,-4.3 16.58,-6.47 25.22,-6.47 8.35,0 15.82,2.17 22.35,6.47 6.46,4.29 11.64,11.34 15.4,21.16 2.53,6.65 3.82,17.11 3.82,31.4l0 67.97c0,9.82 0.71,16.58 2.18,20.23 1.12,2.46 3.23,4.64 6.23,6.4 3.06,1.77 8,2.65 14.88,2.65l0 6.35 -77.26 0 0 -6.35 3.29 0c6.7,0 11.99,-1.29 15.76,-3.94 2.64,-1.82 4.52,-4.76 5.64,-8.76 0.47,-1.94 0.71,-7.47 0.71,-16.58l0 -67.91c0,-12.88 -1.53,-21.93 -4.65,-27.22 -4.52,-7.35 -11.7,-11.06 -21.63,-11.06 -6.06,0 -12.23,1.53 -18.41,4.59 -6.11,3 -13.58,8.7 -22.34,16.93l-0.35 1.94 0.7 7.41 0 75.32c0,10.7 0.59,17.4 1.77,20.05 1.23,2.59 3.46,4.82 6.76,6.58 3.29,1.77 8.93,2.65 16.87,2.65l0 6.35 -79.37 0 0 -6.35c8.64,0 14.58,-1 17.81,-3.06 3.24,-2.06 5.47,-5.17 6.7,-9.29 0.59,-1.94 0.89,-7.58 0.89,-16.93l0 -67.91c0,-12.88 -1.88,-22.17 -5.65,-27.87 -5.05,-7.41 -12.05,-11.11 -21.11,-11.11 -6.17,0 -12.28,1.7 -18.34,5.05 -9.47,5.06 -16.82,10.82 -21.93,17.17l0 84.67c0,10.29 0.7,16.93 2.12,20.05 1.41,3.06 3.52,5.35 6.35,6.94 2.76,1.53 8.4,2.29 16.93,2.29l0 6.35 -77.97 0 0 -6.35c7.24,0 12.29,-0.76 15.17,-2.29 2.89,-1.59 5.06,-4 6.59,-7.41 1.47,-3.35 2.23,-9.88 2.23,-19.58l0 -60.33c0,-17.28 -0.53,-28.45 -1.53,-33.51 -0.82,-3.82 -2.05,-6.41 -3.82,-7.82 -1.7,-1.47 -4.05,-2.18 -6.99,-2.18 -3.24,0 -7.06,0.89 -11.53,2.59l-2.58 -6.35 47.62 -19.4 7.41 0 0 33.75z"/>
   <path id="2" class="fil3" d="M19656 19305.75c4.76,0 8.88,1.7 12.29,5.05 3.35,3.41 5.05,7.53 5.05,12.29 0,4.82 -1.7,9 -5.05,12.41 -3.41,3.47 -7.53,5.17 -12.29,5.17 -4.82,0 -9,-1.7 -12.41,-5.17 -3.47,-3.41 -5.17,-7.59 -5.17,-12.41 0,-4.76 1.7,-8.88 5.05,-12.29 3.41,-3.35 7.59,-5.05 12.53,-5.05zm14.17 82.55l0 127c0,9.82 0.7,16.34 2.17,19.58 1.41,3.29 3.53,5.7 6.35,7.29 2.82,1.59 8,2.41 15.47,2.41l0 6.35 -76.56 0 0 -6.35c7.65,0 12.82,-0.76 15.41,-2.23 2.64,-1.47 4.7,-3.94 6.29,-7.35 1.53,-3.41 2.29,-10 2.29,-19.7l0 -61.03c0,-16.99 -0.53,-27.99 -1.53,-33.05 -0.82,-3.64 -2.05,-6.17 -3.82,-7.58 -1.7,-1.47 -4.06,-2.18 -7,-2.18 -3.23,0 -7.11,0.89 -11.7,2.59l-2.41 -6.35 47.45 -19.4 7.59 0z"/>
   <g>
    <path class="fil4 str2" d="M18385.08 18778.16l400.47 0 0 99.16 -400.47 0 0 -99.16z"/>
    <path class="fil5 str2" d="M18785.55 18778.16l400.47 0 0 99.16 -400.47 0 0 -99.16z"/>
    <path class="fil4 str2" d="M19186.02 18778.16l400.47 0 0 99.16 -400.47 0 0 -99.16z"/>
    <path class="fil5 str2" d="M19586.58 18778.16l400.47 0 0 99.16 -400.47 0 0 -99.16z"/>
    <path class="fil4 str2" d="M19987.06 18778.16l400.47 0 0 99.16 -400.47 0 0 -99.16z"/>
    <path class="fil5 str2" d="M19667.5 19077.1l640.51 0 0 99.16 -640.51 0 0 -99.16z"/>
    <path class="fil4 str2" d="M19026.99 19077.1l640.51 0 0 99.16 -640.51 0 0 -99.16z"/>
    <path class="fil5 str2" d="M18386.48 19077.1l640.51 0 0 99.16 -640.51 0 0 -99.16z"/>
   </g>
  </g>
  <rect class="fil6 str3" x="1000" y="1000" width="20102.68" height="19000"/>
  <g id="_2483029751856">
   <path class="fil1 str1" d="M1313.15 18173.24l815.93 0 0 1592.89 -815.93 0 0 -1592.89z"/>
   <path class="fil7" d="M1661.25 18609.37c-0.92,3.32 -1.63,6.35 -2.07,9.15 -0.44,2.79 -0.65,5.18 -0.65,7.22 0,5.59 1.8,9.56 5.29,11.89 3.49,2.33 9.55,3.49 18.05,3.49l4.15 0 -4.96 22.72 -78.17 0 5.29 -22.72 2.89 0c7.36,0 12.82,-1.51 16.48,-4.54 3.6,-2.97 6.32,-8.39 8.12,-16.14l37.59 -153.79c0.6,-2.74 1.14,-5.54 1.52,-8.45 0.33,-2.91 0.55,-5.77 0.55,-8.62 0,-5.36 -1.96,-9.15 -5.95,-11.36 -3.92,-2.22 -10.69,-3.32 -20.23,-3.32l-3.06 0 5.29 -22.72 72.33 0 62.14 183.5 31.31 -129.03c1.08,-4.2 1.85,-7.63 2.34,-10.31 0.49,-2.68 0.71,-4.72 0.71,-6.06 0,-5.6 -1.8,-9.56 -5.35,-11.89 -3.6,-2.33 -9.71,-3.49 -18.32,-3.49l-4.15 0 4.96 -22.72 78.5 0 -5.62 22.72 -2.84 0c-7.37,0 -12.87,1.51 -16.47,4.54 -3.66,2.97 -6.33,8.33 -8.18,15.96l-50.68 208.44 -21.54 0 -72.06 -209.48 -37.21 155.01z"/>
   <path class="fil6 str4" d="M1721.94 19632.93l0 -769.27"/>
   <path class="fil6 str4" d="M1439.89 19356.88l563.14 0"/>
   <path class="fil6 str4" d="M1577.04 19496.87l294.22 -286.81"/>
   <path class="fil6 str4" d="M1573.9 19209.82l297.98 288.85"/>
   <path class="fil6 str4" d="M1721.8 18866.39l-95.47 118.01"/>
   <path class="fil6 str4" d="M1722.42 18866.35l87.89 118.05"/>
  </g>
  <g id="_2483029749008">
   <path class="fil1 str1" d="M5196.39 19292.43l0 473.7 -2309.37 0 0 -473.7 2309.37 0z"/>
   <path class="fil7" d="M3964.36 19630.9l0 -202.07 40.07 0 47.79 143.04c4.42,13.31 7.62,23.28 9.64,29.91 2.31,-7.33 5.93,-18.15 10.82,-32.4l48.64 -140.55 35.79 0 0 202.07 -25.68 0 0 -169.05 -58.98 169.05 -24.09 0 -58.32 -172.15 0 172.15 -25.68 0z"/>
   <path id="1" class="fil7" d="M4296.81 19583.49l25.68 3.38c-3.99,14.91 -11.47,26.53 -22.39,34.76 -10.91,8.24 -24.83,12.37 -41.81,12.37 -21.36,0 -38.29,-6.58 -50.8,-19.75 -12.51,-13.12 -18.77,-31.61 -18.77,-55.36 0,-24.56 6.31,-43.65 18.96,-57.2 12.65,-13.59 29.07,-20.37 49.25,-20.37 19.52,0 35.46,6.64 47.83,19.95 12.37,13.31 18.58,32.03 18.58,56.16 0,1.46 -0.05,3.67 -0.14,6.58l-109.08 0c0.94,16.04 5.46,28.37 13.64,36.88 8.14,8.51 18.35,12.79 30.53,12.79 9.08,0 16.84,-2.39 23.24,-7.19 6.44,-4.8 11.52,-12.47 15.28,-23zm-81.28 -39.8l81.56 0c-1.08,-12.32 -4.23,-21.54 -9.36,-27.7 -7.85,-9.55 -18.1,-14.35 -30.66,-14.35 -11.39,0 -20.93,3.81 -28.7,11.43 -7.71,7.62 -11.99,17.83 -12.84,30.62z"/>
   <path id="2" class="fil7" d="M4353.58 19630.9l0 -146.47 22.3 0 0 22.43c5.69,-10.39 10.96,-17.26 15.8,-20.55 4.85,-3.34 10.16,-4.99 15.95,-4.99 8.37,0 16.89,2.64 25.54,7.86l-8.84 22.91c-6.02,-3.39 -12.04,-5.08 -18.06,-5.08 -5.41,0 -10.26,1.64 -14.54,4.89 -4.28,3.24 -7.34,7.76 -9.17,13.54 -2.78,8.8 -4.14,18.44 -4.14,28.93l0 76.53 -24.84 0z"/>
   <path id="3" class="fil7" d="M4543.52 19577.28l24.27 3.38c-2.68,16.7 -9.45,29.73 -20.41,39.19 -10.96,9.45 -24.46,14.15 -40.41,14.15 -19.99,0 -36.08,-6.53 -48.21,-19.61 -12.18,-13.08 -18.25,-31.8 -18.25,-56.16 0,-15.81 2.63,-29.59 7.85,-41.44 5.22,-11.81 13.17,-20.7 23.9,-26.58 10.68,-5.92 22.29,-8.89 34.9,-8.89 15.85,0 28.88,4 38.95,12.04 10.11,8.05 16.6,19.48 19.42,34.25l-23.99 3.67c-2.3,-9.83 -6.35,-17.22 -12.23,-22.2 -5.83,-4.94 -12.88,-7.44 -21.16,-7.44 -12.51,0 -22.67,4.47 -30.53,13.41 -7.81,8.98 -11.71,23.09 -11.71,42.47 0,19.66 3.76,33.92 11.29,42.81 7.57,8.89 17.4,13.35 29.49,13.35 9.78,0 17.92,-2.96 24.41,-8.93 6.54,-5.93 10.68,-15.1 12.42,-27.47z"/>
   <path id="4" class="fil7" d="M4684.63 19612.56c-9.22,7.85 -18.11,13.35 -26.62,16.6 -8.52,3.25 -17.64,4.84 -27.43,4.84 -16.08,0 -28.45,-3.9 -37.11,-11.75 -8.65,-7.81 -12.98,-17.83 -12.98,-30.01 0,-7.15 1.65,-13.69 4.89,-19.62 3.29,-5.93 7.57,-10.63 12.84,-14.2 5.32,-3.58 11.24,-6.31 17.88,-8.14 4.89,-1.27 12.27,-2.49 22.1,-3.72 20.04,-2.35 34.86,-5.22 44.31,-8.51 0.1,-3.39 0.14,-5.55 0.14,-6.44 0,-10.07 -2.35,-17.17 -7.05,-21.31 -6.35,-5.6 -15.81,-8.37 -28.32,-8.37 -11.71,0 -20.36,2.07 -25.92,6.16 -5.59,4.09 -9.68,11.33 -12.37,21.78l-24.27 -3.39c2.21,-10.4 5.84,-18.82 10.92,-25.21 5.08,-6.4 12.41,-11.29 22.01,-14.77 9.55,-3.44 20.7,-5.18 33.3,-5.18 12.51,0 22.72,1.46 30.57,4.42 7.81,2.97 13.6,6.64 17.27,11.11 3.67,4.46 6.25,10.11 7.76,16.93 0.8,4.23 1.22,11.85 1.22,22.81l0 32.93c0,23 0.52,37.53 1.55,43.69 0.99,6.17 3.06,12.05 6.07,17.69l-25.96 0c-2.5,-5.22 -4.1,-11.34 -4.8,-18.34zm-1.98 -55.04c-9.03,3.67 -22.57,6.78 -40.64,9.32 -10.25,1.45 -17.49,3.1 -21.73,4.93 -4.23,1.84 -7.48,4.52 -9.78,8 -2.31,3.53 -3.48,7.43 -3.48,11.76 0,6.54 2.49,12.04 7.52,16.42 5.04,4.37 12.38,6.58 22.02,6.58 9.55,0 18.06,-2.07 25.54,-6.25 7.43,-4.14 12.93,-9.84 16.41,-17.03 2.69,-5.6 4,-13.83 4,-24.7l0.14 -9.03z"/>
   <path id="5" class="fil7" d="M4799.82 19608.75l3.39 21.91c-6.96,1.46 -13.22,2.22 -18.68,2.22 -8.98,0 -15.94,-1.42 -20.93,-4.28 -4.94,-2.87 -8.42,-6.59 -10.44,-11.25 -2.02,-4.65 -3.01,-14.44 -3.01,-29.35l0 -84.38 -18.34 0 0 -19.19 18.34 0 0 -36.22 24.84 -14.91 0 51.13 24.83 0 0 19.19 -24.83 0 0 85.79c0,7.11 0.42,11.67 1.31,13.69 0.85,2.02 2.26,3.62 4.24,4.85 1.97,1.17 4.79,1.78 8.46,1.78 2.73,0 6.35,-0.33 10.82,-0.98z"/>
   <path id="6" class="fil7" d="M4815.01 19557.66c0,-27.04 7.53,-47.08 22.63,-60.11 12.56,-10.82 27.94,-16.23 46.05,-16.23 20.08,0 36.54,6.59 49.34,19.76 12.75,13.12 19.14,31.33 19.14,54.51 0,18.82 -2.82,33.59 -8.46,44.36 -5.65,10.77 -13.88,19.14 -24.7,25.12 -10.77,5.97 -22.58,8.93 -35.32,8.93 -20.51,0 -37.07,-6.53 -49.72,-19.66 -12.65,-13.12 -18.96,-32.03 -18.96,-56.68zm25.4 0.05c0,18.72 4.1,32.74 12.28,42 8.23,9.32 18.53,13.97 31,13.97 12.32,0 22.57,-4.65 30.81,-14.01 8.18,-9.36 12.27,-23.61 12.27,-42.76 0,-18.06 -4.14,-31.75 -12.37,-41.01 -8.23,-9.32 -18.48,-13.97 -30.71,-13.97 -12.47,0 -22.77,4.61 -31,13.87 -8.18,9.27 -12.28,23.24 -12.28,41.91z"/>
   <path id="7" class="fil7" d="M4981 19630.9l0 -146.47 22.3 0 0 22.43c5.69,-10.39 10.96,-17.26 15.8,-20.55 4.85,-3.34 10.16,-4.99 15.95,-4.99 8.37,0 16.89,2.64 25.54,7.86l-8.84 22.91c-6.02,-3.39 -12.04,-5.08 -18.06,-5.08 -5.41,0 -10.26,1.64 -14.54,4.89 -4.28,3.24 -7.34,7.76 -9.17,13.54 -2.78,8.8 -4.14,18.44 -4.14,28.93l0 76.53 -24.84 0z"/>
   <circle class="fil8 str5" cx="3105.39" cy="19525.58" r="118.79"/>
   <rect class="fil8 str5" x="3563.32" y="19417.3" width="226.91" height="226.91"/>
   <path class="fil6 str6" d="M3279.29 19524.71l220.31 0"/>
   <path class="fil6 str6" d="M3496.94 19525.37l-64.02 65.38"/>
   <path class="fil6 str6" d="M3497.11 19524.23l-63.42 -61.39"/>
  </g>
 </g>
</svg>
